<?xml version="1.0" standalone="no"?>
<!DOCTYPE svg PUBLIC "-//W3C//DTD SVG 1.1//EN" "http://www.w3.org/Graphics/SVG/1.1/DTD/svg11.dtd" >
<svg xmlns="http://www.w3.org/2000/svg">
    <defs>
        <font id="PFAgoraSansPro-ThinItalic">
            <font-face font-family="PF Agora Sans Pro"
                       units-per-em="1000"
                       ascent="750"
                       descent="-250"
                       bbox="-242 -246 1760 913"
                    />
            <missing-glyph horiz-adv-x="0" />
            
            <glyph glyph-name="(" unicode="&#x28;" horiz-adv-x="269" d=" M101,157 Q101,92 108.5,40.5 Q116,-11 126,-50.5 Q136,-90 146.5,-117 Q157,-144 164,-160 L145,-172 Q137,-158 123,-129 Q109,-100 95.5,-56.5 Q82,-13 71.5,45 Q61,103 61,175 Q61,285 85,375 Q109,465 141,533 Q173,601 205,646.5 Q237,692 254,713 L269,701 Q254,681 226,635.5 Q198,590 170.5,520.5 Q143,451 122,359.5 Q101,268 101,157"/> 
            <glyph glyph-name=")" unicode="&#x29;" horiz-adv-x="211" d=" M171,395 Q171,456 163,506.5 Q155,557 144.5,595.5 Q134,634 122.5,660.5 Q111,687 104,701 L123,713 Q131,698 146,668.5 Q161,639 175.5,596.5 Q190,554 200.5,498.5 Q211,443 211,376 Q211,260 185,166 Q159,72 125,2.5 Q91,-67 59,-111.5 Q27,-156 14,-172 L-2,-160 Q11,-141 40,-95 Q69,-49 98,21 Q127,91 149,185 Q171,279 171,395"/> 
            <glyph glyph-name="*" unicode="&#x2A;" horiz-adv-x="346" d=" M335,612 Q346,590 342,563 L224,546 Q227,543 237,530 Q247,517 258,502 Q269,487 279,474 Q289,461 292,458 Q284,447 272.5,440 Q261,433 249,429 Q248,433 242,448.5 Q236,464 228.5,482 Q221,500 214.5,515.5 Q208,531 207,535 L142,428 Q130,433 120.5,440 Q111,447 106,458 Q109,461 122,474 Q135,487 150,502 Q165,517 178,530 Q191,543 195,546 L83,567 Q85,581 90,593 Q95,605 104,616 Q107,614 122,606.5 Q137,599 153.5,590 Q170,581 185,573.5 Q200,566 203,564 Q203,568 203,586 Q203,604 203,624 Q203,644 203,661.5 Q203,679 203,683 Q214,687 227.5,687.5 Q241,688 252,683 L222,564"/> 
            <glyph glyph-name="+" unicode="&#x2B;" horiz-adv-x="442" d=" M278,279 L257,110 L223,110 L243,279 L82,279 L86,314 L247,314 L267,477 L303,477 L283,314 L442,314 L438,279"/> 
            <glyph glyph-name="," unicode="&#x2C;" horiz-adv-x="83" d=" M50,66 Q65,66 74,56.5 Q83,47 83,29 Q83,15 77,-3 Q71,-21 61,-39 Q51,-57 36.5,-73.5 Q22,-90 6,-101 L-4,-87 Q14,-67 23.5,-45 Q33,-23 37,-3 Q26,-1 19,7 Q12,15 12,26 Q12,42 23,54 Q34,66 50,66"/> 
            <glyph glyph-name="-" unicode="&#x2D;" horiz-adv-x="283" d=" M53,235 L58,274 L283,274 L278,235"/> 
            <glyph glyph-name="." unicode="&#x2E;" horiz-adv-x="89" d=" M59,67 Q72,67 80.5,58 Q89,49 89,36 Q89,20 77,8 Q65,-4 51,-4 Q37,-4 29,5 Q21,14 21,27 Q21,43 32.5,55 Q44,67 59,67"/> 
            <glyph glyph-name="/" unicode="&#x2F;" horiz-adv-x="352" d=" M13,-26 L-20,-26 L320,698 L352,698"/> 
            <glyph glyph-name="0" unicode="&#x30;" horiz-adv-x="495" d=" M306,673 Q365,673 402,651 Q439,629 459.5,593 Q480,557 487.5,512.5 Q495,468 495,423 Q495,381 490,333.5 Q485,286 473.5,238 Q462,190 442.5,146 Q423,102 393.5,68 Q364,34 323.5,13.5 Q283,-7 230,-7 Q171,-7 134,12 Q97,31 75,63.5 Q53,96 44.5,138 Q36,180 36,227 Q36,254 38.5,297 Q41,340 50.5,389.5 Q60,439 77.5,489.5 Q95,540 125,581 Q155,622 199,647.5 Q243,673 306,673 M306,637 Q250,637 211,611 Q172,585 146.5,544.5 Q121,504 107,454.5 Q93,405 86.5,359.5 Q80,314 78.5,277 Q77,240 77,224 Q77,181 84,145 Q91,109 109,83 Q127,57 157.5,42.5 Q188,28 235,28 Q281,28 315,47.5 Q349,67 373.5,99 Q398,131 413.5,172 Q429,213 438,257 Q447,301 450.5,344 Q454,387 454,423 Q454,461 448.5,499.5 Q443,538 427,568.5 Q411,599 382,618 Q353,637 306,637"/> 
            <glyph glyph-name="1" unicode="&#x31;" horiz-adv-x="347" d=" M302,618 L145,592 L146,619 L307,662 L347,662 L266,0 L226,0"/> 
            <glyph glyph-name="2" unicode="&#x32;" horiz-adv-x="449" d=" M284,670 Q319,670 349,661.5 Q379,653 401.5,635 Q424,617 436.5,590 Q449,563 449,526 Q449,466 415,405.5 Q381,345 326,283 Q271,221 202,159 Q133,97 63,34 L413,34 L410,0 L5,0 L8,33 Q87,102 159,167.5 Q231,233 286,294 Q341,355 373.5,411.5 Q406,468 406,518 Q406,578 370.5,605 Q335,632 280,632 Q243,632 196.5,618.5 Q150,605 102,575 L85,604 Q135,638 188,654 Q241,670 284,670"/> 
            <glyph glyph-name="3" unicode="&#x33;" horiz-adv-x="448" d=" M284,372 Q314,368 343,355 Q372,342 394.5,320.5 Q417,299 431,270 Q445,241 445,205 Q445,162 427.5,123 Q410,84 377.5,55 Q345,26 298.5,8.5 Q252,-9 194,-9 Q132,-9 85.5,0.5 Q39,10 10,25 Q14,33 17,40.5 Q20,48 24,55 Q83,34 122.5,29.5 Q162,25 191,25 Q233,25 271.5,36.5 Q310,48 339.5,70.5 Q369,93 386.5,125.5 Q404,158 404,200 Q404,236 390,263.5 Q376,291 351.5,309.5 Q327,328 293.5,337.5 Q260,347 222,347 Q202,347 183,344 L176,377 Q242,389 286,408 Q330,427 357,449.5 Q384,472 395,496 Q406,520 406,543 Q406,584 374,613.5 Q342,643 270,643 Q237,643 197,633 Q157,623 103,600 Q101,604 97,614.5 Q93,625 91,629 Q141,655 189.5,667 Q238,679 276,679 Q322,679 354.5,668.5 Q387,658 408,640 Q429,622 438.5,599 Q448,576 448,551 Q448,527 438.5,501.5 Q429,476 409,452.5 Q389,429 358,409 Q327,389 284,376"/> 
            <glyph glyph-name="4" unicode="&#x34;" horiz-adv-x="482" d=" M440,661 Q426,552 412.5,444 Q399,336 386,227 L482,227 L478,193 L381,193 L360,0 L318,0 L341,193 L19,193 Q21,202 22,210.5 Q23,219 24,228 Q118,338 211,445 Q304,552 396,661 M346,227 Q357,323 369,418 Q381,513 393,608 L391,608 Q384,599 360.5,571.5 Q337,544 305.5,507 Q274,470 237,427.5 Q200,385 166.5,345.5 Q133,306 105.5,274 Q78,242 65,227"/> 
            <glyph glyph-name="5" unicode="&#x35;" horiz-adv-x="475" d=" M256,369 Q227,369 194,361.5 Q161,354 132,340 L105,358 L156,662 L475,662 L470,626 L187,626 L146,379 Q154,382 165,386 Q176,390 191,394.5 Q206,399 226.5,402 Q247,405 275,405 Q308,405 339.5,396 Q371,387 396,366 Q421,345 436,312 Q451,279 451,231 Q451,169 430,124 Q409,79 374.5,49.5 Q340,20 296,5.5 Q252,-9 205,-9 Q150,-9 107.5,-0.5 Q65,8 25,26 L40,59 Q88,39 126.5,33.5 Q165,28 194,28 Q241,28 280.5,40 Q320,52 349,76.5 Q378,101 394,139 Q410,177 410,228 Q410,264 398.5,290.5 Q387,317 366.5,334.5 Q346,352 318,360.5 Q290,369 256,369"/> 
            <glyph glyph-name="6" unicode="&#x36;" horiz-adv-x="478" d=" M344,671 Q391,671 424,662 Q457,653 478,642 L464,610 Q428,625 397,630 Q366,635 342,635 Q302,635 270.5,619.5 Q239,604 214.5,579.5 Q190,555 172,523.5 Q154,492 141.5,461 Q129,430 121,402 Q113,374 110,355 Q112,354 112,353.5 Q112,353 113,352 Q148,374 196.5,389.5 Q245,405 300,405 Q334,405 364.5,396 Q395,387 417,367 Q439,347 452,314.5 Q465,282 465,235 Q465,179 447.5,134.5 Q430,90 399.5,58.5 Q369,27 326.5,10 Q284,-7 234,-7 Q183,-7 148.5,9.5 Q114,26 94,55.5 Q74,85 65.5,125 Q57,165 57,213 Q57,308 77,391.5 Q97,475 134,537 Q171,599 224,635 Q277,671 344,671 M290,369 Q249,369 215.5,360 Q182,351 158,340.5 Q134,330 120.5,320.5 Q107,311 105,310 Q103,288 100,263.5 Q97,239 97,210 Q97,177 102.5,144.5 Q108,112 123,86 Q138,60 165,44 Q192,28 234,28 Q279,28 314.5,43.5 Q350,59 374.5,86 Q399,113 412,150 Q425,187 425,231 Q425,262 418,287.5 Q411,313 395.5,331 Q380,349 354,359 Q328,369 290,369"/> 
            <glyph glyph-name="7" unicode="&#x37;" horiz-adv-x="483" d=" M107,626 L112,662 L478,662 L483,626 L135,0 L93,0 L442,626"/> 
            <glyph glyph-name="8" unicode="&#x38;" horiz-adv-x="484" d=" M310,638 Q264,638 233.5,621.5 Q203,605 185,583 Q167,561 160,537.5 Q153,514 153,501 Q153,473 167.5,452.5 Q182,432 205.5,416 Q229,400 259.5,386.5 Q290,373 322,360 Q393,406 418.5,448 Q444,490 444,526 Q444,546 438,566 Q432,586 417,602 Q402,618 376,628 Q350,638 310,638 M231,27 Q279,27 314,42 Q349,57 371,80.5 Q393,104 403.5,131.5 Q414,159 414,185 Q414,223 401,248.5 Q388,274 364,293 Q340,312 304.5,327.5 Q269,343 224,361 Q182,340 153.5,315 Q125,290 107,263 Q89,236 81.5,209 Q74,182 74,157 Q74,132 82,108.5 Q90,85 108.5,67 Q127,49 157,38 Q187,27 231,27 M317,673 Q348,673 378.5,665 Q409,657 432,640 Q455,623 469.5,596 Q484,569 484,532 Q484,481 453,434.5 Q422,388 355,344 Q405,318 429.5,279.5 Q454,241 454,187 Q454,152 439.5,117 Q425,82 396.5,54.5 Q368,27 325,10 Q282,-7 226,-7 Q175,-7 138,6 Q101,19 78,40.5 Q55,62 44,91 Q33,120 33,152 Q33,218 73,278.5 Q113,339 194,378 Q114,425 114,499 Q114,532 129,563.5 Q144,595 170.5,619.5 Q197,644 234.5,658.5 Q272,673 317,673"/> 
            <glyph glyph-name="9" unicode="&#x39;" horiz-adv-x="472" d=" M185,-7 Q138,-7 105,2 Q72,11 51,22 L65,54 Q101,39 132,34 Q163,29 187,29 Q227,29 258.5,44.5 Q290,60 314.5,84.5 Q339,109 357,140.5 Q375,172 387.5,203 Q400,234 407.5,262 Q415,290 419,309 Q417,310 417,310.5 Q417,311 416,312 Q381,290 332.5,274.5 Q284,259 229,259 Q194,259 164,268 Q134,277 112,297 Q90,317 77,349.5 Q64,382 64,429 Q64,484 81.5,529 Q99,574 129.5,605.5 Q160,637 202.5,654 Q245,671 295,671 Q346,671 380.5,654.5 Q415,638 435,608.5 Q455,579 463.5,539 Q472,499 472,451 Q472,356 452,272.5 Q432,189 395,127 Q358,65 305,29 Q252,-7 185,-7 M239,295 Q280,295 313.5,304 Q347,313 371,323.5 Q395,334 408.5,343.5 Q422,353 424,354 Q426,376 429,400.5 Q432,425 432,454 Q432,487 426.5,519.5 Q421,552 406,578 Q391,604 364,620 Q337,636 295,636 Q250,636 214.5,620.5 Q179,605 154.5,578 Q130,551 117,514 Q104,477 104,433 Q104,402 110.5,376.5 Q117,351 133,333 Q149,315 175,305 Q201,295 239,295"/> 
            <glyph glyph-name=":" unicode="&#x3A;" horiz-adv-x="129" d=" M61,68 Q73,68 81.5,59 Q90,50 90,37 Q90,21 78.5,9 Q67,-3 52,-3 Q38,-3 30,6 Q22,15 22,28 Q22,44 33.5,56 Q45,68 61,68 M99,377 Q112,377 120.5,367.5 Q129,358 129,345 Q129,329 116.5,317.5 Q104,306 90,306 Q76,306 68,315 Q60,324 60,338 Q60,354 71.5,365.5 Q83,377 99,377"/> 
            <glyph glyph-name="&lt;" unicode="&#x3C;" horiz-adv-x="467" d=" M416,87 L82,278 L86,314 L467,504 L462,463 L120,296 Q121,295 143.5,282.5 Q166,270 199,251.5 Q232,233 270.5,211.5 Q309,190 342,171.5 Q375,153 397.5,140.5 Q420,128 421,127"/> 
            <glyph glyph-name="=" unicode="&#x3D;" horiz-adv-x="453" d=" M88,353 L92,388 L453,388 L449,353 M71,213 L75,247 L436,247 L431,213"/> 
            <glyph glyph-name="&gt;" unicode="&#x3E;" horiz-adv-x="444" d=" M64,128 L406,297 Q405,297 382.5,309.5 Q360,322 326.5,340.5 Q293,359 255,380.5 Q217,402 183.5,420.5 Q150,439 127.5,451 Q105,463 104,464 L109,504 L444,314 L439,278 L58,87"/> 
            <glyph glyph-name="?" unicode="&#x3F;" horiz-adv-x="424" d=" M266,702 Q347,702 385.5,671.5 Q424,641 424,587 Q424,561 415,539 Q406,517 390.5,497.5 Q375,478 355,460.5 Q335,443 314,427 Q273,397 244,372 Q215,347 196.5,323 Q178,299 169,273.5 Q160,248 160,217 Q160,206 160.5,195.5 Q161,185 162,173 L126,166 Q125,180 124.5,192 Q124,204 124,215 Q124,246 131,273.5 Q138,301 155.5,327 Q173,353 202,380.5 Q231,408 275,441 Q322,476 352,507.5 Q382,539 382,583 Q382,606 372.5,622 Q363,638 347,647.5 Q331,657 309.5,661.5 Q288,666 263,666 Q234,666 195,660.5 Q156,655 105,639 L96,672 Q142,688 187,695 Q232,702 266,702 M150,65 Q164,65 172.5,56 Q181,47 181,34 Q181,16 168.5,4 Q156,-8 142,-8 Q129,-8 119.5,1.5 Q110,11 110,25 Q110,41 122,53 Q134,65 150,65"/> 
            <glyph glyph-name="@" unicode="&#x40;" horiz-adv-x="815" d=" M509,704 Q582,704 639,684 Q696,664 735,627.5 Q774,591 794.5,538.5 Q815,486 815,420 Q815,350 795.5,300 Q776,250 746,217.5 Q716,185 681,169.5 Q646,154 615,154 Q565,154 544,184.5 Q523,215 523,262 Q523,267 523.5,271.5 Q524,276 524,281 Q492,210 450.5,182 Q409,154 369,154 Q321,154 293.5,189.5 Q266,225 266,288 Q266,343 278.5,392 Q291,441 315.5,478 Q340,515 377,537 Q414,559 464,559 Q490,559 515.5,552.5 Q541,546 567,535 L576,557 Q584,556 590,555.5 Q596,555 603,555 Q595,512 586,468 Q577,424 569.5,384 Q562,344 557.5,312 Q553,280 553,262 Q553,227 570,206 Q587,185 619,185 Q642,185 670.5,198 Q699,211 723.5,239 Q748,267 765,311 Q782,355 782,417 Q782,542 709.5,607.5 Q637,673 507,673 Q421,673 349.5,642.5 Q278,612 226.5,560 Q175,508 146,439 Q117,370 117,294 Q117,231 137,178 Q157,125 193.5,87 Q230,49 281.5,27.5 Q333,6 396,6 Q423,6 451.5,8.5 Q480,11 515,22 Q517,15 519.5,8 Q522,1 524,-6 Q512,-11 495.5,-14.5 Q479,-18 461.5,-20.5 Q444,-23 426.5,-24 Q409,-25 396,-25 Q324,-25 266.5,-2 Q209,21 168,63 Q127,105 105,163 Q83,221 83,291 Q83,378 115.5,453 Q148,528 205,584 Q262,640 340,672 Q418,704 509,704 M378,185 Q402,185 427,199.5 Q452,214 476,250 Q500,286 521,347.5 Q542,409 559,504 Q532,518 506,523 Q480,528 460,528 Q423,528 393.5,509.5 Q364,491 344,459.5 Q324,428 313,386 Q302,344 302,298 Q302,241 322.5,213 Q343,185 378,185"/> 
            <glyph glyph-name="A" unicode="&#x41;" horiz-adv-x="476" d=" M433,0 Q423,48 414.5,95.5 Q406,143 397,191 L118,191 L37,0 L-8,0 Q68,176 142.5,345.5 Q217,515 290,682 L346,682 Q378,511 410.5,341 Q443,171 476,0 M312,643 Q297,609 280.5,571.5 Q264,534 247,492 Q221,430 192.5,363 Q164,296 134,227 L390,227 L343,486 L315,643"/> 
            <glyph glyph-name="B" unicode="&#x42;" horiz-adv-x="512" d=" M395,354 Q426,343 445.5,325 Q465,307 475,286 Q485,265 488.5,243 Q492,221 492,203 Q492,158 475.5,121 Q459,84 431.5,57 Q404,30 368.5,15 Q333,0 294,0 L50,0 L133,682 L343,682 Q387,682 419,671 Q451,660 471.5,640.5 Q492,621 502,594 Q512,567 512,534 Q512,511 507,485.5 Q502,460 488.5,436 Q475,412 452.5,391.5 Q430,371 396,358 M133,336 Q124,261 115,186 Q106,111 96,36 L284,36 Q327,36 358,49.5 Q389,63 409.5,86.5 Q430,110 440,140.5 Q450,171 450,204 Q450,231 441.5,255 Q433,279 416.5,297 Q400,315 375.5,325.5 Q351,336 319,336 M172,646 Q163,577 155,509.5 Q147,442 139,373 L308,373 Q343,373 372.5,384.5 Q402,396 423.5,417 Q445,438 457,467.5 Q469,497 469,532 Q469,583 437,614.5 Q405,646 333,646"/> 
            <glyph glyph-name="C" unicode="&#x43;" horiz-adv-x="547" d=" M386,693 Q438,693 479.5,685 Q521,677 547,667 L534,633 Q498,645 459.5,651 Q421,657 387,657 Q317,657 266,627 Q215,597 181.5,543 Q148,489 131.5,414.5 Q115,340 115,252 Q115,206 123,165.5 Q131,125 152.5,95 Q174,65 211.5,47.5 Q249,30 309,30 Q322,30 341.5,31 Q361,32 383,35 Q405,38 428.5,42.5 Q452,47 474,53 L483,20 Q464,13 441,8 Q418,3 393.5,-0.5 Q369,-4 344.5,-5.5 Q320,-7 299,-7 Q236,-7 192.5,11 Q149,29 122,63 Q95,97 82.5,146 Q70,195 70,256 Q70,292 75,338.5 Q80,385 92.5,433.5 Q105,482 127.5,528.5 Q150,575 185.5,611.5 Q221,648 270,670.5 Q319,693 386,693"/> 
            <glyph glyph-name="D" unicode="&#x44;" horiz-adv-x="551" d=" M51,0 L134,683 L326,683 Q392,683 435.5,662.5 Q479,642 504.5,606 Q530,570 540.5,521.5 Q551,473 551,417 Q551,334 535,259 Q519,184 481.5,126 Q444,68 383.5,34 Q323,0 235,0 M172,647 L98,37 L232,37 Q247,37 273.5,39.5 Q300,42 330.5,53 Q361,64 392.5,87 Q424,110 449.5,151.5 Q475,193 491.5,256 Q508,319 508,411 Q508,498 486.5,545.5 Q465,593 434.5,615.5 Q404,638 370,642.5 Q336,647 312,647"/> 
            <glyph glyph-name="E" unicode="&#x45;" horiz-adv-x="496" d=" M51,0 L134,683 L496,683 L492,647 L172,647 L139,380 L421,380 L417,344 L134,344 L97,36 L444,36 L441,0"/> 
            <glyph glyph-name="F" unicode="&#x46;" horiz-adv-x="496" d=" M51,0 L134,683 L496,683 L492,646 L172,646 L139,379 L419,379 L414,342 L134,342 L93,0"/> 
            <glyph glyph-name="G" unicode="&#x47;" horiz-adv-x="564" d=" M400,693 Q452,693 492.5,686 Q533,679 564,669 L552,634 Q513,645 473,650.5 Q433,656 400,656 Q329,656 275.5,626.5 Q222,597 186,544 Q150,491 132,416 Q114,341 114,251 Q114,206 122.5,166 Q131,126 152.5,96 Q174,66 212.5,48.5 Q251,31 311,31 Q325,31 343.5,32.5 Q362,34 381.5,36.5 Q401,39 419.5,42.5 Q438,46 452,51 L488,342 L529,342 L489,21 Q441,6 393,-0.5 Q345,-7 299,-7 Q237,-7 193.5,11 Q150,29 122.5,62.5 Q95,96 82.5,144.5 Q70,193 70,254 Q70,290 75,336.5 Q80,383 93.5,431.5 Q107,480 130.5,527 Q154,574 190.5,611 Q227,648 278.5,670.5 Q330,693 400,693"/> 
            <glyph glyph-name="H" unicode="&#x48;" horiz-adv-x="570" d=" M443,0 L485,342 L135,342 L94,0 L51,0 L134,683 L177,683 Q176,676 173.5,652.5 Q171,629 167,597.5 Q163,566 159,531 Q155,496 151,465 Q147,434 144,410.5 Q141,387 140,380 L489,380 L526,683 L570,683 L487,0"/> 
            <glyph glyph-name="I" unicode="&#x49;" horiz-adv-x="187" d=" M61,0 L144,683 L187,683 L103,0"/> 
            <glyph glyph-name="J" unicode="&#x4A;" horiz-adv-x="221" d=" M179,683 L221,683 L152,109 Q144,50 129.5,4 Q115,-42 88.5,-76.5 Q62,-111 23,-135.5 Q-16,-160 -71,-178 L-83,-144 Q-32,-126 1.5,-102.5 Q35,-79 57,-49 Q79,-19 90.5,19.5 Q102,58 108,106"/> 
            <glyph glyph-name="K" unicode="&#x4B;" horiz-adv-x="551" d=" M93,0 L51,0 L134,683 L176,683 L134,343 L499,683 L551,683 L255,409 L472,0 L426,0 L225,379 L128,290"/> 
            <glyph glyph-name="L" unicode="&#x4C;" horiz-adv-x="472" d=" M72,0 L155,683 L197,683 L118,36 L472,36 L468,0"/> 
            <glyph glyph-name="M" unicode="&#x4D;" horiz-adv-x="670" d=" M364,111 L422,242 L622,683 L670,683 L661,0 L620,0 L627,456 L631,605 L627,605 Q624,599 617.5,584 Q611,569 602.5,549.5 Q594,530 584,507.5 Q574,485 564,463 L377,59 L334,59 L236,462 Q225,506 216.5,547 Q208,588 204,602 L200,602 Q195,579 187.5,540 Q180,501 172,457 Q168,436 159,388 Q150,340 137.5,276.5 Q125,213 110.5,141 Q96,69 82,0 L39,0 L178,683 L223,683 L331,241 L360,111"/> 
            <glyph glyph-name="N" unicode="&#x4E;" horiz-adv-x="603" d=" M486,76 L560,683 L603,683 L519,0 L477,0 L228,493 L170,612 L167,611 L93,0 L51,0 L134,683 L177,683 Q182,673 201.5,635 Q221,597 247.5,544.5 Q274,492 304,432 Q334,372 360.5,319.5 Q387,267 406.5,229 Q426,191 431,181 L483,76"/> 
            <glyph glyph-name="O" unicode="&#x4F;" horiz-adv-x="603" d=" M379,693 Q444,693 487,671 Q530,649 556,611 Q582,573 592.5,523 Q603,473 603,416 Q603,330 583.5,253 Q564,176 526,118.5 Q488,61 431.5,27 Q375,-7 301,-7 Q238,-7 194,11 Q150,29 122.5,63.5 Q95,98 82.5,147 Q70,196 70,259 Q70,339 86,416.5 Q102,494 138.5,555.5 Q175,617 234,655 Q293,693 379,693 M380,658 Q302,658 250,621 Q198,584 167.5,526 Q137,468 124.5,397 Q112,326 112,259 Q112,146 156,87 Q200,28 299,28 Q369,28 418.5,62.5 Q468,97 499.5,152 Q531,207 545.5,276.5 Q560,346 560,416 Q560,461 552.5,504.5 Q545,548 525.5,582 Q506,616 470.5,637 Q435,658 380,658"/> 
            <glyph glyph-name="P" unicode="&#x50;" horiz-adv-x="502" d=" M330,683 Q367,683 398.5,673 Q430,663 453,642.5 Q476,622 489,591 Q502,560 502,518 Q502,483 491.5,443.5 Q481,404 456,370.5 Q431,337 389,315 Q347,293 284,293 L129,293 L94,0 L51,0 L134,683 M173,647 L134,329 L291,329 Q316,329 346,337.5 Q376,346 401,367.5 Q426,389 443,425 Q460,461 460,516 Q460,549 450,573.5 Q440,598 422,614.5 Q404,631 379.5,639 Q355,647 327,647"/> 
            <glyph glyph-name="Q" unicode="&#x51;" horiz-adv-x="603" d=" M379,692 Q444,692 487,670 Q530,648 556,610.5 Q582,573 592.5,522.5 Q603,472 603,415 Q603,343 589.5,277.5 Q576,212 549,158 Q522,104 482,65 Q442,26 390,8 L547,-35 L525,-79 L318,-5 Q313,-6 309,-6.5 Q305,-7 300,-7 Q237,-7 193,11 Q149,29 121.5,63.5 Q94,98 81.5,147 Q69,196 69,259 Q69,338 85,416 Q101,494 137.5,555 Q174,616 233.5,654 Q293,692 379,692 M379,657 Q301,657 249.5,620 Q198,583 167.5,525 Q137,467 124.5,396.5 Q112,326 112,259 Q112,144 155.5,86 Q199,28 299,28 Q369,28 418,62 Q467,96 498.5,151 Q530,206 544.5,275.5 Q559,345 559,415 Q559,461 551.5,504.5 Q544,548 524.5,582 Q505,616 469.5,636.5 Q434,657 379,657"/> 
            <glyph glyph-name="R" unicode="&#x52;" horiz-adv-x="506" d=" M504,516 Q503,486 494,455.5 Q485,425 467.5,398 Q450,371 424,351 Q398,331 362,323 Q402,309 420,279.5 Q438,250 446,208 L481,0 L438,0 L403,200 Q397,234 384,255.5 Q371,277 353,289.5 Q335,302 312.5,307 Q290,312 265,312 L132,312 L93,0 L51,0 L134,683 L332,683 Q381,683 415,670 Q449,657 469.5,634.5 Q490,612 498,581.5 Q506,551 504,516 M292,348 Q326,348 356,358 Q386,368 408.5,388 Q431,408 444.5,439.5 Q458,471 460,514 Q463,582 426,614 Q389,646 327,646 L172,646 L135,348"/> 
            <glyph glyph-name="S" unicode="&#x53;" horiz-adv-x="482" d=" M315,694 Q348,694 393.5,688 Q439,682 480,663 L463,627 Q416,644 380,649.5 Q344,655 309,655 Q278,655 247.5,648.5 Q217,642 192.5,625.5 Q168,609 152.5,582 Q137,555 137,515 Q137,483 148,461.5 Q159,440 179,424.5 Q199,409 228,397.5 Q257,386 292,374 Q325,363 359,350 Q393,337 420.5,316.5 Q448,296 465,266 Q482,236 482,192 Q482,136 460,98 Q438,60 402,36.5 Q366,13 321,3 Q276,-7 231,-7 Q182,-7 130,4 Q78,15 33,42 L51,76 Q102,48 146,39 Q190,30 232,30 Q268,30 304.5,37.5 Q341,45 371,63 Q401,81 419.5,111.5 Q438,142 438,187 Q438,218 427,240.5 Q416,263 396,280 Q376,297 347.5,310 Q319,323 283,334 Q241,347 206,361.5 Q171,376 145.5,396 Q120,416 106,443.5 Q92,471 92,511 Q92,560 110,594.5 Q128,629 158.5,651 Q189,673 229.5,683.5 Q270,694 315,694"/> 
            <glyph glyph-name="T" unicode="&#x54;" horiz-adv-x="541" d=" M205,0 L283,646 L70,646 L75,683 L541,683 L537,646 L325,646 L245,0"/> 
            <glyph glyph-name="U" unicode="&#x55;" horiz-adv-x="612" d=" M558,241 Q551,186 532.5,140.5 Q514,95 482.5,62 Q451,29 405.5,11 Q360,-7 299,-7 Q174,-7 120.5,59 Q67,125 81,241 L135,683 L176,683 L123,243 Q110,137 155.5,83 Q201,29 301,29 Q397,29 450.5,87 Q504,145 516,243 L570,683 L612,683"/> 
            <glyph glyph-name="V" unicode="&#x56;" horiz-adv-x="537" d=" M228,45 L282,179 L494,683 L537,683 L249,0 L195,0 L73,683 L117,683 L203,176 L225,45"/> 
            <glyph glyph-name="W" unicode="&#x57;" horiz-adv-x="807" d=" M422,619 Q406,574 390.5,529 Q375,484 360,439 L206,0 L150,0 L72,682 L114,682 Q126,569 138,456.5 Q150,344 163,232 L182,47 L185,47 L234,188 Q279,310 321,434.5 Q363,559 408,682 L453,682 Q460,627 469,564 Q478,501 487,437.5 Q496,374 505,312 Q514,250 521,198 Q526,157 531.5,118.5 Q537,80 542,47 L545,47 Q559,86 572,124.5 Q585,163 598,202 Q641,322 682,441.5 Q723,561 766,682 L807,682 Q745,507 684.5,337 Q624,167 564,0 L511,0 Q496,111 480,220.5 Q464,330 449,442 Q444,487 438,530.5 Q432,574 426,619"/> 
            <glyph glyph-name="X" unicode="&#x58;" horiz-adv-x="520" d=" M258,319 L35,0 L-12,0 L238,353 L84,682 L130,682 L266,386 L474,682 L520,682 Q461,599 403,517 Q345,435 285,352 Q327,263 368,175.5 Q409,88 451,0 L405,0"/> 
            <glyph glyph-name="Y" unicode="&#x59;" horiz-adv-x="511" d=" M221,306 L73,683 L117,683 L201,467 L244,349 L247,349 L319,461 L464,683 L511,683 L265,310 L227,0 L184,0"/> 
            <glyph glyph-name="Z" unicode="&#x5A;" horiz-adv-x="490" d=" M99,683 L485,683 L490,645 L46,38 L433,38 L428,0 L0,0 L-4,38 L441,646 L94,646"/> 
            <glyph glyph-name="[" unicode="&#x5B;" horiz-adv-x="251" d=" M13,-160 L119,696 L251,696 Q251,692 249,678 Q247,664 247,660 L154,660 L58,-124 L150,-124 L146,-160"/> 
            <glyph glyph-name="\" unicode="&#x5C;" horiz-adv-x="263" d=" M69,698 L101,698 L263,-26 L230,-26"/> 
            <glyph glyph-name="]" unicode="&#x5D;" horiz-adv-x="231" d=" M-7,-160 Q-6,-155 -4.5,-141.5 Q-3,-128 -3,-124 L90,-124 L186,660 L93,660 L98,696 L231,696 Q229,680 224,638 Q219,596 212,538 Q205,480 196.5,410 Q188,340 179,268 Q170,196 161.5,126 Q153,56 145.5,-2 Q138,-60 133,-102 Q128,-144 126,-160"/> 
            <glyph glyph-name="^" unicode="&#x5E;" horiz-adv-x="405" d=" M368,397 L260,647 L90,397 L50,397 L248,683 L282,683 L405,397"/> 
            <glyph glyph-name="_" unicode="&#x5F;" horiz-adv-x="448" d=" M-39,-119 L-36,-90 L448,-90 L445,-119"/> 
            <glyph glyph-name="a" unicode="&#x61;" horiz-adv-x="448" d=" M277,492 Q309,492 340.5,484.5 Q372,477 403,463 L411,489 L440,488 Q439,479 434.5,445.5 Q430,412 424,365.5 Q418,319 411.5,266 Q405,213 399,165.5 Q393,118 388.5,82.5 Q384,47 383,35 L446,37 L448,11 Q428,3 410.5,-0.5 Q393,-4 381,-4 Q359,-4 351,5.5 Q343,15 345,35 Q345,36 345.5,40.5 Q346,45 346.5,51 Q347,57 347.5,62 Q348,67 348,68 L347,70 Q302,33 259,13.5 Q216,-6 173,-6 Q115,-6 77.5,37 Q40,80 39,161 Q39,221 53,280.5 Q67,340 96,387 Q125,434 170,463 Q215,492 277,492 M274,458 Q234,458 199,438 Q164,418 137.5,381 Q111,344 96,290.5 Q81,237 81,170 Q81,95 111,61.5 Q141,28 183,28 Q226,28 269,52 Q312,76 352,109 L395,428 Q361,445 331.5,451.5 Q302,458 274,458"/> 
            <glyph glyph-name="b" unicode="&#x62;" horiz-adv-x="439" d=" M39,36 L124,714 L164,714 Q155,639 146,561 Q137,483 126,417 L128,414 Q175,451 218,472.5 Q261,494 303,494 Q360,494 399.5,452 Q439,410 439,326 Q439,264 424.5,204 Q410,144 379,97.5 Q348,51 302,22.5 Q256,-6 193,-6 Q155,-6 116.5,2.5 Q78,11 43,28 M195,28 Q235,28 271.5,47 Q308,66 336,103.5 Q364,141 380.5,195.5 Q397,250 397,321 Q397,395 366.5,427 Q336,459 294,459 Q273,459 250.5,451.5 Q228,444 206.5,432.5 Q185,421 164,406 Q143,391 124,376 L82,53 Q113,38 141,33 Q169,28 195,28"/> 
            <glyph glyph-name="c" unicode="&#x63;" horiz-adv-x="405" d=" M207,26 Q246,26 279.5,34.5 Q313,43 355,60 Q356,56 360,46.5 Q364,37 366,33 Q336,16 292.5,4.5 Q249,-7 204,-7 Q159,-7 127.5,6 Q96,19 76.5,43 Q57,67 48.5,100.5 Q40,134 40,175 Q40,201 43.5,234.5 Q47,268 56,303.5 Q65,339 81.5,373 Q98,407 124,434 Q150,461 187,477.5 Q224,494 275,494 Q313,494 346,486.5 Q379,479 405,465 L391,436 Q355,452 324,456 Q293,460 272,460 Q225,460 189.5,438.5 Q154,417 129.5,378.5 Q105,340 92.5,288 Q80,236 80,176 Q80,145 86,117.5 Q92,90 107,70 Q122,50 146.5,38 Q171,26 207,26"/> 
            <glyph glyph-name="d" unicode="&#x64;" horiz-adv-x="468" d=" M340,0 L349,68 L347,70 Q302,33 259,13.5 Q216,-6 174,-6 Q115,-6 77.5,37 Q40,80 40,161 Q40,221 53.5,280.5 Q67,340 96,387 Q125,434 170,463 Q215,492 277,492 Q309,492 339.5,485 Q370,478 399,465 L430,709 L468,709 L379,0 M274,458 Q234,458 199,438 Q164,418 137.5,381 Q111,344 96,290.5 Q81,237 81,170 Q81,95 111,61.5 Q141,28 183,28 Q226,28 269.5,52 Q313,76 353,109 L394,428 Q360,445 331.5,451.5 Q303,458 274,458"/> 
            <glyph glyph-name="e" unicode="&#x65;" horiz-adv-x="403" d=" M278,494 Q311,494 335,484.5 Q359,475 374,459.5 Q389,444 396,424 Q403,404 403,383 Q403,334 376.5,301 Q350,268 306,247.5 Q262,227 203.5,216.5 Q145,206 81,202 Q80,191 80,183.5 Q80,176 80,170 Q80,145 85,119.5 Q90,94 104,73 Q118,52 142,39 Q166,26 205,26 Q278,26 350,59 L361,32 Q329,14 287.5,4 Q246,-6 198,-6 Q150,-6 119,8.5 Q88,23 70.5,48.5 Q53,74 46,107 Q39,140 39,178 Q39,224 50,279 Q61,334 88.5,382 Q116,430 162,462 Q208,494 278,494 M272,459 Q230,459 197.5,440.5 Q165,422 141,391 Q117,360 102.5,319 Q88,278 83,233 Q216,240 289.5,274.5 Q363,309 363,377 Q363,414 341,436.5 Q319,459 272,459"/> 
            <glyph glyph-name="f" unicode="&#x66;" horiz-adv-x="374" d=" M164,452 L122,73 Q115,15 105.5,-37.5 Q96,-90 77.5,-129.5 Q59,-169 27,-192.5 Q-5,-216 -56,-216 Q-71,-216 -91.5,-213.5 Q-112,-211 -132,-206 L-124,-176 Q-104,-180 -89,-182 Q-74,-184 -60,-184 Q-31,-184 -9,-174 Q13,-164 29,-141.5 Q45,-119 55.5,-83 Q66,-47 73,6 Q97,193 109.5,307 Q122,421 125,452 L45,452 L48,475 Q51,476 63,478 Q75,480 88.5,482 Q102,484 114,486 Q126,488 129,489 L134,526 Q140,574 151,611 Q162,648 181,673 Q200,698 229,711 Q258,724 299,724 Q314,724 334,722.5 Q354,721 374,716 Q373,711 371,699.5 Q369,688 367,683 Q347,687 331.5,688 Q316,689 302,689 Q277,689 256,683.5 Q235,678 218,659.5 Q201,641 189,606 Q177,571 171,513 Q171,510 170,498.5 Q169,487 168,485 L307,485 L303,452"/> 
            <glyph glyph-name="g" unicode="&#x67;" horiz-adv-x="441" d=" M384,5 Q379,-32 369.5,-71.5 Q360,-111 336.5,-144 Q313,-177 272,-198 Q231,-219 162,-219 Q124,-219 90,-209.5 Q56,-200 35,-190 Q38,-182 41.5,-173.5 Q45,-165 49,-157 Q75,-169 107,-176 Q139,-183 168,-183 Q222,-183 255,-166 Q288,-149 307,-120 Q326,-91 335,-51 Q344,-11 350,34 Q351,44 352,52.5 Q353,61 355,70 Q355,71 354,71 Q353,71 353,72 Q308,34 264.5,13.5 Q221,-7 178,-7 Q121,-7 82,34 Q43,75 42,160 L42,163 Q42,225 57,284 Q72,343 102.5,389.5 Q133,436 179.5,464 Q226,492 288,492 Q326,492 364.5,483.5 Q403,475 437,458 L441,450 M286,458 Q246,458 209.5,439 Q173,420 145,382.5 Q117,345 100.5,290.5 Q84,236 84,166 Q84,91 114.5,58.5 Q145,26 187,26 Q230,26 274,51.5 Q318,77 358,110 L400,433 Q368,448 340,453 Q312,458 286,458"/> 
            <glyph glyph-name="h" unicode="&#x68;" horiz-adv-x="423" d=" M125,408 Q178,450 227,472 Q276,494 318,494 Q348,494 368.5,486 Q389,478 401,464.5 Q413,451 418,433 Q423,415 423,395 Q423,387 423,379.5 Q423,372 421,364 L381,0 L341,0 L380,339 Q383,360 383,379 Q383,414 367.5,437 Q352,460 306,460 Q263,460 215.5,434 Q168,408 119,368 Q108,275 97,184 Q86,93 74,0 L35,0 L121,714 L161,714 Q159,701 156,676 Q153,651 149,620 Q145,589 141,555 Q137,521 133,491.5 Q129,462 126,440 Q123,418 122,410"/> 
            <glyph glyph-name="i" unicode="&#x69;" horiz-adv-x="177" d=" M53,0 L112,486 L152,486 L92,0 M149,644 Q162,644 169.5,636 Q177,628 177,615 Q177,600 167.5,589 Q158,578 142,578 Q131,578 123,586.5 Q115,595 115,607 Q115,623 125.5,633.5 Q136,644 149,644"/> 
            <glyph glyph-name="j" unicode="&#x6A;" horiz-adv-x="190" d=" M166,486 Q165,478 161,441 Q157,404 150.5,353 Q144,302 137,244 Q130,186 124,137 Q118,88 114,55 Q110,22 110,20 Q104,-25 95.5,-61.5 Q87,-98 68.5,-126.5 Q50,-155 19.5,-176.5 Q-11,-198 -60,-211 L-69,-180 Q-27,-166 -1.5,-147.5 Q24,-129 38,-105.5 Q52,-82 58.5,-54 Q65,-26 69,7 L126,486 M162,644 Q174,644 182,636 Q190,628 190,615 Q190,600 180.5,589 Q171,578 155,578 Q143,578 135.5,586.5 Q128,595 128,607 Q128,623 138,633.5 Q148,644 162,644"/> 
            <glyph glyph-name="k" unicode="&#x6B;" horiz-adv-x="417" d=" M109,252 Q125,266 144,283.5 Q163,301 192,327 Q221,353 263.5,391.5 Q306,430 369,487 L417,487 Q412,482 395.5,467.5 Q379,453 357.5,433 Q336,413 311,390.5 Q286,368 264.5,348 Q243,328 226.5,313.5 Q210,299 205,294 L228,260 L370,0 L326,0 L180,272 L100,202 L76,0 L37,0 L123,709 L162,709 L124,393 Q119,358 115,324 Q111,290 106,253"/> 
            <glyph glyph-name="l" unicode="&#x6C;" horiz-adv-x="173" d=" M173,714 Q172,706 168.5,674.5 Q165,643 159,596 Q153,549 146,491 Q139,433 131.5,373 Q124,313 117,255.5 Q110,198 104,151.5 Q98,105 94.5,74 Q91,43 90,36 L155,38 L158,11 Q140,2 120.5,-2 Q101,-6 87,-6 Q49,-6 49,26 Q49,28 49,34 Q49,40 50,46 L134,714"/> 
            <glyph glyph-name="m" unicode="&#x6D;" horiz-adv-x="706" d=" M125,409 Q178,451 221.5,473 Q265,495 305,495 Q334,495 353.5,488 Q373,481 385.5,468.5 Q398,456 404,439.5 Q410,423 411,404 Q464,449 512.5,472 Q561,495 600,495 Q632,495 652.5,487 Q673,479 685,465 Q697,451 701.5,432.5 Q706,414 706,393 Q706,385 705.5,378.5 Q705,372 704,364 L663,0 L624,0 L664,346 Q666,356 666,366 Q666,376 666,384 Q666,419 650.5,439.5 Q635,460 589,460 Q547,460 502.5,435 Q458,410 410,369 Q410,365 409.5,359.5 Q409,354 408,346 L369,0 L330,0 L370,344 Q371,353 372,364 Q373,375 373,383 Q373,399 369.5,413 Q366,427 357,437.5 Q348,448 333,454 Q318,460 294,460 Q253,460 209.5,434 Q166,408 119,368 Q108,275 97,184 Q86,93 75,0 L35,0 Q50,122 64.5,244 Q79,366 93,486 L132,486 Q131,479 130,468.5 Q129,458 127.5,447.5 Q126,437 124.5,427 Q123,417 122,411"/> 
            <glyph glyph-name="n" unicode="&#x6E;" horiz-adv-x="424" d=" M342,0 L382,350 Q384,358 384,367 Q384,376 384,384 Q384,418 368,439.5 Q352,461 305,461 Q262,461 216,434.5 Q170,408 122,369 L75,0 L36,0 Q38,12 42.5,49.5 Q47,87 53,137 Q59,187 66,243 Q73,299 79.5,349 Q86,399 90.5,436.5 Q95,474 96,487 L135,487 Q133,472 130,448.5 Q127,425 125,412 Q125,411 126,411 Q127,411 128,410 Q182,451 228.5,473.5 Q275,496 317,496 Q348,496 369,487.5 Q390,479 402,465 Q414,451 419,432 Q424,413 424,392 Q424,386 423.5,379 Q423,372 422,365 L381,0"/> 
            <glyph glyph-name="o" unicode="&#x6F;" horiz-adv-x="428" d=" M263,459 Q210,459 174.5,431 Q139,403 118,361 Q97,319 88,269.5 Q79,220 79,177 Q79,148 84.5,120.5 Q90,93 104,72 Q118,51 143.5,38.5 Q169,26 208,26 Q263,26 298,55 Q333,84 353,126 Q373,168 380,214.5 Q387,261 387,297 Q387,327 381.5,356.5 Q376,386 362,408.5 Q348,431 324,445 Q300,459 263,459 M264,493 Q310,493 341.5,477 Q373,461 392.5,434.5 Q412,408 420,373 Q428,338 428,300 Q428,253 418,199 Q408,145 382.5,99.5 Q357,54 313.5,23.5 Q270,-7 204,-7 Q156,-7 124,8 Q92,23 73.5,48.5 Q55,74 47,108.5 Q39,143 39,181 Q39,232 50.5,287 Q62,342 88.5,388 Q115,434 158,463.5 Q201,493 264,493"/> 
            <glyph glyph-name="p" unicode="&#x70;" horiz-adv-x="434" d=" M133,486 L124,419 L126,416 Q172,454 214.5,473 Q257,492 300,492 Q358,492 395.5,449 Q433,406 434,325 Q434,265 420,205.5 Q406,146 377,99 Q348,52 303,23 Q258,-6 196,-6 Q164,-6 134.5,1.5 Q105,9 75,22 Q74,10 69.5,-24.5 Q65,-59 60,-98 Q55,-137 51,-170 Q47,-203 46,-211 L8,-211 L94,486 M200,29 Q240,29 275,48.5 Q310,68 336,105.5 Q362,143 377,196 Q392,249 392,317 Q392,391 362,425 Q332,459 290,459 Q247,459 204,435 Q161,411 120,378 L79,58 Q113,41 142,35 Q171,29 200,29"/> 
            <glyph glyph-name="q" unicode="&#x71;" horiz-adv-x="439" d=" M316,-211 Q325,-135 334.5,-63.5 Q344,8 353,70 L351,72 Q306,34 262,13 Q218,-8 175,-8 Q118,-8 79,33.5 Q40,75 39,160 Q39,222 53.5,282 Q68,342 99,389 Q130,436 176,464.5 Q222,493 285,493 Q323,493 361.5,484 Q400,475 435,458 L439,451 L357,-211 M283,458 Q243,458 206.5,439 Q170,420 142,382.5 Q114,345 97.5,290.5 Q81,236 81,166 Q81,91 111.5,59 Q142,27 184,27 Q227,27 271,52 Q315,77 354,111 L397,433 Q365,449 337,453.5 Q309,458 283,458"/> 
            <glyph glyph-name="r" unicode="&#x72;" horiz-adv-x="309" d=" M141,487 Q138,462 136,441.5 Q134,421 130,396 L133,396 Q161,447 188.5,469.5 Q216,492 248,492 Q265,492 281.5,485.5 Q298,479 309,461 L293,434 Q279,440 268,442 Q257,444 247,444 Q224,444 205.5,434 Q187,424 172.5,408.5 Q158,393 146.5,373 Q135,353 126,332 Q122,303 116.5,258.5 Q111,214 105,166 Q99,118 93.5,73.5 Q88,29 84,0 L45,0 Q59,118 74,238 Q89,358 104,487 L141,487"/> 
            <glyph glyph-name="s" unicode="&#x73;" horiz-adv-x="355" d=" M23,59 Q59,39 95,32.5 Q131,26 157,26 Q186,26 213.5,31.5 Q241,37 262,49.5 Q283,62 295.5,82 Q308,102 308,132 Q308,153 299.5,168 Q291,183 276,194.5 Q261,206 241,215.5 Q221,225 197,234 Q171,244 147,255 Q123,266 104.5,280 Q86,294 74.5,313.5 Q63,333 63,359 Q63,396 77.5,421.5 Q92,447 116,462.5 Q140,478 170.5,485 Q201,492 232,492 Q243,492 258.5,490.5 Q274,489 290.5,485.5 Q307,482 323.5,476.5 Q340,471 355,463 L340,434 Q308,448 279,453.5 Q250,459 230,459 Q207,459 184.5,454 Q162,449 144,438 Q126,427 114.5,408 Q103,389 103,362 Q103,343 112.5,329 Q122,315 137,304 Q152,293 170.5,284.5 Q189,276 207,269 Q233,259 258,248 Q283,237 303,222.5 Q323,208 335,187.5 Q347,167 347,138 Q347,100 332,72.5 Q317,45 291.5,27.5 Q266,10 232.5,2 Q199,-6 162,-6 Q120,-6 78,3 Q36,12 8,31"/> 
            <glyph glyph-name="t" unicode="&#x74;" horiz-adv-x="308" d=" M167,454 Q156,367 145.5,282 Q135,197 124,111 Q123,104 123,97 Q123,90 123,84 Q123,59 134,45 Q145,31 180,31 Q198,31 224.5,35 Q251,39 279,47 L287,19 Q261,8 228,2.5 Q195,-3 170,-3 Q127,-3 105,16 Q83,35 83,82 Q83,86 83.5,93 Q84,100 85,104 L127,454 L59,454 L62,477 Q80,481 97.5,483.5 Q115,486 132,490 L157,582 Q164,584 170,584 Q176,584 182,586 Q179,561 176.5,536 Q174,511 170,486 L308,486 Q307,478 306.5,470 Q306,462 304,454 L167,454"/> 
            <glyph glyph-name="u" unicode="&#x75;" horiz-adv-x="426" d=" M126,487 L85,136 Q83,128 83,119 Q83,110 83,102 Q83,68 98,47 Q113,26 160,26 Q199,26 244.5,50 Q290,74 342,118 L388,487 L426,487 Q424,475 419.5,438 Q415,401 409,351 Q403,301 396.5,245 Q390,189 384,139 Q378,89 373.5,51 Q369,13 368,0 L330,0 L339,75 L338,76 Q337,76 336,77 Q279,32 234,11.5 Q189,-9 148,-9 Q116,-9 96,-1 Q76,7 64,21.5 Q52,36 47.5,54.5 Q43,73 43,94 Q43,100 43.5,107 Q44,114 45,121 L86,487"/> 
            <glyph glyph-name="v" unicode="&#x76;" horiz-adv-x="407" d=" M138,0 Q114,118 87,237.5 Q60,357 34,486 L75,486 Q89,419 104,350.5 Q119,282 133,212 Q142,168 150.5,125 Q159,82 167,38 L170,38 Q184,73 203.5,118.5 Q223,164 245,212 L369,497 L407,485 Q401,473 384.5,436 Q368,399 345.5,349 Q323,299 297.5,243 Q272,187 249.5,137 Q227,87 210.5,49.5 Q194,12 188,0 L138,0"/> 
            <glyph glyph-name="w" unicode="&#x77;" horiz-adv-x="652" d=" M442,40 L492,174 L615,497 L652,488 L461,0 L412,0 L355,302 L331,434 L329,434 L282,314 L155,0 L105,0 L34,487 L73,487 L114,189 L134,40 L137,40 L199,197 L316,487 L357,487 L416,169 L439,40"/> 
            <glyph glyph-name="x" unicode="&#x78;" horiz-adv-x="388" d=" M195,230 L27,-14 L-10,4 L176,256 L63,486 L107,486 L202,284 L353,500 L388,483 L220,259 L349,0 L305,0"/> 
            <glyph glyph-name="y" unicode="&#x79;" horiz-adv-x="413" d=" M155,-110 Q134,-156 105.5,-186.5 Q77,-217 30,-217 Q17,-217 -5.5,-214 Q-28,-211 -60,-200 L-49,-169 Q-23,-177 -6,-180.5 Q11,-184 27,-184 Q37,-184 48,-181.5 Q59,-179 70,-171 Q81,-163 92.5,-148 Q104,-133 115,-107 L163,0 L141,0 Q117,122 92,243 Q67,364 42,486 L82,486 L139,198 L172,29 L176,29 Q179,34 185.5,50 Q192,66 202,89 Q212,112 224.5,141.5 Q237,171 251,204 L376,494 L413,484"/> 
            <glyph glyph-name="z" unicode="&#x7A;" horiz-adv-x="391" d=" M49,34 L348,34 L345,0 L0,0 L-6,29 Q82,135 167.5,240 Q253,345 341,451 L340,452 L73,452 L78,486 L382,486 L391,455 L45,36"/> 
            <glyph glyph-name="{" unicode="&#x7B;" horiz-adv-x="263" d=" M134,-162 Q92,-162 76.5,-145.5 Q61,-129 61,-96 Q61,-88 61.5,-80 Q62,-72 63,-63 L92,170 Q95,186 95,204 Q95,231 83.5,254 Q72,277 39,283 L43,312 Q66,317 80.5,328 Q95,339 103.5,354.5 Q112,370 116,388.5 Q120,407 123,428 L150,624 Q154,653 174,675.5 Q194,698 228,698 L263,698 L259,662 L237,662 Q209,662 199,645.5 Q189,629 184,597 L161,434 Q159,415 154.5,393 Q150,371 141.5,350.5 Q133,330 120.5,314 Q108,298 90,292 Q116,279 124.5,257 Q133,235 133,209 Q133,188 130,167 L103,-46 Q102,-55 100.5,-65.5 Q99,-76 99,-87 Q99,-104 106,-116 Q113,-128 135,-128 L162,-128 Q160,-137 159.5,-145.5 Q159,-154 158,-162"/> 
            <glyph glyph-name="|" unicode="&#x7C;" horiz-adv-x="134" d=" M100,-136 L100,697 L134,697 L134,-136"/> 
            <glyph glyph-name="}" unicode="&#x7D;" horiz-adv-x="213" d=" M112,698 Q155,698 170.5,679 Q186,660 186,630 Q186,615 183,599 L159,427 Q158,419 157,409.5 Q156,400 156,391 Q156,377 158.5,363.5 Q161,350 167.5,339 Q174,328 185,320 Q196,312 213,309 L209,280 Q186,275 171.5,264 Q157,253 148.5,237.5 Q140,222 136,203.5 Q132,185 129,164 L96,-88 Q92,-117 72,-139.5 Q52,-162 18,-162 L-17,-162 L-13,-126 L9,-126 Q37,-126 47.5,-109.5 Q58,-93 62,-61 L91,158 Q93,177 97.5,199 Q102,221 110.5,241.5 Q119,262 131.5,278 Q144,294 162,300 Q136,313 127.5,335 Q119,357 119,383 Q119,404 122,425 L143,582 Q144,591 145.5,601.5 Q147,612 147,623 Q147,640 140,652 Q133,664 111,664 L84,664 L88,698"/> 
            <glyph glyph-name="~" unicode="&#x7E;" horiz-adv-x="451" d=" M374,248 Q348,248 317,254 Q286,260 255,267.5 Q224,275 195.5,281 Q167,287 146,287 L91,245 L74,259 Q93,292 112,307.5 Q131,323 155,323 Q177,323 208.5,317 Q240,311 272.5,303.5 Q305,296 334.5,290 Q364,284 383,284 L436,324 L451,311 Q419,248 374,248"/> 
            <glyph glyph-name="Ç" unicode="&#xC7;" horiz-adv-x="547" d=" M386,693 Q438,693 479.5,685 Q521,677 547,667 L534,633 Q498,645 459.5,651 Q421,657 387,657 Q317,657 266,627 Q215,597 181.5,543 Q148,489 131.5,414.5 Q115,340 115,252 Q115,206 123,165.5 Q131,125 152.5,95 Q174,65 211.5,47.5 Q249,30 309,30 Q322,30 341.5,31 Q361,32 383,35 Q405,38 428.5,42.5 Q452,47 474,53 L483,20 Q465,13 443,8 Q421,3 397,0 Q373,-3 349.5,-5 Q326,-7 305,-7 Q290,-24 274.5,-41 Q259,-58 244,-76 Q292,-77 320,-91 Q348,-105 348,-141 Q348,-161 337.5,-179.5 Q327,-198 305,-212.5 Q283,-227 250.5,-236 Q218,-245 173,-245 Q174,-240 174.5,-234 Q175,-228 175,-222 Q246,-217 277,-195.5 Q308,-174 308,-145 Q308,-123 287,-113.5 Q266,-104 234,-103 L210,-103 L203,-88 Q220,-67 238.5,-46.5 Q257,-26 275,-6 Q219,-3 180,16.5 Q141,36 116.5,70 Q92,104 81,151 Q70,198 70,256 Q70,292 75,338.5 Q80,385 92.5,433.5 Q105,482 127.5,528.5 Q150,575 185.5,611.5 Q221,648 270,670.5 Q319,693 386,693"/> 
            <glyph glyph-name="È" unicode="&#xC8;" horiz-adv-x="496" d=" M51,0 L134,683 L496,683 L492,647 L172,647 L139,380 L421,380 L417,344 L134,344 L97,36 L444,36 L441,0 M238,833 L270,869 L372,735 L354,716"/> 
            <glyph glyph-name="É" unicode="&#xC9;" horiz-adv-x="496" d=" M51,0 L134,683 L496,683 L492,647 L172,647 L139,380 L421,380 L417,344 L134,344 L97,36 L444,36 L441,0 M291,716 L275,734 L409,869 L435,835"/> 
            <glyph glyph-name="Ê" unicode="&#xCA;" horiz-adv-x="496" d=" M51,0 L134,683 L496,683 L492,647 L172,647 L139,380 L421,380 L417,344 L134,344 L97,36 L444,36 L441,0 M448,714 L326,815 L178,713 L166,730 L313,859 L348,859 L463,731"/> 
            <glyph glyph-name="Ë" unicode="&#xCB;" horiz-adv-x="496" d=" M51,0 L134,683 L496,683 L492,647 L172,647 L139,380 L421,380 L417,344 L134,344 L97,36 L444,36 L441,0 M425,770 Q425,755 414.5,745 Q404,735 390,735 Q378,735 371,742.5 Q364,750 364,762 Q364,776 374,786.5 Q384,797 397,797 Q410,797 417.5,789.5 Q425,782 425,770 M281,770 Q280,755 270,745 Q260,735 246,735 Q234,735 226.5,742.5 Q219,750 219,763 Q219,777 229.5,787 Q240,797 253,797 Q265,797 273,789.5 Q281,782 281,770"/> 
            <glyph glyph-name="Ì" unicode="&#xCC;" horiz-adv-x="189" d=" M61,0 L144,683 L187,683 L103,0 M55,833 L87,869 L189,735 L171,716"/> 
            <glyph glyph-name="Í" unicode="&#xCD;" horiz-adv-x="305" d=" M61,0 L144,683 L187,683 L103,0 M161,716 L145,734 L279,869 L305,835"/> 
            <glyph glyph-name="Î" unicode="&#xCE;" horiz-adv-x="315" d=" M61,0 L144,683 L187,683 L103,0 M300,705 L178,806 L30,704 L18,721 L165,850 L200,850 L315,722"/> 
            <glyph glyph-name="Ï" unicode="&#xCF;" horiz-adv-x="281" d=" M61,0 L144,683 L187,683 L103,0 M281,772 Q281,757 270.5,747 Q260,737 246,737 Q234,737 227,744.5 Q220,752 220,764 Q220,778 230,788.5 Q240,799 253,799 Q266,799 273.5,791.5 Q281,784 281,772 M137,772 Q136,757 126,747 Q116,737 102,737 Q90,737 82.5,744.5 Q75,752 75,765 Q75,779 85.5,789 Q96,799 109,799 Q121,799 129,791.5 Q137,784 137,772"/> 
            <glyph glyph-name="Ð" unicode="&#xD0;" horiz-adv-x="551" d=" M51,0 L92,340 L31,340 L35,370 L95,370 L134,683 L326,683 Q392,683 435.5,662.5 Q479,642 504.5,606 Q530,570 540.5,521.5 Q551,473 551,417 Q551,334 535,259 Q519,184 481.5,126 Q444,68 383.5,34 Q323,0 235,0 M172,647 L139,370 L326,370 L322,340 L135,340 L98,37 L232,37 Q247,37 273.5,39.5 Q300,42 330.5,53 Q361,64 392.5,87 Q424,110 449.5,151.5 Q475,193 491.5,256 Q508,319 508,411 Q508,498 486.5,545.5 Q465,593 434.5,615.5 Q404,638 370,642.5 Q336,647 312,647"/> 
            <glyph glyph-name="Ñ" unicode="&#xD1;" horiz-adv-x="603" d=" M486,76 L560,683 L603,683 L519,0 L477,0 L228,493 L170,612 L167,611 L93,0 L51,0 L134,683 L177,683 Q182,673 201.5,635 Q221,597 247.5,544.5 Q274,492 304,432 Q334,372 360.5,319.5 Q387,267 406.5,229 Q426,191 431,181 L483,76 M453,746 Q438,746 419.5,752 Q401,758 382.5,765 Q364,772 346.5,778 Q329,784 316,784 L262,744 L246,755 Q259,784 280.5,801 Q302,818 325,818 Q341,818 359,812 Q377,806 395,799.5 Q413,793 430,787 Q447,781 461,781 L513,820 L528,808 Q515,783 496,764.5 Q477,746 453,746"/> 
            <glyph glyph-name="Ò" unicode="&#xD2;" horiz-adv-x="603" d=" M379,693 Q444,693 487,671 Q530,649 556,611 Q582,573 592.5,523 Q603,473 603,416 Q603,330 583.5,253 Q564,176 526,118.5 Q488,61 431.5,27 Q375,-7 301,-7 Q238,-7 194,11 Q150,29 122.5,63.5 Q95,98 82.5,147 Q70,196 70,259 Q70,339 86,416.5 Q102,494 138.5,555.5 Q175,617 234,655 Q293,693 379,693 M380,658 Q302,658 250,621 Q198,584 167.5,526 Q137,468 124.5,397 Q112,326 112,259 Q112,146 156,87 Q200,28 299,28 Q369,28 418.5,62.5 Q468,97 499.5,152 Q531,207 545.5,276.5 Q560,346 560,416 Q560,461 552.5,504.5 Q545,548 525.5,582 Q506,616 470.5,637 Q435,658 380,658 M292,833 L324,869 L426,735 L408,716"/> 
            <glyph glyph-name="Ó" unicode="&#xD3;" horiz-adv-x="603" d=" M379,693 Q444,693 487,671 Q530,649 556,611 Q582,573 592.5,523 Q603,473 603,416 Q603,330 583.5,253 Q564,176 526,118.5 Q488,61 431.5,27 Q375,-7 301,-7 Q238,-7 194,11 Q150,29 122.5,63.5 Q95,98 82.5,147 Q70,196 70,259 Q70,339 86,416.5 Q102,494 138.5,555.5 Q175,617 234,655 Q293,693 379,693 M380,658 Q302,658 250,621 Q198,584 167.5,526 Q137,468 124.5,397 Q112,326 112,259 Q112,146 156,87 Q200,28 299,28 Q369,28 418.5,62.5 Q468,97 499.5,152 Q531,207 545.5,276.5 Q560,346 560,416 Q560,461 552.5,504.5 Q545,548 525.5,582 Q506,616 470.5,637 Q435,658 380,658 M389,716 L373,734 L507,869 L533,835"/> 
            <glyph glyph-name="Ô" unicode="&#xD4;" horiz-adv-x="603" d=" M379,693 Q444,693 487,671 Q530,649 556,611 Q582,573 592.5,523 Q603,473 603,416 Q603,330 583.5,253 Q564,176 526,118.5 Q488,61 431.5,27 Q375,-7 301,-7 Q238,-7 194,11 Q150,29 122.5,63.5 Q95,98 82.5,147 Q70,196 70,259 Q70,339 86,416.5 Q102,494 138.5,555.5 Q175,617 234,655 Q293,693 379,693 M380,658 Q302,658 250,621 Q198,584 167.5,526 Q137,468 124.5,397 Q112,326 112,259 Q112,146 156,87 Q200,28 299,28 Q369,28 418.5,62.5 Q468,97 499.5,152 Q531,207 545.5,276.5 Q560,346 560,416 Q560,461 552.5,504.5 Q545,548 525.5,582 Q506,616 470.5,637 Q435,658 380,658 M525,714 L403,815 L255,713 L243,730 L390,859 L425,859 L540,731"/> 
            <glyph glyph-name="Õ" unicode="&#xD5;" horiz-adv-x="603" d=" M379,693 Q444,693 487,671 Q530,649 556,611 Q582,573 592.5,523 Q603,473 603,416 Q603,330 583.5,253 Q564,176 526,118.5 Q488,61 431.5,27 Q375,-7 301,-7 Q238,-7 194,11 Q150,29 122.5,63.5 Q95,98 82.5,147 Q70,196 70,259 Q70,339 86,416.5 Q102,494 138.5,555.5 Q175,617 234,655 Q293,693 379,693 M380,658 Q302,658 250,621 Q198,584 167.5,526 Q137,468 124.5,397 Q112,326 112,259 Q112,146 156,87 Q200,28 299,28 Q369,28 418.5,62.5 Q468,97 499.5,152 Q531,207 545.5,276.5 Q560,346 560,416 Q560,461 552.5,504.5 Q545,548 525.5,582 Q506,616 470.5,637 Q435,658 380,658 M462,766 Q447,766 428.5,772 Q410,778 391.5,785 Q373,792 355.5,798 Q338,804 325,804 L271,764 L255,775 Q268,804 289.5,821 Q311,838 334,838 Q350,838 368,832 Q386,826 404,819.5 Q422,813 439,807 Q456,801 470,801 L522,840 L537,828 Q524,803 505,784.5 Q486,766 462,766"/> 
            <glyph glyph-name="Ö" unicode="&#xD6;" horiz-adv-x="603" d=" M379,693 Q444,693 487,671 Q530,649 556,611 Q582,573 592.5,523 Q603,473 603,416 Q603,330 583.5,253 Q564,176 526,118.5 Q488,61 431.5,27 Q375,-7 301,-7 Q238,-7 194,11 Q150,29 122.5,63.5 Q95,98 82.5,147 Q70,196 70,259 Q70,339 86,416.5 Q102,494 138.5,555.5 Q175,617 234,655 Q293,693 379,693 M380,658 Q302,658 250,621 Q198,584 167.5,526 Q137,468 124.5,397 Q112,326 112,259 Q112,146 156,87 Q200,28 299,28 Q369,28 418.5,62.5 Q468,97 499.5,152 Q531,207 545.5,276.5 Q560,346 560,416 Q560,461 552.5,504.5 Q545,548 525.5,582 Q506,616 470.5,637 Q435,658 380,658 M497,779 Q497,764 486.5,754 Q476,744 462,744 Q450,744 443,751.5 Q436,759 436,771 Q436,785 446,795.5 Q456,806 469,806 Q482,806 489.5,798.5 Q497,791 497,779 M353,779 Q352,764 342,754 Q332,744 318,744 Q306,744 298.5,751.5 Q291,759 291,772 Q291,786 301.5,796 Q312,806 325,806 Q337,806 345,798.5 Q353,791 353,779"/> 
            <glyph glyph-name="ç" unicode="&#xE7;" horiz-adv-x="405" d=" M207,26 Q246,26 279.5,34.5 Q313,43 355,60 Q356,56 360,46.5 Q364,37 366,33 Q339,18 301,7 Q263,-4 222,-6 Q208,-22 193.5,-38 Q179,-54 165,-71 Q213,-72 241,-86 Q269,-100 269,-136 Q269,-156 258.5,-174.5 Q248,-193 226,-207.5 Q204,-222 171.5,-231 Q139,-240 94,-240 Q95,-235 95.5,-229 Q96,-223 96,-217 Q167,-212 198,-190.5 Q229,-169 229,-140 Q229,-118 208,-108.5 Q187,-99 155,-98 L131,-98 L124,-83 Q141,-63 157.5,-44.5 Q174,-26 191,-7 Q108,-3 74,46.5 Q40,96 40,175 Q40,201 43.5,234.5 Q47,268 56,303.5 Q65,339 81.5,373 Q98,407 124,434 Q150,461 187,477.5 Q224,494 275,494 Q313,494 346,486.5 Q379,479 405,465 L391,436 Q355,452 324,456 Q293,460 272,460 Q225,460 189.5,438.5 Q154,417 129.5,378.5 Q105,340 92.5,288 Q80,236 80,176 Q80,145 86,117.5 Q92,90 107,70 Q122,50 146.5,38 Q171,26 207,26"/> 
            <glyph glyph-name="è" unicode="&#xE8;" horiz-adv-x="403" d=" M278,494 Q311,494 335,484.5 Q359,475 374,459.5 Q389,444 396,424 Q403,404 403,383 Q403,334 376.5,301 Q350,268 306,247.5 Q262,227 203.5,216.5 Q145,206 81,202 Q80,191 80,183.5 Q80,176 80,170 Q80,145 85,119.5 Q90,94 104,73 Q118,52 142,39 Q166,26 205,26 Q278,26 350,59 L361,32 Q329,14 287.5,4 Q246,-6 198,-6 Q150,-6 119,8.5 Q88,23 70.5,48.5 Q53,74 46,107 Q39,140 39,178 Q39,224 50,279 Q61,334 88.5,382 Q116,430 162,462 Q208,494 278,494 M272,459 Q230,459 197.5,440.5 Q165,422 141,391 Q117,360 102.5,319 Q88,278 83,233 Q216,240 289.5,274.5 Q363,309 363,377 Q363,414 341,436.5 Q319,459 272,459 M177,672 L215,702 L315,558 L293,542"/> 
            <glyph glyph-name="é" unicode="&#xE9;" horiz-adv-x="403" d=" M278,494 Q311,494 335,484.5 Q359,475 374,459.5 Q389,444 396,424 Q403,404 403,383 Q403,334 376.5,301 Q350,268 306,247.5 Q262,227 203.5,216.5 Q145,206 81,202 Q80,191 80,183.5 Q80,176 80,170 Q80,145 85,119.5 Q90,94 104,73 Q118,52 142,39 Q166,26 205,26 Q278,26 350,59 L361,32 Q329,14 287.5,4 Q246,-6 198,-6 Q150,-6 119,8.5 Q88,23 70.5,48.5 Q53,74 46,107 Q39,140 39,178 Q39,224 50,279 Q61,334 88.5,382 Q116,430 162,462 Q208,494 278,494 M272,459 Q230,459 197.5,440.5 Q165,422 141,391 Q117,360 102.5,319 Q88,278 83,233 Q216,240 289.5,274.5 Q363,309 363,377 Q363,414 341,436.5 Q319,459 272,459 M269,549 L248,566 L368,716 L402,684"/> 
            <glyph glyph-name="ê" unicode="&#xEA;" horiz-adv-x="420" d=" M278,494 Q311,494 335,484.5 Q359,475 374,459.5 Q389,444 396,424 Q403,404 403,383 Q403,334 376.5,301 Q350,268 306,247.5 Q262,227 203.5,216.5 Q145,206 81,202 Q80,191 80,183.5 Q80,176 80,170 Q80,145 85,119.5 Q90,94 104,73 Q118,52 142,39 Q166,26 205,26 Q278,26 350,59 L361,32 Q329,14 287.5,4 Q246,-6 198,-6 Q150,-6 119,8.5 Q88,23 70.5,48.5 Q53,74 46,107 Q39,140 39,178 Q39,224 50,279 Q61,334 88.5,382 Q116,430 162,462 Q208,494 278,494 M272,459 Q230,459 197.5,440.5 Q165,422 141,391 Q117,360 102.5,319 Q88,278 83,233 Q216,240 289.5,274.5 Q363,309 363,377 Q363,414 341,436.5 Q319,459 272,459 M404,534 L282,635 L134,533 L122,550 L269,678 L304,678 L420,551"/> 
            <glyph glyph-name="ë" unicode="&#xEB;" horiz-adv-x="403" d=" M278,494 Q311,494 335,484.5 Q359,475 374,459.5 Q389,444 396,424 Q403,404 403,383 Q403,334 376.5,301 Q350,268 306,247.5 Q262,227 203.5,216.5 Q145,206 81,202 Q80,191 80,183.5 Q80,176 80,170 Q80,145 85,119.5 Q90,94 104,73 Q118,52 142,39 Q166,26 205,26 Q278,26 350,59 L361,32 Q329,14 287.5,4 Q246,-6 198,-6 Q150,-6 119,8.5 Q88,23 70.5,48.5 Q53,74 46,107 Q39,140 39,178 Q39,224 50,279 Q61,334 88.5,382 Q116,430 162,462 Q208,494 278,494 M272,459 Q230,459 197.5,440.5 Q165,422 141,391 Q117,360 102.5,319 Q88,278 83,233 Q216,240 289.5,274.5 Q363,309 363,377 Q363,414 341,436.5 Q319,459 272,459 M397,612 Q397,597 386.5,587 Q376,577 362,577 Q350,577 342.5,584.5 Q335,592 335,605 Q335,619 345.5,629.5 Q356,640 369,640 Q381,640 389,632.5 Q397,625 397,612 M252,612 Q252,597 241.5,587 Q231,577 217,577 Q205,577 197.5,584.5 Q190,592 190,605 Q190,619 200.5,629.5 Q211,640 224,640 Q252,640 252,612"/> 
            <glyph glyph-name="ì" unicode="&#xEC;" horiz-adv-x="169" d=" M53,0 L112,486 L152,486 L92,0 M31,672 L69,702 L169,558 L147,542"/> 
            <glyph glyph-name="í" unicode="&#xED;" horiz-adv-x="270" d=" M53,0 L112,486 L152,486 L92,0 M137,549 L116,566 L236,716 L270,684"/> 
            <glyph glyph-name="î" unicode="&#xEE;" horiz-adv-x="303" d=" M68,0 L127,486 L167,486 L107,0 M287,545 L165,646 L17,544 L5,561 L152,689 L187,689 L303,562"/> 
            <glyph glyph-name="ï" unicode="&#xEF;" horiz-adv-x="248" d=" M53,0 L112,486 L152,486 L92,0 M103,612 Q103,597 92.5,587 Q82,577 68,577 Q56,577 48.5,584.5 Q41,592 41,605 Q41,619 51.5,629.5 Q62,640 75,640 Q103,640 103,612 M248,612 Q248,597 237.5,587 Q227,577 213,577 Q201,577 193.5,584.5 Q186,592 186,605 Q186,619 196.5,629.5 Q207,640 220,640 Q232,640 240,632.5 Q248,625 248,612"/> 
            <glyph glyph-name="ð" unicode="&#xF0;" horiz-adv-x="435" d=" M255,449 Q276,449 296.5,444.5 Q317,440 335.5,433 Q354,426 369,417 Q384,408 393,399 L395,401 Q387,446 371,487.5 Q355,529 324,569 L224,505 L211,526 Q235,543 259.5,558 Q284,573 308,589 Q285,616 256,638.5 Q227,661 193,681 Q201,695 207,707 Q246,687 279,662 Q312,637 337,608 Q358,622 379.5,635.5 Q401,649 423,663 L435,641 Q415,628 394.5,615 Q374,602 354,588 Q394,537 413,474 Q432,411 432,339 Q432,314 429,278.5 Q426,243 417.5,204.5 Q409,166 393,128.5 Q377,91 351.5,61 Q326,31 289.5,12.5 Q253,-6 202,-6 Q157,-6 126,9 Q95,24 75.5,49 Q56,74 47.5,107 Q39,140 39,177 Q39,221 51.5,269 Q64,317 90.5,357 Q117,397 158,423 Q199,449 255,449 M253,416 Q202,416 168,389.5 Q134,363 114.5,325 Q95,287 87,245.5 Q79,204 79,174 Q79,146 85,119.5 Q91,93 105.5,72 Q120,51 145,38.5 Q170,26 209,26 Q268,26 304,60.5 Q340,95 360,144 Q380,193 387,246 Q394,299 394,337 L394,353 Q368,384 329.5,400 Q291,416 253,416"/> 
            <glyph glyph-name="ñ" unicode="&#xF1;" horiz-adv-x="424" d=" M342,0 L382,350 Q384,358 384,367 Q384,376 384,384 Q384,418 368,439.5 Q352,461 305,461 Q262,461 216,434.5 Q170,408 122,369 L75,0 L36,0 Q38,12 42.5,49.5 Q47,87 53,137 Q59,187 66,243 Q73,299 79.5,349 Q86,399 90.5,436.5 Q95,474 96,487 L135,487 Q133,472 130,448.5 Q127,425 125,412 Q125,411 126,411 Q127,411 128,410 Q182,451 228.5,473.5 Q275,496 317,496 Q348,496 369,487.5 Q390,479 402,465 Q414,451 419,432 Q424,413 424,392 Q424,386 423.5,379 Q423,372 422,365 L381,0 M336,592 Q321,592 302.5,598 Q284,604 265.5,611 Q247,618 229.5,624 Q212,630 199,630 L145,590 L129,601 Q142,630 163.5,647 Q185,664 208,664 Q224,664 242,658 Q260,652 278,645.5 Q296,639 313,633 Q330,627 344,627 L396,666 L411,654 Q398,629 379,610.5 Q360,592 336,592"/> 
            <glyph glyph-name="ò" unicode="&#xF2;" horiz-adv-x="428" d=" M263,459 Q210,459 174.5,431 Q139,403 118,361 Q97,319 88,269.5 Q79,220 79,177 Q79,148 84.5,120.5 Q90,93 104,72 Q118,51 143.5,38.5 Q169,26 208,26 Q263,26 298,55 Q333,84 353,126 Q373,168 380,214.5 Q387,261 387,297 Q387,327 381.5,356.5 Q376,386 362,408.5 Q348,431 324,445 Q300,459 263,459 M264,493 Q310,493 341.5,477 Q373,461 392.5,434.5 Q412,408 420,373 Q428,338 428,300 Q428,253 418,199 Q408,145 382.5,99.5 Q357,54 313.5,23.5 Q270,-7 204,-7 Q156,-7 124,8 Q92,23 73.5,48.5 Q55,74 47,108.5 Q39,143 39,181 Q39,232 50.5,287 Q62,342 88.5,388 Q115,434 158,463.5 Q201,493 264,493 M179,672 L217,702 L317,558 L295,542"/> 
            <glyph glyph-name="ó" unicode="&#xF3;" horiz-adv-x="428" d=" M263,459 Q210,459 174.5,431 Q139,403 118,361 Q97,319 88,269.5 Q79,220 79,177 Q79,148 84.5,120.5 Q90,93 104,72 Q118,51 143.5,38.5 Q169,26 208,26 Q263,26 298,55 Q333,84 353,126 Q373,168 380,214.5 Q387,261 387,297 Q387,327 381.5,356.5 Q376,386 362,408.5 Q348,431 324,445 Q300,459 263,459 M264,493 Q310,493 341.5,477 Q373,461 392.5,434.5 Q412,408 420,373 Q428,338 428,300 Q428,253 418,199 Q408,145 382.5,99.5 Q357,54 313.5,23.5 Q270,-7 204,-7 Q156,-7 124,8 Q92,23 73.5,48.5 Q55,74 47,108.5 Q39,143 39,181 Q39,232 50.5,287 Q62,342 88.5,388 Q115,434 158,463.5 Q201,493 264,493 M260,549 L239,566 L359,716 L393,684"/> 
            <glyph glyph-name="ô" unicode="&#xF4;" horiz-adv-x="429" d=" M263,459 Q210,459 174.5,431 Q139,403 118,361 Q97,319 88,269.5 Q79,220 79,177 Q79,148 84.5,120.5 Q90,93 104,72 Q118,51 143.5,38.5 Q169,26 208,26 Q263,26 298,55 Q333,84 353,126 Q373,168 380,214.5 Q387,261 387,297 Q387,327 381.5,356.5 Q376,386 362,408.5 Q348,431 324,445 Q300,459 263,459 M264,493 Q310,493 341.5,477 Q373,461 392.5,434.5 Q412,408 420,373 Q428,338 428,300 Q428,253 418,199 Q408,145 382.5,99.5 Q357,54 313.5,23.5 Q270,-7 204,-7 Q156,-7 124,8 Q92,23 73.5,48.5 Q55,74 47,108.5 Q39,143 39,181 Q39,232 50.5,287 Q62,342 88.5,388 Q115,434 158,463.5 Q201,493 264,493 M413,546 L291,647 L143,545 L131,562 L278,690 L313,690 L429,563"/> 
            <glyph glyph-name="õ" unicode="&#xF5;" horiz-adv-x="429" d=" M263,459 Q210,459 174.5,431 Q139,403 118,361 Q97,319 88,269.5 Q79,220 79,177 Q79,148 84.5,120.5 Q90,93 104,72 Q118,51 143.5,38.5 Q169,26 208,26 Q263,26 298,55 Q333,84 353,126 Q373,168 380,214.5 Q387,261 387,297 Q387,327 381.5,356.5 Q376,386 362,408.5 Q348,431 324,445 Q300,459 263,459 M264,493 Q310,493 341.5,477 Q373,461 392.5,434.5 Q412,408 420,373 Q428,338 428,300 Q428,253 418,199 Q408,145 382.5,99.5 Q357,54 313.5,23.5 Q270,-7 204,-7 Q156,-7 124,8 Q92,23 73.5,48.5 Q55,74 47,108.5 Q39,143 39,181 Q39,232 50.5,287 Q62,342 88.5,388 Q115,434 158,463.5 Q201,493 264,493 M354,581 Q339,581 320.5,587 Q302,593 283.5,600 Q265,607 247.5,613 Q230,619 217,619 L163,579 L147,590 Q160,619 181.5,636 Q203,653 226,653 Q242,653 260,647 Q278,641 296,634.5 Q314,628 331,622 Q348,616 362,616 L414,655 L429,643 Q416,618 397,599.5 Q378,581 354,581"/> 
            <glyph glyph-name="ö" unicode="&#xF6;" horiz-adv-x="428" d=" M263,459 Q210,459 174.5,431 Q139,403 118,361 Q97,319 88,269.5 Q79,220 79,177 Q79,148 84.5,120.5 Q90,93 104,72 Q118,51 143.5,38.5 Q169,26 208,26 Q263,26 298,55 Q333,84 353,126 Q373,168 380,214.5 Q387,261 387,297 Q387,327 381.5,356.5 Q376,386 362,408.5 Q348,431 324,445 Q300,459 263,459 M264,493 Q310,493 341.5,477 Q373,461 392.5,434.5 Q412,408 420,373 Q428,338 428,300 Q428,253 418,199 Q408,145 382.5,99.5 Q357,54 313.5,23.5 Q270,-7 204,-7 Q156,-7 124,8 Q92,23 73.5,48.5 Q55,74 47,108.5 Q39,143 39,181 Q39,232 50.5,287 Q62,342 88.5,388 Q115,434 158,463.5 Q201,493 264,493 M392,612 Q392,597 381.5,587 Q371,577 357,577 Q345,577 337.5,584.5 Q330,592 330,605 Q330,619 340.5,629.5 Q351,640 364,640 Q376,640 384,632.5 Q392,625 392,612 M247,612 Q247,597 236.5,587 Q226,577 212,577 Q200,577 192.5,584.5 Q185,592 185,605 Q185,619 195.5,629.5 Q206,640 219,640 Q247,640 247,612"/> 
            <glyph glyph-name="ø" unicode="&#xF8;" horiz-adv-x="458" d=" M264,493 Q308,493 337.5,479 Q367,465 387,442 L430,493 L458,493 Q455,490 446.5,480 Q438,470 428.5,458.5 Q419,447 410.5,437 Q402,427 400,424 Q416,398 422.5,364 Q429,330 429,294 Q429,247 418.5,194 Q408,141 382,96.5 Q356,52 313,22.5 Q270,-7 205,-7 Q160,-7 129.5,5.5 Q99,18 80,41 L41,-5 Q38,-5 27.5,-5.5 Q17,-6 14,-6 L67,59 Q53,83 46.5,114 Q40,145 40,179 Q40,231 51,286.5 Q62,342 88.5,388 Q115,434 158,463.5 Q201,493 264,493 M209,26 Q264,26 299,55 Q334,84 353.5,125.5 Q373,167 380,213.5 Q387,260 387,295 Q387,320 383.5,344.5 Q380,369 370,391 Q364,384 344,359.5 Q324,335 296.5,302 Q269,269 238,231 Q207,193 179.5,160 Q152,127 132,102.5 Q112,78 106,71 Q120,51 145,38.5 Q170,26 209,26 M264,459 Q211,459 175.5,431.5 Q140,404 119,362 Q98,320 89,271 Q80,222 80,179 Q80,155 83.5,132.5 Q87,110 96,91 Q102,98 122.5,122.5 Q143,147 170,180 Q197,213 228,251 Q259,289 286.5,322.5 Q314,356 334,380.5 Q354,405 360,412 Q346,433 322.5,446 Q299,459 264,459"/> 
            <glyph glyph-name="ù" unicode="&#xF9;" horiz-adv-x="426" d=" M126,487 L85,136 Q83,128 83,119 Q83,110 83,102 Q83,68 98,47 Q113,26 160,26 Q199,26 244.5,50 Q290,74 342,118 L388,487 L426,487 Q424,475 419.5,438 Q415,401 409,351 Q403,301 396.5,245 Q390,189 384,139 Q378,89 373.5,51 Q369,13 368,0 L330,0 L339,75 L338,76 Q337,76 336,77 Q279,32 234,11.5 Q189,-9 148,-9 Q116,-9 96,-1 Q76,7 64,21.5 Q52,36 47.5,54.5 Q43,73 43,94 Q43,100 43.5,107 Q44,114 45,121 L86,487 M153,672 L191,702 L291,558 L269,542"/> 
            <glyph glyph-name="ú" unicode="&#xFA;" horiz-adv-x="426" d=" M126,487 L85,136 Q83,128 83,119 Q83,110 83,102 Q83,68 98,47 Q113,26 160,26 Q199,26 244.5,50 Q290,74 342,118 L388,487 L426,487 Q424,475 419.5,438 Q415,401 409,351 Q403,301 396.5,245 Q390,189 384,139 Q378,89 373.5,51 Q369,13 368,0 L330,0 L339,75 L338,76 Q337,76 336,77 Q279,32 234,11.5 Q189,-9 148,-9 Q116,-9 96,-1 Q76,7 64,21.5 Q52,36 47.5,54.5 Q43,73 43,94 Q43,100 43.5,107 Q44,114 45,121 L86,487 M250,549 L229,566 L349,716 L383,684"/> 
            <glyph glyph-name="û" unicode="&#xFB;" horiz-adv-x="426" d=" M126,487 L85,136 Q83,128 83,119 Q83,110 83,102 Q83,68 98,47 Q113,26 160,26 Q199,26 244.5,50 Q290,74 342,118 L388,487 L426,487 Q424,475 419.5,438 Q415,401 409,351 Q403,301 396.5,245 Q390,189 384,139 Q378,89 373.5,51 Q369,13 368,0 L330,0 L339,75 L338,76 Q337,76 336,77 Q279,32 234,11.5 Q189,-9 148,-9 Q116,-9 96,-1 Q76,7 64,21.5 Q52,36 47.5,54.5 Q43,73 43,94 Q43,100 43.5,107 Q44,114 45,121 L86,487 M397,546 L275,647 L127,545 L115,562 L262,690 L297,690 L413,563"/> 
            <glyph glyph-name="ü" unicode="&#xFC;" horiz-adv-x="426" d=" M126,487 L85,136 Q83,128 83,119 Q83,110 83,102 Q83,68 98,47 Q113,26 160,26 Q199,26 244.5,50 Q290,74 342,118 L388,487 L426,487 Q424,475 419.5,438 Q415,401 409,351 Q403,301 396.5,245 Q390,189 384,139 Q378,89 373.5,51 Q369,13 368,0 L330,0 L339,75 L338,76 Q337,76 336,77 Q279,32 234,11.5 Q189,-9 148,-9 Q116,-9 96,-1 Q76,7 64,21.5 Q52,36 47.5,54.5 Q43,73 43,94 Q43,100 43.5,107 Q44,114 45,121 L86,487 M225,612 Q225,597 214.5,587 Q204,577 190,577 Q178,577 170.5,584.5 Q163,592 163,605 Q163,619 173.5,629.5 Q184,640 197,640 Q225,640 225,612 M370,612 Q370,597 359.5,587 Q349,577 335,577 Q323,577 315.5,584.5 Q308,592 308,605 Q308,619 318.5,629.5 Q329,640 342,640 Q354,640 362,632.5 Q370,625 370,612"/> 
            <glyph glyph-name="ý" unicode="&#xFD;" horiz-adv-x="413" d=" M155,-110 Q134,-156 105.5,-186.5 Q77,-217 30,-217 Q17,-217 -5.5,-214 Q-28,-211 -60,-200 L-49,-169 Q-23,-177 -6,-180.5 Q11,-184 27,-184 Q37,-184 48,-181.5 Q59,-179 70,-171 Q81,-163 92.5,-148 Q104,-133 115,-107 L163,0 L141,0 Q117,122 92,243 Q67,364 42,486 L82,486 L139,198 L172,29 L176,29 Q179,34 185.5,50 Q192,66 202,89 Q212,112 224.5,141.5 Q237,171 251,204 L376,494 L413,484 M213,544 L192,561 L312,711 L346,679"/> 
            <glyph glyph-name="þ" unicode="&#xFE;" horiz-adv-x="434" d=" M160,714 Q159,704 156,681 Q153,658 149.5,628 Q146,598 141.5,564.5 Q137,531 133.5,501 Q130,471 126.5,448.5 Q123,426 122,418 L124,416 Q217,492 300,492 Q358,492 395.5,449 Q433,406 434,325 Q434,265 420,205.5 Q406,146 377,99 Q348,52 303,23 Q258,-6 196,-6 Q164,-6 134.5,1.5 Q105,9 75,22 Q75,17 72.5,-0.5 Q70,-18 67,-42 Q64,-66 60.5,-93.5 Q57,-121 54,-145.5 Q51,-170 48.5,-188 Q46,-206 46,-211 L8,-211 L122,714 M200,29 Q240,29 275,48.5 Q310,68 336,105.5 Q362,143 377,196 Q392,249 392,317 Q392,391 362,425 Q332,459 290,459 Q247,459 204,435 Q161,411 120,378 L79,58 Q113,41 142,35 Q171,29 200,29"/> 
            <glyph glyph-name="ÿ" unicode="&#xFF;" horiz-adv-x="413" d=" M155,-110 Q134,-156 105.5,-186.5 Q77,-217 30,-217 Q17,-217 -5.5,-214 Q-28,-211 -60,-200 L-49,-169 Q-23,-177 -6,-180.5 Q11,-184 27,-184 Q37,-184 48,-181.5 Q59,-179 70,-171 Q81,-163 92.5,-148 Q104,-133 115,-107 L163,0 L141,0 Q117,122 92,243 Q67,364 42,486 L82,486 L139,198 L172,29 L176,29 Q179,34 185.5,50 Q192,66 202,89 Q212,112 224.5,141.5 Q237,171 251,204 L376,494 L413,484 M205,612 Q205,597 194.5,587 Q184,577 170,577 Q158,577 150.5,584.5 Q143,592 143,605 Q143,619 153.5,629.5 Q164,640 177,640 Q205,640 205,612 M350,612 Q350,597 339.5,587 Q329,577 315,577 Q303,577 295.5,584.5 Q288,592 288,605 Q288,619 298.5,629.5 Q309,640 322,640 Q334,640 342,632.5 Q350,625 350,612"/> 
            <glyph glyph-name="Ā" unicode="&#x100;" horiz-adv-x="476" d=" M433,0 Q423,48 414.5,95.5 Q406,143 397,191 L118,191 L37,0 L-8,0 Q68,176 142.5,345.5 Q217,515 290,682 L346,682 Q378,511 410.5,341 Q443,171 476,0 M312,643 Q297,609 280.5,571.5 Q264,534 247,492 Q221,430 192.5,363 Q164,296 134,227 L390,227 L343,486 L315,643 M185,785 L476,785 L472,748 L180,748"/> 
            <glyph glyph-name="ā" unicode="&#x101;" horiz-adv-x="453" d=" M277,492 Q309,492 340.5,484.5 Q372,477 403,463 L411,489 L440,488 Q439,479 434.5,445.5 Q430,412 424,365.5 Q418,319 411.5,266 Q405,213 399,165.5 Q393,118 388.5,82.5 Q384,47 383,35 L446,37 L448,11 Q428,3 410.5,-0.5 Q393,-4 381,-4 Q359,-4 351,5.5 Q343,15 345,35 Q345,36 345.5,40.5 Q346,45 346.5,51 Q347,57 347.5,62 Q348,67 348,68 L347,70 Q302,33 259,13.5 Q216,-6 173,-6 Q115,-6 77.5,37 Q40,80 39,161 Q39,221 53,280.5 Q67,340 96,387 Q125,434 170,463 Q215,492 277,492 M274,458 Q234,458 199,438 Q164,418 137.5,381 Q111,344 96,290.5 Q81,237 81,170 Q81,95 111,61.5 Q141,28 183,28 Q226,28 269,52 Q312,76 352,109 L395,428 Q361,445 331.5,451.5 Q302,458 274,458 M164,634 L453,634 L449,597 L159,597"/> 
            <glyph glyph-name="Ă" unicode="&#x102;" horiz-adv-x="478" d=" M433,0 Q423,48 414.5,95.5 Q406,143 397,191 L118,191 L37,0 L-8,0 Q68,176 142.5,345.5 Q217,515 290,682 L346,682 Q378,511 410.5,341 Q443,171 476,0 M312,643 Q297,609 280.5,571.5 Q264,534 247,492 Q221,430 192.5,363 Q164,296 134,227 L390,227 L343,486 L315,643 M316,721 Q293,721 273.5,729 Q254,737 238,750.5 Q222,764 209,781.5 Q196,799 186,818 L218,838 Q238,802 264.5,780 Q291,758 323,758 Q346,758 379.5,773 Q413,788 463,833 L478,819 Q432,763 391,742 Q350,721 316,721"/> 
            <glyph glyph-name="ă" unicode="&#x103;" horiz-adv-x="448" d=" M277,492 Q309,492 340.5,484.5 Q372,477 403,463 L411,489 L440,488 Q439,479 434.5,445.5 Q430,412 424,365.5 Q418,319 411.5,266 Q405,213 399,165.5 Q393,118 388.5,82.5 Q384,47 383,35 L446,37 L448,11 Q428,3 410.5,-0.5 Q393,-4 381,-4 Q359,-4 351,5.5 Q343,15 345,35 Q345,36 345.5,40.5 Q346,45 346.5,51 Q347,57 347.5,62 Q348,67 348,68 L347,70 Q302,33 259,13.5 Q216,-6 173,-6 Q115,-6 77.5,37 Q40,80 39,161 Q39,221 53,280.5 Q67,340 96,387 Q125,434 170,463 Q215,492 277,492 M274,458 Q234,458 199,438 Q164,418 137.5,381 Q111,344 96,290.5 Q81,237 81,170 Q81,95 111,61.5 Q141,28 183,28 Q226,28 269,52 Q312,76 352,109 L395,428 Q361,445 331.5,451.5 Q302,458 274,458 M274,561 Q251,561 231.5,569 Q212,577 196,590.5 Q180,604 167,621.5 Q154,639 144,658 L177,678 Q196,643 222.5,621 Q249,599 281,599 Q293,599 307,602 Q321,605 338,613 Q355,621 376,635.5 Q397,650 421,673 L436,659 Q391,604 350,582.5 Q309,561 274,561"/> 
            <glyph glyph-name="Ą" unicode="&#x104;" horiz-adv-x="499" d=" M447,0 Q408,-35 391,-69 Q374,-103 372,-124 Q372,-151 386,-160.5 Q400,-170 426,-170 Q445,-170 463,-167 Q481,-164 495,-160 Q497,-172 499,-180 Q476,-191 451.5,-196.5 Q427,-202 405,-202 Q366,-202 348.5,-185.5 Q331,-169 331,-144 Q331,-117 351,-77 Q371,-37 431,8 Q422,53 413.5,99 Q405,145 397,191 L118,191 L37,0 L-8,0 Q68,176 142.5,345.5 Q217,515 290,682 L346,682 Q378,511 410.5,341 Q443,171 476,0 M312,643 Q297,609 280.5,571.5 Q264,534 247,492 Q221,430 192.5,363 Q164,296 134,227 L390,227 L343,486 L315,643"/> 
            <glyph glyph-name="ą" unicode="&#x105;" horiz-adv-x="448" d=" M277,492 Q309,492 340.5,484.5 Q372,477 403,463 L411,489 L440,488 Q439,479 434.5,445.5 Q430,412 424,365.5 Q418,319 411.5,266 Q405,213 399,165.5 Q393,118 388.5,82.5 Q384,47 383,35 L446,37 L448,11 Q428,3 410.5,-0.5 Q393,-4 381,-4 Q373,-4 367.5,-3 Q362,-2 357,0 Q320,-34 303.5,-67 Q287,-100 285,-121 Q285,-148 299,-157.5 Q313,-167 339,-167 Q358,-167 376,-164 Q394,-161 408,-157 Q410,-169 412,-177 Q389,-188 364.5,-193.5 Q340,-199 318,-199 Q279,-199 261.5,-182.5 Q244,-166 244,-141 Q244,-128 248.5,-110.5 Q253,-93 264.5,-73.5 Q276,-54 295.5,-32 Q315,-10 346,13 Q343,20 345,35 Q345,36 345.5,40.5 Q346,45 346.5,51 Q347,57 347.5,62 Q348,67 348,68 L347,70 Q302,33 259,13.5 Q216,-6 173,-6 Q115,-6 77.5,37 Q40,80 39,161 Q39,221 53,280.5 Q67,340 96,387 Q125,434 170,463 Q215,492 277,492 M274,458 Q234,458 199,438 Q164,418 137.5,381 Q111,344 96,290.5 Q81,237 81,170 Q81,95 111,61.5 Q141,28 183,28 Q226,28 269,52 Q312,76 352,109 L395,428 Q361,445 331.5,451.5 Q302,458 274,458"/> 
            <glyph glyph-name="Ć" unicode="&#x106;" horiz-adv-x="547" d=" M386,693 Q438,693 479.5,685 Q521,677 547,667 L534,633 Q498,645 459.5,651 Q421,657 387,657 Q317,657 266,627 Q215,597 181.5,543 Q148,489 131.5,414.5 Q115,340 115,252 Q115,206 123,165.5 Q131,125 152.5,95 Q174,65 211.5,47.5 Q249,30 309,30 Q322,30 341.5,31 Q361,32 383,35 Q405,38 428.5,42.5 Q452,47 474,53 L483,20 Q464,13 441,8 Q418,3 393.5,-0.5 Q369,-4 344.5,-5.5 Q320,-7 299,-7 Q236,-7 192.5,11 Q149,29 122,63 Q95,97 82.5,146 Q70,195 70,256 Q70,292 75,338.5 Q80,385 92.5,433.5 Q105,482 127.5,528.5 Q150,575 185.5,611.5 Q221,648 270,670.5 Q319,693 386,693 M356,716 L340,734 L474,869 L500,835"/> 
            <glyph glyph-name="ć" unicode="&#x107;" horiz-adv-x="405" d=" M207,26 Q246,26 279.5,34.5 Q313,43 355,60 Q356,56 360,46.5 Q364,37 366,33 Q336,16 292.5,4.5 Q249,-7 204,-7 Q159,-7 127.5,6 Q96,19 76.5,43 Q57,67 48.5,100.5 Q40,134 40,175 Q40,201 43.5,234.5 Q47,268 56,303.5 Q65,339 81.5,373 Q98,407 124,434 Q150,461 187,477.5 Q224,494 275,494 Q313,494 346,486.5 Q379,479 405,465 L391,436 Q355,452 324,456 Q293,460 272,460 Q225,460 189.5,438.5 Q154,417 129.5,378.5 Q105,340 92.5,288 Q80,236 80,176 Q80,145 86,117.5 Q92,90 107,70 Q122,50 146.5,38 Q171,26 207,26 M248,549 L227,566 L347,716 L381,684"/> 
            <glyph glyph-name="Ĉ" unicode="&#x108;" horiz-adv-x="547" d=" M386,693 Q438,693 479.5,685 Q521,677 547,667 L534,633 Q498,645 459.5,651 Q421,657 387,657 Q317,657 266,627 Q215,597 181.5,543 Q148,489 131.5,414.5 Q115,340 115,252 Q115,206 123,165.5 Q131,125 152.5,95 Q174,65 211.5,47.5 Q249,30 309,30 Q322,30 341.5,31 Q361,32 383,35 Q405,38 428.5,42.5 Q452,47 474,53 L483,20 Q464,13 441,8 Q418,3 393.5,-0.5 Q369,-4 344.5,-5.5 Q320,-7 299,-7 Q236,-7 192.5,11 Q149,29 122,63 Q95,97 82.5,146 Q70,195 70,256 Q70,292 75,338.5 Q80,385 92.5,433.5 Q105,482 127.5,528.5 Q150,575 185.5,611.5 Q221,648 270,670.5 Q319,693 386,693 M494,714 L372,815 L224,713 L212,730 L359,859 L394,859 L509,731"/> 
            <glyph glyph-name="ĉ" unicode="&#x109;" horiz-adv-x="417" d=" M207,26 Q246,26 279.5,34.5 Q313,43 355,60 Q356,56 360,46.5 Q364,37 366,33 Q336,16 292.5,4.5 Q249,-7 204,-7 Q159,-7 127.5,6 Q96,19 76.5,43 Q57,67 48.5,100.5 Q40,134 40,175 Q40,201 43.5,234.5 Q47,268 56,303.5 Q65,339 81.5,373 Q98,407 124,434 Q150,461 187,477.5 Q224,494 275,494 Q313,494 346,486.5 Q379,479 405,465 L391,436 Q355,452 324,456 Q293,460 272,460 Q225,460 189.5,438.5 Q154,417 129.5,378.5 Q105,340 92.5,288 Q80,236 80,176 Q80,145 86,117.5 Q92,90 107,70 Q122,50 146.5,38 Q171,26 207,26 M401,544 L279,645 L131,543 L119,560 L266,688 L301,688 L417,561"/> 
            <glyph glyph-name="Ċ" unicode="&#x10A;" horiz-adv-x="547" d=" M386,693 Q438,693 479.5,685 Q521,677 547,667 L534,633 Q498,645 459.5,651 Q421,657 387,657 Q317,657 266,627 Q215,597 181.5,543 Q148,489 131.5,414.5 Q115,340 115,252 Q115,206 123,165.5 Q131,125 152.5,95 Q174,65 211.5,47.5 Q249,30 309,30 Q322,30 341.5,31 Q361,32 383,35 Q405,38 428.5,42.5 Q452,47 474,53 L483,20 Q464,13 441,8 Q418,3 393.5,-0.5 Q369,-4 344.5,-5.5 Q320,-7 299,-7 Q236,-7 192.5,11 Q149,29 122,63 Q95,97 82.5,146 Q70,195 70,256 Q70,292 75,338.5 Q80,385 92.5,433.5 Q105,482 127.5,528.5 Q150,575 185.5,611.5 Q221,648 270,670.5 Q319,693 386,693 M409,802 Q408,787 396.5,775 Q385,763 369,763 Q355,763 346.5,772 Q338,781 338,794 Q338,810 350.5,821.5 Q363,833 378,833 Q391,833 400,824 Q409,815 409,802"/> 
            <glyph glyph-name="ċ" unicode="&#x10B;" horiz-adv-x="405" d=" M207,26 Q246,26 279.5,34.5 Q313,43 355,60 Q356,56 360,46.5 Q364,37 366,33 Q336,16 292.5,4.5 Q249,-7 204,-7 Q159,-7 127.5,6 Q96,19 76.5,43 Q57,67 48.5,100.5 Q40,134 40,175 Q40,201 43.5,234.5 Q47,268 56,303.5 Q65,339 81.5,373 Q98,407 124,434 Q150,461 187,477.5 Q224,494 275,494 Q313,494 346,486.5 Q379,479 405,465 L391,436 Q355,452 324,456 Q293,460 272,460 Q225,460 189.5,438.5 Q154,417 129.5,378.5 Q105,340 92.5,288 Q80,236 80,176 Q80,145 86,117.5 Q92,90 107,70 Q122,50 146.5,38 Q171,26 207,26 M314,606 Q313,592 302.5,580 Q292,568 278,568 Q266,568 258,577 Q250,586 250,598 Q250,614 261,625 Q272,636 286,636 Q297,636 305.5,627.5 Q314,619 314,606"/> 
            <glyph glyph-name="Č" unicode="&#x10C;" horiz-adv-x="547" d=" M386,693 Q438,693 479.5,685 Q521,677 547,667 L534,633 Q498,645 459.5,651 Q421,657 387,657 Q317,657 266,627 Q215,597 181.5,543 Q148,489 131.5,414.5 Q115,340 115,252 Q115,206 123,165.5 Q131,125 152.5,95 Q174,65 211.5,47.5 Q249,30 309,30 Q322,30 341.5,31 Q361,32 383,35 Q405,38 428.5,42.5 Q452,47 474,53 L483,20 Q464,13 441,8 Q418,3 393.5,-0.5 Q369,-4 344.5,-5.5 Q320,-7 299,-7 Q236,-7 192.5,11 Q149,29 122,63 Q95,97 82.5,146 Q70,195 70,256 Q70,292 75,338.5 Q80,385 92.5,433.5 Q105,482 127.5,528.5 Q150,575 185.5,611.5 Q221,648 270,670.5 Q319,693 386,693 M538,846 L392,721 L357,721 L241,847 L257,864 L380,764 L526,863"/> 
            <glyph glyph-name="č" unicode="&#x10D;" horiz-adv-x="438" d=" M207,26 Q246,26 279.5,34.5 Q313,43 355,60 Q356,56 360,46.5 Q364,37 366,33 Q336,16 292.5,4.5 Q249,-7 204,-7 Q159,-7 127.5,6 Q96,19 76.5,43 Q57,67 48.5,100.5 Q40,134 40,175 Q40,201 43.5,234.5 Q47,268 56,303.5 Q65,339 81.5,373 Q98,407 124,434 Q150,461 187,477.5 Q224,494 275,494 Q313,494 346,486.5 Q379,479 405,465 L391,436 Q355,452 324,456 Q293,460 272,460 Q225,460 189.5,438.5 Q154,417 129.5,378.5 Q105,340 92.5,288 Q80,236 80,176 Q80,145 86,117.5 Q92,90 107,70 Q122,50 146.5,38 Q171,26 207,26 M438,684 L292,556 L257,556 L141,685 L157,702 L279,600 L427,701"/> 
            <glyph glyph-name="Ď" unicode="&#x10E;" horiz-adv-x="551" d=" M51,0 L134,683 L326,683 Q392,683 435.5,662.5 Q479,642 504.5,606 Q530,570 540.5,521.5 Q551,473 551,417 Q551,334 535,259 Q519,184 481.5,126 Q444,68 383.5,34 Q323,0 235,0 M172,647 L98,37 L232,37 Q247,37 273.5,39.5 Q300,42 330.5,53 Q361,64 392.5,87 Q424,110 449.5,151.5 Q475,193 491.5,256 Q508,319 508,411 Q508,498 486.5,545.5 Q465,593 434.5,615.5 Q404,638 370,642.5 Q336,647 312,647 M475,846 L329,721 L294,721 L178,847 L194,864 L317,764 L463,863"/> 
            <glyph glyph-name="ď" unicode="&#x10F;" horiz-adv-x="598" d=" M566,712 Q580,712 589,702.5 Q598,693 598,676 Q598,647 578.5,619.5 Q559,592 527,571 L518,584 Q535,601 542,613 Q549,625 553,645 Q541,647 534.5,654 Q528,661 528,672 Q528,689 538.5,700.5 Q549,712 566,712 M340,0 L349,68 L347,70 Q302,33 259,13.5 Q216,-6 174,-6 Q115,-6 77.5,37 Q40,80 40,161 Q40,221 53.5,280.5 Q67,340 96,387 Q125,434 170,463 Q215,492 277,492 Q309,492 339.5,485 Q370,478 399,465 L430,709 L468,709 L379,0 M274,458 Q234,458 199,438 Q164,418 137.5,381 Q111,344 96,290.5 Q81,237 81,170 Q81,95 111,61.5 Q141,28 183,28 Q226,28 269.5,52 Q313,76 353,109 L394,428 Q360,445 331.5,451.5 Q303,458 274,458"/> 
            <glyph glyph-name="đ" unicode="&#x111;" horiz-adv-x="513" d=" M341,0 L349,68 L347,70 Q302,33 259,13.5 Q216,-6 174,-6 Q115,-6 77.5,37 Q40,80 40,161 Q40,221 53.5,280.5 Q67,340 96,387 Q125,434 170,463 Q215,492 277,492 Q309,492 339.5,485 Q370,478 399,465 L410,549 L253,549 L257,578 L414,578 L430,709 L468,709 L452,578 L513,578 L509,549 L448,549 L379,0 M274,458 Q234,458 199,438 Q164,418 137.5,381 Q111,344 96,290.5 Q81,237 81,170 Q81,95 111,61.5 Q141,28 183,28 Q226,28 269.5,52 Q313,76 353,109 L394,428 Q360,445 331.5,451.5 Q303,458 274,458"/> 
            <glyph glyph-name="Ē" unicode="&#x112;" horiz-adv-x="496" d=" M51,0 L134,683 L496,683 L492,647 L172,647 L139,380 L421,380 L417,344 L134,344 L97,36 L444,36 L441,0 M191,785 L482,785 L478,748 L186,748"/> 
            <glyph glyph-name="ē" unicode="&#x113;" horiz-adv-x="438" d=" M278,494 Q311,494 335,484.5 Q359,475 374,459.5 Q389,444 396,424 Q403,404 403,383 Q403,334 376.5,301 Q350,268 306,247.5 Q262,227 203.5,216.5 Q145,206 81,202 Q80,191 80,183.5 Q80,176 80,170 Q80,145 85,119.5 Q90,94 104,73 Q118,52 142,39 Q166,26 205,26 Q278,26 350,59 L361,32 Q329,14 287.5,4 Q246,-6 198,-6 Q150,-6 119,8.5 Q88,23 70.5,48.5 Q53,74 46,107 Q39,140 39,178 Q39,224 50,279 Q61,334 88.5,382 Q116,430 162,462 Q208,494 278,494 M272,459 Q230,459 197.5,440.5 Q165,422 141,391 Q117,360 102.5,319 Q88,278 83,233 Q216,240 289.5,274.5 Q363,309 363,377 Q363,414 341,436.5 Q319,459 272,459 M149,634 L438,634 L434,597 L144,597"/> 
            <glyph glyph-name="Ĕ" unicode="&#x114;" horiz-adv-x="496" d=" M51,0 L134,683 L496,683 L492,647 L172,647 L139,380 L421,380 L417,344 L134,344 L97,36 L444,36 L441,0 M325,721 Q302,721 282.5,729 Q263,737 247,750.5 Q231,764 218,781.5 Q205,799 195,818 L227,838 Q247,802 273.5,780 Q300,758 332,758 Q355,758 388.5,773 Q422,788 472,833 L487,819 Q441,763 400,742 Q359,721 325,721"/> 
            <glyph glyph-name="ĕ" unicode="&#x115;" horiz-adv-x="436" d=" M278,494 Q311,494 335,484.5 Q359,475 374,459.5 Q389,444 396,424 Q403,404 403,383 Q403,334 376.5,301 Q350,268 306,247.5 Q262,227 203.5,216.5 Q145,206 81,202 Q80,191 80,183.5 Q80,176 80,170 Q80,145 85,119.5 Q90,94 104,73 Q118,52 142,39 Q166,26 205,26 Q278,26 350,59 L361,32 Q329,14 287.5,4 Q246,-6 198,-6 Q150,-6 119,8.5 Q88,23 70.5,48.5 Q53,74 46,107 Q39,140 39,178 Q39,224 50,279 Q61,334 88.5,382 Q116,430 162,462 Q208,494 278,494 M272,459 Q230,459 197.5,440.5 Q165,422 141,391 Q117,360 102.5,319 Q88,278 83,233 Q216,240 289.5,274.5 Q363,309 363,377 Q363,414 341,436.5 Q319,459 272,459 M274,561 Q251,561 231.5,569 Q212,577 196,590.5 Q180,604 167,621.5 Q154,639 144,658 L177,678 Q196,643 222.5,621 Q249,599 281,599 Q293,599 307,602 Q321,605 338,613 Q355,621 376,635.5 Q397,650 421,673 L436,659 Q391,604 350,582.5 Q309,561 274,561"/> 
            <glyph glyph-name="Ė" unicode="&#x116;" horiz-adv-x="496" d=" M51,0 L134,683 L496,683 L492,647 L172,647 L139,380 L421,380 L417,344 L134,344 L97,36 L444,36 L441,0 M373,794 Q372,779 360.5,767 Q349,755 333,755 Q319,755 310.5,764 Q302,773 302,786 Q302,802 314.5,813.5 Q327,825 342,825 Q355,825 364,816 Q373,807 373,794"/> 
            <glyph glyph-name="ė" unicode="&#x117;" horiz-adv-x="403" d=" M278,494 Q311,494 335,484.5 Q359,475 374,459.5 Q389,444 396,424 Q403,404 403,383 Q403,334 376.5,301 Q350,268 306,247.5 Q262,227 203.5,216.5 Q145,206 81,202 Q80,191 80,183.5 Q80,176 80,170 Q80,145 85,119.5 Q90,94 104,73 Q118,52 142,39 Q166,26 205,26 Q278,26 350,59 L361,32 Q329,14 287.5,4 Q246,-6 198,-6 Q150,-6 119,8.5 Q88,23 70.5,48.5 Q53,74 46,107 Q39,140 39,178 Q39,224 50,279 Q61,334 88.5,382 Q116,430 162,462 Q208,494 278,494 M272,459 Q230,459 197.5,440.5 Q165,422 141,391 Q117,360 102.5,319 Q88,278 83,233 Q216,240 289.5,274.5 Q363,309 363,377 Q363,414 341,436.5 Q319,459 272,459 M325,601 Q324,586 312.5,574 Q301,562 285,562 Q271,562 262.5,571 Q254,580 254,593 Q254,609 266.5,620.5 Q279,632 294,632 Q307,632 316,623 Q325,614 325,601"/> 
            <glyph glyph-name="Ę" unicode="&#x118;" horiz-adv-x="496" d=" M413,0 Q375,-35 358,-68.5 Q341,-102 339,-123 Q339,-150 353,-159.5 Q367,-169 393,-169 Q412,-169 430,-166 Q448,-163 462,-159 Q464,-171 466,-179 Q443,-190 418.5,-195.5 Q394,-201 372,-201 Q333,-201 315.5,-184.5 Q298,-168 298,-143 Q298,-130 302,-114 Q306,-98 316,-80 Q326,-62 343,-41.5 Q360,-21 386,0 L51,0 L134,683 L496,683 L492,647 L172,647 L139,380 L421,380 L417,344 L134,344 L97,36 L444,36 L441,0"/> 
            <glyph glyph-name="ę" unicode="&#x119;" horiz-adv-x="403" d=" M278,494 Q311,494 335,484.5 Q359,475 374,459.5 Q389,444 396,424 Q403,404 403,383 Q403,334 376.5,301 Q350,268 306,247.5 Q262,227 203.5,216.5 Q145,206 81,202 Q80,191 80,183.5 Q80,176 80,170 Q80,145 85,119.5 Q90,94 104,73 Q118,52 142,39 Q166,26 205,26 Q278,26 350,59 L361,32 Q355,28 348.5,25 Q342,22 335,19 Q297,-15 280.5,-48.5 Q264,-82 262,-103 Q262,-130 276,-139.5 Q290,-149 316,-149 Q335,-149 353,-146 Q371,-143 385,-139 Q387,-151 389,-159 Q366,-170 341.5,-175.5 Q317,-181 295,-181 Q256,-181 238.5,-164.5 Q221,-148 221,-123 Q221,-100 235,-66.5 Q249,-33 291,5 Q247,-6 198,-6 Q150,-6 119,8.5 Q88,23 70.5,48.5 Q53,74 46,107 Q39,140 39,178 Q39,224 50,279 Q61,334 88.5,382 Q116,430 162,462 Q208,494 278,494 M272,459 Q230,459 197.5,440.5 Q165,422 141,391 Q117,360 102.5,319 Q88,278 83,233 Q216,240 289.5,274.5 Q363,309 363,377 Q363,414 341,436.5 Q319,459 272,459"/> 
            <glyph glyph-name="Ě" unicode="&#x11A;" horiz-adv-x="496" d=" M51,0 L134,683 L496,683 L492,647 L172,647 L139,380 L421,380 L417,344 L134,344 L97,36 L444,36 L441,0 M489,846 L343,721 L308,721 L192,847 L208,864 L331,764 L477,863"/> 
            <glyph glyph-name="ě" unicode="&#x11B;" horiz-adv-x="447" d=" M278,494 Q311,494 335,484.5 Q359,475 374,459.5 Q389,444 396,424 Q403,404 403,383 Q403,334 376.5,301 Q350,268 306,247.5 Q262,227 203.5,216.5 Q145,206 81,202 Q80,191 80,183.5 Q80,176 80,170 Q80,145 85,119.5 Q90,94 104,73 Q118,52 142,39 Q166,26 205,26 Q278,26 350,59 L361,32 Q329,14 287.5,4 Q246,-6 198,-6 Q150,-6 119,8.5 Q88,23 70.5,48.5 Q53,74 46,107 Q39,140 39,178 Q39,224 50,279 Q61,334 88.5,382 Q116,430 162,462 Q208,494 278,494 M272,459 Q230,459 197.5,440.5 Q165,422 141,391 Q117,360 102.5,319 Q88,278 83,233 Q216,240 289.5,274.5 Q363,309 363,377 Q363,414 341,436.5 Q319,459 272,459 M447,676 L301,548 L266,548 L150,677 L166,694 L288,592 L436,693"/> 
            <glyph glyph-name="Ĝ" unicode="&#x11C;" horiz-adv-x="564" d=" M400,693 Q452,693 492.5,686 Q533,679 564,669 L552,634 Q513,645 473,650.5 Q433,656 400,656 Q329,656 275.5,626.5 Q222,597 186,544 Q150,491 132,416 Q114,341 114,251 Q114,206 122.5,166 Q131,126 152.5,96 Q174,66 212.5,48.5 Q251,31 311,31 Q325,31 343.5,32.5 Q362,34 381.5,36.5 Q401,39 419.5,42.5 Q438,46 452,51 L488,342 L529,342 L489,21 Q441,6 393,-0.5 Q345,-7 299,-7 Q237,-7 193.5,11 Q150,29 122.5,62.5 Q95,96 82.5,144.5 Q70,193 70,254 Q70,290 75,336.5 Q80,383 93.5,431.5 Q107,480 130.5,527 Q154,574 190.5,611 Q227,648 278.5,670.5 Q330,693 400,693 M524,714 L402,815 L254,713 L242,730 L389,859 L424,859 L539,731"/> 
            <glyph glyph-name="ĝ" unicode="&#x11D;" horiz-adv-x="448" d=" M384,5 Q379,-32 369.5,-71.5 Q360,-111 336.5,-144 Q313,-177 272,-198 Q231,-219 162,-219 Q124,-219 90,-209.5 Q56,-200 35,-190 Q38,-182 41.5,-173.5 Q45,-165 49,-157 Q75,-169 107,-176 Q139,-183 168,-183 Q222,-183 255,-166 Q288,-149 307,-120 Q326,-91 335,-51 Q344,-11 350,34 Q351,44 352,52.5 Q353,61 355,70 Q355,71 354,71 Q353,71 353,72 Q308,34 264.5,13.5 Q221,-7 178,-7 Q121,-7 82,34 Q43,75 42,160 L42,163 Q42,225 57,284 Q72,343 102.5,389.5 Q133,436 179.5,464 Q226,492 288,492 Q326,492 364.5,483.5 Q403,475 437,458 L441,450 M286,458 Q246,458 209.5,439 Q173,420 145,382.5 Q117,345 100.5,290.5 Q84,236 84,166 Q84,91 114.5,58.5 Q145,26 187,26 Q230,26 274,51.5 Q318,77 358,110 L400,433 Q368,448 340,453 Q312,458 286,458 M432,546 L310,647 L162,545 L150,562 L297,690 L332,690 L448,563"/> 
            <glyph glyph-name="Ğ" unicode="&#x11E;" horiz-adv-x="564" d=" M400,693 Q452,693 492.5,686 Q533,679 564,669 L552,634 Q513,645 473,650.5 Q433,656 400,656 Q329,656 275.5,626.5 Q222,597 186,544 Q150,491 132,416 Q114,341 114,251 Q114,206 122.5,166 Q131,126 152.5,96 Q174,66 212.5,48.5 Q251,31 311,31 Q325,31 343.5,32.5 Q362,34 381.5,36.5 Q401,39 419.5,42.5 Q438,46 452,51 L488,342 L529,342 L489,21 Q441,6 393,-0.5 Q345,-7 299,-7 Q237,-7 193.5,11 Q150,29 122.5,62.5 Q95,96 82.5,144.5 Q70,193 70,254 Q70,290 75,336.5 Q80,383 93.5,431.5 Q107,480 130.5,527 Q154,574 190.5,611 Q227,648 278.5,670.5 Q330,693 400,693 M388,735 Q365,735 345.5,743 Q326,751 310,764.5 Q294,778 281,795.5 Q268,813 258,832 L290,852 Q310,816 336.5,794 Q363,772 395,772 Q418,772 451.5,787 Q485,802 535,847 L550,833 Q504,777 463,756 Q422,735 388,735"/> 
            <glyph glyph-name="ğ" unicode="&#x11F;" horiz-adv-x="444" d=" M384,5 Q379,-32 369.5,-71.5 Q360,-111 336.5,-144 Q313,-177 272,-198 Q231,-219 162,-219 Q124,-219 90,-209.5 Q56,-200 35,-190 Q38,-182 41.5,-173.5 Q45,-165 49,-157 Q75,-169 107,-176 Q139,-183 168,-183 Q222,-183 255,-166 Q288,-149 307,-120 Q326,-91 335,-51 Q344,-11 350,34 Q351,44 352,52.5 Q353,61 355,70 Q355,71 354,71 Q353,71 353,72 Q308,34 264.5,13.5 Q221,-7 178,-7 Q121,-7 82,34 Q43,75 42,160 L42,163 Q42,225 57,284 Q72,343 102.5,389.5 Q133,436 179.5,464 Q226,492 288,492 Q326,492 364.5,483.5 Q403,475 437,458 L441,450 M286,458 Q246,458 209.5,439 Q173,420 145,382.5 Q117,345 100.5,290.5 Q84,236 84,166 Q84,91 114.5,58.5 Q145,26 187,26 Q230,26 274,51.5 Q318,77 358,110 L400,433 Q368,448 340,453 Q312,458 286,458 M282,561 Q259,561 239.5,569 Q220,577 204,590.5 Q188,604 175,621.5 Q162,639 152,658 L185,678 Q204,643 230.5,621 Q257,599 289,599 Q301,599 315,602 Q329,605 346,613 Q363,621 384,635.5 Q405,650 429,673 L444,659 Q399,604 358,582.5 Q317,561 282,561"/> 
            <glyph glyph-name="Ġ" unicode="&#x120;" horiz-adv-x="564" d=" M400,693 Q452,693 492.5,686 Q533,679 564,669 L552,634 Q513,645 473,650.5 Q433,656 400,656 Q329,656 275.5,626.5 Q222,597 186,544 Q150,491 132,416 Q114,341 114,251 Q114,206 122.5,166 Q131,126 152.5,96 Q174,66 212.5,48.5 Q251,31 311,31 Q325,31 343.5,32.5 Q362,34 381.5,36.5 Q401,39 419.5,42.5 Q438,46 452,51 L488,342 L529,342 L489,21 Q441,6 393,-0.5 Q345,-7 299,-7 Q237,-7 193.5,11 Q150,29 122.5,62.5 Q95,96 82.5,144.5 Q70,193 70,254 Q70,290 75,336.5 Q80,383 93.5,431.5 Q107,480 130.5,527 Q154,574 190.5,611 Q227,648 278.5,670.5 Q330,693 400,693 M430,796 Q429,781 417.5,769 Q406,757 390,757 Q376,757 367.5,766 Q359,775 359,788 Q359,804 371.5,815.5 Q384,827 399,827 Q412,827 421,818 Q430,809 430,796"/> 
            <glyph glyph-name="ġ" unicode="&#x121;" horiz-adv-x="441" d=" M384,5 Q379,-32 369.5,-71.5 Q360,-111 336.5,-144 Q313,-177 272,-198 Q231,-219 162,-219 Q124,-219 90,-209.5 Q56,-200 35,-190 Q38,-182 41.5,-173.5 Q45,-165 49,-157 Q75,-169 107,-176 Q139,-183 168,-183 Q222,-183 255,-166 Q288,-149 307,-120 Q326,-91 335,-51 Q344,-11 350,34 Q351,44 352,52.5 Q353,61 355,70 Q355,71 354,71 Q353,71 353,72 Q308,34 264.5,13.5 Q221,-7 178,-7 Q121,-7 82,34 Q43,75 42,160 L42,163 Q42,225 57,284 Q72,343 102.5,389.5 Q133,436 179.5,464 Q226,492 288,492 Q326,492 364.5,483.5 Q403,475 437,458 L441,450 M286,458 Q246,458 209.5,439 Q173,420 145,382.5 Q117,345 100.5,290.5 Q84,236 84,166 Q84,91 114.5,58.5 Q145,26 187,26 Q230,26 274,51.5 Q318,77 358,110 L400,433 Q368,448 340,453 Q312,458 286,458 M330,611 Q329,596 317.5,584 Q306,572 290,572 Q276,572 267.5,581 Q259,590 259,603 Q259,619 271.5,630.5 Q284,642 299,642 Q312,642 321,633 Q330,624 330,611"/> 
            <glyph glyph-name="Ģ" unicode="&#x122;" horiz-adv-x="564" d=" M400,693 Q452,693 492.5,686 Q533,679 564,669 L552,634 Q513,645 473,650.5 Q433,656 400,656 Q329,656 275.5,626.5 Q222,597 186,544 Q150,491 132,416 Q114,341 114,251 Q114,206 122.5,166 Q131,126 152.5,96 Q174,66 212.5,48.5 Q251,31 311,31 Q325,31 343.5,32.5 Q362,34 381.5,36.5 Q401,39 419.5,42.5 Q438,46 452,51 L488,342 L529,342 L489,21 Q441,6 393,-0.5 Q345,-7 299,-7 Q237,-7 193.5,11 Q150,29 122.5,62.5 Q95,96 82.5,144.5 Q70,193 70,254 Q70,290 75,336.5 Q80,383 93.5,431.5 Q107,480 130.5,527 Q154,574 190.5,611 Q227,648 278.5,670.5 Q330,693 400,693 M293,-68 Q307,-68 316,-77.5 Q325,-87 325,-104 Q325,-133 305.5,-160.5 Q286,-188 254,-209 L245,-196 Q262,-179 269,-167 Q276,-155 280,-135 Q268,-133 261.5,-126 Q255,-119 255,-108 Q255,-91 265.5,-79.5 Q276,-68 293,-68"/> 
            <glyph glyph-name="ģ" unicode="&#x123;" horiz-adv-x="441" d=" M384,5 Q379,-32 369.5,-71.5 Q360,-111 336.5,-144 Q313,-177 272,-198 Q231,-219 162,-219 Q124,-219 90,-209.5 Q56,-200 35,-190 Q38,-182 41.5,-173.5 Q45,-165 49,-157 Q75,-169 107,-176 Q139,-183 168,-183 Q222,-183 255,-166 Q288,-149 307,-120 Q326,-91 335,-51 Q344,-11 350,34 Q351,44 352,52.5 Q353,61 355,70 Q355,71 354,71 Q353,71 353,72 Q308,34 264.5,13.5 Q221,-7 178,-7 Q121,-7 82,34 Q43,75 42,160 L42,163 Q42,225 57,284 Q72,343 102.5,389.5 Q133,436 179.5,464 Q226,492 288,492 Q326,492 364.5,483.5 Q403,475 437,458 L441,450 M286,458 Q246,458 209.5,439 Q173,420 145,382.5 Q117,345 100.5,290.5 Q84,236 84,166 Q84,91 114.5,58.5 Q145,26 187,26 Q230,26 274,51.5 Q318,77 358,110 L400,433 Q368,448 340,453 Q312,458 286,458 M327,626 Q351,624 351,600 Q351,584 340.5,571.5 Q330,559 314,559 Q285,559 282,588 Q282,654 354,701 L363,688 Q346,671 338.5,658.5 Q331,646 327,626"/> 
            <glyph glyph-name="Ĥ" unicode="&#x124;" horiz-adv-x="570" d=" M443,0 L485,342 L135,342 L94,0 L51,0 L134,683 L177,683 Q176,676 173.5,652.5 Q171,629 167,597.5 Q163,566 159,531 Q155,496 151,465 Q147,434 144,410.5 Q141,387 140,380 L489,380 L526,683 L570,683 L487,0 M490,714 L368,815 L220,713 L208,730 L355,859 L390,859 L505,731"/> 
            <glyph glyph-name="ĥ" unicode="&#x125;" horiz-adv-x="423" d=" M125,408 Q178,450 227,472 Q276,494 318,494 Q348,494 368.5,486 Q389,478 401,464.5 Q413,451 418,433 Q423,415 423,395 Q423,387 423,379.5 Q423,372 421,364 L381,0 L341,0 L380,339 Q383,360 383,379 Q383,414 367.5,437 Q352,460 306,460 Q263,460 215.5,434 Q168,408 119,368 Q108,275 97,184 Q86,93 74,0 L35,0 L121,714 L161,714 Q159,701 156,676 Q153,651 149,620 Q145,589 141,555 Q137,521 133,491.5 Q129,462 126,440 Q123,418 122,410 M279,730 L157,831 L9,729 L-3,746 L144,874 L179,874 L295,747"/> 
            <glyph glyph-name="Ħ" unicode="&#x126;" horiz-adv-x="610" d=" M445,0 L487,342 L138,342 Q137,334 133.5,307.5 Q130,281 125.5,246 Q121,211 116.5,171 Q112,131 107.5,96 Q103,61 100,34.5 Q97,8 96,0 L53,0 L115,515 L60,515 L64,544 L119,544 L136,683 L179,683 Q179,677 176.5,656.5 Q174,636 171,613 Q168,590 165.5,569.5 Q163,549 162,544 L511,544 L528,683 L572,683 L555,544 L610,544 L606,515 L551,515 L489,0 M491,380 L507,515 L159,515 Q158,511 155.5,490.5 Q153,470 150,447 Q147,424 144.5,404 Q142,384 142,380"/> 
            <glyph glyph-name="ħ" unicode="&#x127;" horiz-adv-x="424" d=" M125,408 Q178,450 227,472 Q276,494 318,494 Q350,494 370.5,485.5 Q391,477 403,463 Q415,449 419.5,430 Q424,411 424,390 Q424,377 421,364 L381,0 L341,0 Q352,87 361.5,173 Q371,259 381,346 Q383,356 383,364.5 Q383,373 383,382 Q383,417 367,438.5 Q351,460 306,460 Q263,460 215.5,434 Q168,408 119,368 Q108,275 97,184 Q86,93 74,0 L35,0 Q53,146 70,291 Q87,436 105,582 L41,582 L44,610 L108,610 L121,714 L161,714 L147,610 L344,610 L340,582 L144,582 Q140,553 136.5,525.5 Q133,498 130,474.5 Q127,451 125,434 Q123,417 122,410"/> 
            <glyph glyph-name="Ĩ" unicode="&#x128;" horiz-adv-x="318" d=" M61,0 L144,683 L187,683 L103,0 M243,761 Q228,761 209.5,767 Q191,773 172.5,780 Q154,787 136.5,793 Q119,799 106,799 L52,759 L36,770 Q49,799 70.5,816 Q92,833 115,833 Q131,833 149,827 Q167,821 185,814.5 Q203,808 220,802 Q237,796 251,796 L303,835 L318,823 Q305,798 286,779.5 Q267,761 243,761"/> 
            <glyph glyph-name="ĩ" unicode="&#x129;" horiz-adv-x="287" d=" M53,0 L112,486 L152,486 L92,0 M212,583 Q197,583 178.5,589 Q160,595 141.5,602 Q123,609 105.5,615 Q88,621 75,621 L21,581 L5,592 Q18,621 39.5,638 Q61,655 84,655 Q100,655 118,649 Q136,643 154,636.5 Q172,630 189,624 Q206,618 220,618 L272,657 L287,645 Q274,620 255,601.5 Q236,583 212,583"/> 
            <glyph glyph-name="Ī" unicode="&#x12A;" horiz-adv-x="318" d=" M61,0 L144,683 L187,683 L103,0 M27,785 L318,785 L314,748 L22,748"/> 
            <glyph glyph-name="ī" unicode="&#x12B;" horiz-adv-x="294" d=" M53,0 L112,486 L152,486 L92,0 M5,634 L294,634 L290,597 L0,597"/> 
            <glyph glyph-name="Ĭ" unicode="&#x12C;" horiz-adv-x="326" d=" M164,724 Q141,724 121.5,732 Q102,740 86,753.5 Q70,767 57,784.5 Q44,802 34,821 L66,841 Q86,805 112.5,783 Q139,761 171,761 Q194,761 227.5,776 Q261,791 311,836 L326,822 Q280,766 239,745 Q198,724 164,724 M61,0 L144,683 L187,683 L103,0"/> 
            <glyph glyph-name="ĭ" unicode="&#x12D;" horiz-adv-x="307" d=" M63,0 L122,486 L162,486 L102,0 M145,561 Q122,561 102.5,569 Q83,577 67,590.5 Q51,604 38,621.5 Q25,639 15,658 L48,678 Q67,643 93.5,621 Q120,599 152,599 Q164,599 178,602 Q192,605 209,613 Q226,621 247,635.5 Q268,650 292,673 L307,659 Q262,604 221,582.5 Q180,561 145,561"/> 
            <glyph glyph-name="Į" unicode="&#x12E;" horiz-adv-x="187" d=" M77,0 Q40,-34 23.5,-67.5 Q7,-101 5,-121 Q5,-148 19,-157.5 Q33,-167 59,-167 Q78,-167 96,-164 Q114,-161 128,-157 Q130,-169 132,-177 Q109,-188 84.5,-193.5 Q60,-199 38,-199 Q-1,-199 -18.5,-182.5 Q-36,-166 -36,-141 Q-36,-128 -31.5,-111 Q-27,-94 -16,-74.5 Q-5,-55 14,-34 Q33,-13 62,10 L144,683 L187,683 L103,0"/> 
            <glyph glyph-name="į" unicode="&#x12F;" horiz-adv-x="177" d=" M64,0 Q29,-33 14,-65 Q-1,-97 -3,-117 Q-3,-144 11,-153.5 Q25,-163 51,-163 Q70,-163 88,-160 Q106,-157 120,-153 Q122,-165 124,-173 Q101,-184 76.5,-189.5 Q52,-195 30,-195 Q-9,-195 -26.5,-178.5 Q-44,-162 -44,-137 Q-44,-124 -39.5,-107 Q-35,-90 -24,-70.5 Q-13,-51 6,-30 Q25,-9 54,14 L112,486 L152,486 L92,0 M149,644 Q162,644 169.5,636 Q177,628 177,615 Q177,600 167.5,589 Q158,578 142,578 Q131,578 123,586.5 Q115,595 115,607 Q115,623 125.5,633.5 Q136,644 149,644"/> 
            <glyph glyph-name="İ" unicode="&#x130;" horiz-adv-x="216" d=" M61,0 L144,683 L187,683 L103,0 M216,797 Q215,782 203.5,770 Q192,758 176,758 Q162,758 153.5,767 Q145,776 145,789 Q145,805 157.5,816.5 Q170,828 185,828 Q198,828 207,819 Q216,810 216,797"/> 
            <glyph glyph-name="ı" unicode="&#x131;" horiz-adv-x="152" d=" M53,0 L112,486 L152,486 L92,0"/> 
            <glyph glyph-name="Ĳ" unicode="&#x132;" horiz-adv-x="427" d=" M61,0 L144,683 L187,683 L103,0 M385,683 L427,683 L358,109 Q350,50 335.5,4 Q321,-42 294.5,-76.5 Q268,-111 229,-135.5 Q190,-160 135,-178 L123,-144 Q174,-126 207.5,-102.5 Q241,-79 263,-49 Q285,-19 296.5,19.5 Q308,58 314,106"/> 
            <glyph glyph-name="ĳ" unicode="&#x133;" horiz-adv-x="363" d=" M339,486 Q338,478 334,441 Q330,404 323.5,353 Q317,302 310,244 Q303,186 297,137 Q291,88 287,55 Q283,22 283,20 Q277,-25 268.5,-61.5 Q260,-98 241.5,-126.5 Q223,-155 192.5,-176.5 Q162,-198 113,-211 L104,-180 Q146,-166 171.5,-147.5 Q197,-129 211,-105.5 Q225,-82 231.5,-54 Q238,-26 242,7 L299,486 M53,0 L112,486 L152,486 L92,0 M335,644 Q347,644 355,636 Q363,628 363,615 Q363,600 353.5,589 Q344,578 328,578 Q316,578 308.5,586.5 Q301,595 301,607 Q301,623 311,633.5 Q321,644 335,644 M149,644 Q162,644 169.5,636 Q177,628 177,615 Q177,600 167.5,589 Q158,578 142,578 Q131,578 123,586.5 Q115,595 115,607 Q115,623 125.5,633.5 Q136,644 149,644"/> 
            <glyph glyph-name="Ĵ" unicode="&#x134;" horiz-adv-x="352" d=" M179,684 L221,684 L152,110 Q144,51 129.5,5 Q115,-41 88.5,-75.5 Q62,-110 23,-134.5 Q-16,-159 -71,-177 L-83,-143 Q-32,-125 1.5,-101.5 Q35,-78 57,-48 Q79,-18 90.5,20.5 Q102,59 108,107 M337,714 L215,815 L67,713 L55,730 L202,859 L237,859 L352,731"/> 
            <glyph glyph-name="ĵ" unicode="&#x135;" horiz-adv-x="299" d=" M166,486 Q165,478 161,441 Q157,404 150.5,353 Q144,302 137,244 Q130,186 124,137 Q118,88 114,55 Q110,22 110,20 Q104,-25 95.5,-61.5 Q87,-98 68.5,-126.5 Q50,-155 19.5,-176.5 Q-11,-198 -60,-211 L-69,-180 Q-27,-166 -1.5,-147.5 Q24,-129 38,-105.5 Q52,-82 58.5,-54 Q65,-26 69,7 L126,486 M283,546 L161,647 L13,545 L2,562 L148,690 L183,690 L299,563"/> 
            <glyph glyph-name="Ķ" unicode="&#x136;" horiz-adv-x="551" d=" M93,0 L51,0 L134,683 L176,683 L134,343 L499,683 L551,683 L255,409 L472,0 L426,0 L225,379 L128,290 M233,-50 Q247,-50 256,-59.5 Q265,-69 265,-86 Q265,-115 245.5,-142.5 Q226,-170 194,-191 L185,-178 Q202,-161 209,-149 Q216,-137 220,-117 Q208,-115 201.5,-108 Q195,-101 195,-90 Q195,-73 205.5,-61.5 Q216,-50 233,-50"/> 
            <glyph glyph-name="ķ" unicode="&#x137;" horiz-adv-x="417" d=" M109,252 Q125,266 144,283.5 Q163,301 192,327 Q221,353 263.5,391.5 Q306,430 369,487 L417,487 Q412,482 395.5,467.5 Q379,453 357.5,433 Q336,413 311,390.5 Q286,368 264.5,348 Q243,328 226.5,313.5 Q210,299 205,294 L228,260 L370,0 L326,0 L180,272 L100,202 L76,0 L37,0 L123,709 L162,709 L124,393 Q119,358 115,324 Q111,290 106,253 M182,-46 Q196,-46 205,-55.5 Q214,-65 214,-82 Q214,-111 194.5,-138.5 Q175,-166 143,-187 L134,-174 Q151,-157 158,-145 Q165,-133 169,-113 Q157,-111 150.5,-104 Q144,-97 144,-86 Q144,-69 154.5,-57.5 Q165,-46 182,-46"/> 
            <glyph glyph-name="ĸ" unicode="&#x138;" horiz-adv-x="417" d=" M135,486 L124,393 Q119,358 115,324 Q111,290 106,253 L109,252 Q125,266 144,283.5 Q163,301 192,327 Q221,353 263.5,391.5 Q306,430 369,487 L417,487 Q412,482 395.5,467.5 Q379,453 357.5,433 Q336,413 311,390.5 Q286,368 264.5,348 Q243,328 226.5,313.5 Q210,299 205,294 L228,260 L370,0 L326,0 L180,272 L100,202 L76,0 L37,0 L96,486"/> 
            <glyph glyph-name="Ĺ" unicode="&#x139;" horiz-adv-x="472" d=" M72,0 L155,683 L197,683 L118,36 L472,36 L468,0 M189,716 L173,734 L307,869 L333,835"/> 
            <glyph glyph-name="ĺ" unicode="&#x13A;" horiz-adv-x="282" d=" M173,714 Q172,706 168.5,674.5 Q165,643 159,596 Q153,549 146,491 Q139,433 131.5,373 Q124,313 117,255.5 Q110,198 104,151.5 Q98,105 94.5,74 Q91,43 90,36 L155,38 L158,11 Q140,2 120.5,-2 Q101,-6 87,-6 Q49,-6 49,26 Q49,28 49,34 Q49,40 50,46 L134,714 M138,731 L122,749 L256,884 L282,850"/> 
            <glyph glyph-name="Ļ" unicode="&#x13B;" horiz-adv-x="472" d=" M72,0 L155,683 L197,683 L118,36 L472,36 L468,0 M254,-68 Q268,-68 277,-77.5 Q286,-87 286,-104 Q286,-133 266.5,-160.5 Q247,-188 215,-209 L206,-196 Q223,-179 230,-167 Q237,-155 241,-135 Q229,-133 222.5,-126 Q216,-119 216,-108 Q216,-91 226.5,-79.5 Q237,-68 254,-68"/> 
            <glyph glyph-name="ļ" unicode="&#x13C;" horiz-adv-x="173" d=" M173,714 Q172,706 168.5,674.5 Q165,643 159,596 Q153,549 146,491 Q139,433 131.5,373 Q124,313 117,255.5 Q110,198 104,151.5 Q98,105 94.5,74 Q91,43 90,36 L155,38 L158,11 Q140,2 120.5,-2 Q101,-6 87,-6 Q49,-6 49,26 Q49,28 49,34 Q49,40 50,46 L134,714 M71,-68 Q85,-68 94,-77.5 Q103,-87 103,-104 Q103,-133 83.5,-160.5 Q64,-188 32,-209 L23,-196 Q40,-179 47,-167 Q54,-155 58,-135 Q46,-133 39.5,-126 Q33,-119 33,-108 Q33,-91 43.5,-79.5 Q54,-68 71,-68"/> 
            <glyph glyph-name="Ľ" unicode="&#x13D;" horiz-adv-x="472" d=" M72,0 L155,683 L197,683 L118,36 L472,36 L468,0 M409,677 Q423,677 432,667.5 Q441,658 441,641 Q441,612 421.5,584.5 Q402,557 370,536 L361,549 Q378,566 385,578 Q392,590 396,610 Q384,612 377.5,619 Q371,626 371,637 Q371,654 381.5,665.5 Q392,677 409,677"/> 
            <glyph glyph-name="ľ" unicode="&#x13E;" horiz-adv-x="311" d=" M279,709 Q293,709 302,699.5 Q311,690 311,673 Q311,644 291.5,616.5 Q272,589 240,568 L231,581 Q248,598 255,610 Q262,622 266,642 Q254,644 247.5,651 Q241,658 241,669 Q241,686 251.5,697.5 Q262,709 279,709 M173,714 Q172,706 168.5,674.5 Q165,643 159,596 Q153,549 146,491 Q139,433 131.5,373 Q124,313 117,255.5 Q110,198 104,151.5 Q98,105 94.5,74 Q91,43 90,36 L155,38 L158,11 Q140,2 120.5,-2 Q101,-6 87,-6 Q49,-6 49,26 Q49,28 49,34 Q49,40 50,46 L134,714"/> 
            <glyph glyph-name="Ŀ" unicode="&#x13F;" horiz-adv-x="472" d=" M72,0 L155,683 L197,683 L118,36 L472,36 L468,0 M412,394 Q411,379 399.5,367 Q388,355 372,355 Q358,355 349.5,364 Q341,373 341,386 Q341,402 353.5,413.5 Q366,425 381,425 Q394,425 403,416 Q412,407 412,394"/> 
            <glyph glyph-name="ŀ" unicode="&#x140;" horiz-adv-x="263" d=" M263,369 Q262,354 250.5,342 Q239,330 223,330 Q209,330 200.5,339 Q192,348 192,361 Q192,377 204.5,388.5 Q217,400 232,400 Q245,400 254,391 Q263,382 263,369 M173,714 Q172,706 168.5,674.5 Q165,643 159,596 Q153,549 146,491 Q139,433 131.5,373 Q124,313 117,255.5 Q110,198 104,151.5 Q98,105 94.5,74 Q91,43 90,36 L155,38 L158,11 Q140,2 120.5,-2 Q101,-6 87,-6 Q49,-6 49,26 Q49,28 49,34 Q49,40 50,46 L134,714"/> 
            <glyph glyph-name="Ł" unicode="&#x141;" horiz-adv-x="470" d=" M70,0 L103,270 L30,230 L18,258 L108,308 L153,683 L196,683 L153,333 L296,412 L307,385 L148,296 L117,36 L470,36 L467,0"/> 
            <glyph glyph-name="ł" unicode="&#x142;" horiz-adv-x="253" d=" M173,714 Q172,709 169,684 Q166,659 162,623.5 Q158,588 153,547.5 Q148,507 143.5,470 Q139,433 135.5,404.5 Q132,376 131,366 L241,427 L253,400 L126,330 L90,36 L155,38 L158,11 Q140,2 120.5,-2 Q101,-6 87,-6 Q50,-6 50,26 Q50,30 50,34.5 Q50,39 51,45 L83,305 L-15,250 L-27,279 L88,342 L134,714"/> 
            <glyph glyph-name="Ń" unicode="&#x143;" horiz-adv-x="603" d=" M486,76 L560,683 L603,683 L519,0 L477,0 L228,493 L170,612 L167,611 L93,0 L51,0 L134,683 L177,683 Q182,673 201.5,635 Q221,597 247.5,544.5 Q274,492 304,432 Q334,372 360.5,319.5 Q387,267 406.5,229 Q426,191 431,181 L483,76 M361,716 L345,734 L479,869 L505,835"/> 
            <glyph glyph-name="ń" unicode="&#x144;" horiz-adv-x="424" d=" M342,0 L382,350 Q384,358 384,367 Q384,376 384,384 Q384,418 368,439.5 Q352,461 305,461 Q262,461 216,434.5 Q170,408 122,369 L75,0 L36,0 Q38,12 42.5,49.5 Q47,87 53,137 Q59,187 66,243 Q73,299 79.5,349 Q86,399 90.5,436.5 Q95,474 96,487 L135,487 Q133,472 130,448.5 Q127,425 125,412 Q125,411 126,411 Q127,411 128,410 Q182,451 228.5,473.5 Q275,496 317,496 Q348,496 369,487.5 Q390,479 402,465 Q414,451 419,432 Q424,413 424,392 Q424,386 423.5,379 Q423,372 422,365 L381,0 M237,549 L216,566 L336,716 L370,684"/> 
            <glyph glyph-name="Ņ" unicode="&#x145;" horiz-adv-x="603" d=" M486,76 L560,683 L603,683 L519,0 L477,0 L228,493 L170,612 L167,611 L93,0 L51,0 L134,683 L177,683 Q182,673 201.5,635 Q221,597 247.5,544.5 Q274,492 304,432 Q334,372 360.5,319.5 Q387,267 406.5,229 Q426,191 431,181 L483,76 M275,-60 Q289,-60 298,-69.5 Q307,-79 307,-96 Q307,-125 287.5,-152.5 Q268,-180 236,-201 L227,-188 Q244,-171 251,-159 Q258,-147 262,-127 Q250,-125 243.5,-118 Q237,-111 237,-100 Q237,-83 247.5,-71.5 Q258,-60 275,-60"/> 
            <glyph glyph-name="ņ" unicode="&#x146;" horiz-adv-x="424" d=" M342,0 L382,350 Q384,358 384,367 Q384,376 384,384 Q384,418 368,439.5 Q352,461 305,461 Q262,461 216,434.5 Q170,408 122,369 L75,0 L36,0 Q38,12 42.5,49.5 Q47,87 53,137 Q59,187 66,243 Q73,299 79.5,349 Q86,399 90.5,436.5 Q95,474 96,487 L135,487 Q133,472 130,448.5 Q127,425 125,412 Q125,411 126,411 Q127,411 128,410 Q182,451 228.5,473.5 Q275,496 317,496 Q348,496 369,487.5 Q390,479 402,465 Q414,451 419,432 Q424,413 424,392 Q424,386 423.5,379 Q423,372 422,365 L381,0 M201,-54 Q215,-54 224,-63.5 Q233,-73 233,-90 Q233,-119 213.5,-146.5 Q194,-174 162,-195 L153,-182 Q170,-165 177,-153 Q184,-141 188,-121 Q176,-119 169.5,-112 Q163,-105 163,-94 Q163,-77 173.5,-65.5 Q184,-54 201,-54"/> 
            <glyph glyph-name="Ň" unicode="&#x147;" horiz-adv-x="603" d=" M486,76 L560,683 L603,683 L519,0 L477,0 L228,493 L170,612 L167,611 L93,0 L51,0 L134,683 L177,683 Q182,673 201.5,635 Q221,597 247.5,544.5 Q274,492 304,432 Q334,372 360.5,319.5 Q387,267 406.5,229 Q426,191 431,181 L483,76 M550,846 L404,721 L369,721 L253,847 L269,864 L392,764 L538,863"/> 
            </font>
</defs>
</svg>
