<?xml version="1.0" standalone="no"?>
<!DOCTYPE svg PUBLIC "-//W3C//DTD SVG 1.1//EN" "http://www.w3.org/Graphics/SVG/1.1/DTD/svg11.dtd" >
<svg xmlns="http://www.w3.org/2000/svg">
    <defs>
        <font id="PFAgoraSansPro-Thin">
            <font-face font-family="PF Agora Sans Pro"
                       units-per-em="1000"
                       ascent="750"
                       descent="-250"
                       bbox="-309 -245 1760 913"
                    />
            <missing-glyph horiz-adv-x="0" />
            
            <glyph glyph-name="(" unicode="&#x28;" horiz-adv-x="215" d=" M59,287 Q59,372 76,443 Q93,514 116,568.5 Q139,623 162.5,659.5 Q186,696 198,713 L215,701 Q204,685 185.5,649.5 Q167,614 148,561.5 Q129,509 115.5,440 Q102,371 102,287 Q102,192 115.5,117.5 Q129,43 147.5,-12.5 Q166,-68 185,-104.5 Q204,-141 215,-160 L198,-172 Q187,-156 163.5,-118.5 Q140,-81 117,-23.5 Q94,34 76.5,111.5 Q59,189 59,287"/> 
            <glyph glyph-name=")" unicode="&#x29;" horiz-adv-x="201" d=" M201,287 Q201,189 183.5,111.5 Q166,34 143,-23.5 Q120,-81 97,-118.5 Q74,-156 63,-172 L45,-160 Q56,-141 75,-104.5 Q94,-68 112.5,-12.5 Q131,43 144.5,117.5 Q158,192 158,287 Q158,371 144.5,440 Q131,509 112.5,561.5 Q94,614 75,649.5 Q56,685 46,701 L63,713 Q75,696 98,659.5 Q121,623 144,568.5 Q167,514 184,443 Q201,372 201,287"/> 
            <glyph glyph-name="*" unicode="&#x2A;" horiz-adv-x="307" d=" M183,564 Q210,576 237.5,588 Q265,600 292,613 Q300,602 303.5,590 Q307,578 307,565 Q277,560 247,555 Q217,550 187,545 L269,458 Q253,435 229,428 L172,534 L118,428 Q93,435 76,457 L157,546 L39,566 Q40,580 43.5,592.5 Q47,605 55,615 L164,564 L148,683 Q161,686 175,686 Q182,686 188,685.5 Q194,685 200,683 L183,564"/> 
            <glyph glyph-name="+" unicode="&#x2B;" horiz-adv-x="443" d=" M278,279 L278,110 L242,110 L242,279 L76,279 L76,314 L242,314 L242,477 L278,477 L278,314 L443,314 L443,279"/> 
            <glyph glyph-name="," unicode="&#x2C;" horiz-adv-x="109" d=" M35,29 Q35,44 45,55 Q55,66 70,66 Q87,66 98,54 Q109,42 109,20 Q109,6 104.5,-11.5 Q100,-29 91.5,-46.5 Q83,-64 71.5,-79.5 Q60,-95 45,-105 L33,-92 Q50,-72 57,-47.5 Q64,-23 65,-3 Q51,-1 43,7.5 Q35,16 35,29"/> 
            <glyph glyph-name="-" unicode="&#x2D;" horiz-adv-x="283" d=" M51,235 L51,274 L283,274 L283,235"/> 
            <glyph glyph-name="." unicode="&#x2E;" horiz-adv-x="114" d=" M114,32 Q114,18 103.5,7 Q93,-4 79,-4 Q65,-4 54.5,7 Q44,18 44,32 Q44,46 54.5,56.5 Q65,67 79,67 Q93,67 103.5,56.5 Q114,46 114,32"/> 
            <glyph glyph-name="/" unicode="&#x2F;" horiz-adv-x="301" d=" M44,-26 L9,-26 L268,698 L301,698"/> 
            <glyph glyph-name="0" unicode="&#x30;" horiz-adv-x="489" d=" M489,327 Q489,270 478.5,210.5 Q468,151 442,102.5 Q416,54 372,23.5 Q328,-7 262,-7 Q186,-7 140,22 Q94,51 69,98.5 Q44,146 36,205 Q28,264 28,324 Q28,378 36.5,439 Q45,500 70,552 Q95,604 141,638.5 Q187,673 263,673 Q315,673 351.5,656.5 Q388,640 413.5,612 Q439,584 454,548 Q469,512 476.5,474 Q484,436 486.5,397.5 Q489,359 489,327 M447,324 Q447,351 445.5,384.5 Q444,418 438,453 Q432,488 420.5,520.5 Q409,553 388.5,579 Q368,605 337.5,620.5 Q307,636 263,636 Q198,636 159.5,604 Q121,572 101,524.5 Q81,477 75.5,422 Q70,367 70,322 Q70,262 77.5,208.5 Q85,155 106,115 Q127,75 164.5,51.5 Q202,28 263,28 Q319,28 354.5,55 Q390,82 410.5,125 Q431,168 439,220.5 Q447,273 447,324"/> 
            <glyph glyph-name="1" unicode="&#x31;" horiz-adv-x="300" d=" M260,615 L104,597 L104,627 L258,662 L300,662 L300,0 L260,0"/> 
            <glyph glyph-name="2" unicode="&#x32;" horiz-adv-x="448" d=" M30,0 L30,33 L115,113 Q164,160 211.5,208.5 Q259,257 296.5,305.5 Q334,354 356.5,401 Q379,448 379,492 Q379,529 367.5,555 Q356,581 336,598 Q316,615 289,623 Q262,631 231,631 Q193,631 148,618 Q103,605 59,575 L41,605 Q89,639 140,654 Q191,669 236,669 Q275,669 309,659 Q343,649 368.5,628 Q394,607 408.5,575 Q423,543 423,498 Q423,445 397,391 Q371,337 331,285.5 Q291,234 244.5,186.5 Q198,139 156,99 Q139,83 122.5,67.5 Q106,52 90,35 L448,34 L448,0"/> 
            <glyph glyph-name="3" unicode="&#x33;" horiz-adv-x="456" d=" M428,661 L436,632 L200,393 L201,391 Q209,392 217,392 Q225,392 233,392 Q284,392 325,380 Q366,368 395,344 Q424,320 440,285 Q456,250 456,204 Q456,151 438,111.5 Q420,72 388.5,45.5 Q357,19 315.5,5.5 Q274,-8 228,-8 Q171,-8 124.5,0 Q78,8 36,25 L48,57 Q103,39 146.5,33.5 Q190,28 218,28 Q260,28 295.5,38.5 Q331,49 357,70.5 Q383,92 397.5,125 Q412,158 412,204 Q412,277 359.5,316 Q307,355 213,355 Q195,355 179.5,354 Q164,353 148,350 L136,379 L373,622 L370,625 L62,625 L62,661"/> 
            <glyph glyph-name="4" unicode="&#x34;" horiz-adv-x="494" d=" M395,661 L395,226 L494,226 L494,191 L395,191 Q395,143 395.5,95.5 Q396,48 396,0 L354,0 L354,191 L22,191 L22,228 Q104,337 186.5,444.5 Q269,552 351,661 M355,226 L355,607 Q350,602 329,574.5 Q308,547 278.5,508.5 Q249,470 215,425 Q181,380 150,339.5 Q119,299 95.5,268 Q72,237 64,226"/> 
            <glyph glyph-name="5" unicode="&#x35;" horiz-adv-x="465" d=" M258,405 Q294,405 331,394.5 Q368,384 397.5,360 Q427,336 446,298 Q465,260 465,205 Q465,150 447,110 Q429,70 398,43.5 Q367,17 326,4 Q285,-9 239,-9 Q129,-9 46,26 L59,58 Q109,41 150,34.5 Q191,28 221,28 Q313,28 367,70.5 Q421,113 421,205 Q421,246 407,277 Q393,308 368.5,328.5 Q344,349 311.5,359 Q279,369 242,369 Q213,369 180,361 Q147,353 119,339 L90,358 Q95,434 98.5,509.5 Q102,585 106,661 L436,661 L436,625 L142,625 L128,378 Q137,381 147.5,385.5 Q158,390 173,394.5 Q188,399 208.5,402 Q229,405 258,405"/> 
            <glyph glyph-name="6" unicode="&#x36;" horiz-adv-x="478" d=" M300,671 Q348,671 382.5,662 Q417,653 440,642 L427,610 Q388,625 356,630 Q324,635 299,635 Q258,635 227,619.5 Q196,604 174,579.5 Q152,555 137,523.5 Q122,492 113,461 Q104,430 100,402 Q96,374 95,355 L98,352 Q133,374 180,389.5 Q227,405 284,405 Q322,405 357,394.5 Q392,384 419,360 Q446,336 462,297.5 Q478,259 478,204 Q478,155 463,116 Q448,77 420.5,49.5 Q393,22 354,7.5 Q315,-7 268,-7 Q203,-7 161,17.5 Q119,42 95,84.5 Q71,127 61.5,183.5 Q52,240 52,303 Q52,384 68,452 Q84,520 115,568.5 Q146,617 192.5,644 Q239,671 300,671 M437,199 Q437,236 428.5,267.5 Q420,299 401.5,321.5 Q383,344 352.5,356.5 Q322,369 278,369 Q236,369 203,360 Q170,351 146.5,340.5 Q123,330 110,320.5 Q97,311 95,310 L95,283 Q95,247 100,203 Q105,159 123,120 Q141,81 176,54.5 Q211,28 270,28 Q309,28 340,40.5 Q371,53 392.5,76 Q414,99 425.5,130 Q437,161 437,199"/> 
            <glyph glyph-name="7" unicode="&#x37;" horiz-adv-x="445" d=" M61,626 L61,662 L445,662 L445,626 L165,0 L123,0 L405,626"/> 
            <glyph glyph-name="8" unicode="&#x38;" horiz-adv-x="467" d=" M116,514 Q116,482 133.5,459 Q151,436 178.5,418.5 Q206,401 240.5,387 Q275,373 308,360 Q367,402 390,441.5 Q413,481 413,513 Q413,534 405,556 Q397,578 379,596 Q361,614 332,626 Q303,638 260,638 Q219,638 191,624.5 Q163,611 146.5,591.5 Q130,572 123,551 Q116,530 116,514 M256,27 Q300,27 332,40 Q364,53 385,73.5 Q406,94 416,120 Q426,146 426,172 Q426,214 409,242 Q392,270 362,290 Q332,310 292,326.5 Q252,343 206,361 Q139,320 109.5,266.5 Q80,213 80,162 Q80,138 89,114 Q98,90 119,70.5 Q140,51 173.5,39 Q207,27 256,27 M453,520 Q453,479 429.5,433 Q406,387 345,344 Q402,316 434.5,274.5 Q467,233 467,173 Q467,138 453.5,105.5 Q440,73 413,48 Q386,23 346,8 Q306,-7 253,-7 Q196,-7 155.5,7 Q115,21 89,44 Q63,67 50.5,96.5 Q38,126 38,157 Q38,218 70.5,277 Q103,336 173,378 Q123,404 98,436.5 Q73,469 73,514 Q73,545 86.5,574 Q100,603 125,625 Q150,647 185,660 Q220,673 263,673 Q296,673 329.5,664.5 Q363,656 390.5,637.5 Q418,619 435.5,590 Q453,561 453,520"/> 
            <glyph glyph-name="9" unicode="&#x39;" horiz-adv-x="461" d=" M213,-6 Q165,-6 125.5,2.5 Q86,11 63,22 L76,54 Q115,39 152,34 Q189,29 214,29 Q255,29 286,44.5 Q317,60 339,84.5 Q361,109 376,140.5 Q391,172 400,203 Q409,234 413,262 Q417,290 418,309 Q417,310 417,310.5 Q417,311 415,312 Q381,289 333.5,273.5 Q286,258 230,258 Q191,258 156,269 Q121,280 94.5,304 Q68,328 52,366.5 Q36,405 36,460 Q36,509 51,548 Q66,587 93.5,614.5 Q121,642 159.5,656.5 Q198,671 246,671 Q311,671 352.5,646.5 Q394,622 418,579.5 Q442,537 451.5,480.5 Q461,424 461,361 Q461,280 445,212.5 Q429,145 398,96.5 Q367,48 320.5,21 Q274,-6 213,-6 M77,465 Q77,427 85,396 Q93,365 111.5,342.5 Q130,320 160.5,307.5 Q191,295 235,295 Q277,295 310.5,304 Q344,313 367,323.5 Q390,334 403,343.5 Q416,353 418,354 L418,381 Q418,416 413,460 Q408,504 390,543 Q372,582 337.5,608.5 Q303,635 244,635 Q164,635 120.5,587.5 Q77,540 77,465"/> 
            <glyph glyph-name=":" unicode="&#x3A;" horiz-adv-x="115" d=" M115,33 Q115,19 105,8 Q95,-3 81,-3 Q66,-3 55.5,8 Q45,19 45,33 Q45,47 55.5,57.5 Q66,68 80,68 Q94,68 104.5,57.5 Q115,47 115,33 M115,342 Q115,327 105,316.5 Q95,306 81,306 Q66,306 55.5,317 Q45,328 45,342 Q45,356 55.5,366.5 Q66,377 80,377 Q94,377 104.5,366.5 Q115,356 115,342"/> 
            <glyph glyph-name="&lt;" unicode="&#x3C;" horiz-adv-x="444" d=" M444,87 L76,278 L76,314 L444,504 L444,464 L112,297 L444,128"/> 
            <glyph glyph-name="=" unicode="&#x3D;" horiz-adv-x="444" d=" M72,353 L72,388 L444,388 L444,353 M72,213 L72,247 L444,247 L444,213"/> 
            <glyph glyph-name="&gt;" unicode="&#x3E;" horiz-adv-x="444" d=" M76,128 L408,297 L76,464 L76,504 L444,314 L444,278 L76,87"/> 
            <glyph glyph-name="?" unicode="&#x3F;" horiz-adv-x="388" d=" M388,573 Q388,526 360,490 Q332,454 296,425 Q231,372 196.5,332 Q162,292 162,246 Q162,214 171,172 Q161,170 152.5,168.5 Q144,167 135,165 Q129,194 126.5,215.5 Q124,237 124,252 Q124,300 155,343.5 Q186,387 254,440 Q295,473 319,503 Q343,533 343,571 Q343,597 333,615 Q323,633 305.5,644 Q288,655 264.5,660 Q241,665 213,665 Q182,665 143.5,659.5 Q105,654 54,638 Q47,657 43,672 Q88,688 132,694.5 Q176,701 211,701 Q300,701 344,667 Q388,633 388,573 M209,29 Q209,12 198,2.5 Q187,-7 173,-7 Q158,-7 146.5,3 Q135,13 135,29 Q135,43 146,53.5 Q157,64 172,64 Q187,64 198,53.5 Q209,43 209,29"/> 
            <glyph glyph-name="@" unicode="&#x40;" horiz-adv-x="790" d=" M450,683 Q529,683 592.5,660.5 Q656,638 699.5,596.5 Q743,555 766.5,496.5 Q790,438 790,365 Q790,312 775.5,274 Q761,236 738,211 Q715,186 687.5,174 Q660,162 633,162 Q618,162 602,164.5 Q586,167 571.5,173 Q557,179 545.5,190 Q534,201 527,218 Q504,196 467.5,179 Q431,162 388,162 Q357,162 337,172.5 Q317,183 306,198.5 Q295,214 290.5,232.5 Q286,251 286,267 Q286,294 295.5,313 Q305,332 322,345 Q339,358 361.5,365 Q384,372 411,374 L520,382 L520,418 Q520,471 501,491.5 Q482,512 434,512 Q379,512 319,490 Q317,493 314,502.5 Q311,512 310,516 Q339,530 374,537.5 Q409,545 444,545 Q497,545 525,519 Q553,493 553,433 L553,266 Q553,231 574,211.5 Q595,192 633,192 Q654,192 676.5,201.5 Q699,211 717,231.5 Q735,252 746.5,284.5 Q758,317 758,364 Q758,434 736,488.5 Q714,543 673.5,580 Q633,617 576,636 Q519,655 450,655 Q380,655 317.5,630.5 Q255,606 207.5,563 Q160,520 132.5,461 Q105,402 105,334 Q105,264 129,205 Q153,146 195.5,103 Q238,60 296,36 Q354,12 421,12 Q449,12 476.5,15.5 Q504,19 537,30 L546,3 Q522,-5 489.5,-11.5 Q457,-18 425,-18 Q348,-18 284,8 Q220,34 173,80.5 Q126,127 100,191.5 Q74,256 74,332 Q74,408 104,472.5 Q134,537 185.5,584 Q237,631 305.5,657 Q374,683 450,683 M407,346 Q370,344 345.5,324 Q321,304 321,269 Q321,235 339,213 Q357,191 398,191 Q426,191 458,204 Q490,217 520,243 L520,355"/> 
            <glyph glyph-name="A" unicode="&#x41;" horiz-adv-x="516" d=" M471,0 Q455,48 440,95.5 Q425,143 409,191 L122,191 Q106,143 91.5,95.5 Q77,48 62,0 L17,0 L238,682 L295,682 L516,0 M264,642 Q244,573 222,507 L134,227 L398,227 L309,507 Q298,541 288,574 Q278,607 267,642"/> 
            <glyph glyph-name="B" unicode="&#x42;" horiz-adv-x="512" d=" M392,354 Q428,343 451,323 Q474,303 487.5,279 Q501,255 506.5,229 Q512,203 512,181 Q512,140 498,106.5 Q484,73 459.5,49.5 Q435,26 402,13 Q369,0 332,0 L80,0 L80,682 L297,682 Q346,682 382,669.5 Q418,657 442,634.5 Q466,612 478,581 Q490,550 490,513 Q490,496 487,475.5 Q484,455 473.5,434 Q463,413 444,393.5 Q425,374 392,359 M124,336 L124,36 L317,36 Q357,36 386,48.5 Q415,61 433,81.5 Q451,102 459.5,129.5 Q468,157 468,187 Q468,216 457,243 Q446,270 425.5,290.5 Q405,311 377,323.5 Q349,336 315,336 M124,646 L124,373 L299,373 Q365,373 405.5,410 Q446,447 446,508 Q446,538 437,563 Q428,588 409,606.5 Q390,625 360.5,635.5 Q331,646 290,646"/> 
            <glyph glyph-name="C" unicode="&#x43;" horiz-adv-x="518" d=" M337,693 Q391,693 434.5,685.5 Q478,678 506,667 L495,632 Q457,644 416.5,650 Q376,656 341,656 Q279,656 234.5,633 Q190,610 161,568 Q132,526 118.5,467 Q105,408 105,335 Q105,277 113.5,222 Q122,167 147,124.5 Q172,82 218.5,56 Q265,30 340,30 Q353,30 373.5,31.5 Q394,33 417,35.5 Q440,38 464,42.5 Q488,47 508,53 L518,21 Q501,15 478,9.5 Q455,4 430,0.5 Q405,-3 380,-5 Q355,-7 333,-7 Q258,-7 206,17 Q154,41 121.5,86 Q89,131 74.5,194.5 Q60,258 60,337 Q60,392 71.5,454.5 Q83,517 113.5,570 Q144,623 198,658 Q252,693 337,693"/> 
            <glyph glyph-name="D" unicode="&#x44;" horiz-adv-x="550" d=" M80,0 L80,683 L283,683 Q362,683 413.5,655.5 Q465,628 495.5,581.5 Q526,535 538,473 Q550,411 550,343 Q550,272 537,210 Q524,148 492,101 Q460,54 406.5,27 Q353,0 272,0 M124,647 L124,37 L265,37 Q280,37 303.5,38.5 Q327,40 353.5,48 Q380,56 407,74 Q434,92 456,125 Q478,158 491.5,209 Q505,260 505,335 Q505,411 492.5,464 Q480,517 460,551.5 Q440,586 414.5,605.5 Q389,625 363,634 Q337,643 313.5,645 Q290,647 273,647"/> 
            <glyph glyph-name="E" unicode="&#x45;" horiz-adv-x="476" d=" M80,0 L80,683 L459,683 L459,647 L124,647 L124,380 L414,380 L414,344 L124,344 L124,36 L476,36 L476,0"/> 
            <glyph glyph-name="F" unicode="&#x46;" horiz-adv-x="458" d=" M80,0 L80,683 L458,683 L458,646 L124,646 L124,379 L412,379 L412,342 L124,342 L124,0"/> 
            <glyph glyph-name="G" unicode="&#x47;" horiz-adv-x="527" d=" M351,693 Q404,693 449.5,685.5 Q495,678 523,667 L514,633 Q473,644 431,650 Q389,656 354,656 Q291,656 244,633 Q197,610 166,568 Q135,526 120,466.5 Q105,407 105,334 Q105,276 114,221.5 Q123,167 148.5,124.5 Q174,82 220.5,56.5 Q267,31 343,31 Q357,31 375.5,32.5 Q394,34 413.5,36.5 Q433,39 451.5,42.5 Q470,46 484,51 L484,342 L527,342 L527,21 Q479,6 431,-0.5 Q383,-7 335,-7 Q260,-7 207.5,17 Q155,41 122.5,86 Q90,131 75,194.5 Q60,258 60,337 Q60,392 73,454.5 Q86,517 119,570 Q152,623 208,658 Q264,693 351,693"/> 
            <glyph glyph-name="H" unicode="&#x48;" horiz-adv-x="530" d=" M485,0 L485,342 L125,342 L125,0 L80,0 L80,683 L125,683 L125,380 L485,380 L485,683 L530,683 L530,0"/> 
            <glyph glyph-name="I" unicode="&#x49;" horiz-adv-x="133" d=" M90,0 L90,683 L133,683 L133,0"/> 
            <glyph glyph-name="J" unicode="&#x4A;" horiz-adv-x="168" d=" M125,683 L168,683 L168,111 Q168,52 155,7.5 Q142,-37 117.5,-71.5 Q93,-106 56.5,-131.5 Q20,-157 -26,-179 L-41,-146 Q3,-120 34.5,-95.5 Q66,-71 86,-41.5 Q106,-12 115.5,24 Q125,60 125,109"/> 
            <glyph glyph-name="K" unicode="&#x4B;" horiz-adv-x="516" d=" M124,0 L80,0 L80,683 L124,683 L124,343 L457,683 L512,683 L241,409 L516,0 L466,0 L212,377 L124,289"/> 
            <glyph glyph-name="L" unicode="&#x4C;" horiz-adv-x="510" d=" M98,0 L98,683 L142,683 L143,36 L510,36 L510,0"/> 
            <glyph glyph-name="M" unicode="&#x4D;" horiz-adv-x="697" d=" M129,682 Q184,562 237,442.5 Q290,323 345,202 L387,105 L391,105 L435,203 L542,441 Q569,502 596,562 Q623,622 651,682 L697,682 L697,0 L655,0 Q655,148 654.5,295 Q654,442 654,591 L651,591 L613,506 L411,60 L366,60 L165,502 L125,594 L122,594 L122,0 L80,0 L80,682 L129,682"/> 
            <glyph glyph-name="N" unicode="&#x4E;" horiz-adv-x="564" d=" M520,77 L520,683 L564,683 L563,0 L520,0 L201,493 L127,612 Q126,612 125,611.5 Q124,611 123,611 L123,0 L80,0 L80,683 L126,683 L449,182 L516,77"/> 
            <glyph glyph-name="O" unicode="&#x4F;" horiz-adv-x="603" d=" M603,338 Q603,264 586.5,201.5 Q570,139 536.5,93 Q503,47 453.5,20.5 Q404,-6 338,-7 Q261,-7 208,16.5 Q155,40 122,84.5 Q89,129 74.5,192 Q60,255 60,335 Q60,405 74,469.5 Q88,534 120,583.5 Q152,633 205.5,663 Q259,693 338,693 Q418,693 469.5,663 Q521,633 550.5,583.5 Q580,534 591.5,470 Q603,406 603,338 M557,335 Q557,388 549,445 Q541,502 518,549.5 Q495,597 451.5,627.5 Q408,658 338,658 Q267,658 222,630 Q177,602 151,556 Q125,510 115,452 Q105,394 105,333 Q105,184 159,106 Q213,28 333,28 Q390,28 432.5,52 Q475,76 502.5,118 Q530,160 543.5,216 Q557,272 557,335"/> 
            <glyph glyph-name="P" unicode="&#x50;" horiz-adv-x="483" d=" M483,492 Q483,462 475,427 Q467,392 445.5,362.5 Q424,333 387,313 Q350,293 292,293 L124,293 L125,0 L80,0 L80,683 L284,683 Q325,683 361.5,671.5 Q398,660 425,636.5 Q452,613 467.5,577 Q483,541 483,492 M124,647 L124,329 L289,329 Q316,329 342.5,336.5 Q369,344 390.5,362.5 Q412,381 425,411.5 Q438,442 438,489 Q438,529 426,559 Q414,589 393.5,608.5 Q373,628 345.5,637.5 Q318,647 286,647"/> 
            <glyph glyph-name="Q" unicode="&#x51;" horiz-adv-x="603" d=" M603,338 Q603,278 592,224.5 Q581,171 558.5,128.5 Q536,86 503,55 Q470,24 426,8 L596,-35 L579,-80 Q573,-78 556.5,-72.5 Q540,-67 517.5,-60 Q495,-53 469.5,-44.5 Q444,-36 421.5,-29 Q399,-22 382,-16.5 Q365,-11 360,-9 Q355,-8 349,-8.5 Q343,-9 338,-8 Q261,-7 208,17 Q155,41 122,85 Q89,129 74.5,192 Q60,255 60,335 Q60,405 74,469.5 Q88,534 120,583.5 Q152,633 205.5,663 Q259,693 338,693 Q418,693 469.5,663 Q521,633 550.5,583.5 Q580,534 591.5,470 Q603,406 603,338 M557,335 Q557,388 549,445 Q541,502 518,549 Q495,596 451.5,626.5 Q408,657 338,657 Q267,657 222,629 Q177,601 151,555.5 Q125,510 115,451.5 Q105,393 105,333 Q105,184 159,106 Q213,28 333,28 Q390,28 432.5,52 Q475,76 502.5,118 Q530,160 543.5,216 Q557,272 557,335"/> 
            <glyph glyph-name="R" unicode="&#x52;" horiz-adv-x="515" d=" M484,503 Q484,475 477,446 Q470,417 455,392.5 Q440,368 416.5,349.5 Q393,331 360,323 Q402,310 422.5,280 Q443,250 455,208 L515,0 L470,0 L412,200 Q401,234 386.5,255.5 Q372,277 353.5,289.5 Q335,302 313,307 Q291,312 267,312 L124,312 L124,0 L80,0 L80,683 L284,683 Q337,683 375,669 Q413,655 437,630.5 Q461,606 472.5,573 Q484,540 484,503 M286,348 Q355,348 397,384.5 Q439,421 439,500 Q439,537 427.5,564.5 Q416,592 395,610 Q374,628 345.5,637 Q317,646 283,646 L124,646 L124,348"/> 
            <glyph glyph-name="S" unicode="&#x53;" horiz-adv-x="489" d=" M270,694 Q304,694 351,688 Q398,682 443,663 L429,627 Q378,644 339,650 Q300,656 265,656 Q230,656 200.5,647 Q171,638 149,620 Q127,602 115,574.5 Q103,547 103,510 Q103,477 118,455 Q133,433 157.5,418 Q182,403 213.5,393 Q245,383 278,374 Q315,364 352.5,352 Q390,340 420.5,319 Q451,298 470,265.5 Q489,233 489,181 Q489,130 470.5,94.5 Q452,59 420,36.5 Q388,14 345,3.5 Q302,-7 253,-7 Q200,-7 144,4.5 Q88,16 43,42 L59,76 Q115,48 161.5,39 Q208,30 250,30 Q342,30 393,64.5 Q444,99 444,182 Q444,218 431,242.5 Q418,267 395.5,283.5 Q373,300 342,311 Q311,322 274,332 Q230,343 191,356 Q152,369 122,388.5 Q92,408 74.5,437 Q57,466 57,510 Q57,554 72.5,588.5 Q88,623 116.5,646.5 Q145,670 184,682 Q223,694 270,694"/> 
            <glyph glyph-name="T" unicode="&#x54;" horiz-adv-x="500" d=" M239,0 L239,646 L19,646 L19,683 L500,683 L500,646 L282,646 L281,0"/> 
            <glyph glyph-name="U" unicode="&#x55;" horiz-adv-x="570" d=" M570,241 Q570,186 554.5,140.5 Q539,95 508.5,62 Q478,29 431.5,11 Q385,-7 322,-7 Q194,-7 136,59 Q78,125 78,241 L78,683 L120,683 L121,243 Q121,29 323,29 Q423,29 474.5,83 Q526,137 526,243 L526,683 L570,683"/> 
            <glyph glyph-name="V" unicode="&#x56;" horiz-adv-x="496" d=" M259,45 L298,179 L452,683 L496,683 L284,0 L229,0 L17,683 L63,683 L217,176 L255,45"/> 
            <glyph glyph-name="W" unicode="&#x57;" horiz-adv-x="772" d=" M382,614 L337,420 Q318,342 293.5,237.5 Q269,133 239,0 L182,0 L17,682 L60,682 Q65,661 77,610.5 Q89,560 104.5,494.5 Q120,429 137,356.5 Q154,284 169,221 Q184,158 195,111 Q206,64 209,50 L213,50 L260,252 L362,682 L407,682 Q419,637 434.5,580.5 Q450,524 465.5,466 Q481,408 496.5,352.5 Q512,297 524,253 Q525,248 529.5,232.5 Q534,217 539.5,196.5 Q545,176 551.5,152.5 Q558,129 563.5,108 Q569,87 573,71 Q577,55 578,50 L582,50 Q594,102 606.5,153.5 Q619,205 630,258 Q656,364 680,470 Q704,576 730,682 L772,682 Q730,507 689,337 Q648,167 607,0 L552,0 Q524,106 496,209 Q468,312 439,420 Q426,469 413.5,517 Q401,565 387,614"/> 
            <glyph glyph-name="X" unicode="&#x58;" horiz-adv-x="494" d=" M254,319 L63,0 L16,0 L229,353 L30,682 L78,682 L255,386 L433,682 L480,682 Q430,599 380,517 Q330,435 280,352 Q334,263 387,175.5 Q440,88 494,0 L445,0"/> 
            <glyph glyph-name="Y" unicode="&#x59;" horiz-adv-x="465" d=" M214,309 L13,683 L61,683 L175,467 L234,350 L238,350 L297,461 L418,683 L465,683 L259,312 L259,0 L214,0"/> 
            <glyph glyph-name="Z" unicode="&#x5A;" horiz-adv-x="467" d=" M41,683 L450,683 L450,645 L69,38 L467,38 L467,0 L17,0 L17,38 L399,646 L41,646"/> 
            <glyph glyph-name="[" unicode="&#x5B;" horiz-adv-x="198" d=" M60,-160 L60,696 L198,696 L198,660 L102,660 L102,-124 L198,-124 L198,-160"/> 
            <glyph glyph-name="\" unicode="&#x5C;" horiz-adv-x="301" d=" M9,698 L42,698 L301,-26 L267,-26"/> 
            <glyph glyph-name="]" unicode="&#x5D;" horiz-adv-x="176" d=" M39,-160 L39,-124 L135,-124 L135,660 L39,660 L39,696 L176,696 L176,-160"/> 
            <glyph glyph-name="^" unicode="&#x5E;" horiz-adv-x="394" d=" M355,397 L211,647 L68,397 L27,397 Q31,405 44.5,426.5 Q58,448 75,477.5 Q92,507 111.5,539.5 Q131,572 148,601.5 Q165,631 178,652.5 Q191,674 195,682 L231,682 Q235,675 247.5,653 Q260,631 276.5,601.5 Q293,572 312,539.5 Q331,507 347.5,477.5 Q364,448 376.5,426 Q389,404 394,397"/> 
            <glyph glyph-name="_" unicode="&#x5F;" horiz-adv-x="500" d=" M0,-119 L0,-90 L500,-90 L500,-119"/> 
            <glyph glyph-name="a" unicode="&#x61;" horiz-adv-x="462" d=" M245,492 Q317,492 355,456.5 Q393,421 393,335 L393,35 L459,35 Q461,29 461,22.5 Q461,16 462,10 Q445,2 427,-1 Q409,-4 395,-4 Q366,-4 358.5,10.5 Q351,25 351,56 Q351,56 349,57 Q317,33 290.5,20 Q264,7 242,1.5 Q220,-4 203.5,-5 Q187,-6 175,-6 Q135,-6 109,6.5 Q83,19 67.5,38.5 Q52,58 46,81.5 Q40,105 40,127 Q40,161 52.5,186.5 Q65,212 87,229.5 Q109,247 140,256.5 Q171,266 208,268 Q214,268 235,269.5 Q256,271 280.5,272 Q305,273 326,274 Q347,275 352,275 L352,320 Q352,357 347,383 Q342,409 328.5,425.5 Q315,442 292.5,449.5 Q270,457 236,457 Q199,457 160,448.5 Q121,440 84,426 L73,456 Q115,473 160,482.5 Q205,492 245,492 M206,236 Q146,233 114.5,205.5 Q83,178 83,132 Q83,27 193,27 Q230,27 269.5,45.5 Q309,64 352,99 L352,244"/> 
            <glyph glyph-name="b" unicode="&#x62;" horiz-adv-x="434" d=" M101,447 Q152,473 189,483.5 Q226,494 259,494 Q310,494 343.5,474.5 Q377,455 397.5,421 Q418,387 426,340.5 Q434,294 434,239 Q434,188 424,143.5 Q414,99 391.5,65.5 Q369,32 331.5,13 Q294,-6 240,-6 Q188,-6 143,4.5 Q98,15 59,32 L59,709 L100,709 L100,541 Q100,533 100,521 Q100,509 99.5,495.5 Q99,482 99,469.5 Q99,457 99,449 M256,459 Q215,459 173.5,443 Q132,427 100,409 L100,56 Q138,40 172.5,34 Q207,28 237,28 Q309,28 350.5,75.5 Q392,123 392,237 Q392,301 382.5,344 Q373,387 355,412.5 Q337,438 312,448.5 Q287,459 256,459"/> 
            <glyph glyph-name="c" unicode="&#x63;" horiz-adv-x="408" d=" M92,236 Q92,194 99.5,156 Q107,118 125,89.5 Q143,61 173,44.5 Q203,28 249,28 Q290,28 323,36.5 Q356,45 397,62 L408,32 Q379,16 337.5,4.5 Q296,-7 249,-7 Q194,-7 156,11 Q118,29 94,61.5 Q70,94 59.5,138 Q49,182 49,235 Q49,272 57,317 Q65,362 87.5,401.5 Q110,441 150.5,467.5 Q191,494 256,494 Q291,494 326,488.5 Q361,483 391,470 L379,437 Q342,451 312,455 Q282,459 259,459 Q216,459 184.5,443 Q153,427 132.5,397.5 Q112,368 102,327 Q92,286 92,236"/> 
            <glyph glyph-name="d" unicode="&#x64;" horiz-adv-x="423" d=" M383,52 Q382,52 382,52.5 Q382,53 381,53 Q347,26 306,10 Q265,-6 223,-6 Q174,-6 140.5,12.5 Q107,31 87,63 Q67,95 58,138.5 Q49,182 49,232 Q49,287 59,335 Q69,383 91.5,418 Q114,453 150,473 Q186,493 237,493 Q266,493 304.5,484.5 Q343,476 383,453 L383,708 L423,708 L423,0 L383,0 M383,415 Q357,431 318.5,444 Q280,457 240,457 Q209,457 182,445.5 Q155,434 135,407.5 Q115,381 103.5,337.5 Q92,294 92,231 Q92,173 102,134 Q112,95 130.5,71.5 Q149,48 175.5,38 Q202,28 234,28 Q252,28 272.5,33 Q293,38 313,47 Q333,56 351.5,67.5 Q370,79 383,92"/> 
            <glyph glyph-name="e" unicode="&#x65;" horiz-adv-x="429" d=" M248,461 Q206,461 178,445 Q150,429 132,402 Q114,375 105,340.5 Q96,306 93,269 L388,269 Q388,311 381,346 Q374,381 358,406.5 Q342,432 315,446.5 Q288,461 248,461 M248,493 Q295,493 326.5,479 Q358,465 378,443 Q398,421 408.5,394 Q419,367 423.5,341 Q428,315 428.5,293.5 Q429,272 429,260 L429,237 L92,237 Q92,195 98.5,157.5 Q105,120 122.5,91 Q140,62 170.5,45 Q201,28 248,28 Q292,28 327,36.5 Q362,45 403,65 L415,36 Q374,14 335,3.5 Q296,-7 249,-7 Q189,-7 150,12.5 Q111,32 88.5,66 Q66,100 57.5,145 Q49,190 49,240 Q49,269 55.5,312 Q62,355 82.5,395.5 Q103,436 142.5,464.5 Q182,493 248,493"/> 
            <glyph glyph-name="f" unicode="&#x66;" horiz-adv-x="327" d=" M106,453 L37,453 L37,477 L106,490 L106,580 Q106,652 143,685 Q180,718 247,718 Q264,718 285.5,716 Q307,714 327,709 L321,678 Q305,680 286.5,682 Q268,684 254,684 Q199,684 172.5,661.5 Q146,639 146,582 L146,487 L292,487 L292,453 L146,453 L145,0 L106,0"/> 
            <glyph glyph-name="g" unicode="&#x67;" horiz-adv-x="473" d=" M138,192 Q108,206 86,240.5 Q64,275 64,327 Q64,372 80,404 Q96,436 121.5,456 Q147,476 178.5,485 Q210,494 241,494 Q262,494 284,492 Q306,490 327,483 L473,483 L473,451 L383,451 L382,448 Q408,428 420,396.5 Q432,365 432,330 Q432,252 379.5,209 Q327,166 240,166 L180,166 Q161,166 144,164.5 Q127,163 114.5,158 Q102,153 94.5,144.5 Q87,136 87,121 Q87,79 151,79 L288,79 Q378,79 418.5,41.5 Q459,4 459,-60 Q459,-98 442.5,-127 Q426,-156 397,-176.5 Q368,-197 328,-207.5 Q288,-218 241,-218 Q184,-218 146,-206 Q108,-194 85.5,-174.5 Q63,-155 54,-129.5 Q45,-104 45,-76 Q45,-33 64.5,1 Q84,35 109,51 Q77,55 62.5,72 Q48,89 48,115 Q48,137 56.5,151 Q65,165 78,173.5 Q91,182 106.5,185.5 Q122,189 137,190 M158,46 Q141,39 127.5,26.5 Q114,14 105,-1.5 Q96,-17 91,-34 Q86,-51 86,-67 Q86,-90 92.5,-111 Q99,-132 117,-148.5 Q135,-165 166,-174.5 Q197,-184 247,-184 Q284,-184 315.5,-175.5 Q347,-167 369.5,-151.5 Q392,-136 405,-113 Q418,-90 418,-61 Q418,-43 413.5,-24.5 Q409,-6 394.5,10 Q380,26 353,36 Q326,46 282,46 M391,330 Q391,351 384,374.5 Q377,398 360.5,417 Q344,436 316,448.5 Q288,461 247,461 Q178,461 141.5,425 Q105,389 105,328 Q105,270 141,234.5 Q177,199 234,199 Q305,199 348,231.5 Q391,264 391,330"/> 
            <glyph glyph-name="h" unicode="&#x68;" horiz-adv-x="417" d=" M102,437 Q153,464 201.5,479 Q250,494 285,494 Q333,494 359.5,479.5 Q386,465 399,443.5 Q412,422 414.5,396 Q417,370 417,346 L417,0 L375,0 L375,331 Q375,359 372,382.5 Q369,406 359,423 Q349,440 329,449 Q309,458 276,458 Q234,458 186,440 Q138,422 100,401 L100,0 L59,0 L59,709 L100,709 L100,566 Q100,554 100,537 Q100,520 99.5,502.5 Q99,485 98.5,468.5 Q98,452 98,440"/> 
            <glyph glyph-name="i" unicode="&#x69;" horiz-adv-x="137" d=" M83,0 L84,487 L124,487 L124,0 M137,610 Q137,597 127,587.5 Q117,578 103,578 Q90,578 80.5,587.5 Q71,597 71,610 Q71,624 80.5,634 Q90,644 103,644 Q117,644 127,634 Q137,624 137,610"/> 
            <glyph glyph-name="j" unicode="&#x6A;" horiz-adv-x="144" d=" M90,487 L131,487 L131,-5 Q130,-46 123.5,-77 Q117,-108 100.5,-132.5 Q84,-157 56.5,-177 Q29,-197 -13,-215 Q-15,-210 -19.5,-200 Q-24,-190 -26,-186 Q10,-167 32.5,-148.5 Q55,-130 68,-110 Q81,-90 86,-66.5 Q91,-43 91,-12 M78,610 Q78,624 87.5,634 Q97,644 110,644 Q124,644 134,634 Q144,624 144,610 Q144,597 134,587.5 Q124,578 110,578 Q97,578 87.5,587.5 Q78,597 78,610"/> 
            <glyph glyph-name="k" unicode="&#x6B;" horiz-adv-x="402" d=" M98,252 Q100,252 100.5,251.5 Q101,251 102,251 L174,322 L341,486 L391,486 L198,297 L228,257 Q234,249 247.5,229 Q261,209 278.5,183 Q296,157 315,128.5 Q334,100 351.5,74 Q369,48 382.5,28 Q396,8 402,0 L355,0 Q308,68 262.5,135.5 Q217,203 171,272 Q154,254 135.5,236.5 Q117,219 100,201 L100,0 L59,0 L59,708 L100,708 L100,380 L98,252"/> 
            <glyph glyph-name="l" unicode="&#x6C;" horiz-adv-x="116" d=" M116,0 L74,0 L74,709 L116,709"/> 
            <glyph glyph-name="m" unicode="&#x6D;" horiz-adv-x="715" d=" M674,0 L674,330 Q674,359 671.5,382.5 Q669,406 659,423 Q649,440 629,449 Q609,458 574,458 Q554,458 531.5,453 Q509,448 486.5,439.5 Q464,431 443,421 Q422,411 404,401 Q406,388 407,375 Q408,362 408,351 L408,0 L366,0 L366,335 Q366,363 363,385.5 Q360,408 350,424 Q340,440 321,448.5 Q302,457 270,457 Q228,457 183,439.5 Q138,422 101,401 L101,0 L60,0 L60,487 L99,487 Q99,478 99.5,463 Q100,448 100,440 Q101,440 102,439 Q103,438 104,438 Q151,465 196.5,479.5 Q242,494 278,494 Q329,494 356.5,477 Q384,460 396,431 Q451,463 498,478.5 Q545,494 581,494 Q628,494 654.5,481 Q681,468 694.5,447.5 Q708,427 711.5,402.5 Q715,378 715,355 L715,0"/> 
            <glyph glyph-name="n" unicode="&#x6E;" horiz-adv-x="417" d=" M375,0 L375,330 Q375,359 373,382.5 Q371,406 361.5,423 Q352,440 332,449 Q312,458 277,458 Q257,458 233.5,453 Q210,448 187,439.5 Q164,431 141.5,421 Q119,411 101,401 L101,0 L60,0 L60,487 L100,487 Q100,478 100.5,463.5 Q101,449 101,440 Q101,439 102,439 Q103,439 103,438.5 Q103,438 104,438 Q151,465 200.5,479.5 Q250,494 285,494 Q331,494 357.5,481.5 Q384,469 397,449 Q410,429 413.5,404.5 Q417,380 417,357 L417,0"/> 
            <glyph glyph-name="o" unicode="&#x6F;" horiz-adv-x="443" d=" M443,240 Q443,195 434.5,151 Q426,107 403.5,72 Q381,37 342.5,15 Q304,-7 245,-7 Q188,-7 150,13.5 Q112,34 89.5,68 Q67,102 58,146 Q49,190 49,238 Q49,285 59.5,330.5 Q70,376 94,412 Q118,448 156.5,470.5 Q195,493 251,493 Q308,493 345.5,471 Q383,449 404.5,413 Q426,377 434.5,331.5 Q443,286 443,240 M401,238 Q401,274 395.5,313 Q390,352 373.5,384.5 Q357,417 328,438 Q299,459 251,459 Q203,459 172.5,439 Q142,419 124,387.5 Q106,356 99,316 Q92,276 92,237 Q92,196 98,158.5 Q104,121 121,92 Q138,63 169,45.5 Q200,28 251,28 Q297,28 326.5,47 Q356,66 372.5,96.5 Q389,127 395,164.5 Q401,202 401,238"/> 
            <glyph glyph-name="p" unicode="&#x70;" horiz-adv-x="433" d=" M101,433 Q136,460 176.5,476.5 Q217,493 259,493 Q308,493 341.5,474.5 Q375,456 395,423.5 Q415,391 424,347.5 Q433,304 433,253 Q433,198 423,151 Q413,104 390.5,69 Q368,34 332,14 Q296,-6 245,-6 Q216,-6 177.5,2 Q139,10 99,33 L99,-211 L59,-211 L59,487 L97,487 Q97,477 97.5,461 Q98,445 98,436 M99,71 Q125,54 163.5,41 Q202,28 242,28 Q273,28 300,39.5 Q327,51 347,78 Q367,105 378.5,148.5 Q390,192 390,255 Q390,312 380,351 Q370,390 351.5,413.5 Q333,437 306.5,447 Q280,457 248,457 Q230,457 209.5,452 Q189,447 169,438 Q149,429 130.5,417.5 Q112,406 99,393"/> 
            <glyph glyph-name="q" unicode="&#x71;" horiz-adv-x="424" d=" M380,38 Q330,12 294,2 Q258,-8 226,-8 Q175,-8 141,10.5 Q107,29 87,62.5 Q67,96 58.5,141.5 Q50,187 50,241 Q50,293 60,339 Q70,385 92.5,419.5 Q115,454 152.5,474 Q190,494 245,494 Q298,494 342,483 Q386,472 424,455 L424,-211 L384,-211 L383,-81 Q383,-52 383.5,-23 Q384,6 384,35 M228,26 Q268,26 309.5,42.5 Q351,59 383,76 L383,432 Q346,448 312,453.5 Q278,459 248,459 Q176,459 134,410 Q92,361 91,248 Q91,184 100.5,141.5 Q110,99 128,73.5 Q146,48 171.5,37 Q197,26 228,26"/> 
            <glyph glyph-name="r" unicode="&#x72;" horiz-adv-x="284" d=" M114,422 Q128,434 148.5,447.5 Q169,461 190.5,472 Q212,483 232.5,490 Q253,497 268,497 Q274,497 279,494 Q284,491 284,481 Q284,474 280,460 Q276,446 270,438 Q264,437 241,431.5 Q218,426 191.5,419.5 Q165,413 142,407.5 Q119,402 113,401 L113,0 L70,0 L70,487 L112,487 Q112,476 111,455 Q110,434 110,423"/> 
            <glyph glyph-name="s" unicode="&#x73;" horiz-adv-x="375" d=" M58,59 Q100,38 135.5,32 Q171,26 198,26 Q227,26 252,32 Q277,38 295.5,50 Q314,62 324.5,80.5 Q335,99 335,125 Q335,148 324.5,164.5 Q314,181 297,193.5 Q280,206 258,214.5 Q236,223 213,231 Q183,241 154.5,252 Q126,263 104,278.5 Q82,294 69,315.5 Q56,337 56,367 Q56,401 68.5,425 Q81,449 103,464 Q125,479 153.5,486 Q182,493 214,493 Q237,493 274.5,487.5 Q312,482 344,466 Q342,462 337.5,450 Q333,438 331,434 Q296,448 266.5,453.5 Q237,459 213,459 Q163,459 129.5,437 Q96,415 96,366 Q96,346 107.5,330.5 Q119,315 136,303.5 Q153,292 173.5,284 Q194,276 212,270 Q242,260 271.5,249.5 Q301,239 324,223.5 Q347,208 361,184.5 Q375,161 375,126 Q375,91 361,66 Q347,41 323,24.5 Q299,8 267,0.5 Q235,-7 200,-7 Q158,-7 116,1.5 Q74,10 43,29"/> 
            <glyph glyph-name="t" unicode="&#x74;" horiz-adv-x="316" d=" M140,587 L140,487 L282,487 L282,453 L140,453 L140,113 Q140,95 143,80 Q146,65 154,54 Q162,43 177,37 Q192,31 215,31 Q251,31 308,48 L316,20 Q292,9 264,2.5 Q236,-4 208,-4 Q185,-4 165,1.5 Q145,7 130.5,19 Q116,31 107.5,51 Q99,71 99,100 L99,453 L30,453 L30,476 L100,491 L113,583"/> 
            <glyph glyph-name="u" unicode="&#x75;" horiz-adv-x="408" d=" M192,-10 Q142,-10 115.5,4 Q89,18 76.5,40 Q64,62 62,88 Q60,114 60,137 L60,487 L101,487 L101,152 Q101,122 103.5,98.5 Q106,75 116,58.5 Q126,42 145.5,33.5 Q165,25 199,25 Q232,25 279,43 Q326,61 368,99 L367,487 L408,487 L408,0 L368,0 L368,61 L365,63 Q336,39 310,24.5 Q284,10 261.5,2.5 Q239,-5 221,-7.5 Q203,-10 192,-10"/> 
            <glyph glyph-name="v" unicode="&#x76;" horiz-adv-x="387" d=" M172,0 Q134,118 95,237.5 Q56,357 13,486 L56,486 Q81,407 107,326.5 Q133,246 159,161 Q168,131 177.5,99 Q187,67 197,37 L201,37 Q208,59 218.5,93.5 Q229,128 241,165 Q267,246 294,328.5 Q321,411 344,486 L387,486 Q344,358 303.5,237 Q263,116 223,0 L172,0"/> 
            <glyph glyph-name="w" unicode="&#x77;" horiz-adv-x="653" d=" M492,40 L527,174 L611,487 L653,487 L516,0 L466,0 L369,303 L329,436 L326,436 L292,314 L200,0 L149,0 L13,487 L55,487 L136,189 L174,40 L178,40 L222,198 L306,487 L348,487 L449,169 L488,40"/> 
            <glyph glyph-name="x" unicode="&#x78;" horiz-adv-x="382" d=" M194,229 L53,0 L8,0 Q49,64 88.5,128.5 Q128,193 170,257 Q134,315 97.5,372 Q61,429 26,486 L72,486 L194,287 L316,486 L361,486 L217,259 L382,0 L335,0"/> 
            <glyph glyph-name="y" unicode="&#x79;" horiz-adv-x="397" d=" M210,28 Q212,33 216.5,47 Q221,61 227.5,82 Q234,103 242,129 Q250,155 259,184 L355,487 L397,487 Q394,476 384.5,447.5 Q375,419 362,378 Q349,337 333,288 Q317,239 301,188 Q285,137 269,88 Q253,39 239.5,-1.5 Q226,-42 217,-71 Q208,-100 204,-110 Q188,-160 163.5,-189 Q139,-218 91,-218 Q76,-217 51.5,-215 Q27,-213 -8,-204 L-1,-171 Q30,-177 46.5,-179.5 Q63,-182 80,-182 Q93,-182 105,-180.5 Q117,-179 127,-172 Q137,-165 146.5,-150 Q156,-135 165,-108 L200,1 L178,1 Q174,13 161.5,50.5 Q149,88 132.5,138 Q116,188 97,244 Q78,300 61,350 Q44,400 31.5,437.5 Q19,475 15,487 L56,487 Q58,480 65.5,456.5 Q73,433 83.5,401.5 Q94,370 105.5,334.5 Q117,299 127.5,267.5 Q138,236 146,212.5 Q154,189 156,182 L206,28 L210,28"/> 
            <glyph glyph-name="z" unicode="&#x7A;" horiz-adv-x="376" d=" M69,33 L376,34 L376,0 L15,0 L15,32 L316,449 L314,452 L40,452 L40,487 L366,487 L366,451 L67,37"/> 
            <glyph glyph-name="{" unicode="&#x7B;" horiz-adv-x="210" d=" M169,-163 Q148,-163 134.5,-155 Q121,-147 113,-134 Q105,-121 102,-105 Q99,-89 99,-73 L99,170 Q99,186 97,204 Q95,222 88.5,238.5 Q82,255 68.5,267 Q55,279 31,284 L31,312 Q53,316 66.5,327.5 Q80,339 87,355 Q94,371 96.5,389.5 Q99,408 99,427 L99,593 Q99,610 102,629 Q105,648 113,663.5 Q121,679 135,689 Q149,699 171,699 L210,699 L210,663 L188,663 Q162,663 151.5,647 Q141,631 141,600 L141,425 Q141,406 138.5,386 Q136,366 130,349 Q124,332 113,318.5 Q102,305 85,299 Q104,289 115.5,275.5 Q127,262 132.5,245.5 Q138,229 139.5,208.5 Q141,188 141,164 L141,-66 Q141,-79 142,-90 Q143,-101 147.5,-109.5 Q152,-118 160.5,-123 Q169,-128 183,-128 L210,-128 L210,-163"/> 
            <glyph glyph-name="|" unicode="&#x7C;" horiz-adv-x="121" d=" M86,-136 L86,697 L121,697 L121,-136"/> 
            <glyph glyph-name="}" unicode="&#x7D;" horiz-adv-x="208" d=" M30,-163 L30,-128 L57,-128 Q85,-128 91.5,-110 Q98,-92 98,-66 L98,164 Q98,213 107,246 Q116,279 155,299 Q137,305 126,318.5 Q115,332 109,349 Q103,366 100.5,386 Q98,406 98,425 L98,600 Q98,631 88,647 Q78,663 52,663 L30,663 L30,699 L68,699 Q90,699 104,689 Q118,679 126,663.5 Q134,648 137,629 Q140,610 140,593 L140,427 Q140,408 142.5,389.5 Q145,371 152.5,355 Q160,339 173,327.5 Q186,316 208,312 L208,284 Q184,279 170.5,267 Q157,255 150.5,238.5 Q144,222 142,204 Q140,186 140,170 L140,-73 Q140,-89 137,-105 Q134,-121 126.5,-134 Q119,-147 105,-155 Q91,-163 70,-163"/> 
            <glyph glyph-name="~" unicode="&#x7E;" horiz-adv-x="453" d=" M380,248 Q353,248 320.5,254 Q288,260 255.5,267.5 Q223,275 193,281 Q163,287 141,287 L89,245 L69,259 Q85,292 102.5,307.5 Q120,323 146,323 Q168,323 201,317 Q234,311 268.5,303.5 Q303,296 334.5,290 Q366,284 385,284 L435,324 L453,311 Q439,279 422,263.5 Q405,248 380,248"/> 
            <glyph glyph-name="Ç" unicode="&#xC7;" horiz-adv-x="518" d=" M337,693 Q391,693 434.5,685.5 Q478,678 506,667 L495,632 Q457,644 416.5,650 Q376,656 341,656 Q279,656 234.5,633 Q190,610 161,568 Q132,526 118.5,467 Q105,408 105,335 Q105,277 113.5,222 Q122,167 147,124.5 Q172,82 218.5,56 Q265,30 340,30 Q353,30 373.5,31.5 Q394,33 417,35.5 Q440,38 464,42.5 Q488,47 508,53 L518,21 Q502,15 480.5,10 Q459,5 435,1.5 Q411,-2 386.5,-4.5 Q362,-7 341,-7 Q327,-24 313,-41 Q299,-58 285,-76 Q335,-76 369,-92 Q403,-108 403,-147 Q403,-186 363,-215.5 Q323,-245 235,-245 Q235,-239 234.5,-233.5 Q234,-228 234,-222 Q305,-217 333.5,-196.5 Q362,-176 362,-150 Q362,-127 338.5,-115 Q315,-103 281,-103 L255,-103 Q248,-95 245,-88 L310,-6 Q241,-3 193.5,22.5 Q146,48 116.5,92.5 Q87,137 73.5,199 Q60,261 60,337 Q60,392 71.5,454.5 Q83,517 113.5,570 Q144,623 198,658 Q252,693 337,693"/> 
            <glyph glyph-name="È" unicode="&#xC8;" horiz-adv-x="476" d=" M80,0 L80,683 L459,683 L459,647 L124,647 L124,380 L414,380 L414,344 L124,344 L124,36 L476,36 L476,0 M174,851 L210,883 L317,735 L295,718"/> 
            <glyph glyph-name="É" unicode="&#xC9;" horiz-adv-x="476" d=" M80,0 L80,683 L459,683 L459,647 L124,647 L124,380 L414,380 L414,344 L124,344 L124,36 L476,36 L476,0 M256,718 L234,734 L341,883 L377,851"/> 
            <glyph glyph-name="Ê" unicode="&#xCA;" horiz-adv-x="476" d=" M80,0 L80,683 L459,683 L459,647 L124,647 L124,380 L414,380 L414,344 L124,344 L124,36 L476,36 L476,0 M404,721 L265,819 L127,720 L112,737 L247,864 L283,864 L419,738"/> 
            <glyph glyph-name="Ë" unicode="&#xCB;" horiz-adv-x="476" d=" M80,0 L80,683 L459,683 L459,647 L124,647 L124,380 L414,380 L414,344 L124,344 L124,36 L476,36 L476,0 M378,765 Q378,751 369,742.5 Q360,734 346,734 Q333,734 324.5,742.5 Q316,751 316,765 Q316,778 325,787 Q334,796 346,796 Q360,796 369,787 Q378,778 378,765 M229,765 Q229,751 220,742.5 Q211,734 197,734 Q184,734 175.5,742.5 Q167,751 167,765 Q167,778 176,787 Q185,796 197,796 Q211,796 220,787 Q229,778 229,765"/> 
            <glyph glyph-name="Ì" unicode="&#xCC;" horiz-adv-x="133" d=" M90,0 L90,683 L133,683 L133,0 M-11,851 L25,883 L132,735 L110,718"/> 
            <glyph glyph-name="Í" unicode="&#xCD;" horiz-adv-x="228" d=" M90,0 L90,683 L133,683 L133,0 M107,718 L85,734 L192,883 L228,851"/> 
            <glyph glyph-name="Î" unicode="&#xCE;" horiz-adv-x="265" d=" M90,0 L90,683 L133,683 L133,0 M250,712 L111,810 L-27,711 L-42,728 L93,855 L129,855 L265,729"/> 
            <glyph glyph-name="Ï" unicode="&#xCF;" horiz-adv-x="219" d=" M90,0 L90,683 L133,683 L133,0 M219,767 Q219,753 210,744.5 Q201,736 187,736 Q174,736 165.5,744.5 Q157,753 157,767 Q157,780 166,789 Q175,798 187,798 Q201,798 210,789 Q219,780 219,767 M70,767 Q70,753 61,744.5 Q52,736 38,736 Q25,736 16.5,744.5 Q8,753 8,767 Q8,780 17,789 Q26,798 38,798 Q52,798 61,789 Q70,780 70,767"/> 
            <glyph glyph-name="Ð" unicode="&#xD0;" horiz-adv-x="550" d=" M80,0 L80,342 L15,342 L15,375 L80,375 L80,683 L283,683 Q362,683 413.5,655.5 Q465,628 495.5,581.5 Q526,535 538,473 Q550,411 550,343 Q550,272 537,210 Q524,148 492,101 Q460,54 406.5,27 Q353,0 272,0 M124,647 L124,375 L319,375 L319,342 L124,342 L124,37 L265,37 Q280,37 303.5,38.5 Q327,40 353.5,48 Q380,56 407,74 Q434,92 456,125 Q478,158 491.5,209 Q505,260 505,335 Q505,411 492.5,464 Q480,517 460,551.5 Q440,586 414.5,605.5 Q389,625 363,634 Q337,643 313.5,645 Q290,647 273,647"/> 
            <glyph glyph-name="Ñ" unicode="&#xD1;" horiz-adv-x="564" d=" M520,77 L520,683 L564,683 L563,0 L520,0 L201,493 L127,612 Q126,612 125,611.5 Q124,611 123,611 L123,0 L80,0 L80,683 L126,683 L449,182 L516,77 M400,745 Q384,745 364,751 Q344,757 324,764.5 Q304,772 285.5,778 Q267,784 254,784 L203,743 L185,755 Q195,783 214.5,800 Q234,817 258,817 Q274,817 293.5,811 Q313,805 332.5,798.5 Q352,792 370.5,786 Q389,780 403,780 L452,820 L469,808 Q459,782 441.5,763.5 Q424,745 400,745"/> 
            <glyph glyph-name="Ò" unicode="&#xD2;" horiz-adv-x="603" d=" M603,338 Q603,264 586.5,201.5 Q570,139 536.5,93 Q503,47 453.5,20.5 Q404,-6 338,-7 Q261,-7 208,16.5 Q155,40 122,84.5 Q89,129 74.5,192 Q60,255 60,335 Q60,405 74,469.5 Q88,534 120,583.5 Q152,633 205.5,663 Q259,693 338,693 Q418,693 469.5,663 Q521,633 550.5,583.5 Q580,534 591.5,470 Q603,406 603,338 M557,335 Q557,388 549,445 Q541,502 518,549.5 Q495,597 451.5,627.5 Q408,658 338,658 Q267,658 222,630 Q177,602 151,556 Q125,510 115,452 Q105,394 105,333 Q105,184 159,106 Q213,28 333,28 Q390,28 432.5,52 Q475,76 502.5,118 Q530,160 543.5,216 Q557,272 557,335 M221,851 L257,883 L364,735 L342,718"/> 
            <glyph glyph-name="Ó" unicode="&#xD3;" horiz-adv-x="603" d=" M603,338 Q603,264 586.5,201.5 Q570,139 536.5,93 Q503,47 453.5,20.5 Q404,-6 338,-7 Q261,-7 208,16.5 Q155,40 122,84.5 Q89,129 74.5,192 Q60,255 60,335 Q60,405 74,469.5 Q88,534 120,583.5 Q152,633 205.5,663 Q259,693 338,693 Q418,693 469.5,663 Q521,633 550.5,583.5 Q580,534 591.5,470 Q603,406 603,338 M557,335 Q557,388 549,445 Q541,502 518,549.5 Q495,597 451.5,627.5 Q408,658 338,658 Q267,658 222,630 Q177,602 151,556 Q125,510 115,452 Q105,394 105,333 Q105,184 159,106 Q213,28 333,28 Q390,28 432.5,52 Q475,76 502.5,118 Q530,160 543.5,216 Q557,272 557,335 M335,718 L313,734 L420,883 L456,851"/> 
            <glyph glyph-name="Ô" unicode="&#xD4;" horiz-adv-x="603" d=" M603,338 Q603,264 586.5,201.5 Q570,139 536.5,93 Q503,47 453.5,20.5 Q404,-6 338,-7 Q261,-7 208,16.5 Q155,40 122,84.5 Q89,129 74.5,192 Q60,255 60,335 Q60,405 74,469.5 Q88,534 120,583.5 Q152,633 205.5,663 Q259,693 338,693 Q418,693 469.5,663 Q521,633 550.5,583.5 Q580,534 591.5,470 Q603,406 603,338 M557,335 Q557,388 549,445 Q541,502 518,549.5 Q495,597 451.5,627.5 Q408,658 338,658 Q267,658 222,630 Q177,602 151,556 Q125,510 115,452 Q105,394 105,333 Q105,184 159,106 Q213,28 333,28 Q390,28 432.5,52 Q475,76 502.5,118 Q530,160 543.5,216 Q557,272 557,335 M479,721 L340,819 L202,720 L187,737 L322,864 L358,864 L494,738"/> 
            <glyph glyph-name="Õ" unicode="&#xD5;" horiz-adv-x="603" d=" M603,338 Q603,264 586.5,201.5 Q570,139 536.5,93 Q503,47 453.5,20.5 Q404,-6 338,-7 Q261,-7 208,16.5 Q155,40 122,84.5 Q89,129 74.5,192 Q60,255 60,335 Q60,405 74,469.5 Q88,534 120,583.5 Q152,633 205.5,663 Q259,693 338,693 Q418,693 469.5,663 Q521,633 550.5,583.5 Q580,534 591.5,470 Q603,406 603,338 M557,335 Q557,388 549,445 Q541,502 518,549.5 Q495,597 451.5,627.5 Q408,658 338,658 Q267,658 222,630 Q177,602 151,556 Q125,510 115,452 Q105,394 105,333 Q105,184 159,106 Q213,28 333,28 Q390,28 432.5,52 Q475,76 502.5,118 Q530,160 543.5,216 Q557,272 557,335 M411,765 Q395,765 375,771 Q355,777 335,784.5 Q315,792 296.5,798 Q278,804 265,804 L214,763 L196,775 Q206,803 225.5,820 Q245,837 269,837 Q285,837 304.5,831 Q324,825 343.5,818.5 Q363,812 381.5,806 Q400,800 414,800 L463,840 L480,828 Q470,802 452.5,783.5 Q435,765 411,765"/> 
            <glyph glyph-name="Ö" unicode="&#xD6;" horiz-adv-x="603" d=" M603,338 Q603,264 586.5,201.5 Q570,139 536.5,93 Q503,47 453.5,20.5 Q404,-6 338,-7 Q261,-7 208,16.5 Q155,40 122,84.5 Q89,129 74.5,192 Q60,255 60,335 Q60,405 74,469.5 Q88,534 120,583.5 Q152,633 205.5,663 Q259,693 338,693 Q418,693 469.5,663 Q521,633 550.5,583.5 Q580,534 591.5,470 Q603,406 603,338 M557,335 Q557,388 549,445 Q541,502 518,549.5 Q495,597 451.5,627.5 Q408,658 338,658 Q267,658 222,630 Q177,602 151,556 Q125,510 115,452 Q105,394 105,333 Q105,184 159,106 Q213,28 333,28 Q390,28 432.5,52 Q475,76 502.5,118 Q530,160 543.5,216 Q557,272 557,335 M445,777 Q445,763 436,754.5 Q427,746 413,746 Q400,746 391.5,754.5 Q383,763 383,777 Q383,790 392,799 Q401,808 413,808 Q427,808 436,799 Q445,790 445,777 M296,777 Q296,763 287,754.5 Q278,746 264,746 Q251,746 242.5,754.5 Q234,763 234,777 Q234,790 243,799 Q252,808 264,808 Q278,808 287,799 Q296,790 296,777"/> 
            <glyph glyph-name="ç" unicode="&#xE7;" horiz-adv-x="408" d=" M92,236 Q92,194 99.5,156 Q107,118 125,89.5 Q143,61 173,44.5 Q203,28 249,28 Q290,28 323,36.5 Q356,45 397,62 L408,32 Q381,17 343.5,6.5 Q306,-4 264,-6 Q251,-22 237.5,-38 Q224,-54 212,-71 Q262,-71 296,-87 Q330,-103 330,-142 Q330,-181 290,-210.5 Q250,-240 162,-240 Q162,-234 161.5,-228.5 Q161,-223 161,-217 Q232,-212 260.5,-191.5 Q289,-171 289,-145 Q289,-122 265.5,-110 Q242,-98 208,-98 L182,-98 Q175,-90 172,-83 Q188,-63 202.5,-44 Q217,-25 233,-6 Q182,-4 147,15 Q112,34 90.5,66 Q69,98 59,141 Q49,184 49,235 Q49,272 57,317 Q65,362 87.5,401.5 Q110,441 150.5,467.5 Q191,494 256,494 Q291,494 326,488.5 Q361,483 391,470 L379,437 Q342,451 312,455 Q282,459 259,459 Q216,459 184.5,443 Q153,427 132.5,397.5 Q112,368 102,327 Q92,286 92,236"/> 
            <glyph glyph-name="è" unicode="&#xE8;" horiz-adv-x="429" d=" M248,461 Q206,461 178,445 Q150,429 132,402 Q114,375 105,340.5 Q96,306 93,269 L388,269 Q388,311 381,346 Q374,381 358,406.5 Q342,432 315,446.5 Q288,461 248,461 M248,493 Q295,493 326.5,479 Q358,465 378,443 Q398,421 408.5,394 Q419,367 423.5,341 Q428,315 428.5,293.5 Q429,272 429,260 L429,237 L92,237 Q92,195 98.5,157.5 Q105,120 122.5,91 Q140,62 170.5,45 Q201,28 248,28 Q292,28 327,36.5 Q362,45 403,65 L415,36 Q374,14 335,3.5 Q296,-7 249,-7 Q189,-7 150,12.5 Q111,32 88.5,66 Q66,100 57.5,145 Q49,190 49,240 Q49,269 55.5,312 Q62,355 82.5,395.5 Q103,436 142.5,464.5 Q182,493 248,493 M133,682 L170,714 L277,566 L255,548"/> 
            <glyph glyph-name="é" unicode="&#xE9;" horiz-adv-x="429" d=" M248,461 Q206,461 178,445 Q150,429 132,402 Q114,375 105,340.5 Q96,306 93,269 L388,269 Q388,311 381,346 Q374,381 358,406.5 Q342,432 315,446.5 Q288,461 248,461 M248,493 Q295,493 326.5,479 Q358,465 378,443 Q398,421 408.5,394 Q419,367 423.5,341 Q428,315 428.5,293.5 Q429,272 429,260 L429,237 L92,237 Q92,195 98.5,157.5 Q105,120 122.5,91 Q140,62 170.5,45 Q201,28 248,28 Q292,28 327,36.5 Q362,45 403,65 L415,36 Q374,14 335,3.5 Q296,-7 249,-7 Q189,-7 150,12.5 Q111,32 88.5,66 Q66,100 57.5,145 Q49,190 49,240 Q49,269 55.5,312 Q62,355 82.5,395.5 Q103,436 142.5,464.5 Q182,493 248,493 M231,548 L210,565 L317,713 L353,682"/> 
            <glyph glyph-name="ê" unicode="&#xEA;" horiz-adv-x="429" d=" M248,461 Q206,461 178,445 Q150,429 132,402 Q114,375 105,340.5 Q96,306 93,269 L388,269 Q388,311 381,346 Q374,381 358,406.5 Q342,432 315,446.5 Q288,461 248,461 M248,493 Q295,493 326.5,479 Q358,465 378,443 Q398,421 408.5,394 Q419,367 423.5,341 Q428,315 428.5,293.5 Q429,272 429,260 L429,237 L92,237 Q92,195 98.5,157.5 Q105,120 122.5,91 Q140,62 170.5,45 Q201,28 248,28 Q292,28 327,36.5 Q362,45 403,65 L415,36 Q374,14 335,3.5 Q296,-7 249,-7 Q189,-7 150,12.5 Q111,32 88.5,66 Q66,100 57.5,145 Q49,190 49,240 Q49,269 55.5,312 Q62,355 82.5,395.5 Q103,436 142.5,464.5 Q182,493 248,493 M392,533 L253,633 L114,532 L100,549 L235,678 L271,678 L406,550"/> 
            <glyph glyph-name="ë" unicode="&#xEB;" horiz-adv-x="429" d=" M248,461 Q206,461 178,445 Q150,429 132,402 Q114,375 105,340.5 Q96,306 93,269 L388,269 Q388,311 381,346 Q374,381 358,406.5 Q342,432 315,446.5 Q288,461 248,461 M248,493 Q295,493 326.5,479 Q358,465 378,443 Q398,421 408.5,394 Q419,367 423.5,341 Q428,315 428.5,293.5 Q429,272 429,260 L429,237 L92,237 Q92,195 98.5,157.5 Q105,120 122.5,91 Q140,62 170.5,45 Q201,28 248,28 Q292,28 327,36.5 Q362,45 403,65 L415,36 Q374,14 335,3.5 Q296,-7 249,-7 Q189,-7 150,12.5 Q111,32 88.5,66 Q66,100 57.5,145 Q49,190 49,240 Q49,269 55.5,312 Q62,355 82.5,395.5 Q103,436 142.5,464.5 Q182,493 248,493 M360,606 Q360,593 351,584.5 Q342,576 328,576 Q315,576 306.5,584.5 Q298,593 298,606 Q298,620 307,628.5 Q316,637 328,637 Q342,637 351,628.5 Q360,620 360,606 M211,606 Q211,593 202,584.5 Q193,576 179,576 Q166,576 157.5,584.5 Q149,593 149,606 Q149,620 158,628.5 Q167,637 179,637 Q193,637 202,628.5 Q211,620 211,606"/> 
            <glyph glyph-name="ì" unicode="&#xEC;" horiz-adv-x="132" d=" M84,0 L84,487 L124,487 L124,0 M-12,682 L25,714 L132,566 L110,548"/> 
            <glyph glyph-name="í" unicode="&#xED;" horiz-adv-x="223" d=" M84,0 L84,487 L124,487 L124,0 M101,548 L80,565 L187,713 L223,682"/> 
            <glyph glyph-name="î" unicode="&#xEE;" horiz-adv-x="281" d=" M108,0 L108,487 L148,487 L148,0 M267,544 L128,644 L-11,543 L-25,560 L110,689 L146,689 L281,561"/> 
            <glyph glyph-name="ï" unicode="&#xEF;" horiz-adv-x="209" d=" M84,0 L84,487 L124,487 L124,0 M209,606 Q209,593 200,584.5 Q191,576 177,576 Q164,576 155.5,584.5 Q147,593 147,606 Q147,620 156,628.5 Q165,637 177,637 Q191,637 200,628.5 Q209,620 209,606 M60,606 Q60,593 51,584.5 Q42,576 28,576 Q15,576 6.5,584.5 Q-2,593 -2,606 Q-2,620 7,628.5 Q16,637 28,637 Q42,637 51,628.5 Q60,620 60,606"/> 
            <glyph glyph-name="ð" unicode="&#xF0;" horiz-adv-x="436" d=" M384,656 L400,633 L323,582 Q378,519 407,439 Q436,359 435,263 Q435,241 432,212.5 Q429,184 421.5,154 Q414,124 400.5,95 Q387,66 364.5,43.5 Q342,21 309.5,7 Q277,-7 233,-7 Q176,-7 139,14.5 Q102,36 80,68.5 Q58,101 49.5,140 Q41,179 41,214 Q41,251 51,292.5 Q61,334 84.5,368.5 Q108,403 145.5,426 Q183,449 238,449 Q283,449 319.5,433.5 Q356,418 379,398 Q366,446 344,486.5 Q322,527 293,561 L202,499 L186,521 L275,581 Q218,639 143,680 L158,707 Q201,685 237.5,659.5 Q274,634 304,602 M240,416 Q195,416 164.5,396.5 Q134,377 115.5,347.5 Q97,318 89.5,282.5 Q82,247 82,216 Q82,184 88.5,150.5 Q95,117 112.5,89.5 Q130,62 160.5,44.5 Q191,27 239,27 Q274,27 299,39 Q324,51 341,71 Q358,91 368.5,116.5 Q379,142 384.5,168.5 Q390,195 392,220.5 Q394,246 394,266 Q394,288 392,308 Q390,328 386,350 Q357,382 318,399 Q279,416 240,416"/> 
            <glyph glyph-name="ñ" unicode="&#xF1;" horiz-adv-x="417" d=" M375,0 L375,330 Q375,359 373,382.5 Q371,406 361.5,423 Q352,440 332,449 Q312,458 277,458 Q257,458 233.5,453 Q210,448 187,439.5 Q164,431 141.5,421 Q119,411 101,401 L101,0 L60,0 L60,487 L100,487 Q100,478 100.5,463.5 Q101,449 101,440 Q101,439 102,439 Q103,439 103,438.5 Q103,438 104,438 Q151,465 200.5,479.5 Q250,494 285,494 Q331,494 357.5,481.5 Q384,469 397,449 Q410,429 413.5,404.5 Q417,380 417,357 L417,0 M299,593 Q283,593 263,599 Q243,605 223,612.5 Q203,620 184.5,626 Q166,632 153,632 L102,591 L84,603 Q94,631 113.5,648 Q133,665 157,665 Q173,665 192.5,659 Q212,653 231.5,646.5 Q251,640 269.5,634 Q288,628 302,628 L351,668 L368,656 Q358,630 340.5,611.5 Q323,593 299,593"/> 
            <glyph glyph-name="ò" unicode="&#xF2;" horiz-adv-x="443" d=" M443,240 Q443,195 434.5,151 Q426,107 403.5,72 Q381,37 342.5,15 Q304,-7 245,-7 Q188,-7 150,13.5 Q112,34 89.5,68 Q67,102 58,146 Q49,190 49,238 Q49,285 59.5,330.5 Q70,376 94,412 Q118,448 156.5,470.5 Q195,493 251,493 Q308,493 345.5,471 Q383,449 404.5,413 Q426,377 434.5,331.5 Q443,286 443,240 M401,238 Q401,274 395.5,313 Q390,352 373.5,384.5 Q357,417 328,438 Q299,459 251,459 Q203,459 172.5,439 Q142,419 124,387.5 Q106,356 99,316 Q92,276 92,237 Q92,196 98,158.5 Q104,121 121,92 Q138,63 169,45.5 Q200,28 251,28 Q297,28 326.5,47 Q356,66 372.5,96.5 Q389,127 395,164.5 Q401,202 401,238 M137,682 L174,714 L281,566 L259,548"/> 
            <glyph glyph-name="ó" unicode="&#xF3;" horiz-adv-x="443" d=" M443,240 Q443,195 434.5,151 Q426,107 403.5,72 Q381,37 342.5,15 Q304,-7 245,-7 Q188,-7 150,13.5 Q112,34 89.5,68 Q67,102 58,146 Q49,190 49,238 Q49,285 59.5,330.5 Q70,376 94,412 Q118,448 156.5,470.5 Q195,493 251,493 Q308,493 345.5,471 Q383,449 404.5,413 Q426,377 434.5,331.5 Q443,286 443,240 M401,238 Q401,274 395.5,313 Q390,352 373.5,384.5 Q357,417 328,438 Q299,459 251,459 Q203,459 172.5,439 Q142,419 124,387.5 Q106,356 99,316 Q92,276 92,237 Q92,196 98,158.5 Q104,121 121,92 Q138,63 169,45.5 Q200,28 251,28 Q297,28 326.5,47 Q356,66 372.5,96.5 Q389,127 395,164.5 Q401,202 401,238 M238,548 L217,565 L324,713 L360,682"/> 
            <glyph glyph-name="ô" unicode="&#xF4;" horiz-adv-x="443" d=" M443,240 Q443,195 434.5,151 Q426,107 403.5,72 Q381,37 342.5,15 Q304,-7 245,-7 Q188,-7 150,13.5 Q112,34 89.5,68 Q67,102 58,146 Q49,190 49,238 Q49,285 59.5,330.5 Q70,376 94,412 Q118,448 156.5,470.5 Q195,493 251,493 Q308,493 345.5,471 Q383,449 404.5,413 Q426,377 434.5,331.5 Q443,286 443,240 M401,238 Q401,274 395.5,313 Q390,352 373.5,384.5 Q357,417 328,438 Q299,459 251,459 Q203,459 172.5,439 Q142,419 124,387.5 Q106,356 99,316 Q92,276 92,237 Q92,196 98,158.5 Q104,121 121,92 Q138,63 169,45.5 Q200,28 251,28 Q297,28 326.5,47 Q356,66 372.5,96.5 Q389,127 395,164.5 Q401,202 401,238 M392,545 L253,645 L114,544 L100,561 L235,690 L271,690 L406,562"/> 
            <glyph glyph-name="õ" unicode="&#xF5;" horiz-adv-x="443" d=" M443,240 Q443,195 434.5,151 Q426,107 403.5,72 Q381,37 342.5,15 Q304,-7 245,-7 Q188,-7 150,13.5 Q112,34 89.5,68 Q67,102 58,146 Q49,190 49,238 Q49,285 59.5,330.5 Q70,376 94,412 Q118,448 156.5,470.5 Q195,493 251,493 Q308,493 345.5,471 Q383,449 404.5,413 Q426,377 434.5,331.5 Q443,286 443,240 M401,238 Q401,274 395.5,313 Q390,352 373.5,384.5 Q357,417 328,438 Q299,459 251,459 Q203,459 172.5,439 Q142,419 124,387.5 Q106,356 99,316 Q92,276 92,237 Q92,196 98,158.5 Q104,121 121,92 Q138,63 169,45.5 Q200,28 251,28 Q297,28 326.5,47 Q356,66 372.5,96.5 Q389,127 395,164.5 Q401,202 401,238 M326,580 Q310,580 290,586 Q270,592 250,599.5 Q230,607 211.5,613 Q193,619 180,619 L129,578 L111,590 Q121,618 140.5,635 Q160,652 184,652 Q200,652 219.5,646 Q239,640 258.5,633.5 Q278,627 296.5,621 Q315,615 329,615 L378,655 L395,643 Q385,617 367.5,598.5 Q350,580 326,580"/> 
            <glyph glyph-name="ö" unicode="&#xF6;" horiz-adv-x="443" d=" M443,240 Q443,195 434.5,151 Q426,107 403.5,72 Q381,37 342.5,15 Q304,-7 245,-7 Q188,-7 150,13.5 Q112,34 89.5,68 Q67,102 58,146 Q49,190 49,238 Q49,285 59.5,330.5 Q70,376 94,412 Q118,448 156.5,470.5 Q195,493 251,493 Q308,493 345.5,471 Q383,449 404.5,413 Q426,377 434.5,331.5 Q443,286 443,240 M401,238 Q401,274 395.5,313 Q390,352 373.5,384.5 Q357,417 328,438 Q299,459 251,459 Q203,459 172.5,439 Q142,419 124,387.5 Q106,356 99,316 Q92,276 92,237 Q92,196 98,158.5 Q104,121 121,92 Q138,63 169,45.5 Q200,28 251,28 Q297,28 326.5,47 Q356,66 372.5,96.5 Q389,127 395,164.5 Q401,202 401,238 M360,606 Q360,593 351,584.5 Q342,576 328,576 Q315,576 306.5,584.5 Q298,593 298,606 Q298,620 307,628.5 Q316,637 328,637 Q342,637 351,628.5 Q360,620 360,606 M211,606 Q211,593 202,584.5 Q193,576 179,576 Q166,576 157.5,584.5 Q149,593 149,606 Q149,620 158,628.5 Q167,637 179,637 Q193,637 202,628.5 Q211,620 211,606"/> 
            <glyph glyph-name="ø" unicode="&#xF8;" horiz-adv-x="436" d=" M241,493 Q286,493 317,479.5 Q348,466 370,443 Q371,445 377,452.5 Q383,460 389,468 Q395,476 400.5,483.5 Q406,491 407,493 L436,493 Q434,490 427,480 Q420,470 411.5,459 Q403,448 395.5,438 Q388,428 386,425 Q412,388 422.5,339.5 Q433,291 433,240 Q433,195 424.5,151 Q416,107 393.5,72 Q371,37 333,15 Q295,-7 236,-7 Q190,-7 157.5,5.5 Q125,18 102,40 L69,-5 Q65,-5 54,-5.5 Q43,-6 40,-6 Q42,-3 49,6 Q56,15 63.5,26 Q71,37 78,46 Q85,55 87,58 Q61,93 50.5,140 Q40,187 40,238 Q40,285 50.5,330.5 Q61,376 84.5,412 Q108,448 146.5,470.5 Q185,493 241,493 M391,238 Q391,275 384.5,316.5 Q378,358 359,391 L126,71 Q144,51 171.5,39.5 Q199,28 241,28 Q288,28 317,47 Q346,66 362.5,96.5 Q379,127 385,164.5 Q391,202 391,238 M241,459 Q194,459 163.5,439 Q133,419 115,387.5 Q97,356 90,316.5 Q83,277 83,238 Q83,196 89,158 Q95,120 113,91 Q118,97 136,121.5 Q154,146 178,179.5 Q202,213 229.5,251 Q257,289 281,322.5 Q305,356 323,380.5 Q341,405 346,412 Q329,433 303.5,446 Q278,459 241,459"/> 
            <glyph glyph-name="ù" unicode="&#xF9;" horiz-adv-x="408" d=" M192,-10 Q142,-10 115.5,4 Q89,18 76.5,40 Q64,62 62,88 Q60,114 60,137 L60,487 L101,487 L101,152 Q101,122 103.5,98.5 Q106,75 116,58.5 Q126,42 145.5,33.5 Q165,25 199,25 Q232,25 279,43 Q326,61 368,99 L367,487 L408,487 L408,0 L368,0 L368,61 L365,63 Q336,39 310,24.5 Q284,10 261.5,2.5 Q239,-5 221,-7.5 Q203,-10 192,-10 M127,682 L164,714 L271,566 L249,548"/> 
            <glyph glyph-name="ú" unicode="&#xFA;" horiz-adv-x="408" d=" M192,-10 Q142,-10 115.5,4 Q89,18 76.5,40 Q64,62 62,88 Q60,114 60,137 L60,487 L101,487 L101,152 Q101,122 103.5,98.5 Q106,75 116,58.5 Q126,42 145.5,33.5 Q165,25 199,25 Q232,25 279,43 Q326,61 368,99 L367,487 L408,487 L408,0 L368,0 L368,61 L365,63 Q336,39 310,24.5 Q284,10 261.5,2.5 Q239,-5 221,-7.5 Q203,-10 192,-10 M220,548 L199,565 L306,713 L342,682"/> 
            <glyph glyph-name="û" unicode="&#xFB;" horiz-adv-x="408" d=" M192,-10 Q142,-10 115.5,4 Q89,18 76.5,40 Q64,62 62,88 Q60,114 60,137 L60,487 L101,487 L101,152 Q101,122 103.5,98.5 Q106,75 116,58.5 Q126,42 145.5,33.5 Q165,25 199,25 Q232,25 279,43 Q326,61 368,99 L367,487 L408,487 L408,0 L368,0 L368,61 L365,63 Q336,39 310,24.5 Q284,10 261.5,2.5 Q239,-5 221,-7.5 Q203,-10 192,-10 M371,545 L232,645 L93,544 L79,561 L214,690 L250,690 L385,562"/> 
            <glyph glyph-name="ü" unicode="&#xFC;" horiz-adv-x="408" d=" M192,-10 Q142,-10 115.5,4 Q89,18 76.5,40 Q64,62 62,88 Q60,114 60,137 L60,487 L101,487 L101,152 Q101,122 103.5,98.5 Q106,75 116,58.5 Q126,42 145.5,33.5 Q165,25 199,25 Q232,25 279,43 Q326,61 368,99 L367,487 L408,487 L408,0 L368,0 L368,61 L365,63 Q336,39 310,24.5 Q284,10 261.5,2.5 Q239,-5 221,-7.5 Q203,-10 192,-10 M189,606 Q189,593 180,584.5 Q171,576 157,576 Q144,576 135.5,584.5 Q127,593 127,606 Q127,620 136,628.5 Q145,637 157,637 Q171,637 180,628.5 Q189,620 189,606 M338,606 Q338,593 329,584.5 Q320,576 306,576 Q293,576 284.5,584.5 Q276,593 276,606 Q276,620 285,628.5 Q294,637 306,637 Q320,637 329,628.5 Q338,620 338,606"/> 
            <glyph glyph-name="ý" unicode="&#xFD;" horiz-adv-x="397" d=" M210,28 Q212,33 216.5,47 Q221,61 227.5,82 Q234,103 242,129 Q250,155 259,184 L355,487 L397,487 Q394,476 384.5,447.5 Q375,419 362,378 Q349,337 333,288 Q317,239 301,188 Q285,137 269,88 Q253,39 239.5,-1.5 Q226,-42 217,-71 Q208,-100 204,-110 Q188,-160 163.5,-189 Q139,-218 91,-218 Q76,-217 51.5,-215 Q27,-213 -8,-204 L-1,-171 Q30,-177 46.5,-179.5 Q63,-182 80,-182 Q93,-182 105,-180.5 Q117,-179 127,-172 Q137,-165 146.5,-150 Q156,-135 165,-108 L200,1 L178,1 Q174,13 161.5,50.5 Q149,88 132.5,138 Q116,188 97,244 Q78,300 61,350 Q44,400 31.5,437.5 Q19,475 15,487 L56,487 Q58,480 65.5,456.5 Q73,433 83.5,401.5 Q94,370 105.5,334.5 Q117,299 127.5,267.5 Q138,236 146,212.5 Q154,189 156,182 L206,28 M191,548 L170,565 L277,713 L313,682"/> 
            <glyph glyph-name="þ" unicode="&#xFE;" horiz-adv-x="433" d=" M99,71 Q125,54 163,41 Q201,28 242,28 Q273,28 300,39.5 Q327,51 347,78 Q367,105 378.5,148.5 Q390,192 390,255 Q390,312 380,351 Q370,390 351.5,414 Q333,438 306.5,448 Q280,458 248,458 Q230,458 209.5,453 Q189,448 168.5,439 Q148,430 130,418.5 Q112,407 99,394 M99,431 Q133,458 174.5,475 Q216,492 258,492 Q307,492 340.5,473.5 Q374,455 394.5,422.5 Q415,390 424,346.5 Q433,303 433,253 Q433,197 422.5,150 Q412,103 389.5,68 Q367,33 331,13.5 Q295,-6 244,-6 Q215,-6 177,2 Q139,10 99,33 L99,-211 L59,-211 L59,701 L99,701"/> 
            <glyph glyph-name="ÿ" unicode="&#xFF;" horiz-adv-x="397" d=" M210,28 Q212,33 216.5,47 Q221,61 227.5,82 Q234,103 242,129 Q250,155 259,184 L355,487 L397,487 Q394,476 384.5,447.5 Q375,419 362,378 Q349,337 333,288 Q317,239 301,188 Q285,137 269,88 Q253,39 239.5,-1.5 Q226,-42 217,-71 Q208,-100 204,-110 Q188,-160 163.5,-189 Q139,-218 91,-218 Q76,-217 51.5,-215 Q27,-213 -8,-204 L-1,-171 Q30,-177 46.5,-179.5 Q63,-182 80,-182 Q93,-182 105,-180.5 Q117,-179 127,-172 Q137,-165 146.5,-150 Q156,-135 165,-108 L200,1 L178,1 Q174,13 161.5,50.5 Q149,88 132.5,138 Q116,188 97,244 Q78,300 61,350 Q44,400 31.5,437.5 Q19,475 15,487 L56,487 Q58,480 65.5,456.5 Q73,433 83.5,401.5 Q94,370 105.5,334.5 Q117,299 127.5,267.5 Q138,236 146,212.5 Q154,189 156,182 L206,28 M170,606 Q170,593 161,584.5 Q152,576 138,576 Q125,576 116.5,584.5 Q108,593 108,606 Q108,620 117,628.5 Q126,637 138,637 Q152,637 161,628.5 Q170,620 170,606 M319,606 Q319,593 310,584.5 Q301,576 287,576 Q274,576 265.5,584.5 Q257,593 257,606 Q257,620 266,628.5 Q275,637 287,637 Q301,637 310,628.5 Q319,620 319,606"/> 
            <glyph glyph-name="Ā" unicode="&#x100;" horiz-adv-x="516" d=" M471,0 Q455,48 440,95.5 Q425,143 409,191 L122,191 Q106,143 91.5,95.5 Q77,48 62,0 L17,0 L238,682 L295,682 L516,0 M264,642 Q244,573 222,507 L134,227 L398,227 L309,507 Q298,541 288,574 Q278,607 267,642 M119,785 L417,785 L417,748 L119,748"/> 
            <glyph glyph-name="ā" unicode="&#x101;" horiz-adv-x="462" d=" M245,492 Q317,492 355,456.5 Q393,421 393,335 L393,35 L459,35 Q461,29 461,22.5 Q461,16 462,10 Q445,2 427,-1 Q409,-4 395,-4 Q366,-4 358.5,10.5 Q351,25 351,56 Q351,56 349,57 Q317,33 290.5,20 Q264,7 242,1.5 Q220,-4 203.5,-5 Q187,-6 175,-6 Q135,-6 109,6.5 Q83,19 67.5,38.5 Q52,58 46,81.5 Q40,105 40,127 Q40,161 52.5,186.5 Q65,212 87,229.5 Q109,247 140,256.5 Q171,266 208,268 Q214,268 235,269.5 Q256,271 280.5,272 Q305,273 326,274 Q347,275 352,275 L352,320 Q352,357 347,383 Q342,409 328.5,425.5 Q315,442 292.5,449.5 Q270,457 236,457 Q199,457 160,448.5 Q121,440 84,426 L73,456 Q115,473 160,482.5 Q205,492 245,492 M206,236 Q146,233 114.5,205.5 Q83,178 83,132 Q83,27 193,27 Q230,27 269.5,45.5 Q309,64 352,99 L352,244 M85,635 L384,635 L384,598 L85,598"/> 
            <glyph glyph-name="Ă" unicode="&#x102;" horiz-adv-x="516" d=" M471,0 Q455,48 440,95.5 Q425,143 409,191 L122,191 Q106,143 91.5,95.5 Q77,48 62,0 L17,0 L238,682 L295,682 L516,0 M264,642 Q244,573 222,507 L134,227 L398,227 L309,507 Q298,541 288,574 Q278,607 267,642 M261,722 Q238,722 217,730 Q196,738 177.5,751.5 Q159,765 143.5,782 Q128,799 116,818 L147,838 Q171,803 201.5,780.5 Q232,758 264,758 Q288,758 321.5,773 Q355,788 400,833 L417,820 Q376,764 336.5,743 Q297,722 261,722"/> 
            <glyph glyph-name="ă" unicode="&#x103;" horiz-adv-x="462" d=" M245,492 Q317,492 355,456.5 Q393,421 393,335 L393,35 L459,35 Q461,29 461,22.5 Q461,16 462,10 Q445,2 427,-1 Q409,-4 395,-4 Q366,-4 358.5,10.5 Q351,25 351,56 Q351,56 349,57 Q317,33 290.5,20 Q264,7 242,1.5 Q220,-4 203.5,-5 Q187,-6 175,-6 Q135,-6 109,6.5 Q83,19 67.5,38.5 Q52,58 46,81.5 Q40,105 40,127 Q40,161 52.5,186.5 Q65,212 87,229.5 Q109,247 140,256.5 Q171,266 208,268 Q214,268 235,269.5 Q256,271 280.5,272 Q305,273 326,274 Q347,275 352,275 L352,320 Q352,357 347,383 Q342,409 328.5,425.5 Q315,442 292.5,449.5 Q270,457 236,457 Q199,457 160,448.5 Q121,440 84,426 L73,456 Q115,473 160,482.5 Q205,492 245,492 M206,236 Q146,233 114.5,205.5 Q83,178 83,132 Q83,27 193,27 Q230,27 269.5,45.5 Q309,64 352,99 L352,244 M237,561 Q214,561 193,569 Q172,577 153.5,590.5 Q135,604 119.5,621.5 Q104,639 92,658 L123,678 Q147,643 177.5,621 Q208,599 240,599 Q264,599 297.5,614 Q331,629 376,673 L393,659 Q352,604 312.5,582.5 Q273,561 237,561"/> 
            <glyph glyph-name="Ą" unicode="&#x104;" horiz-adv-x="562" d=" M481,0 Q449,-33 436.5,-64 Q424,-95 424,-115 Q424,-145 442,-155.5 Q460,-166 486,-166 Q506,-166 524,-163 Q542,-160 556,-156 L562,-175 Q539,-187 515,-192.5 Q491,-198 469,-198 Q424,-198 403.5,-178.5 Q383,-159 383,-130 Q383,-104 399.5,-67 Q416,-30 466,13 L409,191 L122,191 Q106,143 91.5,95.5 Q77,48 62,0 L17,0 L238,682 L295,682 L516,0 M264,642 Q244,573 222,507 L134,227 L398,227 L309,507 Q298,541 288,574 Q278,607 267,642"/> 
            <glyph glyph-name="ą" unicode="&#x105;" horiz-adv-x="462" d=" M245,492 Q317,492 355,456.5 Q393,421 393,335 L393,35 L459,35 Q461,29 461,22.5 Q461,16 462,10 Q445,2 427,-1 Q409,-4 395,-4 Q382,-4 375,-1 Q345,-33 333.5,-62.5 Q322,-92 322,-112 Q322,-142 340,-152.5 Q358,-163 384,-163 Q404,-163 422,-160 Q440,-157 454,-153 L460,-172 Q437,-184 413,-189.5 Q389,-195 367,-195 Q322,-195 301.5,-175.5 Q281,-156 281,-127 Q281,-101 296,-66 Q311,-31 358,10 Q353,18 352,29 Q351,40 351,56 Q351,56 349,57 Q317,33 290.5,20 Q264,7 242,1.5 Q220,-4 203.5,-5 Q187,-6 175,-6 Q135,-6 109,6.5 Q83,19 67.5,38.5 Q52,58 46,81.5 Q40,105 40,127 Q40,161 52.5,186.5 Q65,212 87,229.5 Q109,247 140,256.5 Q171,266 208,268 Q214,268 235,269.5 Q256,271 280.5,272 Q305,273 326,274 Q347,275 352,275 L352,320 Q352,357 347,383 Q342,409 328.5,425.5 Q315,442 292.5,449.5 Q270,457 236,457 Q199,457 160,448.5 Q121,440 84,426 L73,456 Q115,473 160,482.5 Q205,492 245,492 M206,236 Q146,233 114.5,205.5 Q83,178 83,132 Q83,27 193,27 Q230,27 269.5,45.5 Q309,64 352,99 L352,244"/> 
            <glyph glyph-name="Ć" unicode="&#x106;" horiz-adv-x="518" d=" M337,693 Q391,693 434.5,685.5 Q478,678 506,667 L495,632 Q457,644 416.5,650 Q376,656 341,656 Q279,656 234.5,633 Q190,610 161,568 Q132,526 118.5,467 Q105,408 105,335 Q105,277 113.5,222 Q122,167 147,124.5 Q172,82 218.5,56 Q265,30 340,30 Q353,30 373.5,31.5 Q394,33 417,35.5 Q440,38 464,42.5 Q488,47 508,53 L518,21 Q501,15 478,9.5 Q455,4 430,0.5 Q405,-3 380,-5 Q355,-7 333,-7 Q258,-7 206,17 Q154,41 121.5,86 Q89,131 74.5,194.5 Q60,258 60,337 Q60,392 71.5,454.5 Q83,517 113.5,570 Q144,623 198,658 Q252,693 337,693 M321,718 L299,734 L406,883 L442,851"/> 
            <glyph glyph-name="ć" unicode="&#x107;" horiz-adv-x="408" d=" M92,236 Q92,194 99.5,156 Q107,118 125,89.5 Q143,61 173,44.5 Q203,28 249,28 Q290,28 323,36.5 Q356,45 397,62 L408,32 Q379,16 337.5,4.5 Q296,-7 249,-7 Q194,-7 156,11 Q118,29 94,61.5 Q70,94 59.5,138 Q49,182 49,235 Q49,272 57,317 Q65,362 87.5,401.5 Q110,441 150.5,467.5 Q191,494 256,494 Q291,494 326,488.5 Q361,483 391,470 L379,437 Q342,451 312,455 Q282,459 259,459 Q216,459 184.5,443 Q153,427 132.5,397.5 Q112,368 102,327 Q92,286 92,236 M213,548 L192,565 L299,713 L335,682"/> 
            <glyph glyph-name="Ĉ" unicode="&#x108;" horiz-adv-x="518" d=" M337,693 Q391,693 434.5,685.5 Q478,678 506,667 L495,632 Q457,644 416.5,650 Q376,656 341,656 Q279,656 234.5,633 Q190,610 161,568 Q132,526 118.5,467 Q105,408 105,335 Q105,277 113.5,222 Q122,167 147,124.5 Q172,82 218.5,56 Q265,30 340,30 Q353,30 373.5,31.5 Q394,33 417,35.5 Q440,38 464,42.5 Q488,47 508,53 L518,21 Q501,15 478,9.5 Q455,4 430,0.5 Q405,-3 380,-5 Q355,-7 333,-7 Q258,-7 206,17 Q154,41 121.5,86 Q89,131 74.5,194.5 Q60,258 60,337 Q60,392 71.5,454.5 Q83,517 113.5,570 Q144,623 198,658 Q252,693 337,693 M461,721 L322,819 L184,720 L169,737 L304,864 L340,864 L476,738"/> 
            <glyph glyph-name="ĉ" unicode="&#x109;" horiz-adv-x="408" d=" M92,236 Q92,194 99.5,156 Q107,118 125,89.5 Q143,61 173,44.5 Q203,28 249,28 Q290,28 323,36.5 Q356,45 397,62 L408,32 Q379,16 337.5,4.5 Q296,-7 249,-7 Q194,-7 156,11 Q118,29 94,61.5 Q70,94 59.5,138 Q49,182 49,235 Q49,272 57,317 Q65,362 87.5,401.5 Q110,441 150.5,467.5 Q191,494 256,494 Q291,494 326,488.5 Q361,483 391,470 L379,437 Q342,451 312,455 Q282,459 259,459 Q216,459 184.5,443 Q153,427 132.5,397.5 Q112,368 102,327 Q92,286 92,236 M386,545 L247,645 L108,544 L94,561 L229,690 L265,690 L400,562"/> 
            <glyph glyph-name="Ċ" unicode="&#x10A;" horiz-adv-x="518" d=" M337,693 Q391,693 434.5,685.5 Q478,678 506,667 L495,632 Q457,644 416.5,650 Q376,656 341,656 Q279,656 234.5,633 Q190,610 161,568 Q132,526 118.5,467 Q105,408 105,335 Q105,277 113.5,222 Q122,167 147,124.5 Q172,82 218.5,56 Q265,30 340,30 Q353,30 373.5,31.5 Q394,33 417,35.5 Q440,38 464,42.5 Q488,47 508,53 L518,21 Q501,15 478,9.5 Q455,4 430,0.5 Q405,-3 380,-5 Q355,-7 333,-7 Q258,-7 206,17 Q154,41 121.5,86 Q89,131 74.5,194.5 Q60,258 60,337 Q60,392 71.5,454.5 Q83,517 113.5,570 Q144,623 198,658 Q252,693 337,693 M357,799 Q357,785 346.5,774.5 Q336,764 322,764 Q308,764 298,774.5 Q288,785 288,799 Q288,813 298,823.5 Q308,834 322,834 Q336,834 346.5,823.5 Q357,813 357,799"/> 
            <glyph glyph-name="ċ" unicode="&#x10B;" horiz-adv-x="408" d=" M92,236 Q92,194 99.5,156 Q107,118 125,89.5 Q143,61 173,44.5 Q203,28 249,28 Q290,28 323,36.5 Q356,45 397,62 L408,32 Q379,16 337.5,4.5 Q296,-7 249,-7 Q194,-7 156,11 Q118,29 94,61.5 Q70,94 59.5,138 Q49,182 49,235 Q49,272 57,317 Q65,362 87.5,401.5 Q110,441 150.5,467.5 Q191,494 256,494 Q291,494 326,488.5 Q361,483 391,470 L379,437 Q342,451 312,455 Q282,459 259,459 Q216,459 184.5,443 Q153,427 132.5,397.5 Q112,368 102,327 Q92,286 92,236 M277,603 Q277,589 267.5,579 Q258,569 246,569 Q233,569 224,579 Q215,589 215,603 Q215,617 224,627 Q233,637 246,637 Q258,637 267.5,627 Q277,617 277,603"/> 
            <glyph glyph-name="Č" unicode="&#x10C;" horiz-adv-x="518" d=" M337,693 Q391,693 434.5,685.5 Q478,678 506,667 L495,632 Q457,644 416.5,650 Q376,656 341,656 Q279,656 234.5,633 Q190,610 161,568 Q132,526 118.5,467 Q105,408 105,335 Q105,277 113.5,222 Q122,167 147,124.5 Q172,82 218.5,56 Q265,30 340,30 Q353,30 373.5,31.5 Q394,33 417,35.5 Q440,38 464,42.5 Q488,47 508,53 L518,21 Q501,15 478,9.5 Q455,4 430,0.5 Q405,-3 380,-5 Q355,-7 333,-7 Q258,-7 206,17 Q154,41 121.5,86 Q89,131 74.5,194.5 Q60,258 60,337 Q60,392 71.5,454.5 Q83,517 113.5,570 Q144,623 198,658 Q252,693 337,693 M470,847 L334,721 L299,721 L163,848 L178,865 L317,765 L455,864"/> 
            <glyph glyph-name="č" unicode="&#x10D;" horiz-adv-x="408" d=" M92,236 Q92,194 99.5,156 Q107,118 125,89.5 Q143,61 173,44.5 Q203,28 249,28 Q290,28 323,36.5 Q356,45 397,62 L408,32 Q379,16 337.5,4.5 Q296,-7 249,-7 Q194,-7 156,11 Q118,29 94,61.5 Q70,94 59.5,138 Q49,182 49,235 Q49,272 57,317 Q65,362 87.5,401.5 Q110,441 150.5,467.5 Q191,494 256,494 Q291,494 326,488.5 Q361,483 391,470 L379,437 Q342,451 312,455 Q282,459 259,459 Q216,459 184.5,443 Q153,427 132.5,397.5 Q112,368 102,327 Q92,286 92,236 M397,683 L262,555 L226,555 L91,685 L105,701 L244,600 L383,700"/> 
            <glyph glyph-name="Ď" unicode="&#x10E;" horiz-adv-x="550" d=" M80,0 L80,683 L283,683 Q362,683 413.5,655.5 Q465,628 495.5,581.5 Q526,535 538,473 Q550,411 550,343 Q550,272 537,210 Q524,148 492,101 Q460,54 406.5,27 Q353,0 272,0 M124,647 L124,37 L265,37 Q280,37 303.5,38.5 Q327,40 353.5,48 Q380,56 407,74 Q434,92 456,125 Q478,158 491.5,209 Q505,260 505,335 Q505,411 492.5,464 Q480,517 460,551.5 Q440,586 414.5,605.5 Q389,625 363,634 Q337,643 313.5,645 Q290,647 273,647 M414,847 L278,721 L243,721 L107,848 L122,865 L261,765 L399,864"/> 
            <glyph glyph-name="ď" unicode="&#x10F;" horiz-adv-x="556" d=" M483,677 Q483,691 492.5,701.5 Q502,712 518,712 Q535,712 545.5,700.5 Q556,689 556,668 Q554,613 500,573 L488,586 Q503,603 507.5,615.5 Q512,628 512,645 Q499,647 491,655.5 Q483,664 483,677 M383,52 Q382,52 382,52.5 Q382,53 381,53 Q347,26 306,10 Q265,-6 223,-6 Q174,-6 140.5,12.5 Q107,31 87,63 Q67,95 58,138.5 Q49,182 49,232 Q49,287 59,335 Q69,383 91.5,418 Q114,453 150,473 Q186,493 237,493 Q266,493 304.5,484.5 Q343,476 383,453 L383,708 L423,708 L423,0 L383,0 M383,415 Q357,431 318.5,444 Q280,457 240,457 Q209,457 182,445.5 Q155,434 135,407.5 Q115,381 103.5,337.5 Q92,294 92,231 Q92,173 102,134 Q112,95 130.5,71.5 Q149,48 175.5,38 Q202,28 234,28 Q252,28 272.5,33 Q293,38 313,47 Q333,56 351.5,67.5 Q370,79 383,92"/> 
            <glyph glyph-name="đ" unicode="&#x111;" horiz-adv-x="482" d=" M383,55 Q348,27 306.5,10.5 Q265,-6 223,-6 Q174,-6 140.5,12 Q107,30 87,61.5 Q67,93 58,136 Q49,179 49,229 Q49,284 59,331.5 Q69,379 91.5,413.5 Q114,448 150,467.5 Q186,487 237,487 Q266,487 304.5,478.5 Q343,470 383,447 L383,552 L220,552 L220,582 L383,582 L383,708 L423,708 L423,582 L482,582 L482,552 L423,552 L423,0 L383,0 M383,409 Q357,425 318.5,438 Q280,451 240,451 Q209,451 182,440 Q155,429 135,403 Q115,377 103.5,334 Q92,291 92,228 Q92,170 102,131.5 Q112,93 130.5,70 Q149,47 175.5,37.5 Q202,28 234,28 Q252,28 272.5,33 Q293,38 313,47 Q333,56 351.5,67.5 Q370,79 383,92"/> 
            <glyph glyph-name="Ē" unicode="&#x112;" horiz-adv-x="476" d=" M80,0 L80,683 L459,683 L459,647 L124,647 L124,380 L414,380 L414,344 L124,344 L124,36 L476,36 L476,0 M125,785 L423,785 L423,748 L125,748"/> 
            <glyph glyph-name="ē" unicode="&#x113;" horiz-adv-x="429" d=" M248,461 Q206,461 178,445 Q150,429 132,402 Q114,375 105,340.5 Q96,306 93,269 L388,269 Q388,311 381,346 Q374,381 358,406.5 Q342,432 315,446.5 Q288,461 248,461 M248,493 Q295,493 326.5,479 Q358,465 378,443 Q398,421 408.5,394 Q419,367 423.5,341 Q428,315 428.5,293.5 Q429,272 429,260 L429,237 L92,237 Q92,195 98.5,157.5 Q105,120 122.5,91 Q140,62 170.5,45 Q201,28 248,28 Q292,28 327,36.5 Q362,45 403,65 L415,36 Q374,14 335,3.5 Q296,-7 249,-7 Q189,-7 150,12.5 Q111,32 88.5,66 Q66,100 57.5,145 Q49,190 49,240 Q49,269 55.5,312 Q62,355 82.5,395.5 Q103,436 142.5,464.5 Q182,493 248,493 M102,635 L401,635 L401,598 L102,598"/> 
            <glyph glyph-name="Ĕ" unicode="&#x114;" horiz-adv-x="476" d=" M80,0 L80,683 L459,683 L459,647 L124,647 L124,380 L414,380 L414,344 L124,344 L124,36 L476,36 L476,0 M269,722 Q246,722 225,730 Q204,738 185.5,751.5 Q167,765 151.5,782 Q136,799 124,818 L155,838 Q179,803 209.5,780.5 Q240,758 272,758 Q296,758 329.5,773 Q363,788 408,833 L425,820 Q384,764 344.5,743 Q305,722 269,722"/> 
            <glyph glyph-name="ĕ" unicode="&#x115;" horiz-adv-x="429" d=" M248,461 Q206,461 178,445 Q150,429 132,402 Q114,375 105,340.5 Q96,306 93,269 L388,269 Q388,311 381,346 Q374,381 358,406.5 Q342,432 315,446.5 Q288,461 248,461 M248,493 Q295,493 326.5,479 Q358,465 378,443 Q398,421 408.5,394 Q419,367 423.5,341 Q428,315 428.5,293.5 Q429,272 429,260 L429,237 L92,237 Q92,195 98.5,157.5 Q105,120 122.5,91 Q140,62 170.5,45 Q201,28 248,28 Q292,28 327,36.5 Q362,45 403,65 L415,36 Q374,14 335,3.5 Q296,-7 249,-7 Q189,-7 150,12.5 Q111,32 88.5,66 Q66,100 57.5,145 Q49,190 49,240 Q49,269 55.5,312 Q62,355 82.5,395.5 Q103,436 142.5,464.5 Q182,493 248,493 M240,561 Q217,561 196,569 Q175,577 156.5,590.5 Q138,604 122.5,621.5 Q107,639 95,658 L126,678 Q150,643 180.5,621 Q211,599 243,599 Q267,599 300.5,614 Q334,629 379,673 L396,659 Q355,604 315.5,582.5 Q276,561 240,561"/> 
            <glyph glyph-name="Ė" unicode="&#x116;" horiz-adv-x="476" d=" M80,0 L80,683 L459,683 L459,647 L124,647 L124,380 L414,380 L414,344 L124,344 L124,36 L476,36 L476,0 M313,791 Q313,777 302.5,766.5 Q292,756 278,756 Q264,756 254,766.5 Q244,777 244,791 Q244,805 254,815.5 Q264,826 278,826 Q292,826 302.5,815.5 Q313,805 313,791"/> 
            <glyph glyph-name="ė" unicode="&#x117;" horiz-adv-x="429" d=" M248,461 Q206,461 178,445 Q150,429 132,402 Q114,375 105,340.5 Q96,306 93,269 L388,269 Q388,311 381,346 Q374,381 358,406.5 Q342,432 315,446.5 Q288,461 248,461 M248,493 Q295,493 326.5,479 Q358,465 378,443 Q398,421 408.5,394 Q419,367 423.5,341 Q428,315 428.5,293.5 Q429,272 429,260 L429,237 L92,237 Q92,195 98.5,157.5 Q105,120 122.5,91 Q140,62 170.5,45 Q201,28 248,28 Q292,28 327,36.5 Q362,45 403,65 L415,36 Q374,14 335,3.5 Q296,-7 249,-7 Q189,-7 150,12.5 Q111,32 88.5,66 Q66,100 57.5,145 Q49,190 49,240 Q49,269 55.5,312 Q62,355 82.5,395.5 Q103,436 142.5,464.5 Q182,493 248,493 M284,598 Q284,584 273.5,573.5 Q263,563 249,563 Q235,563 225,573.5 Q215,584 215,598 Q215,612 225,622.5 Q235,633 249,633 Q263,633 273.5,622.5 Q284,612 284,598"/> 
            <glyph glyph-name="Ę" unicode="&#x118;" horiz-adv-x="532" d=" M454,0 Q420,-34 407,-65.5 Q394,-97 394,-118 Q394,-148 412,-158.5 Q430,-169 456,-169 Q476,-169 494,-166 Q512,-163 526,-159 L532,-178 Q509,-190 485,-195.5 Q461,-201 439,-201 Q394,-201 373.5,-181.5 Q353,-162 353,-133 Q353,-108 367,-74 Q381,-40 425,0 L80,0 L80,683 L459,683 L459,647 L124,647 L124,380 L414,380 L414,344 L124,344 L124,36 L476,36 L476,0"/> 
            <glyph glyph-name="ę" unicode="&#x119;" horiz-adv-x="449" d=" M248,493 Q295,493 326.5,479 Q358,465 378,443 Q398,421 408.5,394 Q419,367 423.5,341 Q428,315 428.5,293.5 Q429,272 429,260 L429,237 L92,237 Q92,195 98.5,157.5 Q105,120 122.5,91 Q140,62 170.5,45 Q201,28 248,28 Q292,28 327,36.5 Q362,45 403,65 L415,36 Q402,29 389.5,23.5 Q377,18 364,13 Q334,-19 322.5,-48.5 Q311,-78 311,-98 Q311,-128 329,-138.5 Q347,-149 373,-149 Q393,-149 411,-146 Q429,-143 443,-139 L449,-158 Q426,-170 402,-175.5 Q378,-181 356,-181 Q311,-181 290.5,-161.5 Q270,-142 270,-113 Q270,-91 280.5,-62 Q291,-33 322,0 Q305,-3 287,-5 Q269,-7 249,-7 Q189,-7 150,12.5 Q111,32 88.5,66 Q66,100 57.5,145 Q49,190 49,240 Q49,269 55.5,312 Q62,355 82.5,395.5 Q103,436 142.5,464.5 Q182,493 248,493 M248,461 Q206,461 178,445 Q150,429 132,402 Q114,375 105,340.5 Q96,306 93,269 L388,269 Q388,311 381,346 Q374,381 358,406.5 Q342,432 315,446.5 Q288,461 248,461"/> 
            <glyph glyph-name="Ě" unicode="&#x11A;" horiz-adv-x="476" d=" M80,0 L80,683 L459,683 L459,647 L124,647 L124,380 L414,380 L414,344 L124,344 L124,36 L476,36 L476,0 M421,847 L285,721 L250,721 L114,848 L129,865 L268,765 L406,864"/> 
            <glyph glyph-name="ě" unicode="&#x11B;" horiz-adv-x="429" d=" M248,461 Q206,461 178,445 Q150,429 132,402 Q114,375 105,340.5 Q96,306 93,269 L388,269 Q388,311 381,346 Q374,381 358,406.5 Q342,432 315,446.5 Q288,461 248,461 M248,493 Q295,493 326.5,479 Q358,465 378,443 Q398,421 408.5,394 Q419,367 423.5,341 Q428,315 428.5,293.5 Q429,272 429,260 L429,237 L92,237 Q92,195 98.5,157.5 Q105,120 122.5,91 Q140,62 170.5,45 Q201,28 248,28 Q292,28 327,36.5 Q362,45 403,65 L415,36 Q374,14 335,3.5 Q296,-7 249,-7 Q189,-7 150,12.5 Q111,32 88.5,66 Q66,100 57.5,145 Q49,190 49,240 Q49,269 55.5,312 Q62,355 82.5,395.5 Q103,436 142.5,464.5 Q182,493 248,493 M402,675 L267,547 L231,547 L96,677 L110,693 L249,592 L388,692"/> 
            <glyph glyph-name="Ĝ" unicode="&#x11C;" horiz-adv-x="527" d=" M351,693 Q404,693 449.5,685.5 Q495,678 523,667 L514,633 Q473,644 431,650 Q389,656 354,656 Q291,656 244,633 Q197,610 166,568 Q135,526 120,466.5 Q105,407 105,334 Q105,276 114,221.5 Q123,167 148.5,124.5 Q174,82 220.5,56.5 Q267,31 343,31 Q357,31 375.5,32.5 Q394,34 413.5,36.5 Q433,39 451.5,42.5 Q470,46 484,51 L484,342 L527,342 L527,21 Q479,6 431,-0.5 Q383,-7 335,-7 Q260,-7 207.5,17 Q155,41 122.5,86 Q90,131 75,194.5 Q60,258 60,337 Q60,392 73,454.5 Q86,517 119,570 Q152,623 208,658 Q264,693 351,693 M479,721 L340,819 L202,720 L187,737 L322,864 L358,864 L494,738"/> 
            <glyph glyph-name="ĝ" unicode="&#x11D;" horiz-adv-x="473" d=" M138,192 Q108,206 86,240.5 Q64,275 64,327 Q64,372 80,404 Q96,436 121.5,456 Q147,476 178.5,485 Q210,494 241,494 Q262,494 284,492 Q306,490 327,483 L473,483 L473,451 L383,451 L382,448 Q408,428 420,396.5 Q432,365 432,330 Q432,252 379.5,209 Q327,166 240,166 L180,166 Q161,166 144,164.5 Q127,163 114.5,158 Q102,153 94.5,144.5 Q87,136 87,121 Q87,79 151,79 L288,79 Q378,79 418.5,41.5 Q459,4 459,-60 Q459,-98 442.5,-127 Q426,-156 397,-176.5 Q368,-197 328,-207.5 Q288,-218 241,-218 Q184,-218 146,-206 Q108,-194 85.5,-174.5 Q63,-155 54,-129.5 Q45,-104 45,-76 Q45,-33 64.5,1 Q84,35 109,51 Q77,55 62.5,72 Q48,89 48,115 Q48,137 56.5,151 Q65,165 78,173.5 Q91,182 106.5,185.5 Q122,189 137,190 M158,46 Q141,39 127.5,26.5 Q114,14 105,-1.5 Q96,-17 91,-34 Q86,-51 86,-67 Q86,-90 92.5,-111 Q99,-132 117,-148.5 Q135,-165 166,-174.5 Q197,-184 247,-184 Q284,-184 315.5,-175.5 Q347,-167 369.5,-151.5 Q392,-136 405,-113 Q418,-90 418,-61 Q418,-43 413.5,-24.5 Q409,-6 394.5,10 Q380,26 353,36 Q326,46 282,46 M391,330 Q391,351 384,374.5 Q377,398 360.5,417 Q344,436 316,448.5 Q288,461 247,461 Q178,461 141.5,425 Q105,389 105,328 Q105,270 141,234.5 Q177,199 234,199 Q305,199 348,231.5 Q391,264 391,330 M384,545 L245,645 L106,544 L92,561 L227,690 L263,690 L398,562"/> 
            <glyph glyph-name="Ğ" unicode="&#x11E;" horiz-adv-x="527" d=" M351,693 Q404,693 449.5,685.5 Q495,678 523,667 L514,633 Q473,644 431,650 Q389,656 354,656 Q291,656 244,633 Q197,610 166,568 Q135,526 120,466.5 Q105,407 105,334 Q105,276 114,221.5 Q123,167 148.5,124.5 Q174,82 220.5,56.5 Q267,31 343,31 Q357,31 375.5,32.5 Q394,34 413.5,36.5 Q433,39 451.5,42.5 Q470,46 484,51 L484,342 L527,342 L527,21 Q479,6 431,-0.5 Q383,-7 335,-7 Q260,-7 207.5,17 Q155,41 122.5,86 Q90,131 75,194.5 Q60,258 60,337 Q60,392 73,454.5 Q86,517 119,570 Q152,623 208,658 Q264,693 351,693 M334,736 Q311,736 290,744 Q269,752 250.5,765.5 Q232,779 216.5,796 Q201,813 189,832 L220,852 Q244,817 274.5,794.5 Q305,772 337,772 Q361,772 394.5,787 Q428,802 473,847 L490,834 Q449,778 409.5,757 Q370,736 334,736"/> 
            <glyph glyph-name="ğ" unicode="&#x11F;" horiz-adv-x="473" d=" M138,192 Q108,206 86,240.5 Q64,275 64,327 Q64,372 80,404 Q96,436 121.5,456 Q147,476 178.5,485 Q210,494 241,494 Q262,494 284,492 Q306,490 327,483 L473,483 L473,451 L383,451 L382,448 Q408,428 420,396.5 Q432,365 432,330 Q432,252 379.5,209 Q327,166 240,166 L180,166 Q161,166 144,164.5 Q127,163 114.5,158 Q102,153 94.5,144.5 Q87,136 87,121 Q87,79 151,79 L288,79 Q378,79 418.5,41.5 Q459,4 459,-60 Q459,-98 442.5,-127 Q426,-156 397,-176.5 Q368,-197 328,-207.5 Q288,-218 241,-218 Q184,-218 146,-206 Q108,-194 85.5,-174.5 Q63,-155 54,-129.5 Q45,-104 45,-76 Q45,-33 64.5,1 Q84,35 109,51 Q77,55 62.5,72 Q48,89 48,115 Q48,137 56.5,151 Q65,165 78,173.5 Q91,182 106.5,185.5 Q122,189 137,190 M158,46 Q141,39 127.5,26.5 Q114,14 105,-1.5 Q96,-17 91,-34 Q86,-51 86,-67 Q86,-90 92.5,-111 Q99,-132 117,-148.5 Q135,-165 166,-174.5 Q197,-184 247,-184 Q284,-184 315.5,-175.5 Q347,-167 369.5,-151.5 Q392,-136 405,-113 Q418,-90 418,-61 Q418,-43 413.5,-24.5 Q409,-6 394.5,10 Q380,26 353,36 Q326,46 282,46 M391,330 Q391,351 384,374.5 Q377,398 360.5,417 Q344,436 316,448.5 Q288,461 247,461 Q178,461 141.5,425 Q105,389 105,328 Q105,270 141,234.5 Q177,199 234,199 Q305,199 348,231.5 Q391,264 391,330 M247,561 Q224,561 203,569 Q182,577 163.5,590.5 Q145,604 129.5,621.5 Q114,639 102,658 L133,678 Q157,643 187.5,621 Q218,599 250,599 Q274,599 307.5,614 Q341,629 386,673 L403,659 Q362,604 322.5,582.5 Q283,561 247,561"/> 
            <glyph glyph-name="Ġ" unicode="&#x120;" horiz-adv-x="527" d=" M351,693 Q404,693 449.5,685.5 Q495,678 523,667 L514,633 Q473,644 431,650 Q389,656 354,656 Q291,656 244,633 Q197,610 166,568 Q135,526 120,466.5 Q105,407 105,334 Q105,276 114,221.5 Q123,167 148.5,124.5 Q174,82 220.5,56.5 Q267,31 343,31 Q357,31 375.5,32.5 Q394,34 413.5,36.5 Q433,39 451.5,42.5 Q470,46 484,51 L484,342 L527,342 L527,21 Q479,6 431,-0.5 Q383,-7 335,-7 Q260,-7 207.5,17 Q155,41 122.5,86 Q90,131 75,194.5 Q60,258 60,337 Q60,392 73,454.5 Q86,517 119,570 Q152,623 208,658 Q264,693 351,693 M381,793 Q381,779 370.5,768.5 Q360,758 346,758 Q332,758 322,768.5 Q312,779 312,793 Q312,807 322,817.5 Q332,828 346,828 Q360,828 370.5,817.5 Q381,807 381,793"/> 
            <glyph glyph-name="ġ" unicode="&#x121;" horiz-adv-x="473" d=" M138,192 Q108,206 86,240.5 Q64,275 64,327 Q64,372 80,404 Q96,436 121.5,456 Q147,476 178.5,485 Q210,494 241,494 Q262,494 284,492 Q306,490 327,483 L473,483 L473,451 L383,451 L382,448 Q408,428 420,396.5 Q432,365 432,330 Q432,252 379.5,209 Q327,166 240,166 L180,166 Q161,166 144,164.5 Q127,163 114.5,158 Q102,153 94.5,144.5 Q87,136 87,121 Q87,79 151,79 L288,79 Q378,79 418.5,41.5 Q459,4 459,-60 Q459,-98 442.5,-127 Q426,-156 397,-176.5 Q368,-197 328,-207.5 Q288,-218 241,-218 Q184,-218 146,-206 Q108,-194 85.5,-174.5 Q63,-155 54,-129.5 Q45,-104 45,-76 Q45,-33 64.5,1 Q84,35 109,51 Q77,55 62.5,72 Q48,89 48,115 Q48,137 56.5,151 Q65,165 78,173.5 Q91,182 106.5,185.5 Q122,189 137,190 M158,46 Q141,39 127.5,26.5 Q114,14 105,-1.5 Q96,-17 91,-34 Q86,-51 86,-67 Q86,-90 92.5,-111 Q99,-132 117,-148.5 Q135,-165 166,-174.5 Q197,-184 247,-184 Q284,-184 315.5,-175.5 Q347,-167 369.5,-151.5 Q392,-136 405,-113 Q418,-90 418,-61 Q418,-43 413.5,-24.5 Q409,-6 394.5,10 Q380,26 353,36 Q326,46 282,46 M391,330 Q391,351 384,374.5 Q377,398 360.5,417 Q344,436 316,448.5 Q288,461 247,461 Q178,461 141.5,425 Q105,389 105,328 Q105,270 141,234.5 Q177,199 234,199 Q305,199 348,231.5 Q391,264 391,330 M279,608 Q279,594 268.5,583.5 Q258,573 244,573 Q230,573 220,583.5 Q210,594 210,608 Q210,622 220,632.5 Q230,643 244,643 Q258,643 268.5,632.5 Q279,622 279,608"/> 
            <glyph glyph-name="Ģ" unicode="&#x122;" horiz-adv-x="527" d=" M351,693 Q404,693 449.5,685.5 Q495,678 523,667 L514,633 Q473,644 431,650 Q389,656 354,656 Q291,656 244,633 Q197,610 166,568 Q135,526 120,466.5 Q105,407 105,334 Q105,276 114,221.5 Q123,167 148.5,124.5 Q174,82 220.5,56.5 Q267,31 343,31 Q357,31 375.5,32.5 Q394,34 413.5,36.5 Q433,39 451.5,42.5 Q470,46 484,51 L484,342 L527,342 L527,21 Q479,6 431,-0.5 Q383,-7 335,-7 Q260,-7 207.5,17 Q155,41 122.5,86 Q90,131 75,194.5 Q60,258 60,337 Q60,392 73,454.5 Q86,517 119,570 Q152,623 208,658 Q264,693 351,693 M296,-103 Q296,-89 305.5,-78.5 Q315,-68 331,-68 Q348,-68 358.5,-79.5 Q369,-91 369,-112 Q367,-167 313,-207 L301,-194 Q316,-177 320.5,-164.5 Q325,-152 325,-135 Q312,-133 304,-124.5 Q296,-116 296,-103"/> 
            <glyph glyph-name="ģ" unicode="&#x123;" horiz-adv-x="473" d=" M253,623 Q266,621 274,612.5 Q282,604 282,591 Q282,576 272.5,565.5 Q263,555 247,555 Q230,555 219.5,566.5 Q209,578 209,599 L209,600 Q209,653 265,694 Q268,690 270.5,687 Q273,684 277,681 Q262,664 257.5,652 Q253,640 253,623 M138,192 Q108,206 86,240.5 Q64,275 64,327 Q64,372 80,404 Q96,436 121.5,456 Q147,476 178.5,485 Q210,494 241,494 Q262,494 284,492 Q306,490 327,483 L473,483 L473,451 L383,451 L382,448 Q408,428 420,396.5 Q432,365 432,330 Q432,252 379.5,209 Q327,166 240,166 L180,166 Q161,166 144,164.5 Q127,163 114.5,158 Q102,153 94.5,144.5 Q87,136 87,121 Q87,79 151,79 L288,79 Q378,79 418.5,41.5 Q459,4 459,-60 Q459,-98 442.5,-127 Q426,-156 397,-176.5 Q368,-197 328,-207.5 Q288,-218 241,-218 Q184,-218 146,-206 Q108,-194 85.5,-174.5 Q63,-155 54,-129.5 Q45,-104 45,-76 Q45,-33 64.5,1 Q84,35 109,51 Q77,55 62.5,72 Q48,89 48,115 Q48,137 56.5,151 Q65,165 78,173.5 Q91,182 106.5,185.5 Q122,189 137,190 M158,46 Q141,39 127.5,26.5 Q114,14 105,-1.5 Q96,-17 91,-34 Q86,-51 86,-67 Q86,-90 92.5,-111 Q99,-132 117,-148.5 Q135,-165 166,-174.5 Q197,-184 247,-184 Q284,-184 315.5,-175.5 Q347,-167 369.5,-151.5 Q392,-136 405,-113 Q418,-90 418,-61 Q418,-43 413.5,-24.5 Q409,-6 394.5,10 Q380,26 353,36 Q326,46 282,46 M391,330 Q391,351 384,374.5 Q377,398 360.5,417 Q344,436 316,448.5 Q288,461 247,461 Q178,461 141.5,425 Q105,389 105,328 Q105,270 141,234.5 Q177,199 234,199 Q305,199 348,231.5 Q391,264 391,330"/> 
            <glyph glyph-name="Ĥ" unicode="&#x124;" horiz-adv-x="530" d=" M485,0 L485,342 L125,342 L125,0 L80,0 L80,683 L125,683 L125,380 L485,380 L485,683 L530,683 L530,0 M441,721 L302,819 L164,720 L149,737 L284,864 L320,864 L456,738"/> 
            <glyph glyph-name="ĥ" unicode="&#x125;" horiz-adv-x="417" d=" M102,437 Q153,464 201.5,479 Q250,494 285,494 Q333,494 359.5,479.5 Q386,465 399,443.5 Q412,422 414.5,396 Q417,370 417,346 L417,0 L375,0 L375,331 Q375,359 372,382.5 Q369,406 359,423 Q349,440 329,449 Q309,458 276,458 Q234,458 186,440 Q138,422 100,401 L100,0 L59,0 L59,709 L100,709 L100,566 Q100,554 100,537 Q100,520 99.5,502.5 Q99,485 98.5,468.5 Q98,452 98,440 M218,731 L79,831 L-60,730 L-74,747 L61,876 L97,876 L232,748"/> 
            <glyph glyph-name="Ħ" unicode="&#x126;" horiz-adv-x="590" d=" M485,0 L485,342 L125,342 L125,0 L80,0 L80,517 L22,517 L22,547 L80,547 L80,683 L125,683 L125,547 L485,547 L485,683 L530,683 L530,547 L590,547 L590,517 L530,517 L530,0 M485,380 L485,517 L125,517 L125,380"/> 
            <glyph glyph-name="ħ" unicode="&#x127;" horiz-adv-x="422" d=" M381,0 L381,322 Q381,350 378,373.5 Q375,397 364.5,414 Q354,431 334.5,440 Q315,449 281,449 Q240,449 192,431 Q144,413 106,392 L106,0 L65,0 L65,569 L0,569 L0,598 L65,598 L65,709 L106,709 L106,598 L309,598 L309,569 L106,569 L106,427 Q158,454 207,469.5 Q256,485 291,485 Q339,485 365.5,470.5 Q392,456 404.5,434.5 Q417,413 419.5,387 Q422,361 422,337 L422,0"/> 
            <glyph glyph-name="Ĩ" unicode="&#x128;" horiz-adv-x="254" d=" M90,0 L90,683 L133,683 L133,0 M185,760 Q169,760 149,766 Q129,772 109,779.5 Q89,787 70.5,793 Q52,799 39,799 L-12,758 L-30,770 Q-20,798 -0.5,815 Q19,832 43,832 Q59,832 78.5,826 Q98,820 117.5,813.5 Q137,807 155.5,801 Q174,795 188,795 L237,835 L254,823 Q244,797 226.5,778.5 Q209,760 185,760"/> 
            <glyph glyph-name="ĩ" unicode="&#x129;" horiz-adv-x="248" d=" M84,0 L84,487 L124,487 L124,0 M179,582 Q163,582 143,588 Q123,594 103,601.5 Q83,609 64.5,615 Q46,621 33,621 L-18,580 L-36,592 Q-26,620 -6.5,637 Q13,654 37,654 Q53,654 72.5,648 Q92,642 111.5,635.5 Q131,629 149.5,623 Q168,617 182,617 L231,657 L248,645 Q238,619 220.5,600.5 Q203,582 179,582"/> 
            <glyph glyph-name="Ī" unicode="&#x12A;" horiz-adv-x="262" d=" M90,0 L90,683 L133,683 L133,0 M-36,785 L262,785 L262,748 L-36,748"/> 
            <glyph glyph-name="ī" unicode="&#x12B;" horiz-adv-x="279" d=" M110,0 L110,487 L150,487 L150,0 M-20,635 L279,635 L279,598 L-20,598"/> 
            <glyph glyph-name="Ĭ" unicode="&#x12C;" horiz-adv-x="262" d=" M106,725 Q83,725 62,733 Q41,741 22.5,754.5 Q4,768 -11.5,785 Q-27,802 -39,821 L-8,841 Q16,806 46.5,783.5 Q77,761 109,761 Q133,761 166.5,776 Q200,791 245,836 L262,823 Q221,767 181.5,746 Q142,725 106,725 M90,0 L90,683 L133,683 L133,0"/> 
            <glyph glyph-name="ĭ" unicode="&#x12D;" horiz-adv-x="276" d=" M102,0 L102,487 L142,487 L142,0 M120,561 Q97,561 76,569 Q55,577 36.5,590.5 Q18,604 2.5,621.5 Q-13,639 -25,658 L6,678 Q30,643 60.5,621 Q91,599 123,599 Q147,599 180.5,614 Q214,629 259,673 L276,659 Q235,604 195.5,582.5 Q156,561 120,561"/> 
            <glyph glyph-name="Į" unicode="&#x12E;" horiz-adv-x="180" d=" M100,0 Q67,-33 54.5,-64.5 Q42,-96 42,-116 Q42,-146 60,-156.5 Q78,-167 104,-167 Q124,-167 142,-164 Q160,-161 174,-157 L180,-176 Q157,-188 133,-193.5 Q109,-199 87,-199 Q42,-199 21.5,-179.5 Q1,-160 1,-131 Q1,-104 18.5,-66 Q36,-28 90,16 L90,683 L133,683 L133,0"/> 
            <glyph glyph-name="į" unicode="&#x12F;" horiz-adv-x="183" d=" M99,0 Q68,-32 56.5,-62 Q45,-92 45,-112 Q45,-142 63,-152.5 Q81,-163 107,-163 Q127,-163 145,-160 Q163,-157 177,-153 L183,-172 Q160,-184 136,-189.5 Q112,-195 90,-195 Q45,-195 24.5,-175.5 Q4,-156 4,-127 Q4,-101 19.5,-65.5 Q35,-30 83,12 L84,487 L124,487 L124,0 M137,610 Q137,597 127,587.5 Q117,578 103,578 Q90,578 80.5,587.5 Q71,597 71,610 Q71,624 80.5,634 Q90,644 103,644 Q117,644 127,634 Q137,624 137,610"/> 
            <glyph glyph-name="İ" unicode="&#x130;" horiz-adv-x="147" d=" M90,0 L90,683 L133,683 L133,0 M147,803 Q147,789 136.5,778.5 Q126,768 112,768 Q98,768 88,778.5 Q78,789 78,803 Q78,817 88,827.5 Q98,838 112,838 Q126,838 136.5,827.5 Q147,817 147,803"/> 
            <glyph glyph-name="ı" unicode="&#x131;" horiz-adv-x="124" d=" M84,0 L84,487 L124,487 L124,0"/> 
            <glyph glyph-name="Ĳ" unicode="&#x132;" horiz-adv-x="347" d=" M90,0 L90,683 L133,683 L133,0 M304,683 L347,683 L347,111 Q347,52 334,7.5 Q321,-37 296.5,-71.5 Q272,-106 235.5,-131.5 Q199,-157 153,-179 L138,-146 Q182,-120 213.5,-95.5 Q245,-71 265,-41.5 Q285,-12 294.5,24 Q304,60 304,109"/> 
            <glyph glyph-name="ĳ" unicode="&#x133;" horiz-adv-x="331" d=" M277,487 L318,487 L318,-5 Q317,-46 310.5,-77 Q304,-108 287.5,-132.5 Q271,-157 243.5,-177 Q216,-197 174,-215 Q172,-210 167.5,-200 Q163,-190 161,-186 Q197,-167 219.5,-148.5 Q242,-130 255,-110 Q268,-90 273,-66.5 Q278,-43 278,-12 M83,0 L84,487 L124,487 L124,0 M265,610 Q265,624 274.5,634 Q284,644 297,644 Q311,644 321,634 Q331,624 331,610 Q331,597 321,587.5 Q311,578 297,578 Q284,578 274.5,587.5 Q265,597 265,610 M137,610 Q137,597 127,587.5 Q117,578 103,578 Q90,578 80.5,587.5 Q71,597 71,610 Q71,624 80.5,634 Q90,644 103,644 Q117,644 127,634 Q137,624 137,610"/> 
            <glyph glyph-name="Ĵ" unicode="&#x134;" horiz-adv-x="301" d=" M125,684 L168,684 L168,112 Q168,53 155,8.5 Q142,-36 117.5,-70.5 Q93,-105 56.5,-130.5 Q20,-156 -26,-178 L-41,-145 Q3,-119 34.5,-94.5 Q66,-70 86,-40.5 Q106,-11 115.5,25 Q125,61 125,110 M286,721 L147,819 L9,720 L-6,737 L129,864 L165,864 L301,738"/> 
            <glyph glyph-name="ĵ" unicode="&#x135;" horiz-adv-x="264" d=" M90,486 L130,486 L130,-5 Q130,-46 123,-76.5 Q116,-107 100,-132 Q84,-157 57,-176.5 Q30,-196 -12,-214 Q-16,-207 -19,-200 Q-22,-193 -26,-185 Q9,-166 31.5,-148 Q54,-130 67,-110 Q80,-90 85,-66.5 Q90,-43 90,-12 M111,644 L-27,544 Q-31,548 -34,552 Q-37,556 -41,561 L93,690 L129,690 L264,562 Q261,557 257,553.5 Q253,550 250,545"/> 
            <glyph glyph-name="Ķ" unicode="&#x136;" horiz-adv-x="516" d=" M124,0 L80,0 L80,683 L124,683 L124,343 L457,683 L512,683 L241,409 L516,0 L466,0 L212,377 L124,289 M242,-85 Q242,-71 251.5,-60.5 Q261,-50 277,-50 Q294,-50 304.5,-61.5 Q315,-73 315,-94 Q313,-149 259,-189 L247,-176 Q262,-159 266.5,-146.5 Q271,-134 271,-117 Q258,-115 250,-106.5 Q242,-98 242,-85"/> 
            <glyph glyph-name="ķ" unicode="&#x137;" horiz-adv-x="402" d=" M98,252 Q100,252 100.5,251.5 Q101,251 102,251 L174,322 L341,486 L391,486 L198,297 L228,257 Q234,249 247.5,229 Q261,209 278.5,183 Q296,157 315,128.5 Q334,100 351.5,74 Q369,48 382.5,28 Q396,8 402,0 L355,0 Q308,68 262.5,135.5 Q217,203 171,272 Q154,254 135.5,236.5 Q117,219 100,201 L100,0 L59,0 L59,708 L100,708 L100,380 M182,-81 Q182,-67 191.5,-56.5 Q201,-46 217,-46 Q234,-46 244.5,-57.5 Q255,-69 255,-90 Q253,-145 199,-185 L187,-172 Q202,-155 206.5,-142.5 Q211,-130 211,-113 Q198,-111 190,-102.5 Q182,-94 182,-81"/> 
            <glyph glyph-name="ĸ" unicode="&#x138;" horiz-adv-x="402" d=" M98,252 Q100,252 100.5,251.5 Q101,251 102,251 L174,322 L341,486 L391,486 L198,297 L228,257 Q234,249 247.5,229 Q261,209 278.5,183 Q296,157 315,128.5 Q334,100 351.5,74 Q369,48 382.5,28 Q396,8 402,0 L355,0 Q308,68 262.5,135.5 Q217,203 171,272 Q154,254 135.5,236.5 Q117,219 100,201 L100,0 L59,0 L59,486 L100,486 L100,390 L98,252"/> 
            <glyph glyph-name="Ĺ" unicode="&#x139;" horiz-adv-x="510" d=" M98,0 L98,683 L142,683 L143,36 L510,36 L510,0 M129,718 L107,734 L214,883 L250,851"/> 
            <glyph glyph-name="ĺ" unicode="&#x13A;" horiz-adv-x="213" d=" M116,0 L74,0 L74,709 L116,709 M92,728 L70,744 L177,893 L213,861"/> 
            <glyph glyph-name="Ļ" unicode="&#x13B;" horiz-adv-x="510" d=" M98,0 L98,683 L142,683 L143,36 L510,36 L510,0 M256,-103 Q256,-89 265.5,-78.5 Q275,-68 291,-68 Q308,-68 318.5,-79.5 Q329,-91 329,-112 Q327,-167 273,-207 L261,-194 Q276,-177 280.5,-164.5 Q285,-152 285,-135 Q272,-133 264,-124.5 Q256,-116 256,-103"/> 
            <glyph glyph-name="ļ" unicode="&#x13C;" horiz-adv-x="131" d=" M116,0 L74,0 L74,709 L116,709 M58,-103 Q58,-89 67.5,-78.5 Q77,-68 93,-68 Q110,-68 120.5,-79.5 Q131,-91 131,-112 Q129,-167 75,-207 L63,-194 Q78,-177 82.5,-164.5 Q87,-152 87,-135 Q74,-133 66,-124.5 Q58,-116 58,-103"/> 
            <glyph glyph-name="Ľ" unicode="&#x13D;" horiz-adv-x="510" d=" M98,0 L98,683 L142,683 L143,36 L510,36 L510,0 M347,642 Q347,656 356.5,666.5 Q366,677 382,677 Q399,677 409.5,665.5 Q420,654 420,633 Q418,578 364,538 L352,551 Q367,568 371.5,580.5 Q376,593 376,610 Q363,612 355,620.5 Q347,629 347,642"/> 
            <glyph glyph-name="ľ" unicode="&#x13E;" horiz-adv-x="251" d=" M178,671 Q178,685 187.5,695.5 Q197,706 213,706 Q230,706 240.5,694.5 Q251,683 251,662 Q249,607 195,567 L183,580 Q198,597 202.5,609.5 Q207,622 207,639 Q194,641 186,649.5 Q178,658 178,671 M116,0 L74,0 L74,709 L116,709"/> 
            <glyph glyph-name="Ŀ" unicode="&#x13F;" horiz-adv-x="510" d=" M98,0 L98,683 L142,683 L143,36 L510,36 L510,0 M400,391 Q400,377 389.5,366.5 Q379,356 365,356 Q351,356 341,366.5 Q331,377 331,391 Q331,405 341,415.5 Q351,426 365,426 Q379,426 389.5,415.5 Q400,405 400,391"/> 
            <glyph glyph-name="ŀ" unicode="&#x140;" horiz-adv-x="241" d=" M241,366 Q241,352 230.5,341.5 Q220,331 206,331 Q192,331 182,341.5 Q172,352 172,366 Q172,380 182,390.5 Q192,401 206,401 Q220,401 230.5,390.5 Q241,380 241,366 M116,0 L74,0 L74,709 L116,709"/> 
            <glyph glyph-name="Ł" unicode="&#x141;" horiz-adv-x="510" d=" M98,0 L98,270 L29,230 L12,258 L98,307 L98,683 L142,683 L142,333 L279,412 L295,385 L142,296 L143,36 L510,36 L510,0"/> 
            <glyph glyph-name="ł" unicode="&#x142;" horiz-adv-x="236" d=" M115,367 L221,427 Q223,424 228.5,413.5 Q234,403 236,400 Q232,397 214.5,387 Q197,377 176.5,365 Q156,353 138,342.5 Q120,332 115,330 L115,0 L74,0 L74,306 Q71,304 56.5,295.5 Q42,287 26,278 Q10,269 -4.5,260.5 Q-19,252 -22,250 Q-24,254 -29.5,264.5 Q-35,275 -37,279 L74,343 L74,709 L116,709"/> 
            <glyph glyph-name="Ń" unicode="&#x143;" horiz-adv-x="564" d=" M520,77 L520,683 L564,683 L563,0 L520,0 L201,493 L127,612 Q126,612 125,611.5 Q124,611 123,611 L123,0 L80,0 L80,683 L126,683 L449,182 L516,77 M320,714 L298,730 L405,879 L441,847"/> 
            <glyph glyph-name="ń" unicode="&#x144;" horiz-adv-x="417" d=" M375,0 L375,330 Q375,359 373,382.5 Q371,406 361.5,423 Q352,440 332,449 Q312,458 277,458 Q257,458 233.5,453 Q210,448 187,439.5 Q164,431 141.5,421 Q119,411 101,401 L101,0 L60,0 L60,487 L100,487 Q100,478 100.5,463.5 Q101,449 101,440 Q101,439 102,439 Q103,439 103,438.5 Q103,438 104,438 Q151,465 200.5,479.5 Q250,494 285,494 Q331,494 357.5,481.5 Q384,469 397,449 Q410,429 413.5,404.5 Q417,380 417,357 L417,0 M203,548 L182,565 L289,713 L325,682"/> 
            <glyph glyph-name="Ņ" unicode="&#x145;" horiz-adv-x="564" d=" M520,77 L520,683 L564,683 L563,0 L520,0 L201,493 L127,612 Q126,612 125,611.5 Q124,611 123,611 L123,0 L80,0 L80,683 L126,683 L449,182 L516,77 M279,-95 Q279,-81 288.5,-70.5 Q298,-60 314,-60 Q331,-60 341.5,-71.5 Q352,-83 352,-104 Q350,-159 296,-199 L284,-186 Q299,-169 303.5,-156.5 Q308,-144 308,-127 Q295,-125 287,-116.5 Q279,-108 279,-95"/> 
            <glyph glyph-name="ņ" unicode="&#x146;" horiz-adv-x="417" d=" M375,0 L375,330 Q375,359 373,382.5 Q371,406 361.5,423 Q352,440 332,449 Q312,458 277,458 Q257,458 233.5,453 Q210,448 187,439.5 Q164,431 141.5,421 Q119,411 101,401 L101,0 L60,0 L60,487 L100,487 Q100,478 100.5,463.5 Q101,449 101,440 Q101,439 102,439 Q103,439 103,438.5 Q103,438 104,438 Q151,465 200.5,479.5 Q250,494 285,494 Q331,494 357.5,481.5 Q384,469 397,449 Q410,429 413.5,404.5 Q417,380 417,357 L417,0 M207,-89 Q207,-75 216.5,-64.5 Q226,-54 242,-54 Q259,-54 269.5,-65.5 Q280,-77 280,-98 Q278,-153 224,-193 L212,-180 Q227,-163 231.5,-150.5 Q236,-138 236,-121 Q223,-119 215,-110.5 Q207,-102 207,-89"/> 
            <glyph glyph-name="Ň" unicode="&#x147;" horiz-adv-x="564" d=" M520,77 L520,683 L564,683 L563,0 L520,0 L201,493 L127,612 Q126,612 125,611.5 Q124,611 123,611 L123,0 L80,0 L80,683 L126,683 L449,182 L516,77 M490,847 L354,721 L319,721 L183,848 L198,865 L337,765 L475,864"/> 
            <glyph glyph-name="ň" unicode="&#x148;" horiz-adv-x="417" d=" M375,0 L375,330 Q375,359 373,382.5 Q371,406 361.5,423 Q352,440 332,449 Q312,458 277,458 Q257,458 233.5,453 Q210,448 187,439.5 Q164,431 141.5,421 Q119,411 101,401 L101,0 L60,0 L60,487 L100,487 Q100,478 100.5,463.5 Q101,449 101,440 Q101,439 102,439 Q103,439 103,438.5 Q103,438 104,438 Q151,465 200.5,479.5 Q250,494 285,494 Q331,494 357.5,481.5 Q384,469 397,449 Q410,429 413.5,404.5 Q417,380 417,357 L417,0 M380,683 L245,555 L209,555 L74,685 L88,701 L227,600 L366,700"/> 
            <glyph glyph-name="ŉ" unicode="&#x149;" horiz-adv-x="478" d=" M436,0 L436,330 Q436,359 434,382.5 Q432,406 422.5,423 Q413,440 393,449 Q373,458 338,458 Q318,458 294.5,453 Q271,448 248,439.5 Q225,431 202.5,421 Q180,411 162,401 L162,0 L121,0 L121,487 L161,487 Q161,478 161.5,463.5 Q162,449 162,440 Q162,439 163,439 Q164,439 164,438.5 Q164,438 165,438 Q212,465 261.5,479.5 Q311,494 346,494 Q392,494 418.5,481.5 Q445,469 458,449 Q471,429 474.5,404.5 Q478,380 478,357 L478,0 M11,597 Q11,611 20.5,621.5 Q30,632 46,632 Q63,632 73.5,620.5 Q84,609 84,588 Q82,533 28,493 L16,506 Q31,523 35.5,535.5 Q40,548 40,565 Q27,567 19,575.5 Q11,584 11,597"/> 
            <glyph glyph-name="Ŋ" unicode="&#x14A;" horiz-adv-x="564" d=" M520,77 L520,683 L564,683 L563,-67 Q563,-173 450,-173 Q434,-173 415.5,-171 Q397,-169 379,-164 L385,-131 Q400,-134 416.5,-135.5 Q433,-137 445,-137 Q522,-137 522,-71 L522,-3 L201,493 L127,612 Q126,612 125,611.5 Q124,611 123,611 L123,0 L80,0 L80,683 L126,683 L449,182 L516,77"/> 
            <glyph glyph-name="ŋ" unicode="&#x14B;" horiz-adv-x="416" d=" M295,-115 Q336,-115 355.5,-98.5 Q375,-82 375,-46 L375,330 Q375,359 372.5,382.5 Q370,406 360.5,422.5 Q351,439 331,448 Q311,457 276,457 Q256,457 232.5,452 Q209,447 186,439 Q163,431 140.5,421 Q118,411 100,401 L100,0 L60,0 Q60,122 59.5,243 Q59,364 59,486 L101,486 L101,437 L102,437 Q149,464 199,479 Q249,494 284,494 Q330,494 356.5,481.5 Q383,469 396,449 Q409,429 412.5,404.5 Q416,380 416,356 L415,-26 Q415,-52 411,-74 Q407,-96 395,-112.5 Q383,-129 360.5,-138.5 Q338,-148 301,-148 Q284,-148 267.5,-146 Q251,-144 231,-140 Q233,-132 234.5,-124 Q236,-116 238,-108 Q252,-112 268,-113.5 Q284,-115 295,-115"/> 
            <glyph glyph-name="Ō" unicode="&#x14C;" horiz-adv-x="603" d=" M603,338 Q603,264 586.5,201.5 Q570,139 536.5,93 Q503,47 453.5,20.5 Q404,-6 338,-7 Q261,-7 208,16.5 Q155,40 122,84.5 Q89,129 74.5,192 Q60,255 60,335 Q60,405 74,469.5 Q88,534 120,583.5 Q152,633 205.5,663 Q259,693 338,693 Q418,693 469.5,663 Q521,633 550.5,583.5 Q580,534 591.5,470 Q603,406 603,338 M557,335 Q557,388 549,445 Q541,502 518,549.5 Q495,597 451.5,627.5 Q408,658 338,658 Q267,658 222,630 Q177,602 151,556 Q125,510 115,452 Q105,394 105,333 Q105,184 159,106 Q213,28 333,28 Q390,28 432.5,52 Q475,76 502.5,118 Q530,160 543.5,216 Q557,272 557,335 M184,785 L482,785 L482,748 L184,748"/> 
            </font>
</defs>
</svg>
