<?xml version="1.0" standalone="no"?>
<!DOCTYPE svg PUBLIC "-//W3C//DTD SVG 1.1//EN" "http://www.w3.org/Graphics/SVG/1.1/DTD/svg11.dtd" >
<svg xmlns="http://www.w3.org/2000/svg">
    <defs>
        <font id="PFAgoraSansPro-UltraBlack">
            <font-face font-family="PF Agora Sans Pro"
                       units-per-em="1000"
                       ascent="750"
                       descent="-250"
                       bbox="-494 -351 1760 1033"
                    />
            <missing-glyph horiz-adv-x="0" />
            
            <glyph glyph-name="(" unicode="&#x28;" horiz-adv-x="368" d=" M66,271 Q66,327 79,385 Q92,443 117,499.5 Q142,556 179,610 Q216,664 264,712 L368,647 Q353,626 334,593 Q315,560 297.5,514.5 Q280,469 268.5,410 Q257,351 257,279 Q257,201 268.5,138.5 Q280,76 297,29.5 Q314,-17 333,-49 Q352,-81 367,-99 L267,-165 Q168,-68 117,45.5 Q66,159 66,271"/> 
            <glyph glyph-name=")" unicode="&#x29;" horiz-adv-x="350" d=" M350,272 Q350,160 299,46.5 Q248,-67 149,-164 L49,-98 Q64,-80 82.5,-48 Q101,-16 118,30.5 Q135,77 146.5,139.5 Q158,202 158,280 Q158,352 146.5,411 Q135,470 118,515.5 Q101,561 82,594 Q63,627 48,648 L152,713 Q200,665 237,611 Q274,557 299,500.5 Q324,444 337,386 Q350,328 350,272"/> 
            <glyph glyph-name="*" unicode="&#x2A;" horiz-adv-x="448" d=" M319,491 L412,406 L296,322 L243,437 L189,322 L72,406 L166,493 L38,509 L82,649 L194,584 L169,707 L316,707 L290,585 L404,649 L448,509"/> 
            <glyph glyph-name="+" unicode="&#x2B;" horiz-adv-x="566" d=" M402,247 L402,72 L275,72 L275,247 L110,247 L110,370 L275,370 L275,542 L402,542 L402,370 L566,370 L566,247"/> 
            <glyph glyph-name="," unicode="&#x2C;" horiz-adv-x="293" d=" M55,96 Q55,139 85,168 Q115,197 170,197 Q205,197 228.5,187 Q252,177 266.5,160.5 Q281,144 287,122.5 Q293,101 293,77 Q293,37 279,-3 Q265,-43 240.5,-79 Q216,-115 183.5,-145 Q151,-175 114,-193 L55,-118 Q119,-61 130,6 Q91,11 73,34.5 Q55,58 55,96"/> 
            <glyph glyph-name="-" unicode="&#x2D;" horiz-adv-x="369" d=" M68,201 L68,352 L369,352 L369,201"/> 
            <glyph glyph-name="." unicode="&#x2E;" horiz-adv-x="281" d=" M281,95 Q281,50 253.5,21.5 Q226,-7 162,-7 Q98,-7 71.5,21.5 Q45,50 45,95 Q45,141 72,169 Q99,197 162,197 Q227,197 254,169 Q281,141 281,95"/> 
            <glyph glyph-name="/" unicode="&#x2F;" horiz-adv-x="430" d=" M166,-41 L-2,-41 L261,715 L430,715"/> 
            <glyph glyph-name="0" unicode="&#x30;" horiz-adv-x="624" d=" M624,336 Q624,261 607.5,198 Q591,135 554,88.5 Q517,42 458.5,16 Q400,-10 316,-10 Q232,-10 173.5,16 Q115,42 78,88.5 Q41,135 24.5,198 Q8,261 8,336 Q8,411 24.5,474 Q41,537 78,582.5 Q115,628 173.5,654 Q232,680 316,680 Q400,680 458.5,654 Q517,628 554,582.5 Q591,537 607.5,474 Q624,411 624,336 M383,336 Q383,373 380,403.5 Q377,434 369,456 Q361,478 348,490.5 Q335,503 316,503 Q296,503 283,489.5 Q270,476 262.5,453 Q255,430 252,399.5 Q249,369 249,336 Q249,299 252,268 Q255,237 262.5,215 Q270,193 283,180.5 Q296,168 316,168 Q355,168 369,214 Q383,260 383,336"/> 
            <glyph glyph-name="1" unicode="&#x31;" horiz-adv-x="458" d=" M218,465 L93,448 L93,607 L242,672 L458,672 L458,0 L217,0"/> 
            <glyph glyph-name="2" unicode="&#x32;" horiz-adv-x="611" d=" M396,164 L611,164 L611,0 L56,0 L56,143 Q125,194 178,235.5 Q231,277 267,311 Q303,345 322,373.5 Q341,402 341,427 Q341,459 317,472 Q293,485 259,485 Q221,485 180.5,473.5 Q140,462 112,447 L41,594 Q110,637 183.5,658 Q257,679 324,679 Q451,679 517,618.5 Q583,558 583,456 Q583,411 567,371.5 Q551,332 524,297 Q497,262 462.5,230.5 Q428,199 391,170"/> 
            <glyph glyph-name="3" unicode="&#x33;" horiz-adv-x="604" d=" M463,418 Q535,392 569.5,344 Q604,296 604,230 Q604,170 581.5,125 Q559,80 519,50 Q479,20 423,4.5 Q367,-11 301,-11 Q286,-11 256.5,-8.5 Q227,-6 190,0.5 Q153,7 114,18.5 Q75,30 42,49 L100,213 Q133,201 157,194.5 Q181,188 200,184.5 Q219,181 235,180 Q251,179 267,179 Q315,179 338,195 Q361,211 361,235 Q361,245 358,255.5 Q355,266 345,275 Q335,284 315.5,290 Q296,296 262,296 Q253,296 243.5,295.5 Q234,295 223,294 L200,412 L291,490 L288,498 L81,498 L81,672 L566,672 L592,525 L463,428"/> 
            <glyph glyph-name="4" unicode="&#x34;" horiz-adv-x="627" d=" M531,672 L531,309 L627,309 L627,148 L531,148 L531,0 L298,0 L298,148 L21,148 L21,279 L282,672 M295,443 L212,309 L304,309 L303,443"/> 
            <glyph glyph-name="5" unicode="&#x35;" horiz-adv-x="603" d=" M276,294 Q259,294 238.5,289 Q218,284 194,273 L76,319 L110,672 L565,672 L565,499 L292,499 L287,459 Q298,460 310.5,460.5 Q323,461 331,461 Q395,461 445.5,445 Q496,429 531,399 Q566,369 584.5,326.5 Q603,284 603,231 Q603,171 580.5,126 Q558,81 518,51 Q478,21 422,5.5 Q366,-10 300,-10 Q285,-10 255.5,-7.5 Q226,-5 189,1.5 Q152,8 113,19.5 Q74,31 41,50 L97,211 Q130,200 155,193 Q180,186 199.5,182.5 Q219,179 235.5,177.5 Q252,176 269,176 Q319,176 341,192.5 Q363,209 363,237 Q363,267 338,280.5 Q313,294 276,294"/> 
            <glyph glyph-name="6" unicode="&#x36;" horiz-adv-x="606" d=" M279,415 Q314,432 344.5,436.5 Q375,441 395,441 Q442,441 481,427 Q520,413 547.5,386 Q575,359 590.5,319.5 Q606,280 606,228 Q606,169 585.5,124 Q565,79 528.5,49 Q492,19 441.5,4 Q391,-11 332,-11 Q254,-11 197.5,12 Q141,35 104,76 Q67,117 49.5,174 Q32,231 32,299 Q32,374 48.5,443 Q65,512 104.5,564 Q144,616 209.5,647 Q275,678 373,678 Q424,678 464,672.5 Q504,667 534,659 L504,490 Q469,498 440.5,500.5 Q412,503 392,503 Q338,503 310,481 Q282,459 272,421 M380,228 Q380,247 371.5,262.5 Q363,278 332,278 Q318,278 302.5,272 Q287,266 273,257 L273,241 Q273,212 285.5,193 Q298,174 330,174 Q350,174 365,187 Q380,200 380,228"/> 
            <glyph glyph-name="7" unicode="&#x37;" horiz-adv-x="579" d=" M82,499 L82,672 L579,672 L579,527 L334,0 L95,0 L341,499"/> 
            <glyph glyph-name="8" unicode="&#x38;" horiz-adv-x="617" d=" M272,485 Q272,473 278.5,464.5 Q285,456 296.5,449 Q308,442 323.5,435.5 Q339,429 356,422 Q374,440 380.5,455.5 Q387,471 387,483 Q387,503 372.5,515.5 Q358,528 327,528 Q301,528 286.5,514 Q272,500 272,485 M321,161 Q337,161 348,166.5 Q359,172 365.5,179.5 Q372,187 375.5,195 Q379,203 379,208 Q380,217 378,226 Q376,235 367,244 Q358,253 341,262.5 Q324,272 295,282 Q273,262 265.5,245.5 Q258,229 258,210 Q258,191 274,176 Q290,161 321,161 M595,493 Q595,463 579,424 Q563,385 520,351 Q569,325 593,287.5 Q617,250 617,195 Q617,151 595.5,113.5 Q574,76 535,49 Q496,22 441,6.5 Q386,-9 319,-9 Q251,-9 196,4.5 Q141,18 102.5,44 Q64,70 43.5,107.5 Q23,145 23,192 Q23,211 28.5,233 Q34,255 46,278 Q58,301 78,323.5 Q98,346 127,365 Q94,388 76.5,417 Q59,446 59,488 Q59,531 79,567 Q99,603 134.5,629 Q170,655 219,669 Q268,683 326,683 Q371,683 418.5,673 Q466,663 505.5,640.5 Q545,618 570,581.5 Q595,545 595,493"/> 
            <glyph glyph-name="9" unicode="&#x39;" horiz-adv-x="606" d=" M359,253 Q324,236 293.5,231.5 Q263,227 243,227 Q196,227 157,241 Q118,255 90.5,282 Q63,309 47.5,348.5 Q32,388 32,440 Q32,499 52.5,544 Q73,589 109.5,619 Q146,649 196.5,664 Q247,679 306,679 Q384,679 440.5,656 Q497,633 534,592 Q571,551 588.5,494 Q606,437 606,369 Q606,294 589.5,225 Q573,156 533.5,104 Q494,52 428.5,21 Q363,-10 265,-10 Q214,-10 174,-4.5 Q134,1 104,9 L134,178 Q169,170 197.5,167.5 Q226,165 246,165 Q300,165 328,187 Q356,209 366,247 M258,440 Q258,421 266.5,405.5 Q275,390 306,390 Q320,390 335.5,396 Q351,402 365,411 L365,427 Q365,456 352.5,475 Q340,494 308,494 Q288,494 273,481 Q258,468 258,440"/> 
            <glyph glyph-name=":" unicode="&#x3A;" horiz-adv-x="291" d=" M291,95 Q291,50 263.5,21.5 Q236,-7 172,-7 Q108,-7 81.5,21.5 Q55,50 55,95 Q55,141 82,169 Q109,197 172,197 Q237,197 264,169 Q291,141 291,95 M291,378 Q291,333 263.5,304.5 Q236,276 172,276 Q108,276 81.5,304.5 Q55,333 55,378 Q55,424 82,452 Q109,480 172,480 Q237,480 264,452 Q291,424 291,378"/> 
            <glyph glyph-name="&lt;" unicode="&#x3C;" horiz-adv-x="593" d=" M593,9 L73,251 L73,350 L593,595 L593,451 L250,301 L593,150"/> 
            <glyph glyph-name="=" unicode="&#x3D;" horiz-adv-x="561" d=" M101,333 L101,452 L561,452 L561,333 M101,146 L101,264 L561,264 L561,146"/> 
            <glyph glyph-name="&gt;" unicode="&#x3E;" horiz-adv-x="594" d=" M74,150 L417,301 L74,451 L74,595 L594,350 L594,251 L74,9"/> 
            <glyph glyph-name="?" unicode="&#x3F;" horiz-adv-x="557" d=" M299,722 Q362,722 410,706.5 Q458,691 491,663.5 Q524,636 540.5,598 Q557,560 557,515 Q557,485 547.5,460 Q538,435 523,413.5 Q508,392 489.5,374 Q471,356 452,339 Q422,313 399,287 Q376,261 376,230 L376,210 L175,210 L175,264 Q175,294 182,318 Q189,342 200.5,360.5 Q212,379 225.5,394 Q239,409 252,423 Q271,441 284.5,458 Q298,475 298,496 Q298,518 283,531 Q268,544 238,544 Q171,544 100,518 L51,675 Q129,705 190,713.5 Q251,722 299,722 M389,82 Q389,40 363,12.5 Q337,-15 276,-15 Q215,-15 190,12.5 Q165,40 165,82 Q165,126 190.5,152.5 Q216,179 276,179 Q338,179 363.5,152.5 Q389,126 389,82"/> 
            <glyph glyph-name="@" unicode="&#x40;" horiz-adv-x="963" d=" M545,741 Q643,741 720.5,714 Q798,687 852,637.5 Q906,588 934.5,518 Q963,448 963,362 Q963,305 945,259.5 Q927,214 894,181.5 Q861,149 814.5,132 Q768,115 711,115 Q691,115 668,118.5 Q645,122 624,130.5 Q603,139 586.5,153 Q570,167 561,188 Q531,156 496,146 Q461,136 437,136 Q396,136 370.5,148.5 Q345,161 330.5,179.5 Q316,198 311,219 Q306,240 306,257 Q306,271 309,288.5 Q312,306 323.5,322 Q335,338 356.5,350.5 Q378,363 416,369 L535,383 L535,388 Q535,398 530.5,405 Q526,412 499,412 Q476,412 446,408 Q416,404 388,397 L361,510 Q400,524 445,532 Q490,540 537,540 Q575,540 608,533.5 Q641,527 665.5,511.5 Q690,496 704,470 Q718,444 718,404 L718,267 Q718,259 723.5,252 Q729,245 749,245 Q776,245 798,268.5 Q820,292 820,350 Q820,406 802,453 Q784,500 749,534 Q714,568 663,587 Q612,606 545,606 Q476,606 417,584 Q358,562 315,524 Q272,486 247.5,434 Q223,382 223,322 Q223,260 245,207.5 Q267,155 306,117 Q345,79 399.5,57.5 Q454,36 520,36 Q547,36 587,42 Q627,48 687,67 L732,-49 Q676,-79 618.5,-89 Q561,-99 518,-99 Q410,-99 328,-67 Q246,-35 191,21 Q136,77 108,153.5 Q80,230 80,319 Q80,410 114.5,487 Q149,564 211,620.5 Q273,677 358,709 Q443,741 545,741 M516,257 Q527,257 535,263 L535,299 L514,295 Q506,293 503.5,288.5 Q501,284 501,279 Q501,270 504.5,263.5 Q508,257 516,257"/> 
            <glyph glyph-name="A" unicode="&#x41;" horiz-adv-x="800" d=" M510,123 L290,123 L251,0 L5,0 L254,693 L569,693 L800,0 L544,0 M401,525 L371,384 L341,281 L464,281 L435,387 L409,525"/> 
            <glyph glyph-name="B" unicode="&#x42;" horiz-adv-x="699" d=" M591,362 Q627,353 648.5,333 Q670,313 681,290 Q692,267 695.5,245 Q699,223 699,209 Q699,161 681,122.5 Q663,84 629.5,56.5 Q596,29 548,14.5 Q500,0 440,0 L59,0 L59,693 L448,693 Q506,693 549.5,678.5 Q593,664 621.5,638 Q650,612 664,576 Q678,540 678,496 Q678,486 675,469 Q672,452 662.5,433 Q653,414 636,396.5 Q619,379 591,369 M311,279 L311,170 L377,170 Q405,170 420.5,184.5 Q436,199 436,225 Q436,250 422,264.5 Q408,279 377,279 M311,525 L311,426 L370,426 Q420,426 420,475 Q420,498 408,511.5 Q396,525 370,525"/> 
            <glyph glyph-name="C" unicode="&#x43;" horiz-adv-x="665" d=" M427,710 Q474,710 524.5,702 Q575,694 626,680 L599,501 Q561,507 526,511 Q491,515 462,515 Q429,515 400,508.5 Q371,502 350,485 Q329,468 317,437 Q305,406 305,358 Q305,299 316.5,264.5 Q328,230 350,212.5 Q372,195 402.5,190 Q433,185 471,185 Q481,185 500.5,186.5 Q520,188 542.5,190.5 Q565,193 588,196.5 Q611,200 629,204 L665,31 Q608,10 540,-1 Q472,-12 411,-12 Q296,-12 223.5,18 Q151,48 110,97.5 Q69,147 54,211 Q39,275 39,342 Q39,412 56.5,478 Q74,544 118,595.5 Q162,647 237,678.5 Q312,710 427,710"/> 
            <glyph glyph-name="D" unicode="&#x44;" horiz-adv-x="725" d=" M60,0 L60,693 L377,693 Q481,693 548.5,665.5 Q616,638 655,591 Q694,544 709.5,481 Q725,418 725,348 Q725,280 707,217 Q689,154 648,106 Q607,58 540.5,29 Q474,0 377,0 M312,525 L312,170 L359,170 Q391,170 411.5,184.5 Q432,199 443.5,223.5 Q455,248 459.5,280 Q464,312 464,347 Q464,383 459,415.5 Q454,448 441.5,472 Q429,496 407,510.5 Q385,525 351,525"/> 
            <glyph glyph-name="E" unicode="&#x45;" horiz-adv-x="637" d=" M59,0 L59,693 L625,693 L625,525 L312,525 L312,437 L574,437 L574,277 L312,277 L312,170 L637,170 L637,0"/> 
            <glyph glyph-name="F" unicode="&#x46;" horiz-adv-x="620" d=" M59,0 L59,693 L620,693 L620,525 L310,525 L310,412 L528,412 L528,253 L310,253 L310,0"/> 
            <glyph glyph-name="G" unicode="&#x47;" horiz-adv-x="689" d=" M437,710 Q484,710 541,702 Q598,694 649,680 L623,506 Q585,512 543,516 Q501,520 472,520 Q432,520 401,511.5 Q370,503 348.5,482 Q327,461 316,424.5 Q305,388 305,333 Q305,288 313.5,259 Q322,230 337,212.5 Q352,195 373.5,188 Q395,181 421,181 Q430,181 440,182 Q450,183 463,185 L463,382 L689,382 L689,34 Q619,9 545,-1.5 Q471,-12 411,-12 Q296,-12 223.5,20 Q151,52 110,103 Q69,154 54,218 Q39,282 39,347 Q39,417 56.5,482.5 Q74,548 118.5,598.5 Q163,649 240,679.5 Q317,710 437,710"/> 
            <glyph glyph-name="H" unicode="&#x48;" horiz-adv-x="743" d=" M491,0 L491,274 L311,274 L311,0 L60,0 L60,693 L311,693 L311,443 L491,443 L491,693 L743,693 L743,0"/> 
            <glyph glyph-name="I" unicode="&#x49;" horiz-adv-x="315" d=" M65,0 L65,693 L315,693 L315,0"/> 
            <glyph glyph-name="J" unicode="&#x4A;" horiz-adv-x="381" d=" M131,694 L381,694 L381,184 Q381,18 284.5,-83.5 Q188,-185 -4,-211 L-58,-44 Q3,-14 40.5,11.5 Q78,37 98,65 Q118,93 124.5,126.5 Q131,160 131,205"/> 
            <glyph glyph-name="K" unicode="&#x4B;" horiz-adv-x="801" d=" M317,489 L388,580 L484,693 L778,693 L522,430 L801,0 L497,0 L347,266 L309,227 L309,0 L60,0 L60,693 L309,693 L309,491"/> 
            <glyph glyph-name="L" unicode="&#x4C;" horiz-adv-x="637" d=" M59,0 L59,693 L310,693 L310,170 L637,170 L637,0"/> 
            <glyph glyph-name="M" unicode="&#x4D;" horiz-adv-x="943" d=" M692,373 Q687,359 681.5,341.5 Q676,324 671,306 Q666,288 660.5,270.5 Q655,253 651,240 L591,78 L402,78 L346,234 L309,361 L304,361 L304,0 L62,0 L62,693 L384,693 L454,483 L495,319 L505,319 Q511,335 516.5,356 Q522,377 527.5,399 Q533,421 538.5,441.5 Q544,462 550,478 L628,693 L943,693 L943,0 L697,0 L697,373"/> 
            <glyph glyph-name="N" unicode="&#x4E;" horiz-adv-x="781" d=" M538,339 L538,693 L781,693 L781,0 L526,0 L380,237 L309,364 L303,364 L303,0 L60,0 L60,693 L315,693 L466,453 L530,339"/> 
            <glyph glyph-name="O" unicode="&#x4F;" horiz-adv-x="785" d=" M785,350 Q785,272 761.5,205.5 Q738,139 691,90.5 Q644,42 574.5,15 Q505,-12 412,-12 Q319,-12 249.5,15 Q180,42 133.5,90.5 Q87,139 63.5,205.5 Q40,272 40,350 Q40,428 63.5,494 Q87,560 133.5,607.5 Q180,655 249.5,682 Q319,709 412,709 Q505,709 574.5,682 Q644,655 691,607.5 Q738,560 761.5,494 Q785,428 785,350 M517,350 Q517,391 512,425 Q507,459 495,483 Q483,507 463,520.5 Q443,534 412,534 Q379,534 358.5,519.5 Q338,505 326.5,479.5 Q315,454 310.5,420.5 Q306,387 306,350 Q306,307 310.5,272 Q315,237 326.5,212.5 Q338,188 358.5,174.5 Q379,161 412,161 Q444,161 464.5,174 Q485,187 496.5,211.5 Q508,236 512.5,271 Q517,306 517,350"/> 
            <glyph glyph-name="P" unicode="&#x50;" horiz-adv-x="655" d=" M655,464 Q655,417 638.5,375.5 Q622,334 589,303 Q556,272 508,254 Q460,236 397,236 L311,236 L311,0 L59,0 L59,693 L381,693 Q459,693 512,675 Q565,657 596.5,626 Q628,595 641.5,553 Q655,511 655,464 M311,525 L311,398 L342,398 Q370,398 385.5,414 Q401,430 401,459 Q401,497 383,511 Q365,525 336,525"/> 
            <glyph glyph-name="Q" unicode="&#x51;" horiz-adv-x="804" d=" M785,350 Q785,259 755,186 Q725,113 662,65 Q697,55 733.5,44.5 Q770,34 804,25 L736,-153 L326,-5 L327,-5 Q256,7 202.5,38 Q149,69 113,115.5 Q77,162 59,221.5 Q41,281 41,350 Q41,428 64,494 Q87,560 133.5,607.5 Q180,655 249.5,682 Q319,709 412,709 Q505,709 574.5,682 Q644,655 691,607.5 Q738,560 761.5,494 Q785,428 785,350 M517,350 Q517,391 512,425 Q507,459 495,483 Q483,507 462.5,520.5 Q442,534 412,534 Q382,534 361.5,519.5 Q341,505 328.5,479.5 Q316,454 311,420.5 Q306,387 306,350 Q306,307 311,272 Q316,237 328.5,212.5 Q341,188 361.5,174.5 Q382,161 412,161 Q442,161 462.5,174 Q483,187 495,211.5 Q507,236 512,271 Q517,306 517,350"/> 
            <glyph glyph-name="R" unicode="&#x52;" horiz-adv-x="713" d=" M561,303 Q585,295 601,282 Q617,269 628.5,253 Q640,237 647,219.5 Q654,202 659,184 L713,0 L465,0 L416,168 Q410,190 402.5,204.5 Q395,219 385,228 Q375,237 360.5,240.5 Q346,244 326,244 L311,244 L311,0 L60,0 L60,693 L414,693 Q487,693 536.5,674 Q586,655 616,625 Q646,595 659,557.5 Q672,520 672,482 Q672,457 665.5,431.5 Q659,406 645,382.5 Q631,359 610,339 Q589,319 561,306 M420,468 Q420,491 404.5,508 Q389,525 360,525 L311,525 L311,405 L359,405 Q387,405 403.5,422.5 Q420,440 420,468"/> 
            <glyph glyph-name="S" unicode="&#x53;" horiz-adv-x="676" d=" M369,710 Q434,710 504,695.5 Q574,681 635,651 L579,485 Q553,494 523.5,500.5 Q494,507 465.5,511 Q437,515 410.5,516.5 Q384,518 363,518 Q339,518 329.5,510.5 Q320,503 320,489 Q320,475 351,465.5 Q382,456 430,445 Q452,440 478.5,433 Q505,426 532,415 Q559,404 585,387 Q611,370 631.5,345 Q652,320 664,286 Q676,252 676,207 Q676,161 658.5,121 Q641,81 600,51 Q559,21 492,3.5 Q425,-14 326,-14 Q300,-14 264.5,-11 Q229,-8 188.5,-1 Q148,6 106,17 Q64,28 27,45 L79,218 Q126,203 169.5,194.5 Q213,186 249.5,182 Q286,178 313,177 Q340,176 354,176 Q386,176 397.5,185 Q409,194 409,207 Q409,232 351,245 Q291,260 237,275 Q183,290 142.5,314 Q102,338 78,376 Q54,414 54,476 Q54,524 69.5,566.5 Q85,609 122,641 Q159,673 219.5,691.5 Q280,710 369,710"/> 
            <glyph glyph-name="T" unicode="&#x54;" horiz-adv-x="684" d=" M219,0 L219,520 L5,520 L5,693 L684,693 L684,520 L469,520 L469,0"/> 
            <glyph glyph-name="U" unicode="&#x55;" horiz-adv-x="721" d=" M720,266 Q720,131 643,60 Q566,-11 393,-11 Q301,-11 238,8 Q175,27 135,62.5 Q95,98 77.5,149.5 Q60,201 60,266 L60,693 L307,693 L307,252 Q307,201 328.5,181 Q350,161 395,161 Q410,161 425,165 Q440,169 451.5,179 Q463,189 470,207 Q477,225 477,252 L476,693 L721,693"/> 
            <glyph glyph-name="V" unicode="&#x56;" horiz-adv-x="796" d=" M404,212 Q409,230 414.5,255 Q420,280 425,306.5 Q430,333 434.5,358 Q439,383 444,401 L525,694 L796,694 L555,0 L242,0 L5,694 L275,694 L353,406 L393,212"/> 
            <glyph glyph-name="W" unicode="&#x57;" horiz-adv-x="1113" d=" M554,398 Q550,377 546,349.5 Q542,322 538,293.5 Q534,265 530.5,237.5 Q527,210 523,189 L486,0 L167,0 L5,693 L274,693 L321,433 Q324,418 326.5,396.5 Q329,375 331,352 Q333,329 335.5,307 Q338,285 341,270 L349,270 Q352,285 354.5,306.5 Q357,328 359.5,351.5 Q362,375 365,396.5 Q368,418 371,433 L422,693 L696,693 L745,440 L769,270 L777,270 Q780,285 782.5,307 Q785,329 787,352.5 Q789,376 791.5,398 Q794,420 797,435 L843,693 L1113,693 L951,0 L632,0 L594,188 L562,397"/> 
            <glyph glyph-name="X" unicode="&#x58;" horiz-adv-x="788" d=" M291,0 L5,0 L249,360 L28,693 L315,693 L407,509 Q430,551 453.5,601 Q477,651 500,693 L787,693 L553,360 Q610,272 670.5,180 Q731,88 788,0 L502,0 L396,201"/> 
            <glyph glyph-name="Y" unicode="&#x59;" horiz-adv-x="769" d=" M394,387 Q400,401 405.5,419.5 Q411,438 417,457.5 Q423,477 429,495 Q435,513 441,527 L511,693 L769,693 L526,227 L526,0 L254,0 L254,213 L5,693 L267,693 L340,521 L384,387"/> 
            <glyph glyph-name="Z" unicode="&#x5A;" horiz-adv-x="686" d=" M356,170 L686,170 L686,0 L11,0 L11,154 L319,517 L316,525 L41,525 L41,693 L669,693 L669,546 L352,176"/> 
            <glyph glyph-name="[" unicode="&#x5B;" horiz-adv-x="364" d=" M77,-159 L77,703 L364,703 L364,581 L272,581 L272,-47 L364,-47 L364,-159"/> 
            <glyph glyph-name="\" unicode="&#x5C;" horiz-adv-x="430" d=" M-2,715 L167,715 L430,-41 L262,-41"/> 
            <glyph glyph-name="]" unicode="&#x5D;" horiz-adv-x="335" d=" M48,-159 L48,-47 L140,-47 L140,581 L48,581 L48,703 L335,703 L335,-159"/> 
            <glyph glyph-name="^" unicode="&#x5E;" horiz-adv-x="530" d=" M382,316 L274,511 Q264,491 252.5,471.5 Q241,452 229,430 L165,316 L17,316 L223,676 L322,676 L530,316"/> 
            <glyph glyph-name="_" unicode="&#x5F;" horiz-adv-x="501" d=" M0,-167 L0,-59 L501,-59 L501,-167"/> 
            <glyph glyph-name="a" unicode="&#x61;" horiz-adv-x="644" d=" M360,45 Q338,23 311.5,11 Q285,-1 260,-7 Q235,-13 215.5,-14 Q196,-15 187,-15 Q135,-15 102,0.5 Q69,16 50,38.5 Q31,61 24,87.5 Q17,114 17,136 Q17,153 21.5,175 Q26,197 40.5,218 Q55,239 83,255.5 Q111,272 159,277 L346,297 L346,301 Q346,343 277,343 Q259,343 237,341.5 Q215,340 192,337 Q169,334 148.5,330.5 Q128,327 113,323 L79,467 Q103,477 134.5,485 Q166,493 200.5,498.5 Q235,504 270.5,507 Q306,510 337,510 Q390,510 434.5,500.5 Q479,491 511.5,469.5 Q544,448 562.5,412.5 Q581,377 581,325 L581,155 L635,155 L644,21 Q612,4 565.5,-6 Q519,-16 468,-16 Q431,-16 401.5,-4 Q372,8 364,43 M288,192 Q275,189 270.5,181 Q266,173 266,166 Q266,149 272,138.5 Q278,128 295,128 Q303,128 320,131.5 Q337,135 344,140 L344,201"/> 
            <glyph glyph-name="b" unicode="&#x62;" horiz-adv-x="635" d=" M280,724 L280,575 L274,468 L285,465 Q304,480 324.5,489 Q345,498 363.5,503 Q382,508 397,510 Q412,512 421,512 Q481,512 522,492.5 Q563,473 588,438 Q613,403 624,355 Q635,307 635,250 Q635,199 623.5,152 Q612,105 580.5,68.5 Q549,32 493,10 Q437,-12 349,-12 Q335,-12 300.5,-10.5 Q266,-9 222,-3 Q178,3 129,15 Q80,27 37,48 Q38,218 37,386 Q36,554 37,724 M336,343 Q323,343 309.5,338.5 Q296,334 282,327 L282,163 Q298,157 312.5,155 Q327,153 337,153 Q346,153 356.5,155 Q367,157 375,166.5 Q383,176 388.5,195 Q394,214 394,248 Q394,283 388,302.5 Q382,322 373,331 Q364,340 354,341.5 Q344,343 336,343"/> 
            <glyph glyph-name="c" unicode="&#x63;" horiz-adv-x="501" d=" M307,510 Q336,510 383.5,505 Q431,500 479,487 L448,320 Q421,324 396.5,325.5 Q372,327 355,327 Q311,327 292,307.5 Q273,288 271,247 Q271,203 288,188.5 Q305,174 349,174 Q378,174 409.5,179 Q441,184 467,189 L501,28 Q454,7 398,-3 Q342,-13 288,-13 Q204,-13 152.5,8 Q101,29 72.5,64 Q44,99 34.5,144 Q25,189 25,236 Q25,288 36.5,337.5 Q48,387 79.5,425 Q111,463 166,486.5 Q221,510 307,510"/> 
            <glyph glyph-name="d" unicode="&#x64;" horiz-adv-x="626" d=" M324,343 Q317,343 307.5,341.5 Q298,340 289.5,330 Q281,320 275,299.5 Q269,279 269,242 Q269,210 274.5,192.5 Q280,175 288.5,166.5 Q297,158 307,156.5 Q317,155 326,155 Q336,155 351.5,159.5 Q367,164 381,171 L381,329 Q364,337 348,340 Q332,343 324,343 M393,44 Q370,26 347,15.5 Q324,5 303.5,-1 Q283,-7 266.5,-9 Q250,-11 241,-11 Q176,-11 134.5,9 Q93,29 69,63.5 Q45,98 36,142.5 Q27,187 27,237 Q27,296 39,346.5 Q51,397 78.5,433.5 Q106,470 150.5,491 Q195,512 260,512 Q269,512 284,511 Q299,510 317,507.5 Q335,505 353.5,501 Q372,497 387,490 Q387,503 387,518 Q387,533 387,558 Q387,583 387,622.5 Q387,662 387,724 L626,724 Q626,631 625.5,541.5 Q625,452 625,363 Q625,274 625,184 Q625,94 626,0 L406,0 L400,41"/> 
            <glyph glyph-name="e" unicode="&#x65;" horiz-adv-x="581" d=" M308,511 Q397,511 451,490.5 Q505,470 534,435.5 Q563,401 572,355.5 Q581,310 581,260 L581,224 L269,224 Q271,186 298.5,175.5 Q326,165 368,165 Q384,165 404.5,167 Q425,169 446.5,173 Q468,177 489,181 Q510,185 527,190 L571,42 Q542,27 509,16.5 Q476,6 443,-0.5 Q410,-7 378.5,-9.5 Q347,-12 320,-12 Q231,-12 174.5,10 Q118,32 85,68 Q52,104 39.5,150.5 Q27,197 27,247 Q27,301 41.5,349 Q56,397 89,433 Q122,469 176,490 Q230,511 308,511 M321,370 Q293,370 283.5,353 Q274,336 272,316 L364,316 Q363,339 355.5,354.5 Q348,370 321,370"/> 
            <glyph glyph-name="f" unicode="&#x66;" horiz-adv-x="507" d=" M84,348 L12,348 L12,480 L85,503 L85,535 Q85,568 91,603 Q97,638 120.5,667.5 Q144,697 190.5,715.5 Q237,734 317,734 Q333,734 356,732.5 Q379,731 404.5,728 Q430,725 456.5,720 Q483,715 507,707 L480,550 Q453,556 423,559 Q393,562 375,562 Q351,562 336.5,554.5 Q322,547 322,528 L322,497 L459,497 L459,348 L322,348 Q322,262 321.5,174 Q321,86 321,0 L84,0"/> 
            <glyph glyph-name="g" unicode="&#x67;" horiz-adv-x="652" d=" M107,188 Q80,206 64.5,239 Q49,272 49,314 Q49,365 71.5,402 Q94,439 132,462.5 Q170,486 220,497.5 Q270,509 325,509 Q362,509 394.5,505.5 Q427,502 445,497 L652,497 L652,393 L591,393 L587,387 Q596,371 598,351.5 Q600,332 600,321 Q600,274 578.5,240.5 Q557,207 521,185 Q485,163 437.5,152.5 Q390,142 339,141 L278,140 Q262,140 254.5,133.5 Q247,127 247,119 Q247,115 250.5,112 Q254,109 265,109 L436,109 Q484,109 523.5,102.5 Q563,96 591,79.5 Q619,63 634,36 Q649,9 649,-32 Q649,-62 635,-95 Q621,-128 581.5,-155.5 Q542,-183 472,-201 Q402,-219 290,-219 Q199,-219 146.5,-206.5 Q94,-194 67,-174.5 Q40,-155 33,-131.5 Q26,-108 26,-86 Q26,-57 39,-32.5 Q52,-8 83,10 Q61,21 50.5,41 Q40,61 40,85 Q40,111 55,137.5 Q70,164 105,182 M276,-18 Q265,-26 261.5,-31.5 Q258,-37 258,-41 Q258,-52 269,-60.5 Q280,-69 322,-69 Q368,-69 385,-61.5 Q402,-54 402,-39 Q402,-18 379,-18 M366,323 Q366,348 354.5,358.5 Q343,369 323,369 Q310,369 302.5,364 Q295,359 290.5,352 Q286,345 284.5,336.5 Q283,328 283,321 Q283,299 292,289 Q301,279 325,279 Q342,279 354,288 Q366,297 366,323"/> 
            <glyph glyph-name="h" unicode="&#x68;" horiz-adv-x="623" d=" M280,451 Q298,465 319.5,476.5 Q341,488 363.5,495.5 Q386,503 407,507 Q428,511 446,511 Q545,511 584,463.5 Q623,416 623,323 L623,0 L378,0 L378,275 Q378,304 369,315.5 Q360,327 334,327 Q325,327 311,323 Q297,319 283,309 L283,0 L37,0 Q38,182 36.5,362 Q35,542 37,724 L277,724 L277,562 L272,456"/> 
            <glyph glyph-name="i" unicode="&#x69;" horiz-adv-x="318" d=" M64,0 Q65,125 64,249 Q63,373 64,498 L308,498 Q307,373 308,249 Q309,125 308,0 M318,645 Q318,596 287,564 Q256,532 185,532 Q150,532 125,540.5 Q100,549 84.5,564 Q69,579 62,600 Q55,621 55,645 Q55,696 85,727.5 Q115,759 185,759 Q257,759 287.5,727.5 Q318,696 318,645"/> 
            <glyph glyph-name="j" unicode="&#x6A;" horiz-adv-x="322" d=" M67,498 L312,498 L312,113 Q312,31 293.5,-30 Q275,-91 236.5,-134 Q198,-177 139,-204 Q80,-231 -2,-244 L-65,-79 Q-22,-54 4,-35.5 Q30,-17 44,4.5 Q58,26 62.5,54.5 Q67,83 67,127 M322,645 Q322,596 291,564 Q260,532 189,532 Q154,532 129,540.5 Q104,549 88.5,564 Q73,579 66,600 Q59,621 59,645 Q59,696 89,727.5 Q119,759 189,759 Q261,759 291.5,727.5 Q322,696 322,645"/> 
            <glyph glyph-name="k" unicode="&#x6B;" horiz-adv-x="657" d=" M283,382 L375,498 L648,498 L468,306 Q478,295 491.5,281.5 Q505,268 508,263 L657,0 L387,0 L308,165 L286,140 L286,0 L37,0 Q38,182 36.5,361 Q35,540 37,722 L286,722 L286,544 L278,382"/> 
            <glyph glyph-name="l" unicode="&#x6C;" horiz-adv-x="294" d=" M50,0 Q51,182 49.5,362 Q48,542 50,724 L293,724 Q294,542 294,362 Q294,182 294,0"/> 
            <glyph glyph-name="m" unicode="&#x6D;" horiz-adv-x="915" d=" M272,440 Q294,460 319.5,473.5 Q345,487 369,495.5 Q393,504 414.5,507.5 Q436,511 452,511 Q500,511 527,494 Q554,477 573,440 Q592,456 615.5,469.5 Q639,483 663,492 Q687,501 710,506 Q733,511 751,511 Q840,511 877.5,463.5 Q915,416 915,323 L915,0 L670,0 L670,295 Q670,314 663,320.5 Q656,327 645,327 Q636,327 622.5,322 Q609,317 598,309 L598,0 L358,0 L357,294 Q357,308 351.5,317.5 Q346,327 331,327 Q324,327 311,322.5 Q298,318 285,309 L285,0 L39,0 Q41,125 39.5,249.5 Q38,374 39,499 L263,499 L268,442"/> 
            <glyph glyph-name="n" unicode="&#x6E;" horiz-adv-x="623" d=" M275,445 Q320,479 368.5,495 Q417,511 453,511 Q545,511 584,463.5 Q623,416 623,323 L623,0 L378,0 L378,276 Q378,305 367.5,316 Q357,327 334,327 Q325,327 311,323 Q297,319 283,309 L283,0 L37,0 Q38,125 37,249.5 Q36,374 37,499 L263,499 L268,448"/> 
            <glyph glyph-name="o" unicode="&#x6F;" horiz-adv-x="630" d=" M630,250 Q630,192 613,144 Q596,96 559.5,61.5 Q523,27 466,8 Q409,-11 328,-11 Q246,-11 189,8 Q132,27 96,61.5 Q60,96 43.5,144 Q27,192 27,250 Q27,307 43.5,355 Q60,403 96.5,437 Q133,471 190,490 Q247,509 328,509 Q409,509 466.5,490 Q524,471 560,437 Q596,403 613,355 Q630,307 630,250 M380,250 Q380,299 369,321.5 Q358,344 328,344 Q298,344 287,318 Q276,292 276,250 Q276,197 287,174 Q298,151 328,151 Q358,151 369,174 Q380,197 380,250"/> 
            <glyph glyph-name="p" unicode="&#x70;" horiz-adv-x="636" d=" M274,448 Q319,486 358.5,497 Q398,508 424,508 Q488,508 529,487.5 Q570,467 594,432 Q618,397 627,349 Q636,301 636,246 Q636,190 623.5,143 Q611,96 583,62 Q555,28 510.5,9 Q466,-10 403,-10 Q393,-10 377.5,-9 Q362,-8 344,-5.5 Q326,-3 308,1 Q290,5 275,11 Q275,-43 275.5,-100 Q276,-157 276,-210 L37,-210 Q38,-32 36.5,143.5 Q35,319 37,497 L261,497 L266,452 M339,159 Q346,159 355.5,162 Q365,165 373.5,175 Q382,185 388,204 Q394,223 394,255 Q394,287 388.5,304.5 Q383,322 374.5,330.5 Q366,339 356,340.5 Q346,342 337,342 Q327,342 311,337.5 Q295,333 281,326 L281,172 Q298,164 312,161.5 Q326,159 339,159"/> 
            <glyph glyph-name="q" unicode="&#x71;" horiz-adv-x="627" d=" M382,16 Q366,8 348,2.5 Q330,-3 313,-6.5 Q296,-10 282,-11.5 Q268,-13 259,-13 Q198,-13 154,4 Q110,21 82,51.5 Q54,82 40.5,125.5 Q27,169 27,223 Q27,278 40.5,330 Q54,382 90,422 Q126,462 188,486.5 Q250,511 347,511 Q361,511 393.5,509.5 Q426,508 466.5,503 Q507,498 549.5,489 Q592,480 625,466 Q627,296 625.5,128 Q624,-40 626,-210 L386,-210 L386,-87 Q386,-70 386,-46.5 Q386,-23 388,7 M326,156 Q338,156 352,160.5 Q366,165 380,171 L380,336 Q372,338 360.5,340.5 Q349,343 338,343 Q325,343 312.5,339 Q300,335 290,325 Q280,315 274,296.5 Q268,278 268,250 Q268,215 274,196 Q280,177 289,168 Q298,159 308,157.5 Q318,156 326,156"/> 
            <glyph glyph-name="r" unicode="&#x72;" horiz-adv-x="530" d=" M284,381 Q307,408 334.5,432 Q362,456 390.5,474 Q419,492 447,502.5 Q475,513 499,513 Q519,513 524.5,498 Q530,483 530,465 Q530,439 523,403 Q516,367 505,331 Q494,295 481.5,263 Q469,231 457,214 L294,256 L294,0 L50,0 Q51,102 51,175.5 Q51,249 50.5,305.5 Q50,362 50,407 Q50,452 50,499 L292,499 Q292,489 291,473 Q290,457 288.5,440 Q287,423 285,407 Q283,391 281,382"/> 
            <glyph glyph-name="s" unicode="&#x73;" horiz-adv-x="548" d=" M297,512 Q351,512 408,501.5 Q465,491 516,468 L474,330 Q429,345 387,351 Q345,357 312,357 Q297,357 291,353 Q285,349 285,340 Q285,335 302,330.5 Q319,326 343,321 Q373,316 409,306.5 Q445,297 476,278 Q507,259 527.5,227.5 Q548,196 548,147 Q548,114 534,85 Q520,56 486.5,34.5 Q453,13 398,0.5 Q343,-12 262,-12 Q241,-12 212.5,-10 Q184,-8 151,-3 Q118,2 83.5,10.5 Q49,19 18,32 L58,176 Q141,152 188,147.5 Q235,143 257,143 Q274,143 285,145.5 Q296,148 296,156 Q296,163 290,167 Q284,171 275,173.5 Q266,176 255.5,178 Q245,180 236,182 Q199,191 163.5,201 Q128,211 100.5,228 Q73,245 56,271.5 Q39,298 39,341 Q39,376 52,407 Q65,438 95,461.5 Q125,485 174.5,498.5 Q224,512 297,512"/> 
            <glyph glyph-name="t" unicode="&#x74;" horiz-adv-x="476" d=" M313,652 L313,498 L447,498 L447,348 L313,348 L313,235 Q313,212 316.5,198 Q320,184 327.5,177 Q335,170 347,168 Q359,166 376,166 Q383,166 404,168 Q425,170 450,174 L476,17 Q456,9 433.5,3.5 Q411,-2 388.5,-6 Q366,-10 344.5,-11.5 Q323,-13 307,-13 Q225,-13 178,6 Q131,25 107.5,53.5 Q84,82 78,115 Q72,148 72,176 L72,348 L6,348 L6,481 L90,506 Q103,539 116,573 Q129,607 141,640"/> 
            <glyph glyph-name="u" unicode="&#x75;" horiz-adv-x="612" d=" M373,54 Q353,37 330,25 Q307,13 283.5,4.5 Q260,-4 238,-8 Q216,-12 199,-12 Q152,-12 121,0 Q90,12 71.5,35.5 Q53,59 45,94 Q37,129 37,175 L37,498 L282,498 L282,224 Q282,195 289,183.5 Q296,172 320,172 Q329,172 340,175.5 Q351,179 364,190 L364,498 L610,498 Q612,374 610.5,250 Q609,126 610,0 L389,0 L382,52"/> 
            <glyph glyph-name="v" unicode="&#x76;" horiz-adv-x="686" d=" M357,148 L389,311 L438,496 L686,496 Q647,371 605.5,248 Q564,125 526,0 L173,0 Q134,125 92,248 Q50,371 10,496 L269,496 L320,306 L351,148"/> 
            <glyph glyph-name="w" unicode="&#x77;" horiz-adv-x="957" d=" M674,172 L691,315 L723,497 L957,497 Q930,371 900.5,248 Q871,125 843,0 L547,0 L512,183 L495,320 L487,320 L472,184 L439,0 L145,0 Q116,125 85,247 Q54,369 26,497 L265,497 L297,311 L314,168 L320,168 L341,312 L379,497 L609,497 L646,314 L667,172"/> 
            <glyph glyph-name="x" unicode="&#x78;" horiz-adv-x="660" d=" M329,140 Q313,108 297,70 Q281,32 265,0 L5,0 L182,259 Q142,317 100,378 Q58,439 17,497 L281,497 L336,372 L342,372 Q356,400 371.5,434 Q387,468 401,497 L659,497 L489,260 Q531,196 574.5,129.5 Q618,63 660,0 L397,0 L335,140"/> 
            <glyph glyph-name="y" unicode="&#x79;" horiz-adv-x="656" d=" M326,151 Q330,166 334,185.5 Q338,205 341.5,225.5 Q345,246 349,265.5 Q353,285 357,301 L404,498 L656,498 L450,-100 Q426,-165 374,-193.5 Q322,-222 254,-222 Q216,-222 173.5,-215.5 Q131,-209 86,-197 L116,-43 Q139,-45 151.5,-46 Q164,-47 175,-47 Q217,-47 233,-36.5 Q249,-26 257,2 L264,26 L159,26 Q120,145 83,262.5 Q46,380 7,498 L247,498 L294,296 Q297,281 300,262 Q303,243 306,223.5 Q309,204 312,185.5 Q315,167 318,152"/> 
            <glyph glyph-name="z" unicode="&#x7A;" horiz-adv-x="552" d=" M333,156 L552,156 L552,0 L7,0 L7,122 L210,332 L207,341 L23,341 L24,498 L537,498 L537,380 L330,164"/> 
            <glyph glyph-name="{" unicode="&#x7B;" horiz-adv-x="412" d=" M273,-163 Q239,-163 210,-151 Q181,-139 159.5,-117.5 Q138,-96 125.5,-67 Q113,-38 113,-4 L113,141 Q113,179 94.5,196 Q76,213 43,213 L35,213 L35,333 L43,333 Q76,333 94.5,349.5 Q113,366 113,404 L113,548 Q113,582 123.5,611 Q134,640 154,661 Q174,682 204,694 Q234,706 273,706 L412,706 L412,586 L378,586 Q356,586 343,580.5 Q330,575 323,566 Q316,557 313.5,545 Q311,533 311,521 L311,371 Q311,331 287,307.5 Q263,284 226,278 L226,274 Q271,268 291,239 Q311,210 311,172 L311,18 Q311,5 313.5,-7 Q316,-19 323,-28 Q330,-37 343,-42.5 Q356,-48 378,-48 L412,-48 L412,-163"/> 
            <glyph glyph-name="|" unicode="&#x7C;" horiz-adv-x="293" d=" M136,-158 L136,719 L293,719 L293,-158"/> 
            <glyph glyph-name="}" unicode="&#x7D;" horiz-adv-x="398" d=" M21,-163 L21,-48 L55,-48 Q77,-48 90,-42.5 Q103,-37 110,-28 Q117,-19 119.5,-7 Q122,5 122,18 L122,172 Q122,210 142,239 Q162,268 207,274 L207,278 Q170,284 146,307.5 Q122,331 122,371 L122,521 Q122,533 119.5,545 Q117,557 110,566 Q103,575 90,580.5 Q77,586 55,586 L21,586 L21,706 L160,706 Q199,706 229,694 Q259,682 279,661 Q299,640 309.5,611 Q320,582 320,548 L320,404 Q320,366 338.5,349.5 Q357,333 390,333 L398,333 L398,213 L390,213 Q357,213 338.5,196 Q320,179 320,141 L320,-4 Q320,-38 307.5,-67 Q295,-96 273.5,-117.5 Q252,-139 223,-151 Q194,-163 160,-163"/> 
            <glyph glyph-name="~" unicode="&#x7E;" horiz-adv-x="602" d=" M451,203 Q416,203 378.5,210 Q341,217 306,225.5 Q271,234 240.5,241 Q210,248 188,248 L123,202 L49,256 Q64,298 81.5,325.5 Q99,353 118.5,369.5 Q138,386 159.5,392.5 Q181,399 204,399 Q235,399 268.5,392.5 Q302,386 335,377.5 Q368,369 400.5,362.5 Q433,356 463,356 L529,404 L602,350 Q576,275 540,239 Q504,203 451,203"/> 
            <glyph glyph-name="Ç" unicode="&#xC7;" horiz-adv-x="665" d=" M427,710 Q474,710 524.5,702 Q575,694 626,680 L599,501 Q561,507 526,511 Q491,515 462,515 Q429,515 400,508.5 Q371,502 350,485 Q329,468 317,437 Q305,406 305,358 Q305,299 316.5,264.5 Q328,230 350,212.5 Q372,195 402.5,190 Q433,185 471,185 Q481,185 500.5,186.5 Q520,188 542.5,190.5 Q565,193 588,196.5 Q611,200 629,204 L665,31 Q617,13 559.5,2.5 Q502,-8 447,-11 L407,-69 Q455,-75 481.5,-99.5 Q508,-124 508,-162 Q508,-185 496.5,-207.5 Q485,-230 459,-248 Q433,-266 391,-277.5 Q349,-289 288,-290 L287,-221 Q336,-217 359,-203 Q382,-189 382,-172 Q382,-157 368,-152.5 Q354,-148 338,-148 Q330,-148 324,-148.5 Q318,-149 313,-149 L289,-112 L364,-10 Q264,-4 200.5,28 Q137,60 101,108.5 Q65,157 52,217.5 Q39,278 39,342 Q39,412 56.5,478 Q74,544 118,595.5 Q162,647 237,678.5 Q312,710 427,710"/> 
            <glyph glyph-name="È" unicode="&#xC8;" horiz-adv-x="637" d=" M59,0 L59,693 L625,693 L625,525 L312,525 L312,437 L574,437 L574,277 L312,277 L312,170 L637,170 L637,0 M195,868 L291,988 L481,806 L416,728"/> 
            <glyph glyph-name="É" unicode="&#xC9;" horiz-adv-x="637" d=" M59,0 L59,693 L625,693 L625,525 L312,525 L312,437 L574,437 L574,277 L312,277 L312,170 L637,170 L637,0 M326,726 L261,804 L450,987 L551,867"/> 
            <glyph glyph-name="Ê" unicode="&#xCA;" horiz-adv-x="637" d=" M59,0 L59,693 L625,693 L625,525 L312,525 L312,437 L574,437 L574,277 L312,277 L312,170 L637,170 L637,0 M534,733 L353,828 L175,735 L124,795 L283,957 L425,957 L588,795"/> 
            <glyph glyph-name="Ë" unicode="&#xCB;" horiz-adv-x="637" d=" M59,0 L59,693 L625,693 L625,525 L312,525 L312,437 L574,437 L574,277 L312,277 L312,170 L637,170 L637,0 M324,827 Q324,788 298,761.5 Q272,735 213,735 Q156,735 132.5,761.5 Q109,788 109,827 Q109,869 132.5,894.5 Q156,920 213,920 Q272,920 298,894.5 Q324,869 324,827 M575,827 Q575,788 550.5,761.5 Q526,735 467,735 Q410,735 385,761.5 Q360,788 360,827 Q360,869 385,894.5 Q410,920 467,920 Q526,920 550.5,894.5 Q575,869 575,827"/> 
            <glyph glyph-name="Ì" unicode="&#xCC;" horiz-adv-x="315" d=" M65,0 L65,693 L315,693 L315,0 M7,870 L103,990 L293,808 L228,730"/> 
            <glyph glyph-name="Í" unicode="&#xCD;" horiz-adv-x="396" d=" M65,0 L65,693 L315,693 L315,0 M171,737 L106,815 L295,998 L396,878"/> 
            <glyph glyph-name="Î" unicode="&#xCE;" horiz-adv-x="418" d=" M65,0 L65,693 L315,693 L315,0 M364,737 L183,832 L5,739 L-46,799 L113,961 L255,961 L418,799"/> 
            <glyph glyph-name="Ï" unicode="&#xCF;" horiz-adv-x="426" d=" M65,0 L65,693 L315,693 L315,0 M175,845 Q175,806 149,779.5 Q123,753 64,753 Q7,753 -16.5,779.5 Q-40,806 -40,845 Q-40,887 -16.5,912.5 Q7,938 64,938 Q123,938 149,912.5 Q175,887 175,845 M426,845 Q426,806 401.5,779.5 Q377,753 318,753 Q261,753 236,779.5 Q211,806 211,845 Q211,887 236,912.5 Q261,938 318,938 Q377,938 401.5,912.5 Q426,887 426,845"/> 
            <glyph glyph-name="Ð" unicode="&#xD0;" horiz-adv-x="725" d=" M60,0 L60,308 L8,308 L8,400 L60,400 L60,693 L377,693 Q481,693 548.5,665.5 Q616,638 655,591 Q694,544 709.5,481 Q725,418 725,348 Q725,280 707,217 Q689,154 648,106 Q607,58 540.5,29 Q474,0 377,0 M312,525 L312,400 L379,400 L379,308 L312,308 L312,170 L359,170 Q391,170 411.5,184.5 Q432,199 443.5,223.5 Q455,248 459.5,280 Q464,312 464,347 Q464,383 459,415.5 Q454,448 441.5,472 Q429,496 407,510.5 Q385,525 351,525"/> 
            <glyph glyph-name="Ñ" unicode="&#xD1;" horiz-adv-x="781" d=" M538,339 L538,693 L781,693 L781,0 L526,0 L380,237 L309,364 L303,364 L303,0 L60,0 L60,693 L315,693 L466,453 L530,339 M532,756 Q502,756 471,762 Q440,768 410.5,775 Q381,782 355.5,788 Q330,794 312,794 L258,755 L196,803 Q221,873 253.5,898 Q286,923 325,923 Q352,923 380,917.5 Q408,912 436,905 Q464,898 491,892.5 Q518,887 543,887 L598,928 L658,880 Q637,816 607,786 Q577,756 532,756"/> 
            <glyph glyph-name="Ò" unicode="&#xD2;" horiz-adv-x="785" d=" M785,350 Q785,272 761.5,205.5 Q738,139 691,90.5 Q644,42 574.5,15 Q505,-12 412,-12 Q319,-12 249.5,15 Q180,42 133.5,90.5 Q87,139 63.5,205.5 Q40,272 40,350 Q40,428 63.5,494 Q87,560 133.5,607.5 Q180,655 249.5,682 Q319,709 412,709 Q505,709 574.5,682 Q644,655 691,607.5 Q738,560 761.5,494 Q785,428 785,350 M517,350 Q517,391 512,425 Q507,459 495,483 Q483,507 463,520.5 Q443,534 412,534 Q379,534 358.5,519.5 Q338,505 326.5,479.5 Q315,454 310.5,420.5 Q306,387 306,350 Q306,307 310.5,272 Q315,237 326.5,212.5 Q338,188 358.5,174.5 Q379,161 412,161 Q444,161 464.5,174 Q485,187 496.5,211.5 Q508,236 512.5,271 Q517,306 517,350 M242,886 L338,1006 L528,824 L463,746"/> 
            <glyph glyph-name="Ó" unicode="&#xD3;" horiz-adv-x="785" d=" M785,350 Q785,272 761.5,205.5 Q738,139 691,90.5 Q644,42 574.5,15 Q505,-12 412,-12 Q319,-12 249.5,15 Q180,42 133.5,90.5 Q87,139 63.5,205.5 Q40,272 40,350 Q40,428 63.5,494 Q87,560 133.5,607.5 Q180,655 249.5,682 Q319,709 412,709 Q505,709 574.5,682 Q644,655 691,607.5 Q738,560 761.5,494 Q785,428 785,350 M517,350 Q517,391 512,425 Q507,459 495,483 Q483,507 463,520.5 Q443,534 412,534 Q379,534 358.5,519.5 Q338,505 326.5,479.5 Q315,454 310.5,420.5 Q306,387 306,350 Q306,307 310.5,272 Q315,237 326.5,212.5 Q338,188 358.5,174.5 Q379,161 412,161 Q444,161 464.5,174 Q485,187 496.5,211.5 Q508,236 512.5,271 Q517,306 517,350 M424,747 L359,825 L548,1008 L649,888"/> 
            <glyph glyph-name="Ô" unicode="&#xD4;" horiz-adv-x="785" d=" M785,350 Q785,272 761.5,205.5 Q738,139 691,90.5 Q644,42 574.5,15 Q505,-12 412,-12 Q319,-12 249.5,15 Q180,42 133.5,90.5 Q87,139 63.5,205.5 Q40,272 40,350 Q40,428 63.5,494 Q87,560 133.5,607.5 Q180,655 249.5,682 Q319,709 412,709 Q505,709 574.5,682 Q644,655 691,607.5 Q738,560 761.5,494 Q785,428 785,350 M517,350 Q517,391 512,425 Q507,459 495,483 Q483,507 463,520.5 Q443,534 412,534 Q379,534 358.5,519.5 Q338,505 326.5,479.5 Q315,454 310.5,420.5 Q306,387 306,350 Q306,307 310.5,272 Q315,237 326.5,212.5 Q338,188 358.5,174.5 Q379,161 412,161 Q444,161 464.5,174 Q485,187 496.5,211.5 Q508,236 512.5,271 Q517,306 517,350 M598,733 L417,828 L239,735 L188,795 L347,957 L489,957 L652,795"/> 
            <glyph glyph-name="Õ" unicode="&#xD5;" horiz-adv-x="785" d=" M785,350 Q785,272 761.5,205.5 Q738,139 691,90.5 Q644,42 574.5,15 Q505,-12 412,-12 Q319,-12 249.5,15 Q180,42 133.5,90.5 Q87,139 63.5,205.5 Q40,272 40,350 Q40,428 63.5,494 Q87,560 133.5,607.5 Q180,655 249.5,682 Q319,709 412,709 Q505,709 574.5,682 Q644,655 691,607.5 Q738,560 761.5,494 Q785,428 785,350 M517,350 Q517,391 512,425 Q507,459 495,483 Q483,507 463,520.5 Q443,534 412,534 Q379,534 358.5,519.5 Q338,505 326.5,479.5 Q315,454 310.5,420.5 Q306,387 306,350 Q306,307 310.5,272 Q315,237 326.5,212.5 Q338,188 358.5,174.5 Q379,161 412,161 Q444,161 464.5,174 Q485,187 496.5,211.5 Q508,236 512.5,271 Q517,306 517,350 M521,770 Q491,770 460,776 Q429,782 399.5,789 Q370,796 344.5,802 Q319,808 301,808 L247,769 L185,817 Q210,887 242.5,912 Q275,937 314,937 Q341,937 369,931.5 Q397,926 425,919 Q453,912 480,906.5 Q507,901 532,901 L587,942 L647,894 Q626,830 596,800 Q566,770 521,770"/> 
            <glyph glyph-name="Ö" unicode="&#xD6;" horiz-adv-x="785" d=" M785,350 Q785,272 761.5,205.5 Q738,139 691,90.5 Q644,42 574.5,15 Q505,-12 412,-12 Q319,-12 249.5,15 Q180,42 133.5,90.5 Q87,139 63.5,205.5 Q40,272 40,350 Q40,428 63.5,494 Q87,560 133.5,607.5 Q180,655 249.5,682 Q319,709 412,709 Q505,709 574.5,682 Q644,655 691,607.5 Q738,560 761.5,494 Q785,428 785,350 M517,350 Q517,391 512,425 Q507,459 495,483 Q483,507 463,520.5 Q443,534 412,534 Q379,534 358.5,519.5 Q338,505 326.5,479.5 Q315,454 310.5,420.5 Q306,387 306,350 Q306,307 310.5,272 Q315,237 326.5,212.5 Q338,188 358.5,174.5 Q379,161 412,161 Q444,161 464.5,174 Q485,187 496.5,211.5 Q508,236 512.5,271 Q517,306 517,350 M382,850 Q382,811 356,784.5 Q330,758 271,758 Q214,758 190.5,784.5 Q167,811 167,850 Q167,892 190.5,917.5 Q214,943 271,943 Q330,943 356,917.5 Q382,892 382,850 M633,850 Q633,811 608.5,784.5 Q584,758 525,758 Q468,758 443,784.5 Q418,811 418,850 Q418,892 443,917.5 Q468,943 525,943 Q584,943 608.5,917.5 Q633,892 633,850"/> 
            <glyph glyph-name="ç" unicode="&#xE7;" horiz-adv-x="501" d=" M307,510 Q336,510 383.5,505 Q431,500 479,487 L448,320 Q421,324 396.5,325.5 Q372,327 355,327 Q311,327 292,307.5 Q273,288 271,247 Q271,203 288,188.5 Q305,174 349,174 Q378,174 409.5,179 Q441,184 467,189 L501,28 Q459,9 409.5,-0.5 Q360,-10 311,-12 L284,-52 Q332,-58 358.5,-82.5 Q385,-107 385,-145 Q385,-168 373.5,-190.5 Q362,-213 336,-231 Q310,-249 268,-260.5 Q226,-272 165,-273 L164,-204 Q213,-200 236,-186 Q259,-172 259,-155 Q259,-140 245,-135.5 Q231,-131 215,-131 Q207,-131 201,-131.5 Q195,-132 190,-132 L166,-95 L229,-10 Q164,-3 124.5,20.5 Q85,44 62.5,77.5 Q40,111 32.5,152 Q25,193 25,236 Q25,288 36.5,337.5 Q48,387 79.5,425 Q111,463 166,486.5 Q221,510 307,510"/> 
            <glyph glyph-name="è" unicode="&#xE8;" horiz-adv-x="581" d=" M308,511 Q397,511 451,490.5 Q505,470 534,435.5 Q563,401 572,355.5 Q581,310 581,260 L581,224 L269,224 Q271,186 298.5,175.5 Q326,165 368,165 Q384,165 404.5,167 Q425,169 446.5,173 Q468,177 489,181 Q510,185 527,190 L571,42 Q542,27 509,16.5 Q476,6 443,-0.5 Q410,-7 378.5,-9.5 Q347,-12 320,-12 Q231,-12 174.5,10 Q118,32 85,68 Q52,104 39.5,150.5 Q27,197 27,247 Q27,301 41.5,349 Q56,397 89,433 Q122,469 176,490 Q230,511 308,511 M321,370 Q293,370 283.5,353 Q274,336 272,316 L364,316 Q363,339 355.5,354.5 Q348,370 321,370 M153,660 L266,797 L459,623 L380,526"/> 
            <glyph glyph-name="é" unicode="&#xE9;" horiz-adv-x="581" d=" M308,511 Q397,511 451,490.5 Q505,470 534,435.5 Q563,401 572,355.5 Q581,310 581,260 L581,224 L269,224 Q271,186 298.5,175.5 Q326,165 368,165 Q384,165 404.5,167 Q425,169 446.5,173 Q468,177 489,181 Q510,185 527,190 L571,42 Q542,27 509,16.5 Q476,6 443,-0.5 Q410,-7 378.5,-9.5 Q347,-12 320,-12 Q231,-12 174.5,10 Q118,32 85,68 Q52,104 39.5,150.5 Q27,197 27,247 Q27,301 41.5,349 Q56,397 89,433 Q122,469 176,490 Q230,511 308,511 M321,370 Q293,370 283.5,353 Q274,336 272,316 L364,316 Q363,339 355.5,354.5 Q348,370 321,370 M290,528 L217,615 L407,797 L511,668"/> 
            <glyph glyph-name="ê" unicode="&#xEA;" horiz-adv-x="581" d=" M308,511 Q397,511 451,490.5 Q505,470 534,435.5 Q563,401 572,355.5 Q581,310 581,260 L581,224 L269,224 Q271,186 298.5,175.5 Q326,165 368,165 Q384,165 404.5,167 Q425,169 446.5,173 Q468,177 489,181 Q510,185 527,190 L571,42 Q542,27 509,16.5 Q476,6 443,-0.5 Q410,-7 378.5,-9.5 Q347,-12 320,-12 Q231,-12 174.5,10 Q118,32 85,68 Q52,104 39.5,150.5 Q27,197 27,247 Q27,301 41.5,349 Q56,397 89,433 Q122,469 176,490 Q230,511 308,511 M321,370 Q293,370 283.5,353 Q274,336 272,316 L364,316 Q363,339 355.5,354.5 Q348,370 321,370 M506,526 L325,624 L144,528 L96,588 L255,760 L397,760 L560,588"/> 
            <glyph glyph-name="ë" unicode="&#xEB;" horiz-adv-x="581" d=" M308,511 Q397,511 451,490.5 Q505,470 534,435.5 Q563,401 572,355.5 Q581,310 581,260 L581,224 L269,224 Q271,186 298.5,175.5 Q326,165 368,165 Q384,165 404.5,167 Q425,169 446.5,173 Q468,177 489,181 Q510,185 527,190 L571,42 Q542,27 509,16.5 Q476,6 443,-0.5 Q410,-7 378.5,-9.5 Q347,-12 320,-12 Q231,-12 174.5,10 Q118,32 85,68 Q52,104 39.5,150.5 Q27,197 27,247 Q27,301 41.5,349 Q56,397 89,433 Q122,469 176,490 Q230,511 308,511 M321,370 Q293,370 283.5,353 Q274,336 272,316 L364,316 Q363,339 355.5,354.5 Q348,370 321,370 M297,656 Q297,617 271,590.5 Q245,564 186,564 Q129,564 105.5,590.5 Q82,617 82,656 Q82,698 105.5,723.5 Q129,749 186,749 Q245,749 271,723.5 Q297,698 297,656 M548,656 Q548,617 523.5,590.5 Q499,564 440,564 Q383,564 358,590.5 Q333,617 333,656 Q333,698 358,723.5 Q383,749 440,749 Q499,749 523.5,723.5 Q548,698 548,656"/> 
            <glyph glyph-name="ì" unicode="&#xEC;" horiz-adv-x="308" d=" M64,0 L64,495 L308,495 L308,0 M1,660 L114,797 L307,623 L228,526"/> 
            <glyph glyph-name="í" unicode="&#xED;" horiz-adv-x="390" d=" M64,0 L64,495 L308,495 L308,0 M169,528 L96,615 L286,797 L390,668"/> 
            <glyph glyph-name="î" unicode="&#xEE;" horiz-adv-x="422" d=" M64,0 L64,495 L308,495 L308,0 M368,526 L187,624 L6,528 L-42,588 L117,760 L259,760 L422,588"/> 
            <glyph glyph-name="ï" unicode="&#xEF;" horiz-adv-x="428" d=" M64,0 L64,495 L308,495 L308,0 M177,664 Q177,625 151,598.5 Q125,572 66,572 Q9,572 -14.5,598.5 Q-38,625 -38,664 Q-38,706 -14.5,731.5 Q9,757 66,757 Q125,757 151,731.5 Q177,706 177,664 M428,664 Q428,625 403.5,598.5 Q379,572 320,572 Q263,572 238,598.5 Q213,625 213,664 Q213,706 238,731.5 Q263,757 320,757 Q379,757 403.5,731.5 Q428,706 428,664"/> 
            <glyph glyph-name="ð" unicode="&#xF0;" horiz-adv-x="655" d=" M500,757 L538,704 L481,667 Q575,599 615,503 Q655,407 644,271 Q640,225 625,175 Q610,125 575,84 Q540,43 481,16 Q422,-11 332,-11 Q250,-11 194.5,10 Q139,31 104.5,65.5 Q70,100 55,144 Q40,188 40,235 Q40,285 59.5,329.5 Q79,374 114,407.5 Q149,441 197.5,460.5 Q246,480 304,480 Q320,480 344.5,477.5 Q369,475 393,463 Q384,495 369,521 Q354,547 334,570 L251,515 L216,569 L284,614 Q253,636 211,658 L268,769 Q311,755 349,739 Q387,723 421,704 M345,332 Q325,332 313,325 Q301,318 293.5,306 Q286,294 283.5,278 Q281,262 281,245 Q281,228 283,210 Q285,192 291,177 Q297,162 308.5,152.5 Q320,143 340,143 Q360,143 373,154 Q386,165 393.5,182.5 Q401,200 404,222.5 Q407,245 407,269 Q407,280 407,290.5 Q407,301 406,312 Q392,320 376.5,326 Q361,332 345,332"/> 
            <glyph glyph-name="ñ" unicode="&#xF1;" horiz-adv-x="623" d=" M275,445 Q320,479 368.5,495 Q417,511 453,511 Q545,511 584,463.5 Q623,416 623,323 L623,0 L378,0 L378,276 Q378,305 367.5,316 Q357,327 334,327 Q325,327 311,323 Q297,319 283,309 L283,0 L37,0 Q38,125 37,249.5 Q36,374 37,499 L263,499 L268,448 M420,562 Q390,562 359,568 Q328,574 298.5,581 Q269,588 243.5,594 Q218,600 200,600 L146,561 L84,609 Q109,679 141.5,704 Q174,729 213,729 Q240,729 268,723.5 Q296,718 324,711 Q352,704 379,698.5 Q406,693 431,693 L486,734 L546,686 Q525,622 495,592 Q465,562 420,562"/> 
            <glyph glyph-name="ò" unicode="&#xF2;" horiz-adv-x="630" d=" M630,250 Q630,192 613,144 Q596,96 559.5,61.5 Q523,27 466,8 Q409,-11 328,-11 Q246,-11 189,8 Q132,27 96,61.5 Q60,96 43.5,144 Q27,192 27,250 Q27,307 43.5,355 Q60,403 96.5,437 Q133,471 190,490 Q247,509 328,509 Q409,509 466.5,490 Q524,471 560,437 Q596,403 613,355 Q630,307 630,250 M380,250 Q380,299 369,321.5 Q358,344 328,344 Q298,344 287,318 Q276,292 276,250 Q276,197 287,174 Q298,151 328,151 Q358,151 369,174 Q380,197 380,250 M146,660 L259,797 L452,623 L373,526"/> 
            <glyph glyph-name="ó" unicode="&#xF3;" horiz-adv-x="630" d=" M630,250 Q630,192 613,144 Q596,96 559.5,61.5 Q523,27 466,8 Q409,-11 328,-11 Q246,-11 189,8 Q132,27 96,61.5 Q60,96 43.5,144 Q27,192 27,250 Q27,307 43.5,355 Q60,403 96.5,437 Q133,471 190,490 Q247,509 328,509 Q409,509 466.5,490 Q524,471 560,437 Q596,403 613,355 Q630,307 630,250 M380,250 Q380,299 369,321.5 Q358,344 328,344 Q298,344 287,318 Q276,292 276,250 Q276,197 287,174 Q298,151 328,151 Q358,151 369,174 Q380,197 380,250 M318,528 L245,615 L435,797 L539,668"/> 
            <glyph glyph-name="ô" unicode="&#xF4;" horiz-adv-x="630" d=" M630,250 Q630,192 613,144 Q596,96 559.5,61.5 Q523,27 466,8 Q409,-11 328,-11 Q246,-11 189,8 Q132,27 96,61.5 Q60,96 43.5,144 Q27,192 27,250 Q27,307 43.5,355 Q60,403 96.5,437 Q133,471 190,490 Q247,509 328,509 Q409,509 466.5,490 Q524,471 560,437 Q596,403 613,355 Q630,307 630,250 M380,250 Q380,299 369,321.5 Q358,344 328,344 Q298,344 287,318 Q276,292 276,250 Q276,197 287,174 Q298,151 328,151 Q358,151 369,174 Q380,197 380,250 M510,526 L329,624 L148,528 L100,588 L259,760 L401,760 L564,588"/> 
            <glyph glyph-name="õ" unicode="&#xF5;" horiz-adv-x="630" d=" M630,250 Q630,192 613,144 Q596,96 559.5,61.5 Q523,27 466,8 Q409,-11 328,-11 Q246,-11 189,8 Q132,27 96,61.5 Q60,96 43.5,144 Q27,192 27,250 Q27,307 43.5,355 Q60,403 96.5,437 Q133,471 190,490 Q247,509 328,509 Q409,509 466.5,490 Q524,471 560,437 Q596,403 613,355 Q630,307 630,250 M380,250 Q380,299 369,321.5 Q358,344 328,344 Q298,344 287,318 Q276,292 276,250 Q276,197 287,174 Q298,151 328,151 Q358,151 369,174 Q380,197 380,250 M435,546 Q405,546 374,552 Q343,558 313.5,565 Q284,572 258.5,578 Q233,584 215,584 L161,545 L99,593 Q124,663 156.5,688 Q189,713 228,713 Q255,713 283,707.5 Q311,702 339,695 Q367,688 394,682.5 Q421,677 446,677 L501,718 L561,670 Q540,606 510,576 Q480,546 435,546"/> 
            <glyph glyph-name="ö" unicode="&#xF6;" horiz-adv-x="630" d=" M630,250 Q630,192 613,144 Q596,96 559.5,61.5 Q523,27 466,8 Q409,-11 328,-11 Q246,-11 189,8 Q132,27 96,61.5 Q60,96 43.5,144 Q27,192 27,250 Q27,307 43.5,355 Q60,403 96.5,437 Q133,471 190,490 Q247,509 328,509 Q409,509 466.5,490 Q524,471 560,437 Q596,403 613,355 Q630,307 630,250 M380,250 Q380,299 369,321.5 Q358,344 328,344 Q298,344 287,318 Q276,292 276,250 Q276,197 287,174 Q298,151 328,151 Q358,151 369,174 Q380,197 380,250 M311,656 Q311,617 285,590.5 Q259,564 200,564 Q143,564 119.5,590.5 Q96,617 96,656 Q96,698 119.5,723.5 Q143,749 200,749 Q259,749 285,723.5 Q311,698 311,656 M562,656 Q562,617 537.5,590.5 Q513,564 454,564 Q397,564 372,590.5 Q347,617 347,656 Q347,698 372,723.5 Q397,749 454,749 Q513,749 537.5,723.5 Q562,698 562,656"/> 
            <glyph glyph-name="ø" unicode="&#xF8;" horiz-adv-x="630" d=" M630,250 Q630,192 613,144 Q596,96 559.5,61.5 Q523,27 466,8 Q409,-11 328,-11 Q268,-11 222.5,-1 Q177,9 142,28 L106,-8 L34,-8 L100,57 Q62,92 44.5,141 Q27,190 27,250 Q27,307 43.5,355 Q60,403 96.5,437 Q133,471 190,490 Q247,509 328,509 Q388,509 435,498.5 Q482,488 517,468 L555,506 L628,506 L559,438 Q596,403 613,355.5 Q630,308 630,250 M328,344 Q298,344 287,318 Q276,292 276,250 L276,231 L368,322 Q356,344 328,344 M328,151 Q358,151 369,174 Q380,197 380,250 L380,261 L288,171 Q299,151 328,151"/> 
            <glyph glyph-name="ù" unicode="&#xF9;" horiz-adv-x="612" d=" M373,54 Q353,37 330,25 Q307,13 283.5,4.5 Q260,-4 238,-8 Q216,-12 199,-12 Q152,-12 121,0 Q90,12 71.5,35.5 Q53,59 45,94 Q37,129 37,175 L37,498 L282,498 L282,224 Q282,195 289,183.5 Q296,172 320,172 Q329,172 340,175.5 Q351,179 364,190 L364,498 L610,498 Q612,374 610.5,250 Q609,126 610,0 L389,0 L382,52 M156,660 L269,797 L462,623 L383,526"/> 
            <glyph glyph-name="ú" unicode="&#xFA;" horiz-adv-x="612" d=" M373,54 Q353,37 330,25 Q307,13 283.5,4.5 Q260,-4 238,-8 Q216,-12 199,-12 Q152,-12 121,0 Q90,12 71.5,35.5 Q53,59 45,94 Q37,129 37,175 L37,498 L282,498 L282,224 Q282,195 289,183.5 Q296,172 320,172 Q329,172 340,175.5 Q351,179 364,190 L364,498 L610,498 Q612,374 610.5,250 Q609,126 610,0 L389,0 L382,52 M318,528 L245,615 L435,797 L539,668"/> 
            <glyph glyph-name="û" unicode="&#xFB;" horiz-adv-x="612" d=" M373,54 Q353,37 330,25 Q307,13 283.5,4.5 Q260,-4 238,-8 Q216,-12 199,-12 Q152,-12 121,0 Q90,12 71.5,35.5 Q53,59 45,94 Q37,129 37,175 L37,498 L282,498 L282,224 Q282,195 289,183.5 Q296,172 320,172 Q329,172 340,175.5 Q351,179 364,190 L364,498 L610,498 Q612,374 610.5,250 Q609,126 610,0 L389,0 L382,52 M499,526 L318,624 L137,528 L89,588 L248,760 L390,760 L553,588"/> 
            <glyph glyph-name="ü" unicode="&#xFC;" horiz-adv-x="612" d=" M373,54 Q353,37 330,25 Q307,13 283.5,4.5 Q260,-4 238,-8 Q216,-12 199,-12 Q152,-12 121,0 Q90,12 71.5,35.5 Q53,59 45,94 Q37,129 37,175 L37,498 L282,498 L282,224 Q282,195 289,183.5 Q296,172 320,172 Q329,172 340,175.5 Q351,179 364,190 L364,498 L610,498 Q612,374 610.5,250 Q609,126 610,0 L389,0 L382,52 M303,664 Q303,625 277,598.5 Q251,572 192,572 Q135,572 111.5,598.5 Q88,625 88,664 Q88,706 111.5,731.5 Q135,757 192,757 Q251,757 277,731.5 Q303,706 303,664 M554,664 Q554,625 529.5,598.5 Q505,572 446,572 Q389,572 364,598.5 Q339,625 339,664 Q339,706 364,731.5 Q389,757 446,757 Q505,757 529.5,731.5 Q554,706 554,664"/> 
            <glyph glyph-name="ý" unicode="&#xFD;" horiz-adv-x="656" d=" M326,151 Q330,166 334,185.5 Q338,205 341.5,225.5 Q345,246 349,265.5 Q353,285 357,301 L404,498 L656,498 L450,-100 Q426,-165 374,-193.5 Q322,-222 254,-222 Q216,-222 173.5,-215.5 Q131,-209 86,-197 L116,-43 Q139,-45 151.5,-46 Q164,-47 175,-47 Q217,-47 233,-36.5 Q249,-26 257,2 L264,26 L159,26 Q120,145 83,262.5 Q46,380 7,498 L247,498 L294,296 Q297,281 300,262 Q303,243 306,223.5 Q309,204 312,185.5 Q315,167 318,152 M312,528 L239,615 L429,797 L533,668"/> 
            <glyph glyph-name="þ" unicode="&#xFE;" horiz-adv-x="636" d=" M274,448 Q319,486 358.5,497 Q398,508 424,508 Q488,508 529,487.5 Q570,467 594,432 Q618,397 627,349 Q636,301 636,246 Q636,190 623.5,143 Q611,96 583,62 Q555,28 510.5,9 Q466,-10 403,-10 Q393,-10 378,-9 Q363,-8 346,-5.5 Q329,-3 311.5,1 Q294,5 279,11 Q279,-43 279.5,-100 Q280,-157 280,-210 L37,-210 L37,692 L266,692 L266,452 M339,159 Q346,159 355.5,162 Q365,165 373.5,175 Q382,185 388,204 Q394,223 394,255 Q394,287 388.5,304.5 Q383,322 374.5,330.5 Q366,339 356,340.5 Q346,342 337,342 Q327,342 311,337.5 Q295,333 281,326 L281,172 Q298,164 312,161.5 Q326,159 339,159"/> 
            <glyph glyph-name="ÿ" unicode="&#xFF;" horiz-adv-x="656" d=" M326,151 Q330,166 334,185.5 Q338,205 341.5,225.5 Q345,246 349,265.5 Q353,285 357,301 L404,498 L656,498 L450,-100 Q426,-165 374,-193.5 Q322,-222 254,-222 Q216,-222 173.5,-215.5 Q131,-209 86,-197 L116,-43 Q139,-45 151.5,-46 Q164,-47 175,-47 Q217,-47 233,-36.5 Q249,-26 257,2 L264,26 L159,26 Q120,145 83,262.5 Q46,380 7,498 L247,498 L294,296 Q297,281 300,262 Q303,243 306,223.5 Q309,204 312,185.5 Q315,167 318,152 M311,656 Q311,617 285,590.5 Q259,564 200,564 Q143,564 119.5,590.5 Q96,617 96,656 Q96,698 119.5,723.5 Q143,749 200,749 Q259,749 285,723.5 Q311,698 311,656 M562,656 Q562,617 537.5,590.5 Q513,564 454,564 Q397,564 372,590.5 Q347,617 347,656 Q347,698 372,723.5 Q397,749 454,749 Q513,749 537.5,723.5 Q562,698 562,656"/> 
            <glyph glyph-name="Ā" unicode="&#x100;" horiz-adv-x="800" d=" M510,123 L290,123 L251,0 L5,0 L254,693 L569,693 L800,0 L544,0 M206,885 L606,885 L606,749 L206,749 M401,525 L371,384 L341,281 L464,281 L435,387 L409,525"/> 
            <glyph glyph-name="ā" unicode="&#x101;" horiz-adv-x="644" d=" M360,45 Q338,23 311.5,11 Q285,-1 260,-7 Q235,-13 215.5,-14 Q196,-15 187,-15 Q135,-15 102,0.5 Q69,16 50,38.5 Q31,61 24,87.5 Q17,114 17,136 Q17,153 21.5,175 Q26,197 40.5,218 Q55,239 83,255.5 Q111,272 159,277 L346,297 L346,301 Q346,343 277,343 Q259,343 237,341.5 Q215,340 192,337 Q169,334 148.5,330.5 Q128,327 113,323 L79,467 Q103,477 134.5,485 Q166,493 200.5,498.5 Q235,504 270.5,507 Q306,510 337,510 Q390,510 434.5,500.5 Q479,491 511.5,469.5 Q544,448 562.5,412.5 Q581,377 581,325 L581,155 L635,155 L644,21 Q612,4 565.5,-6 Q519,-16 468,-16 Q431,-16 401.5,-4 Q372,8 364,43 M288,192 Q275,189 270.5,181 Q266,173 266,166 Q266,149 272,138.5 Q278,128 295,128 Q303,128 320,131.5 Q337,135 344,140 L344,201 M110,704 L530,704 L530,568 L110,568"/> 
            <glyph glyph-name="Ă" unicode="&#x102;" horiz-adv-x="800" d=" M510,123 L290,123 L251,0 L5,0 L254,693 L569,693 L800,0 L544,0 M400,731 Q366,731 335,743 Q304,755 276.5,776 Q249,797 225,825.5 Q201,854 181,888 L259,952 Q277,928 297,911 Q317,894 336.5,883.5 Q356,873 373.5,868.5 Q391,864 404,864 Q413,864 427.5,865.5 Q442,867 463,874.5 Q484,882 511,898.5 Q538,915 571,946 L629,887 Q602,842 573,812 Q544,782 514,764 Q484,746 455,738.5 Q426,731 400,731 M401,525 L371,384 L341,281 L464,281 L435,387 L409,525"/> 
            <glyph glyph-name="ă" unicode="&#x103;" horiz-adv-x="644" d=" M360,45 Q338,23 311.5,11 Q285,-1 260,-7 Q235,-13 215.5,-14 Q196,-15 187,-15 Q135,-15 102,0.5 Q69,16 50,38.5 Q31,61 24,87.5 Q17,114 17,136 Q17,153 21.5,175 Q26,197 40.5,218 Q55,239 83,255.5 Q111,272 159,277 L346,297 L346,301 Q346,343 277,343 Q259,343 237,341.5 Q215,340 192,337 Q169,334 148.5,330.5 Q128,327 113,323 L79,467 Q103,477 134.5,485 Q166,493 200.5,498.5 Q235,504 270.5,507 Q306,510 337,510 Q390,510 434.5,500.5 Q479,491 511.5,469.5 Q544,448 562.5,412.5 Q581,377 581,325 L581,155 L635,155 L644,21 Q612,4 565.5,-6 Q519,-16 468,-16 Q431,-16 401.5,-4 Q372,8 364,43 M288,192 Q275,189 270.5,181 Q266,173 266,166 Q266,149 272,138.5 Q278,128 295,128 Q303,128 320,131.5 Q337,135 344,140 L344,201 M320,541 Q286,541 254,554 Q222,567 193.5,589.5 Q165,612 140,642 Q115,672 95,706 L179,769 Q198,743 218.5,726 Q239,709 258,698.5 Q277,688 294,683.5 Q311,679 324,679 Q333,679 346,679 Q359,679 379,686 Q399,693 426,710.5 Q453,728 491,763 L560,700 Q533,655 502,624.5 Q471,594 439,575.5 Q407,557 376.5,549 Q346,541 320,541"/> 
            <glyph glyph-name="Ą" unicode="&#x104;" horiz-adv-x="800" d=" M623,0 Q607,-32 601,-63.5 Q595,-95 595,-118 Q595,-135 604.5,-146 Q614,-157 637,-157 Q659,-157 672.5,-153.5 Q686,-150 708,-144 L728,-213 Q693,-233 656,-242.5 Q619,-252 586,-252 Q523,-252 491.5,-225.5 Q460,-199 460,-153 Q460,-123 476,-80 Q492,-37 541,11 L510,123 L290,123 L251,0 L5,0 L254,693 L569,693 L800,0 M401,525 L371,384 L341,281 L464,281 L435,387 L409,525"/> 
            <glyph glyph-name="ą" unicode="&#x105;" horiz-adv-x="644" d=" M360,45 Q338,23 311.5,11 Q285,-1 260,-7 Q235,-13 215.5,-14 Q196,-15 187,-15 Q135,-15 102,0.5 Q69,16 50,38.5 Q31,61 24,87.5 Q17,114 17,136 Q17,153 21.5,175 Q26,197 40.5,218 Q55,239 83,255.5 Q111,272 159,277 L346,297 L346,301 Q346,343 277,343 Q259,343 237,341.5 Q215,340 192,337 Q169,334 148.5,330.5 Q128,327 113,323 L79,467 Q103,477 134.5,485 Q166,493 200.5,498.5 Q235,504 270.5,507 Q306,510 337,510 Q390,510 434.5,500.5 Q479,491 511.5,469.5 Q544,448 562.5,412.5 Q581,377 581,325 L581,155 L635,155 L644,21 Q596,-4 524,-13 Q514,-39 510.5,-63.5 Q507,-88 507,-106 Q507,-123 516.5,-134 Q526,-145 549,-145 Q571,-145 584.5,-141.5 Q598,-138 620,-132 L640,-201 Q605,-221 568,-230.5 Q531,-240 498,-240 Q435,-240 403.5,-213.5 Q372,-187 372,-141 Q372,-117 382.5,-83 Q393,-49 422,-11 Q400,-6 384.5,6.5 Q369,19 364,43 M288,192 Q275,189 270.5,181 Q266,173 266,166 Q266,149 272,138.5 Q278,128 295,128 Q303,128 320,131.5 Q337,135 344,140 L344,201"/> 
            <glyph glyph-name="Ć" unicode="&#x106;" horiz-adv-x="665" d=" M427,710 Q474,710 524.5,702 Q575,694 626,680 L599,501 Q561,507 526,511 Q491,515 462,515 Q429,515 400,508.5 Q371,502 350,485 Q329,468 317,437 Q305,406 305,358 Q305,299 316.5,264.5 Q328,230 350,212.5 Q372,195 402.5,190 Q433,185 471,185 Q481,185 500.5,186.5 Q520,188 542.5,190.5 Q565,193 588,196.5 Q611,200 629,204 L665,31 Q608,10 540,-1 Q472,-12 411,-12 Q296,-12 223.5,18 Q151,48 110,97.5 Q69,147 54,211 Q39,275 39,342 Q39,412 56.5,478 Q74,544 118,595.5 Q162,647 237,678.5 Q312,710 427,710 M374,747 L309,825 L498,1008 L599,888"/> 
            <glyph glyph-name="ć" unicode="&#x107;" horiz-adv-x="501" d=" M307,510 Q336,510 383.5,505 Q431,500 479,487 L448,320 Q421,324 396.5,325.5 Q372,327 355,327 Q311,327 292,307.5 Q273,288 271,247 Q271,203 288,188.5 Q305,174 349,174 Q378,174 409.5,179 Q441,184 467,189 L501,28 Q454,7 398,-3 Q342,-13 288,-13 Q204,-13 152.5,8 Q101,29 72.5,64 Q44,99 34.5,144 Q25,189 25,236 Q25,288 36.5,337.5 Q48,387 79.5,425 Q111,463 166,486.5 Q221,510 307,510 M224,528 L151,615 L341,797 L445,668"/> 
            <glyph glyph-name="Ĉ" unicode="&#x108;" horiz-adv-x="665" d=" M427,710 Q474,710 524.5,702 Q575,694 626,680 L599,501 Q561,507 526,511 Q491,515 462,515 Q429,515 400,508.5 Q371,502 350,485 Q329,468 317,437 Q305,406 305,358 Q305,299 316.5,264.5 Q328,230 350,212.5 Q372,195 402.5,190 Q433,185 471,185 Q481,185 500.5,186.5 Q520,188 542.5,190.5 Q565,193 588,196.5 Q611,200 629,204 L665,31 Q608,10 540,-1 Q472,-12 411,-12 Q296,-12 223.5,18 Q151,48 110,97.5 Q69,147 54,211 Q39,275 39,342 Q39,412 56.5,478 Q74,544 118,595.5 Q162,647 237,678.5 Q312,710 427,710 M581,747 L400,842 L222,749 L171,809 L330,971 L472,971 L635,809"/> 
            <glyph glyph-name="ĉ" unicode="&#x109;" horiz-adv-x="532" d=" M307,510 Q336,510 383.5,505 Q431,500 479,487 L448,320 Q421,324 396.5,325.5 Q372,327 355,327 Q311,327 292,307.5 Q273,288 271,247 Q271,203 288,188.5 Q305,174 349,174 Q378,174 409.5,179 Q441,184 467,189 L501,28 Q454,7 398,-3 Q342,-13 288,-13 Q204,-13 152.5,8 Q101,29 72.5,64 Q44,99 34.5,144 Q25,189 25,236 Q25,288 36.5,337.5 Q48,387 79.5,425 Q111,463 166,486.5 Q221,510 307,510 M478,526 L297,624 L116,528 L68,588 L227,760 L369,760 L532,588"/> 
            <glyph glyph-name="Ċ" unicode="&#x10A;" horiz-adv-x="665" d=" M427,710 Q474,710 524.5,702 Q575,694 626,680 L599,501 Q561,507 526,511 Q491,515 462,515 Q429,515 400,508.5 Q371,502 350,485 Q329,468 317,437 Q305,406 305,358 Q305,299 316.5,264.5 Q328,230 350,212.5 Q372,195 402.5,190 Q433,185 471,185 Q481,185 500.5,186.5 Q520,188 542.5,190.5 Q565,193 588,196.5 Q611,200 629,204 L665,31 Q608,10 540,-1 Q472,-12 411,-12 Q296,-12 223.5,18 Q151,48 110,97.5 Q69,147 54,211 Q39,275 39,342 Q39,412 56.5,478 Q74,544 118,595.5 Q162,647 237,678.5 Q312,710 427,710 M497,855 Q497,808 467,776.5 Q437,745 369,745 Q302,745 274,776.5 Q246,808 246,855 Q246,906 274,936 Q302,966 369,966 Q438,966 467.5,936 Q497,906 497,855"/> 
            <glyph glyph-name="ċ" unicode="&#x10B;" horiz-adv-x="501" d=" M307,510 Q336,510 383.5,505 Q431,500 479,487 L448,320 Q421,324 396.5,325.5 Q372,327 355,327 Q311,327 292,307.5 Q273,288 271,247 Q271,203 288,188.5 Q305,174 349,174 Q378,174 409.5,179 Q441,184 467,189 L501,28 Q454,7 398,-3 Q342,-13 288,-13 Q204,-13 152.5,8 Q101,29 72.5,64 Q44,99 34.5,144 Q25,189 25,236 Q25,288 36.5,337.5 Q48,387 79.5,425 Q111,463 166,486.5 Q221,510 307,510 M382,676 Q382,630 355,600 Q328,570 267,570 Q207,570 182,600 Q157,630 157,676 Q157,724 182,753.5 Q207,783 267,783 Q328,783 355,753.5 Q382,724 382,676"/> 
            <glyph glyph-name="Č" unicode="&#x10C;" horiz-adv-x="665" d=" M427,710 Q474,710 524.5,702 Q575,694 626,680 L599,501 Q561,507 526,511 Q491,515 462,515 Q429,515 400,508.5 Q371,502 350,485 Q329,468 317,437 Q305,406 305,358 Q305,299 316.5,264.5 Q328,230 350,212.5 Q372,195 402.5,190 Q433,185 471,185 Q481,185 500.5,186.5 Q520,188 542.5,190.5 Q565,193 588,196.5 Q611,200 629,204 L665,31 Q608,10 540,-1 Q472,-12 411,-12 Q296,-12 223.5,18 Q151,48 110,97.5 Q69,147 54,211 Q39,275 39,342 Q39,412 56.5,478 Q74,544 118,595.5 Q162,647 237,678.5 Q312,710 427,710 M597,911 L434,749 L292,749 L133,911 L184,971 L362,876 L543,973"/> 
            <glyph glyph-name="č" unicode="&#x10D;" horiz-adv-x="512" d=" M307,510 Q336,510 383.5,505 Q431,500 479,487 L448,320 Q421,324 396.5,325.5 Q372,327 355,327 Q311,327 292,307.5 Q273,288 271,247 Q271,203 288,188.5 Q305,174 349,174 Q378,174 409.5,179 Q441,184 467,189 L501,28 Q454,7 398,-3 Q342,-13 288,-13 Q204,-13 152.5,8 Q101,29 72.5,64 Q44,99 34.5,144 Q25,189 25,236 Q25,288 36.5,337.5 Q48,387 79.5,425 Q111,463 166,486.5 Q221,510 307,510 M512,714 L349,542 L207,542 L48,714 L96,774 L277,678 L458,776"/> 
            <glyph glyph-name="Ď" unicode="&#x10E;" horiz-adv-x="725" d=" M60,0 L60,693 L377,693 Q481,693 548.5,665.5 Q616,638 655,591 Q694,544 709.5,481 Q725,418 725,348 Q725,280 707,217 Q689,154 648,106 Q607,58 540.5,29 Q474,0 377,0 M312,525 L312,170 L359,170 Q391,170 411.5,184.5 Q432,199 443.5,223.5 Q455,248 459.5,280 Q464,312 464,347 Q464,383 459,415.5 Q454,448 441.5,472 Q429,496 407,510.5 Q385,525 351,525 M578,911 L415,749 L273,749 L114,911 L165,971 L343,876 L524,973"/> 
            <glyph glyph-name="ď" unicode="&#x10F;" horiz-adv-x="885" d=" M682,671 Q682,706 709.5,731 Q737,756 784,756 Q812,756 831,746.5 Q850,737 862,722 Q874,707 879.5,688 Q885,669 885,650 Q885,618 871.5,587.5 Q858,557 836.5,530 Q815,503 788,481.5 Q761,460 733,447 L682,510 Q709,530 725.5,549 Q742,568 746,596 Q712,601 697,620.5 Q682,640 682,671 M324,343 Q317,343 307.5,341.5 Q298,340 289.5,330 Q281,320 275,299.5 Q269,279 269,242 Q269,210 274.5,192.5 Q280,175 288.5,166.5 Q297,158 307,156.5 Q317,155 326,155 Q336,155 351.5,159.5 Q367,164 381,171 L381,329 Q364,337 348,340 Q332,343 324,343 M393,44 Q370,26 347,15.5 Q324,5 303.5,-1 Q283,-7 266.5,-9 Q250,-11 241,-11 Q176,-11 134.5,9 Q93,29 69,63.5 Q45,98 36,142.5 Q27,187 27,237 Q27,296 39,346.5 Q51,397 78.5,433.5 Q106,470 150.5,491 Q195,512 260,512 Q269,512 284,511 Q299,510 317,507.5 Q335,505 353.5,501 Q372,497 387,490 Q387,503 387,518 Q387,533 387,558 Q387,583 387,622.5 Q387,662 387,724 L626,724 Q626,631 625.5,541.5 Q625,452 625,363 Q625,274 625,184 Q625,94 626,0 L406,0 L400,41"/> 
            <glyph glyph-name="đ" unicode="&#x111;" horiz-adv-x="678" d=" M678,610 L678,541 L626,541 L626,0 L406,0 L400,41 L393,44 Q370,26 347,15.5 Q324,5 303.5,-1 Q283,-7 266.5,-9 Q250,-11 241,-11 Q176,-11 134.5,8.5 Q93,28 69,61 Q45,94 36,136.5 Q27,179 27,226 Q27,283 39,331.5 Q51,380 78.5,415.5 Q106,451 150.5,471 Q195,491 260,491 Q278,491 310.5,487 Q343,483 374,469 L382,477 Q381,485 381,503 Q381,521 381,541 L285,541 L285,610 L381,610 Q381,634 381.5,660.5 Q382,687 382,724 L626,724 L626,610 M324,320 Q317,320 307.5,316 Q298,312 289.5,302 Q281,292 275,274.5 Q269,257 269,231 Q269,207 274.5,192.5 Q280,178 288.5,169.5 Q297,161 307,158.5 Q317,156 326,156 Q336,156 351,158.5 Q366,161 381,171 L381,308 Q361,318 346.5,319 Q332,320 324,320"/> 
            <glyph glyph-name="Ē" unicode="&#x112;" horiz-adv-x="637" d=" M59,0 L59,693 L625,693 L625,525 L312,525 L312,437 L574,437 L574,277 L312,277 L312,170 L637,170 L637,0 M147,885 L547,885 L547,749 L147,749"/> 
            <glyph glyph-name="ē" unicode="&#x113;" horiz-adv-x="581" d=" M308,511 Q397,511 451,490.5 Q505,470 534,435.5 Q563,401 572,355.5 Q581,310 581,260 L581,224 L269,224 Q271,186 298.5,175.5 Q326,165 368,165 Q384,165 404.5,167 Q425,169 446.5,173 Q468,177 489,181 Q510,185 527,190 L571,42 Q542,27 509,16.5 Q476,6 443,-0.5 Q410,-7 378.5,-9.5 Q347,-12 320,-12 Q231,-12 174.5,10 Q118,32 85,68 Q52,104 39.5,150.5 Q27,197 27,247 Q27,301 41.5,349 Q56,397 89,433 Q122,469 176,490 Q230,511 308,511 M321,370 Q293,370 283.5,353 Q274,336 272,316 L364,316 Q363,339 355.5,354.5 Q348,370 321,370 M111,704 L531,704 L531,568 L111,568"/> 
            <glyph glyph-name="Ĕ" unicode="&#x114;" horiz-adv-x="637" d=" M59,0 L59,693 L625,693 L625,525 L312,525 L312,437 L574,437 L574,277 L312,277 L312,170 L637,170 L637,0 M346,727 Q312,727 281,739 Q250,751 222.5,772 Q195,793 171,821.5 Q147,850 127,884 L205,948 Q223,924 243,907 Q263,890 282.5,879.5 Q302,869 319.5,864.5 Q337,860 350,860 Q359,860 373.5,861.5 Q388,863 409,870.5 Q430,878 457,894.5 Q484,911 517,942 L575,883 Q548,838 519,808 Q490,778 460,760 Q430,742 401,734.5 Q372,727 346,727"/> 
            <glyph glyph-name="ĕ" unicode="&#x115;" horiz-adv-x="581" d=" M308,511 Q397,511 451,490.5 Q505,470 534,435.5 Q563,401 572,355.5 Q581,310 581,260 L581,224 L269,224 Q271,186 298.5,175.5 Q326,165 368,165 Q384,165 404.5,167 Q425,169 446.5,173 Q468,177 489,181 Q510,185 527,190 L571,42 Q542,27 509,16.5 Q476,6 443,-0.5 Q410,-7 378.5,-9.5 Q347,-12 320,-12 Q231,-12 174.5,10 Q118,32 85,68 Q52,104 39.5,150.5 Q27,197 27,247 Q27,301 41.5,349 Q56,397 89,433 Q122,469 176,490 Q230,511 308,511 M321,370 Q293,370 283.5,353 Q274,336 272,316 L364,316 Q363,339 355.5,354.5 Q348,370 321,370 M310,541 Q276,541 244,554 Q212,567 183.5,589.5 Q155,612 130,642 Q105,672 85,706 L169,769 Q188,743 208.5,726 Q229,709 248,698.5 Q267,688 284,683.5 Q301,679 314,679 Q323,679 336,679 Q349,679 369,686 Q389,693 416,710.5 Q443,728 481,763 L550,700 Q523,655 492,624.5 Q461,594 429,575.5 Q397,557 366.5,549 Q336,541 310,541"/> 
            <glyph glyph-name="Ė" unicode="&#x116;" horiz-adv-x="637" d=" M59,0 L59,693 L625,693 L625,525 L312,525 L312,437 L574,437 L574,277 L312,277 L312,170 L637,170 L637,0 M489,851 Q489,804 459,772.5 Q429,741 361,741 Q294,741 266,772.5 Q238,804 238,851 Q238,902 266,932 Q294,962 361,962 Q430,962 459.5,932 Q489,902 489,851"/> 
            <glyph glyph-name="ė" unicode="&#x117;" horiz-adv-x="581" d=" M308,511 Q397,511 451,490.5 Q505,470 534,435.5 Q563,401 572,355.5 Q581,310 581,260 L581,224 L269,224 Q271,186 298.5,175.5 Q326,165 368,165 Q384,165 404.5,167 Q425,169 446.5,173 Q468,177 489,181 Q510,185 527,190 L571,42 Q542,27 509,16.5 Q476,6 443,-0.5 Q410,-7 378.5,-9.5 Q347,-12 320,-12 Q231,-12 174.5,10 Q118,32 85,68 Q52,104 39.5,150.5 Q27,197 27,247 Q27,301 41.5,349 Q56,397 89,433 Q122,469 176,490 Q230,511 308,511 M321,370 Q293,370 283.5,353 Q274,336 272,316 L364,316 Q363,339 355.5,354.5 Q348,370 321,370 M438,677 Q438,630 408,598.5 Q378,567 310,567 Q243,567 215,598.5 Q187,630 187,677 Q187,728 215,758 Q243,788 310,788 Q379,788 408.5,758 Q438,728 438,677"/> 
            <glyph glyph-name="Ę" unicode="&#x118;" horiz-adv-x="699" d=" M591,0 Q577,-30 571.5,-60 Q566,-90 566,-111 Q566,-128 575.5,-139 Q585,-150 608,-150 Q630,-150 643.5,-146.5 Q657,-143 679,-137 L699,-206 Q664,-226 627,-235.5 Q590,-245 557,-245 Q494,-245 462.5,-218.5 Q431,-192 431,-146 Q431,-119 444,-80.5 Q457,-42 495,0 L59,0 L59,693 L625,693 L625,525 L312,525 L312,437 L574,437 L574,277 L312,277 L312,170 L637,170 L637,0"/> 
            <glyph glyph-name="ę" unicode="&#x119;" horiz-adv-x="604" d=" M308,511 Q397,511 451,490.5 Q505,470 534,435.5 Q563,401 572,355.5 Q581,310 581,260 L581,224 L269,224 Q271,186 298.5,175.5 Q326,165 368,165 Q384,165 404.5,167 Q425,169 446.5,173 Q468,177 489,181 Q510,185 527,190 L571,42 Q551,31 530,23 Q509,15 487,9 Q478,-16 474.5,-39.5 Q471,-63 471,-80 Q471,-97 480.5,-108 Q490,-119 513,-119 Q535,-119 548.5,-115.5 Q562,-112 584,-106 L604,-175 Q569,-195 532,-204.5 Q495,-214 462,-214 Q399,-214 367.5,-187.5 Q336,-161 336,-115 Q336,-95 343,-68 Q350,-41 369,-10 Q356,-12 343.5,-12 Q331,-12 320,-12 Q231,-12 174.5,10 Q118,32 85,68 Q52,104 39.5,150.5 Q27,197 27,247 Q27,301 41.5,349 Q56,397 89,433 Q122,469 176,490 Q230,511 308,511 M321,370 Q293,370 283.5,353 Q274,336 272,316 L364,316 Q363,339 355.5,354.5 Q348,370 321,370"/> 
            <glyph glyph-name="Ě" unicode="&#x11A;" horiz-adv-x="637" d=" M59,0 L59,693 L625,693 L625,525 L312,525 L312,437 L574,437 L574,277 L312,277 L312,170 L637,170 L637,0 M579,895 L416,733 L274,733 L115,895 L166,955 L344,860 L525,957"/> 
            <glyph glyph-name="ě" unicode="&#x11B;" horiz-adv-x="581" d=" M308,511 Q397,511 451,490.5 Q505,470 534,435.5 Q563,401 572,355.5 Q581,310 581,260 L581,224 L269,224 Q271,186 298.5,175.5 Q326,165 368,165 Q384,165 404.5,167 Q425,169 446.5,173 Q468,177 489,181 Q510,185 527,190 L571,42 Q542,27 509,16.5 Q476,6 443,-0.5 Q410,-7 378.5,-9.5 Q347,-12 320,-12 Q231,-12 174.5,10 Q118,32 85,68 Q52,104 39.5,150.5 Q27,197 27,247 Q27,301 41.5,349 Q56,397 89,433 Q122,469 176,490 Q230,511 308,511 M321,370 Q293,370 283.5,353 Q274,336 272,316 L364,316 Q363,339 355.5,354.5 Q348,370 321,370 M538,714 L375,542 L233,542 L74,714 L122,774 L303,678 L484,776"/> 
            <glyph glyph-name="Ĝ" unicode="&#x11C;" horiz-adv-x="689" d=" M437,710 Q484,710 541,702 Q598,694 649,680 L623,506 Q585,512 543,516 Q501,520 472,520 Q432,520 401,511.5 Q370,503 348.5,482 Q327,461 316,424.5 Q305,388 305,333 Q305,288 313.5,259 Q322,230 337,212.5 Q352,195 373.5,188 Q395,181 421,181 Q430,181 440,182 Q450,183 463,185 L463,382 L689,382 L689,34 Q619,9 545,-1.5 Q471,-12 411,-12 Q296,-12 223.5,20 Q151,52 110,103 Q69,154 54,218 Q39,282 39,347 Q39,417 56.5,482.5 Q74,548 118.5,598.5 Q163,649 240,679.5 Q317,710 437,710 M575,739 L394,834 L216,741 L165,801 L324,963 L466,963 L629,801"/> 
            <glyph glyph-name="ĝ" unicode="&#x11D;" horiz-adv-x="652" d=" M107,188 Q80,206 64.5,239 Q49,272 49,314 Q49,365 71.5,402 Q94,439 132,462.5 Q170,486 220,497.5 Q270,509 325,509 Q362,509 394.5,505.5 Q427,502 445,497 L652,497 L652,393 L591,393 L587,387 Q596,371 598,351.5 Q600,332 600,321 Q600,274 578.5,240.5 Q557,207 521,185 Q485,163 437.5,152.5 Q390,142 339,141 L278,140 Q262,140 254.5,133.5 Q247,127 247,119 Q247,115 250.5,112 Q254,109 265,109 L436,109 Q484,109 523.5,102.5 Q563,96 591,79.5 Q619,63 634,36 Q649,9 649,-32 Q649,-62 635,-95 Q621,-128 581.5,-155.5 Q542,-183 472,-201 Q402,-219 290,-219 Q199,-219 146.5,-206.5 Q94,-194 67,-174.5 Q40,-155 33,-131.5 Q26,-108 26,-86 Q26,-57 39,-32.5 Q52,-8 83,10 Q61,21 50.5,41 Q40,61 40,85 Q40,111 55,137.5 Q70,164 105,182 M276,-18 Q265,-26 261.5,-31.5 Q258,-37 258,-41 Q258,-52 269,-60.5 Q280,-69 322,-69 Q368,-69 385,-61.5 Q402,-54 402,-39 Q402,-18 379,-18 M366,323 Q366,348 354.5,358.5 Q343,369 323,369 Q310,369 302.5,364 Q295,359 290.5,352 Q286,345 284.5,336.5 Q283,328 283,321 Q283,299 292,289 Q301,279 325,279 Q342,279 354,288 Q366,297 366,323 M502,526 L321,624 L140,528 L92,588 L251,760 L393,760 L556,588"/> 
            <glyph glyph-name="Ğ" unicode="&#x11E;" horiz-adv-x="689" d=" M437,710 Q484,710 541,702 Q598,694 649,680 L623,506 Q585,512 543,516 Q501,520 472,520 Q432,520 401,511.5 Q370,503 348.5,482 Q327,461 316,424.5 Q305,388 305,333 Q305,288 313.5,259 Q322,230 337,212.5 Q352,195 373.5,188 Q395,181 421,181 Q430,181 440,182 Q450,183 463,185 L463,382 L689,382 L689,34 Q619,9 545,-1.5 Q471,-12 411,-12 Q296,-12 223.5,20 Q151,52 110,103 Q69,154 54,218 Q39,282 39,347 Q39,417 56.5,482.5 Q74,548 118.5,598.5 Q163,649 240,679.5 Q317,710 437,710 M381,740 Q347,740 316,752 Q285,764 257.5,785 Q230,806 206,834.5 Q182,863 162,897 L240,961 Q258,937 278,920 Q298,903 317.5,892.5 Q337,882 354.5,877.5 Q372,873 385,873 Q394,873 408.5,874.5 Q423,876 444,883.5 Q465,891 492,907.5 Q519,924 552,955 L610,896 Q583,851 554,821 Q525,791 495,773 Q465,755 436,747.5 Q407,740 381,740"/> 
            <glyph glyph-name="ğ" unicode="&#x11F;" horiz-adv-x="652" d=" M107,188 Q80,206 64.5,239 Q49,272 49,314 Q49,365 71.5,402 Q94,439 132,462.5 Q170,486 220,497.5 Q270,509 325,509 Q362,509 394.5,505.5 Q427,502 445,497 L652,497 L652,393 L591,393 L587,387 Q596,371 598,351.5 Q600,332 600,321 Q600,274 578.5,240.5 Q557,207 521,185 Q485,163 437.5,152.5 Q390,142 339,141 L278,140 Q262,140 254.5,133.5 Q247,127 247,119 Q247,115 250.5,112 Q254,109 265,109 L436,109 Q484,109 523.5,102.5 Q563,96 591,79.5 Q619,63 634,36 Q649,9 649,-32 Q649,-62 635,-95 Q621,-128 581.5,-155.5 Q542,-183 472,-201 Q402,-219 290,-219 Q199,-219 146.5,-206.5 Q94,-194 67,-174.5 Q40,-155 33,-131.5 Q26,-108 26,-86 Q26,-57 39,-32.5 Q52,-8 83,10 Q61,21 50.5,41 Q40,61 40,85 Q40,111 55,137.5 Q70,164 105,182 M276,-18 Q265,-26 261.5,-31.5 Q258,-37 258,-41 Q258,-52 269,-60.5 Q280,-69 322,-69 Q368,-69 385,-61.5 Q402,-54 402,-39 Q402,-18 379,-18 M366,323 Q366,348 354.5,358.5 Q343,369 323,369 Q310,369 302.5,364 Q295,359 290.5,352 Q286,345 284.5,336.5 Q283,328 283,321 Q283,299 292,289 Q301,279 325,279 Q342,279 354,288 Q366,297 366,323 M313,541 Q279,541 247,554 Q215,567 186.5,589.5 Q158,612 133,642 Q108,672 88,706 L172,769 Q191,743 211.5,726 Q232,709 251,698.5 Q270,688 287,683.5 Q304,679 317,679 Q326,679 339,679 Q352,679 372,686 Q392,693 419,710.5 Q446,728 484,763 L553,700 Q526,655 495,624.5 Q464,594 432,575.5 Q400,557 369.5,549 Q339,541 313,541"/> 
            <glyph glyph-name="Ġ" unicode="&#x120;" horiz-adv-x="689" d=" M437,710 Q484,710 541,702 Q598,694 649,680 L623,506 Q585,512 543,516 Q501,520 472,520 Q432,520 401,511.5 Q370,503 348.5,482 Q327,461 316,424.5 Q305,388 305,333 Q305,288 313.5,259 Q322,230 337,212.5 Q352,195 373.5,188 Q395,181 421,181 Q430,181 440,182 Q450,183 463,185 L463,382 L689,382 L689,34 Q619,9 545,-1.5 Q471,-12 411,-12 Q296,-12 223.5,20 Q151,52 110,103 Q69,154 54,218 Q39,282 39,347 Q39,417 56.5,482.5 Q74,548 118.5,598.5 Q163,649 240,679.5 Q317,710 437,710 M514,863 Q514,816 484,784.5 Q454,753 386,753 Q319,753 291,784.5 Q263,816 263,863 Q263,914 291,944 Q319,974 386,974 Q455,974 484.5,944 Q514,914 514,863"/> 
            <glyph glyph-name="ġ" unicode="&#x121;" horiz-adv-x="652" d=" M107,188 Q80,206 64.5,239 Q49,272 49,314 Q49,365 71.5,402 Q94,439 132,462.5 Q170,486 220,497.5 Q270,509 325,509 Q362,509 394.5,505.5 Q427,502 445,497 L652,497 L652,393 L591,393 L587,387 Q596,371 598,351.5 Q600,332 600,321 Q600,274 578.5,240.5 Q557,207 521,185 Q485,163 437.5,152.5 Q390,142 339,141 L278,140 Q262,140 254.5,133.5 Q247,127 247,119 Q247,115 250.5,112 Q254,109 265,109 L436,109 Q484,109 523.5,102.5 Q563,96 591,79.5 Q619,63 634,36 Q649,9 649,-32 Q649,-62 635,-95 Q621,-128 581.5,-155.5 Q542,-183 472,-201 Q402,-219 290,-219 Q199,-219 146.5,-206.5 Q94,-194 67,-174.5 Q40,-155 33,-131.5 Q26,-108 26,-86 Q26,-57 39,-32.5 Q52,-8 83,10 Q61,21 50.5,41 Q40,61 40,85 Q40,111 55,137.5 Q70,164 105,182 M276,-18 Q265,-26 261.5,-31.5 Q258,-37 258,-41 Q258,-52 269,-60.5 Q280,-69 322,-69 Q368,-69 385,-61.5 Q402,-54 402,-39 Q402,-18 379,-18 M366,323 Q366,348 354.5,358.5 Q343,369 323,369 Q310,369 302.5,364 Q295,359 290.5,352 Q286,345 284.5,336.5 Q283,328 283,321 Q283,299 292,289 Q301,279 325,279 Q342,279 354,288 Q366,297 366,323 M445,677 Q445,630 415,598.5 Q385,567 317,567 Q250,567 222,598.5 Q194,630 194,677 Q194,728 222,758 Q250,788 317,788 Q386,788 415.5,758 Q445,728 445,677"/> 
            <glyph glyph-name="Ģ" unicode="&#x122;" horiz-adv-x="689" d=" M437,710 Q484,710 541,702 Q598,694 649,680 L623,506 Q585,512 543,516 Q501,520 472,520 Q432,520 401,511.5 Q370,503 348.5,482 Q327,461 316,424.5 Q305,388 305,333 Q305,288 313.5,259 Q322,230 337,212.5 Q352,195 373.5,188 Q395,181 421,181 Q430,181 440,182 Q450,183 463,185 L463,382 L689,382 L689,34 Q619,9 545,-1.5 Q471,-12 411,-12 Q296,-12 223.5,20 Q151,52 110,103 Q69,154 54,218 Q39,282 39,347 Q39,417 56.5,482.5 Q74,548 118.5,598.5 Q163,649 240,679.5 Q317,710 437,710 M328,-127 Q328,-92 355.5,-67 Q383,-42 430,-42 Q458,-42 477,-51.5 Q496,-61 508,-76 Q520,-91 525.5,-110 Q531,-129 531,-148 Q531,-180 517.5,-210.5 Q504,-241 482.5,-268 Q461,-295 434,-316.5 Q407,-338 379,-351 L328,-288 Q355,-268 371.5,-249 Q388,-230 392,-202 Q358,-197 343,-177.5 Q328,-158 328,-127"/> 
            <glyph glyph-name="ģ" unicode="&#x123;" horiz-adv-x="652" d=" M446,639 Q446,601 416,573.5 Q386,546 335,546 Q305,546 284,556 Q263,566 250,582.5 Q237,599 231,619.5 Q225,640 225,661 Q225,695 239.5,729 Q254,763 277.5,792 Q301,821 331,844.5 Q361,868 391,882 L446,814 Q417,792 399,771.5 Q381,751 376,720 Q413,715 429.5,693.5 Q446,672 446,639 M107,188 Q80,206 64.5,239 Q49,272 49,314 Q49,365 71.5,402 Q94,439 132,462.5 Q170,486 220,497.5 Q270,509 325,509 Q362,509 394.5,505.5 Q427,502 445,497 L652,497 L652,393 L591,393 L587,387 Q596,371 598,351.5 Q600,332 600,321 Q600,274 578.5,240.5 Q557,207 521,185 Q485,163 437.5,152.5 Q390,142 339,141 L278,140 Q262,140 254.5,133.5 Q247,127 247,119 Q247,115 250.5,112 Q254,109 265,109 L436,109 Q484,109 523.5,102.5 Q563,96 591,79.5 Q619,63 634,36 Q649,9 649,-32 Q649,-62 635,-95 Q621,-128 581.5,-155.5 Q542,-183 472,-201 Q402,-219 290,-219 Q199,-219 146.5,-206.5 Q94,-194 67,-174.5 Q40,-155 33,-131.5 Q26,-108 26,-86 Q26,-57 39,-32.5 Q52,-8 83,10 Q61,21 50.5,41 Q40,61 40,85 Q40,111 55,137.5 Q70,164 105,182 M276,-18 Q265,-26 261.5,-31.5 Q258,-37 258,-41 Q258,-52 269,-60.5 Q280,-69 322,-69 Q368,-69 385,-61.5 Q402,-54 402,-39 Q402,-18 379,-18 M366,323 Q366,348 354.5,358.5 Q343,369 323,369 Q310,369 302.5,364 Q295,359 290.5,352 Q286,345 284.5,336.5 Q283,328 283,321 Q283,299 292,289 Q301,279 325,279 Q342,279 354,288 Q366,297 366,323"/> 
            <glyph glyph-name="Ĥ" unicode="&#x124;" horiz-adv-x="743" d=" M491,0 L491,274 L311,274 L311,0 L60,0 L60,693 L311,693 L311,443 L491,443 L491,693 L743,693 L743,0 M578,728 L397,823 L219,730 L168,790 L327,952 L469,952 L632,790"/> 
            <glyph glyph-name="ĥ" unicode="&#x125;" horiz-adv-x="623" d=" M280,451 Q298,465 319.5,476.5 Q341,488 363.5,495.5 Q386,503 407,507 Q428,511 446,511 Q545,511 584,463.5 Q623,416 623,323 L623,0 L378,0 L378,275 Q378,304 369,315.5 Q360,327 334,327 Q325,327 311,323 Q297,319 283,309 L283,0 L37,0 Q38,182 36.5,362 Q35,542 37,724 L277,724 L277,562 L272,456 M336,741 L155,836 L-23,743 L-74,803 L85,965 L227,965 L390,803"/> 
            <glyph glyph-name="Ħ" unicode="&#x126;" horiz-adv-x="798" d=" M491,0 L491,274 L311,274 L311,0 L60,0 L60,517 L2,517 L2,591 L60,591 L60,693 L311,693 L311,591 L491,591 L491,693 L743,693 L743,591 L798,591 L798,517 L743,517 L743,0 M491,443 L491,517 L311,517 L311,443"/> 
            <glyph glyph-name="ħ" unicode="&#x127;" horiz-adv-x="640" d=" M6,549 L5,549 L5,623 L54,623 L54,724 L294,724 L294,623 L471,623 L470,541 L293,541 L289,426 L297,421 Q315,435 336.5,446.5 Q358,458 380.5,465.5 Q403,473 424,477 Q445,481 463,481 Q562,481 601,433.5 Q640,386 640,293 L640,0 L395,0 L395,245 Q395,274 386,285.5 Q377,297 351,297 Q342,297 328,293 Q314,289 300,279 L300,0 L54,0 L54,541 L6,541"/> 
            <glyph glyph-name="Ĩ" unicode="&#x128;" horiz-adv-x="422" d=" M65,0 L65,693 L315,693 L315,0 M296,748 Q266,748 235,754 Q204,760 174.5,767 Q145,774 119.5,780 Q94,786 76,786 L22,747 L-40,795 Q-15,865 17.5,890 Q50,915 89,915 Q116,915 144,909.5 Q172,904 200,897 Q228,890 255,884.5 Q282,879 307,879 L362,920 L422,872 Q401,808 371,778 Q341,748 296,748"/> 
            <glyph glyph-name="ĩ" unicode="&#x129;" horiz-adv-x="452" d=" M95,0 L95,495 L339,495 L339,0 M326,570 Q296,570 265,576 Q234,582 204.5,589 Q175,596 149.5,602 Q124,608 106,608 L52,569 L-10,617 Q15,687 47.5,712 Q80,737 119,737 Q146,737 174,731.5 Q202,726 230,719 Q258,712 285,706.5 Q312,701 337,701 L392,742 L452,694 Q431,630 401,600 Q371,570 326,570"/> 
            <glyph glyph-name="Ī" unicode="&#x12A;" horiz-adv-x="392" d=" M65,0 L65,693 L315,693 L315,0 M-8,885 L392,885 L392,749 L-8,749"/> 
            <glyph glyph-name="ī" unicode="&#x12B;" horiz-adv-x="398" d=" M64,0 L64,495 L308,495 L308,0 M-22,704 L398,704 L398,568 L-22,568"/> 
            <glyph glyph-name="Ĭ" unicode="&#x12C;" horiz-adv-x="422" d=" M193,728 Q159,728 128,740 Q97,752 69.5,773 Q42,794 18,822.5 Q-6,851 -26,885 L52,949 Q70,925 90,908 Q110,891 129.5,880.5 Q149,870 166.5,865.5 Q184,861 197,861 Q206,861 220.5,862.5 Q235,864 256,871.5 Q277,879 304,895.5 Q331,912 364,943 L422,884 Q395,839 366,809 Q337,779 307,761 Q277,743 248,735.5 Q219,728 193,728 M65,0 L65,693 L315,693 L315,0"/> 
            <glyph glyph-name="ĭ" unicode="&#x12D;" horiz-adv-x="450" d=" M86,0 L86,495 L330,495 L330,0 M210,541 Q176,541 144,554 Q112,567 83.5,589.5 Q55,612 30,642 Q5,672 -15,706 L69,769 Q88,743 108.5,726 Q129,709 148,698.5 Q167,688 184,683.5 Q201,679 214,679 Q223,679 236,679 Q249,679 269,686 Q289,693 316,710.5 Q343,728 381,763 L450,700 Q423,655 392,624.5 Q361,594 329,575.5 Q297,557 266.5,549 Q236,541 210,541"/> 
            <glyph glyph-name="Į" unicode="&#x12E;" horiz-adv-x="355" d=" M246,0 Q232,-30 227,-59 Q222,-88 222,-109 Q222,-126 231.5,-137 Q241,-148 264,-148 Q286,-148 299.5,-144.5 Q313,-141 335,-135 L355,-204 Q320,-224 283,-233.5 Q246,-243 213,-243 Q150,-243 118.5,-216.5 Q87,-190 87,-144 Q87,-118 99.5,-80 Q112,-42 149,0 L65,0 L65,693 L315,693 L315,0"/> 
            <glyph glyph-name="į" unicode="&#x12F;" horiz-adv-x="344" d=" M231,0 Q220,-28 215.5,-54 Q211,-80 211,-100 Q211,-117 220.5,-128 Q230,-139 253,-139 Q275,-139 288.5,-135.5 Q302,-132 324,-126 L344,-195 Q309,-215 272,-224.5 Q235,-234 202,-234 Q139,-234 107.5,-207.5 Q76,-181 76,-135 Q76,-110 87,-74.5 Q98,-39 130,0 L64,0 Q65,125 64,249 Q63,373 64,498 L308,498 Q307,373 308,249 Q309,125 308,0 M318,645 Q318,596 287,564 Q256,532 185,532 Q150,532 125,540.5 Q100,549 84.5,564 Q69,579 62,600 Q55,621 55,645 Q55,696 85,727.5 Q115,759 185,759 Q257,759 287.5,727.5 Q318,696 318,645"/> 
            <glyph glyph-name="İ" unicode="&#x130;" horiz-adv-x="315" d=" M65,0 L65,693 L315,693 L315,0 M315,869 Q315,822 285,790.5 Q255,759 187,759 Q120,759 92,790.5 Q64,822 64,869 Q64,920 92,950 Q120,980 187,980 Q256,980 285.5,950 Q315,920 315,869"/> 
            <glyph glyph-name="ı" unicode="&#x131;" horiz-adv-x="308" d=" M64,0 L64,495 L308,495 L308,0"/> 
            <glyph glyph-name="Ĳ" unicode="&#x132;" horiz-adv-x="754" d=" M65,0 L65,693 L315,693 L315,0 M504,694 L754,694 L754,184 Q754,18 657.5,-83.5 Q561,-185 369,-211 L315,-44 Q376,-14 413.5,11.5 Q451,37 471,65 Q491,93 497.5,126.5 Q504,160 504,205"/> 
            <glyph glyph-name="ĳ" unicode="&#x133;" horiz-adv-x="695" d=" M59,0 Q60,125 59,249 Q58,373 59,498 L303,498 Q302,373 303,249 Q304,125 303,0 M313,645 Q313,596 282,564 Q251,532 180,532 Q145,532 120,540.5 Q95,549 79.5,564 Q64,579 57,600 Q50,621 50,645 Q50,696 80,727.5 Q110,759 180,759 Q252,759 282.5,727.5 Q313,696 313,645 M440,498 L685,498 L685,113 Q685,31 666.5,-30 Q648,-91 609.5,-134 Q571,-177 512,-204 Q453,-231 371,-244 L308,-79 Q351,-54 377,-35.5 Q403,-17 417,4.5 Q431,26 435.5,54.5 Q440,83 440,127 M695,645 Q695,596 664,564 Q633,532 562,532 Q527,532 502,540.5 Q477,549 461.5,564 Q446,579 439,600 Q432,621 432,645 Q432,696 462,727.5 Q492,759 562,759 Q634,759 664.5,727.5 Q695,696 695,645"/> 
            <glyph glyph-name="Ĵ" unicode="&#x134;" horiz-adv-x="489" d=" M131,695 L381,695 L381,185 Q381,19 284.5,-82.5 Q188,-184 -4,-210 L-58,-43 Q3,-13 40.5,12.5 Q78,38 98,66 Q118,94 124.5,127.5 Q131,161 131,206 M435,737 L254,832 L76,739 L25,799 L184,961 L326,961 L489,799"/> 
            <glyph glyph-name="ĵ" unicode="&#x135;" horiz-adv-x="473" d=" M112,495 L357,495 L357,113 Q357,31 338.5,-30 Q320,-91 281.5,-134 Q243,-177 184,-204 Q125,-231 43,-244 L-20,-79 Q23,-54 49,-35.5 Q75,-17 89,4.5 Q103,26 107.5,54.5 Q112,83 112,127 M419,526 L238,624 L57,528 L9,588 L168,760 L310,760 L473,588"/> 
            <glyph glyph-name="Ķ" unicode="&#x136;" horiz-adv-x="801" d=" M317,489 L388,580 L484,693 L778,693 L522,430 L801,0 L497,0 L347,266 L309,227 L309,0 L60,0 L60,693 L309,693 L309,491 M281,-127 Q281,-92 308.5,-67 Q336,-42 383,-42 Q411,-42 430,-51.5 Q449,-61 461,-76 Q473,-91 478.5,-110 Q484,-129 484,-148 Q484,-180 470.5,-210.5 Q457,-241 435.5,-268 Q414,-295 387,-316.5 Q360,-338 332,-351 L281,-288 Q308,-268 324.5,-249 Q341,-230 345,-202 Q311,-197 296,-177.5 Q281,-158 281,-127"/> 
            <glyph glyph-name="ķ" unicode="&#x137;" horiz-adv-x="657" d=" M283,382 L375,498 L648,498 L468,306 Q478,295 491.5,281.5 Q505,268 508,263 L657,0 L387,0 L308,165 L286,140 L286,0 L37,0 Q38,182 36.5,361 Q35,540 37,722 L286,722 L286,544 L278,382 M230,-127 Q230,-92 257.5,-67 Q285,-42 332,-42 Q360,-42 379,-51.5 Q398,-61 410,-76 Q422,-91 427.5,-110 Q433,-129 433,-148 Q433,-180 419.5,-210.5 Q406,-241 384.5,-268 Q363,-295 336,-316.5 Q309,-338 281,-351 L230,-288 Q257,-268 273.5,-249 Q290,-230 294,-202 Q260,-197 245,-177.5 Q230,-158 230,-127"/> 
            <glyph glyph-name="ĸ" unicode="&#x138;" horiz-adv-x="657" d=" M283,382 L375,498 L648,498 L468,306 Q478,295 491.5,281.5 Q505,268 508,263 L657,0 L387,0 L308,165 L286,140 L286,0 L37,0 Q39,125 37,248.5 Q35,372 37,497 L286,497 L283,449 L278,382"/> 
            <glyph glyph-name="Ĺ" unicode="&#x139;" horiz-adv-x="637" d=" M59,0 L59,693 L310,693 L310,170 L637,170 L637,0 M189,737 L124,815 L313,998 L414,878"/> 
            <glyph glyph-name="ĺ" unicode="&#x13A;" horiz-adv-x="374" d=" M50,0 Q51,182 49.5,362 Q48,542 50,724 L293,724 Q294,542 294,362 Q294,182 294,0 M149,757 L84,835 L273,1018 L374,898"/> 
            <glyph glyph-name="Ļ" unicode="&#x13B;" horiz-adv-x="637" d=" M59,0 L59,693 L310,693 L310,170 L637,170 L637,0 M267,-127 Q267,-92 294.5,-67 Q322,-42 369,-42 Q397,-42 416,-51.5 Q435,-61 447,-76 Q459,-91 464.5,-110 Q470,-129 470,-148 Q470,-180 456.5,-210.5 Q443,-241 421.5,-268 Q400,-295 373,-316.5 Q346,-338 318,-351 L267,-288 Q294,-268 310.5,-249 Q327,-230 331,-202 Q297,-197 282,-177.5 Q267,-158 267,-127"/> 
            <glyph glyph-name="ļ" unicode="&#x13C;" horiz-adv-x="294" d=" M50,0 Q51,182 49.5,362 Q48,542 50,724 L293,724 Q294,542 294,362 Q294,182 294,0 M79,-127 Q79,-92 106.5,-67 Q134,-42 181,-42 Q209,-42 228,-51.5 Q247,-61 259,-76 Q271,-91 276.5,-110 Q282,-129 282,-148 Q282,-180 268.5,-210.5 Q255,-241 233.5,-268 Q212,-295 185,-316.5 Q158,-338 130,-351 L79,-288 Q106,-268 122.5,-249 Q139,-230 143,-202 Q109,-197 94,-177.5 Q79,-158 79,-127"/> 
            <glyph glyph-name="Ľ" unicode="&#x13D;" horiz-adv-x="660" d=" M59,0 L59,693 L310,693 L310,170 L637,170 L637,0 M457,632 Q457,667 484.5,692 Q512,717 559,717 Q587,717 606,707.5 Q625,698 637,683 Q649,668 654.5,649 Q660,630 660,611 Q660,579 646.5,548.5 Q633,518 611.5,491 Q590,464 563,442.5 Q536,421 508,408 L457,471 Q484,491 500.5,510 Q517,529 521,557 Q487,562 472,581.5 Q457,601 457,632"/> 
            <glyph glyph-name="ľ" unicode="&#x13E;" horiz-adv-x="568" d=" M365,659 Q365,694 392.5,719 Q420,744 467,744 Q495,744 514,734.5 Q533,725 545,710 Q557,695 562.5,676 Q568,657 568,638 Q568,606 554.5,575.5 Q541,545 519.5,518 Q498,491 471,469.5 Q444,448 416,435 L365,498 Q392,518 408.5,537 Q425,556 429,584 Q395,589 380,608.5 Q365,628 365,659 M50,0 Q51,182 49.5,362 Q48,542 50,724 L293,724 Q294,542 294,362 Q294,182 294,0"/> 
            <glyph glyph-name="Ŀ" unicode="&#x13F;" horiz-adv-x="676" d=" M59,0 L59,693 L310,693 L310,170 L637,170 L637,0 M676,419 Q676,372 646,340.5 Q616,309 548,309 Q481,309 453,340.5 Q425,372 425,419 Q425,470 453,500 Q481,530 548,530 Q617,530 646.5,500 Q676,470 676,419"/> 
            <glyph glyph-name="ŀ" unicode="&#x140;" horiz-adv-x="613" d=" M613,411 Q613,364 583,332.5 Q553,301 485,301 Q418,301 390,332.5 Q362,364 362,411 Q362,462 390,492 Q418,522 485,522 Q554,522 583.5,492 Q613,462 613,411 M50,0 Q51,182 49.5,362 Q48,542 50,724 L293,724 Q294,542 294,362 Q294,182 294,0"/> 
            <glyph glyph-name="Ł" unicode="&#x141;" horiz-adv-x="637" d=" M59,0 L59,198 L10,170 L-36,262 L59,317 L59,693 L310,693 L310,462 L399,514 L444,423 L310,345 L310,170 L637,170 L637,0"/> 
            <glyph glyph-name="ł" unicode="&#x142;" horiz-adv-x="413" d=" M309,0 L65,0 L65,239 L17,211 L-25,295 L65,347 L65,724 L308,724 L308,486 L368,521 L413,440 L308,379"/> 
            <glyph glyph-name="Ń" unicode="&#x143;" horiz-adv-x="781" d=" M538,339 L538,693 L781,693 L781,0 L526,0 L380,237 L309,364 L303,364 L303,0 L60,0 L60,693 L315,693 L466,453 L530,339 M417,721 L352,799 L541,982 L642,862"/> 
            <glyph glyph-name="ń" unicode="&#x144;" horiz-adv-x="623" d=" M275,445 Q320,479 368.5,495 Q417,511 453,511 Q545,511 584,463.5 Q623,416 623,323 L623,0 L378,0 L378,276 Q378,305 367.5,316 Q357,327 334,327 Q325,327 311,323 Q297,319 283,309 L283,0 L37,0 Q38,125 37,249.5 Q36,374 37,499 L263,499 L268,448 M297,528 L224,615 L414,797 L518,668"/> 
            <glyph glyph-name="Ņ" unicode="&#x145;" horiz-adv-x="781" d=" M538,339 L538,693 L781,693 L781,0 L526,0 L380,237 L309,364 L303,364 L303,0 L60,0 L60,693 L315,693 L466,453 L530,339 M319,-127 Q319,-92 346.5,-67 Q374,-42 421,-42 Q449,-42 468,-51.5 Q487,-61 499,-76 Q511,-91 516.5,-110 Q522,-129 522,-148 Q522,-180 508.5,-210.5 Q495,-241 473.5,-268 Q452,-295 425,-316.5 Q398,-338 370,-351 L319,-288 Q346,-268 362.5,-249 Q379,-230 383,-202 Q349,-197 334,-177.5 Q319,-158 319,-127"/> 
            <glyph glyph-name="ņ" unicode="&#x146;" horiz-adv-x="623" d=" M275,445 Q320,479 368.5,495 Q417,511 453,511 Q545,511 584,463.5 Q623,416 623,323 L623,0 L378,0 L378,276 Q378,305 367.5,316 Q357,327 334,327 Q325,327 311,323 Q297,319 283,309 L283,0 L37,0 Q38,125 37,249.5 Q36,374 37,499 L263,499 L268,448 M236,-127 Q236,-92 263.5,-67 Q291,-42 338,-42 Q366,-42 385,-51.5 Q404,-61 416,-76 Q428,-91 433.5,-110 Q439,-129 439,-148 Q439,-180 425.5,-210.5 Q412,-241 390.5,-268 Q369,-295 342,-316.5 Q315,-338 287,-351 L236,-288 Q263,-268 279.5,-249 Q296,-230 300,-202 Q266,-197 251,-177.5 Q236,-158 236,-127"/> 
            <glyph glyph-name="Ň" unicode="&#x147;" horiz-adv-x="781" d=" M538,339 L538,693 L781,693 L781,0 L526,0 L380,237 L309,364 L303,364 L303,0 L60,0 L60,693 L315,693 L466,453 L530,339 M664,893 L501,731 L359,731 L200,893 L251,953 L429,858 L610,955"/> 
            <glyph glyph-name="ň" unicode="&#x148;" horiz-adv-x="623" d=" M275,445 Q320,479 368.5,495 Q417,511 453,511 Q545,511 584,463.5 Q623,416 623,323 L623,0 L378,0 L378,276 Q378,305 367.5,316 Q357,327 334,327 Q325,327 311,323 Q297,319 283,309 L283,0 L37,0 Q38,125 37,249.5 Q36,374 37,499 L263,499 L268,448 M563,714 L400,542 L258,542 L99,714 L147,774 L328,678 L509,776"/> 
            <glyph glyph-name="ŉ" unicode="&#x149;" horiz-adv-x="793" d=" M445,445 Q490,479 538.5,495 Q587,511 623,511 Q715,511 754,463.5 Q793,416 793,323 L793,0 L548,0 L548,276 Q548,305 537.5,316 Q527,327 504,327 Q495,327 481,323 Q467,319 453,309 L453,0 L207,0 Q208,125 207,249.5 Q206,374 207,499 L433,499 L438,448 M27,701 Q27,736 54.5,761 Q82,786 129,786 Q157,786 176,776.5 Q195,767 207,752 Q219,737 224.5,718 Q230,699 230,680 Q230,648 216.5,617.5 Q203,587 181.5,560 Q160,533 133,511.5 Q106,490 78,477 L27,540 Q54,560 70.5,579 Q87,598 91,626 Q57,631 42,650.5 Q27,670 27,701"/> 
            <glyph glyph-name="Ŋ" unicode="&#x14A;" horiz-adv-x="782" d=" M538,339 L538,693 L781,693 L782,2 Q782,-26 781,-56.5 Q780,-87 773,-115.5 Q766,-144 751,-169.5 Q736,-195 708.5,-214.5 Q681,-234 638.5,-245 Q596,-256 535,-256 Q523,-256 506,-255 Q489,-254 470.5,-251.5 Q452,-249 433.5,-246 Q415,-243 401,-239 L417,-74 Q434,-77 445.5,-78 Q457,-79 461,-79 Q476,-79 490,-78.5 Q504,-78 515,-74 Q526,-70 532.5,-60.5 Q539,-51 539,-33 L539,-8 L380,237 L309,364 L303,364 L303,0 L60,0 L60,693 L315,693 L466,453 L530,339"/> 
            <glyph glyph-name="ŋ" unicode="&#x14B;" horiz-adv-x="623" d=" M275,445 Q320,479 368.5,495 Q417,511 453,511 Q545,511 584,463.5 Q623,416 623,323 L623,0 Q623,-41 616,-81.5 Q609,-122 583.5,-155 Q558,-188 509,-208.5 Q460,-229 376,-229 Q364,-229 347,-228 Q330,-227 312,-225 Q294,-223 277,-220.5 Q260,-218 249,-215 L265,-57 Q277,-58 287.5,-58.5 Q298,-59 307,-59 Q341,-59 359.5,-48 Q378,-37 378,1 L378,276 Q378,305 367.5,316 Q357,327 334,327 Q325,327 311,323 Q297,319 283,309 L283,0 L37,0 L37,499 L263,499 L268,448"/> 
            <glyph glyph-name="Ō" unicode="&#x14C;" horiz-adv-x="785" d=" M785,350 Q785,272 761.5,205.5 Q738,139 691,90.5 Q644,42 574.5,15 Q505,-12 412,-12 Q319,-12 249.5,15 Q180,42 133.5,90.5 Q87,139 63.5,205.5 Q40,272 40,350 Q40,428 63.5,494 Q87,560 133.5,607.5 Q180,655 249.5,682 Q319,709 412,709 Q505,709 574.5,682 Q644,655 691,607.5 Q738,560 761.5,494 Q785,428 785,350 M517,350 Q517,391 512,425 Q507,459 495,483 Q483,507 463,520.5 Q443,534 412,534 Q379,534 358.5,519.5 Q338,505 326.5,479.5 Q315,454 310.5,420.5 Q306,387 306,350 Q306,307 310.5,272 Q315,237 326.5,212.5 Q338,188 358.5,174.5 Q379,161 412,161 Q444,161 464.5,174 Q485,187 496.5,211.5 Q508,236 512.5,271 Q517,306 517,350 M210,885 L610,885 L610,749 L210,749"/> 
            <glyph glyph-name="ō" unicode="&#x14D;" horiz-adv-x="630" d=" M630,250 Q630,192 613,144 Q596,96 559.5,61.5 Q523,27 466,8 Q409,-11 328,-11 Q246,-11 189,8 Q132,27 96,61.5 Q60,96 43.5,144 Q27,192 27,250 Q27,307 43.5,355 Q60,403 96.5,437 Q133,471 190,490 Q247,509 328,509 Q409,509 466.5,490 Q524,471 560,437 Q596,403 613,355 Q630,307 630,250 M380,250 Q380,299 369,321.5 Q358,344 328,344 Q298,344 287,318 Q276,292 276,250 Q276,197 287,174 Q298,151 328,151 Q358,151 369,174 Q380,197 380,250 M117,704 L537,704 L537,568 L117,568"/> 
            <glyph glyph-name="Ŏ" unicode="&#x14E;" horiz-adv-x="785" d=" M785,350 Q785,272 761.5,205.5 Q738,139 691,90.5 Q644,42 574.5,15 Q505,-12 412,-12 Q319,-12 249.5,15 Q180,42 133.5,90.5 Q87,139 63.5,205.5 Q40,272 40,350 Q40,428 63.5,494 Q87,560 133.5,607.5 Q180,655 249.5,682 Q319,709 412,709 Q505,709 574.5,682 Q644,655 691,607.5 Q738,560 761.5,494 Q785,428 785,350 M517,350 Q517,391 512,425 Q507,459 495,483 Q483,507 463,520.5 Q443,534 412,534 Q379,534 358.5,519.5 Q338,505 326.5,479.5 Q315,454 310.5,420.5 Q306,387 306,350 Q306,307 310.5,272 Q315,237 326.5,212.5 Q338,188 358.5,174.5 Q379,161 412,161 Q444,161 464.5,174 Q485,187 496.5,211.5 Q508,236 512.5,271 Q517,306 517,350 M403,747 Q369,747 338,759 Q307,771 279.5,792 Q252,813 228,841.5 Q204,870 184,904 L262,968 Q280,944 300,927 Q320,910 339.5,899.5 Q359,889 376.5,884.5 Q394,880 407,880 Q416,880 430.5,881.5 Q445,883 466,890.5 Q487,898 514,914.5 Q541,931 574,962 L632,903 Q605,858 576,828 Q547,798 517,780 Q487,762 458,754.5 Q429,747 403,747"/> 
            <glyph glyph-name="ŏ" unicode="&#x14F;" horiz-adv-x="630" d=" M630,250 Q630,192 613,144 Q596,96 559.5,61.5 Q523,27 466,8 Q409,-11 328,-11 Q246,-11 189,8 Q132,27 96,61.5 Q60,96 43.5,144 Q27,192 27,250 Q27,307 43.5,355 Q60,403 96.5,437 Q133,471 190,490 Q247,509 328,509 Q409,509 466.5,490 Q524,471 560,437 Q596,403 613,355 Q630,307 630,250 M380,250 Q380,299 369,321.5 Q358,344 328,344 Q298,344 287,318 Q276,292 276,250 Q276,197 287,174 Q298,151 328,151 Q358,151 369,174 Q380,197 380,250 M321,541 Q287,541 255,554 Q223,567 194.5,589.5 Q166,612 141,642 Q116,672 96,706 L180,769 Q199,743 219.5,726 Q240,709 259,698.5 Q278,688 295,683.5 Q312,679 325,679 Q334,679 347,679 Q360,679 380,686 Q400,693 427,710.5 Q454,728 492,763 L561,700 Q534,655 503,624.5 Q472,594 440,575.5 Q408,557 377.5,549 Q347,541 321,541"/> 
            <glyph glyph-name="Ő" unicode="&#x150;" horiz-adv-x="785" d=" M785,350 Q785,272 761.5,205.5 Q738,139 691,90.5 Q644,42 574.5,15 Q505,-12 412,-12 Q319,-12 249.5,15 Q180,42 133.5,90.5 Q87,139 63.5,205.5 Q40,272 40,350 Q40,428 63.5,494 Q87,560 133.5,607.5 Q180,655 249.5,682 Q319,709 412,709 Q505,709 574.5,682 Q644,655 691,607.5 Q738,560 761.5,494 Q785,428 785,350 M517,350 Q517,391 512,425 Q507,459 495,483 Q483,507 463,520.5 Q443,534 412,534 Q379,534 358.5,519.5 Q338,505 326.5,479.5 Q315,454 310.5,420.5 Q306,387 306,350 Q306,307 310.5,272 Q315,237 326.5,212.5 Q338,188 358.5,174.5 Q379,161 412,161 Q444,161 464.5,174 Q485,187 496.5,211.5 Q508,236 512.5,271 Q517,306 517,350 M319,740 L241,804 L391,1020 L513,922 M530,740 L452,804 L602,1020 L724,922"/> 
            <glyph glyph-name="ő" unicode="&#x151;" horiz-adv-x="630" d=" M630,250 Q630,192 613,144 Q596,96 559.5,61.5 Q523,27 466,8 Q409,-11 328,-11 Q246,-11 189,8 Q132,27 96,61.5 Q60,96 43.5,144 Q27,192 27,250 Q27,307 43.5,355 Q60,403 96.5,437 Q133,471 190,490 Q247,509 328,509 Q409,509 466.5,490 Q524,471 560,437 Q596,403 613,355 Q630,307 630,250 M380,250 Q380,299 369,321.5 Q358,344 328,344 Q298,344 287,318 Q276,292 276,250 Q276,197 287,174 Q298,151 328,151 Q358,151 369,174 Q380,197 380,250 M198,525 L120,589 L270,805 L392,707 M409,525 L331,589 L481,805 L603,707"/> 
            <glyph glyph-name="Ŕ" unicode="&#x154;" horiz-adv-x="713" d=" M561,303 Q585,295 601,282 Q617,269 628.5,253 Q640,237 647,219.5 Q654,202 659,184 L713,0 L465,0 L416,168 Q410,190 402.5,204.5 Q395,219 385,228 Q375,237 360.5,240.5 Q346,244 326,244 L311,244 L311,0 L60,0 L60,693 L414,693 Q487,693 536.5,674 Q586,655 616,625 Q646,595 659,557.5 Q672,520 672,482 Q672,457 665.5,431.5 Q659,406 645,382.5 Q631,359 610,339 Q589,319 561,306 M420,468 Q420,491 404.5,508 Q389,525 360,525 L311,525 L311,405 L359,405 Q387,405 403.5,422.5 Q420,440 420,468 M324,726 L259,804 L448,987 L549,867"/> 
            </font>
</defs>
</svg>
