<?xml version="1.0" standalone="no"?>
<!DOCTYPE svg PUBLIC "-//W3C//DTD SVG 1.1//EN" "http://www.w3.org/Graphics/SVG/1.1/DTD/svg11.dtd" >
<svg xmlns="http://www.w3.org/2000/svg">
    <defs>
        <font id="PFAgoraSansPro-XThinItalic">
            <font-face font-family="PF Agora Sans Pro"
                       units-per-em="1000"
                       ascent="750"
                       descent="-250"
                       bbox="-223 -241 1760 913"
                    />
            <missing-glyph horiz-adv-x="0" />
            
            <glyph glyph-name="(" unicode="&#x28;" horiz-adv-x="258" d=" M140,-172 Q135,-160 121.5,-132.5 Q108,-105 94.5,-61.5 Q81,-18 70.5,40.5 Q60,99 60,173 Q60,284 84.5,375.5 Q109,467 141,535.5 Q173,604 204,649 Q235,694 249,713 L258,706 Q244,686 215.5,640 Q187,594 158.5,524.5 Q130,455 108.5,362.5 Q87,270 87,158 Q87,92 94.5,38.5 Q102,-15 112.5,-55 Q123,-95 134,-123 Q145,-151 151,-166"/> 
            <glyph glyph-name=")" unicode="&#x29;" horiz-adv-x="205" d=" M3,-166 Q16,-147 45,-101 Q74,-55 103.5,16.5 Q133,88 155.5,183 Q178,278 178,396 Q178,458 170,509 Q162,560 151,599.5 Q140,639 128.5,665.5 Q117,692 110,706 L121,713 Q127,700 141,671.5 Q155,643 169.5,600.5 Q184,558 194.5,502 Q205,446 205,379 Q205,261 178.5,165 Q152,69 118,-1.5 Q84,-72 53,-115.5 Q22,-159 12,-172"/> 
            <glyph glyph-name="*" unicode="&#x2A;" horiz-adv-x="331" d=" M323,606 Q331,589 328,571 L209,549 L276,458 Q271,450 261.5,444.5 Q252,439 244,437 L199,543 L132,436 Q123,438 115.5,443.5 Q108,449 105,457 L193,549 L80,572 Q81,581 84.5,591 Q88,601 95,608 L198,559 L201,680 Q209,683 219,683.5 Q229,684 236,680 L208,559"/> 
            <glyph glyph-name="+" unicode="&#x2B;" horiz-adv-x="428" d=" M264,283 L243,113 L218,113 L239,283 L77,283 L80,308 L242,308 L262,472 L287,472 L267,308 L428,308 L425,283"/> 
            <glyph glyph-name="," unicode="&#x2C;" horiz-adv-x="61" d=" M28,-2 Q18,-2 12,4.5 Q6,11 6,21 Q6,34 15,43 Q24,52 35,52 Q61,52 61,23 Q61,12 56.5,-3.5 Q52,-19 44,-36 Q36,-53 25,-69.5 Q14,-86 0,-97 L-7,-89 Q10,-68 18,-43.5 Q26,-19 28,-2"/> 
            <glyph glyph-name="-" unicode="&#x2D;" horiz-adv-x="269" d=" M53,237 L56,264 L269,264 L266,237"/> 
            <glyph glyph-name="." unicode="&#x2E;" horiz-adv-x="72" d=" M49,54 Q58,54 65,47 Q72,40 72,30 Q72,18 62.5,8.5 Q53,-1 42,-1 Q31,-1 25,6 Q19,13 19,23 Q19,35 28,44.5 Q37,54 49,54"/> 
            <glyph glyph-name="/" unicode="&#x2F;" horiz-adv-x="342" d=" M3,-25 L-22,-25 L319,697 L342,697"/> 
            <glyph glyph-name="0" unicode="&#x30;" horiz-adv-x="482" d=" M300,672 Q357,672 392.5,651 Q428,630 448,596 Q468,562 475,519 Q482,476 482,433 Q482,393 477.5,344.5 Q473,296 462,247 Q451,198 431.5,152 Q412,106 383,71 Q354,36 313.5,14.5 Q273,-7 219,-7 Q162,-7 125.5,12 Q89,31 68.5,62.5 Q48,94 40.5,135.5 Q33,177 33,223 Q33,247 35,290 Q37,333 46,382.5 Q55,432 72,483.5 Q89,535 118.5,577 Q148,619 192.5,645.5 Q237,672 300,672 M301,649 Q241,649 199,621.5 Q157,594 130,551.5 Q103,509 88,457.5 Q73,406 66.5,358.5 Q60,311 58.5,273.5 Q57,236 57,221 Q57,176 64.5,138 Q72,100 90.5,72.5 Q109,45 141,30 Q173,15 223,15 Q273,15 310,36 Q347,57 373,91.5 Q399,126 415.5,170 Q432,214 441.5,260.5 Q451,307 454.5,351.5 Q458,396 458,432 Q458,471 452,510 Q446,549 429,579.5 Q412,610 381,629.5 Q350,649 301,649"/> 
            <glyph glyph-name="1" unicode="&#x31;" horiz-adv-x="336" d=" M153,606 L155,625 L310,661 L336,661 L255,0 L232,0 L309,633"/> 
            <glyph glyph-name="2" unicode="&#x32;" horiz-adv-x="436" d=" M0,0 L2,24 Q95,104 170,174 Q245,244 298,305.5 Q351,367 380.5,421.5 Q410,476 410,524 Q410,587 373.5,615 Q337,643 281,643 Q239,643 190.5,627.5 Q142,612 100,585 L87,604 Q131,633 182.5,650.5 Q234,668 281,668 Q313,668 341,660 Q369,652 390,635 Q411,618 423.5,591.5 Q436,565 436,529 Q436,472 404,413 Q372,354 317,291 Q262,228 190,161.5 Q118,95 37,23 L398,23 L396,0"/> 
            <glyph glyph-name="3" unicode="&#x33;" horiz-adv-x="440" d=" M189,-9 Q126,-9 81.5,0.5 Q37,10 11,23 Q13,28 15.5,33 Q18,38 20,42 Q78,21 118.5,17 Q159,13 188,13 Q232,13 272.5,25.5 Q313,38 343.5,61.5 Q374,85 392.5,119 Q411,153 411,197 Q411,236 395.5,265.5 Q380,295 353.5,314.5 Q327,334 291,343.5 Q255,353 215,353 Q207,353 198.5,352.5 Q190,352 182,351 L177,374 Q248,387 293.5,407.5 Q339,428 365.5,451.5 Q392,475 402.5,500 Q413,525 413,549 Q413,571 404.5,590 Q396,609 378.5,623.5 Q361,638 333.5,646.5 Q306,655 268,655 Q235,655 195,645 Q155,635 101,612 L93,632 Q142,657 188.5,668 Q235,679 270,679 Q315,679 347,668.5 Q379,658 400,640.5 Q421,623 430.5,600 Q440,577 440,553 Q440,528 429.5,502 Q419,476 398,452 Q377,428 344,408 Q311,388 266,375 L266,372 Q296,369 326.5,356 Q357,343 381.5,321 Q406,299 421,269 Q436,239 436,201 Q436,159 419,120.5 Q402,82 369.5,53.5 Q337,25 291.5,8 Q246,-9 189,-9"/> 
            <glyph glyph-name="4" unicode="&#x34;" horiz-adv-x="468" d=" M426,661 L371,219 L468,219 L465,196 L368,196 L346,0 L320,0 L343,196 L16,196 L20,222 Q115,334 210,442 Q305,550 399,661 M346,219 L396,625 L46,219"/> 
            <glyph glyph-name="5" unicode="&#x35;" horiz-adv-x="465" d=" M268,400 Q299,400 329.5,391 Q360,382 384.5,362 Q409,342 424,309.5 Q439,277 439,229 Q439,168 419,123.5 Q399,79 365.5,49.5 Q332,20 288.5,5.5 Q245,-9 199,-9 Q143,-9 103,-1 Q63,7 25,24 L35,45 Q79,27 119,20.5 Q159,14 188,14 Q237,14 278.5,27 Q320,40 350,66 Q380,92 396.5,132 Q413,172 413,226 Q413,302 369,339 Q325,376 253,376 Q224,376 189.5,367.5 Q155,359 126,345 L106,358 L159,661 L465,661 L462,637 L177,637 L131,371 Q140,374 151,379 Q162,384 177.5,388.5 Q193,393 215,396.5 Q237,400 268,400"/> 
            <glyph glyph-name="6" unicode="&#x36;" horiz-adv-x="471" d=" M339,671 Q384,671 416,662 Q448,653 471,642 L459,621 Q422,637 391.5,642 Q361,647 337,647 Q296,647 262.5,630.5 Q229,614 203.5,587 Q178,560 159,527 Q140,494 127,461 Q114,428 106,398.5 Q98,369 95,350 L97,347 Q132,370 183,386 Q234,402 291,402 Q325,402 354.5,393 Q384,384 406,364.5 Q428,345 440.5,312.5 Q453,280 453,234 Q453,179 436.5,134.5 Q420,90 390,58.5 Q360,27 318.5,10 Q277,-7 228,-7 Q178,-7 145.5,9.5 Q113,26 93.5,55 Q74,84 66,123.5 Q58,163 58,210 Q58,305 78,389 Q98,473 134.5,535.5 Q171,598 223,634.5 Q275,671 339,671 M286,377 Q243,377 208,367.5 Q173,358 147.5,347 Q122,336 107.5,325.5 Q93,315 91,314 L87,285 Q85,268 83.5,248 Q82,228 82,207 Q82,173 87.5,139 Q93,105 109,77.5 Q125,50 153,33 Q181,16 225,16 Q273,16 310.5,32 Q348,48 374.5,76.5 Q401,105 415,144.5 Q429,184 429,231 Q429,264 422,291 Q415,318 398,337 Q381,356 353.5,366.5 Q326,377 286,377"/> 
            <glyph glyph-name="7" unicode="&#x37;" horiz-adv-x="468" d=" M117,0 L90,0 L444,637 L105,637 L108,661 L465,661 L468,635"/> 
            <glyph glyph-name="8" unicode="&#x38;" horiz-adv-x="473" d=" M309,672 Q339,672 368,664.5 Q397,657 420.5,641 Q444,625 458.5,599 Q473,573 473,537 Q473,482 440.5,434.5 Q408,387 339,342 Q393,313 416.5,276 Q440,239 440,185 Q440,150 425.5,115.5 Q411,81 383,54 Q355,27 313.5,10 Q272,-7 218,-7 Q166,-7 130.5,6 Q95,19 72.5,40.5 Q50,62 40,90.5 Q30,119 30,150 Q30,222 71,281.5 Q112,341 197,381 Q114,429 114,504 Q114,534 128,564 Q142,594 168,618 Q194,642 229.5,657 Q265,672 309,672 M223,16 Q275,16 311.5,33 Q348,50 371.5,75 Q395,100 405.5,129.5 Q416,159 416,185 Q416,227 402,254.5 Q388,282 362,301.5 Q336,321 299,336.5 Q262,352 217,370 Q172,349 141,323 Q110,297 90.5,269 Q71,241 62.5,212 Q54,183 54,156 Q54,129 62,104 Q70,79 89.5,59.5 Q109,40 141.5,28 Q174,16 223,16 M304,649 Q255,649 223,631.5 Q191,614 171.5,590 Q152,566 144,541.5 Q136,517 136,503 Q136,473 152,450 Q168,427 193.5,409.5 Q219,392 252,378.5 Q285,365 320,352 Q358,376 382.5,400 Q407,424 421.5,446.5 Q436,469 442,490 Q448,511 448,530 Q448,551 441.5,572.5 Q435,594 418.5,611 Q402,628 374.5,638.5 Q347,649 304,649"/> 
            <glyph glyph-name="9" unicode="&#x39;" horiz-adv-x="458" d=" M177,-7 Q132,-7 99,2 Q66,11 43,22 L55,43 Q92,27 122.5,22 Q153,17 177,17 Q218,17 251.5,33.5 Q285,50 311,77 Q337,104 356,137 Q375,170 388,203 Q401,236 409,265.5 Q417,295 420,314 L418,317 Q383,294 331.5,278 Q280,262 223,262 Q189,262 159.5,271 Q130,280 108,299.5 Q86,319 73.5,351 Q61,383 61,430 Q61,485 77.5,529.5 Q94,574 124,605.5 Q154,637 195.5,654 Q237,671 286,671 Q334,671 366.5,656 Q399,641 419.5,613.5 Q440,586 449,547.5 Q458,509 458,462 Q458,367 438,282 Q418,197 381.5,132.5 Q345,68 293,30.5 Q241,-7 177,-7 M228,285 Q270,285 305.5,294.5 Q341,304 366.5,315.5 Q392,327 407,337 Q422,347 424,349 L428,378 Q430,395 431,415.5 Q432,436 432,457 Q432,491 426,525 Q420,559 404.5,586.5 Q389,614 361,631 Q333,648 289,648 Q241,648 203.5,632 Q166,616 139.5,587.5 Q113,559 99,519.5 Q85,480 85,433 Q85,400 92,372.5 Q99,345 116,325.5 Q133,306 160,295.5 Q187,285 228,285"/> 
            <glyph glyph-name=":" unicode="&#x3A;" horiz-adv-x="110" d=" M49,54 Q58,54 65,47 Q72,40 72,30 Q72,18 62.5,8.5 Q53,-1 42,-1 Q31,-1 25,6 Q19,13 19,23 Q19,35 28,44.5 Q37,54 49,54 M87,361 Q97,361 103.5,353.5 Q110,346 110,336 Q110,324 100,315 Q90,306 80,306 Q69,306 63,313 Q57,320 57,330 Q57,342 65.5,351.5 Q74,361 87,361"/> 
            <glyph glyph-name="&lt;" unicode="&#x3C;" horiz-adv-x="450" d=" M79,281 L83,310 L450,496 L447,468 L101,296 L405,123 L401,94"/> 
            <glyph glyph-name="=" unicode="&#x3D;" horiz-adv-x="437" d=" M86,357 L89,382 L437,382 L434,357 M69,219 L72,243 L420,243 L417,219"/> 
            <glyph glyph-name="&gt;" unicode="&#x3E;" horiz-adv-x="428" d=" M56,94 L60,123 L406,296 L102,468 L105,496 L428,310 L424,281"/> 
            <glyph glyph-name="?" unicode="&#x3F;" horiz-adv-x="414" d=" M261,701 Q340,701 377,672 Q414,643 414,592 Q414,566 404.5,544 Q395,522 380,502.5 Q365,483 345,466 Q325,449 304,434 Q257,400 226.5,373 Q196,346 178,321 Q160,296 152.5,271 Q145,246 145,215 Q145,205 145.5,194 Q146,183 147,172 L124,166 Q123,179 122.5,190 Q122,201 122,212 Q122,242 128.5,268.5 Q135,295 152,322 Q169,349 198.5,377.5 Q228,406 274,439 Q327,477 357.5,511 Q388,545 388,593 Q388,617 378,633 Q368,649 350.5,659 Q333,669 310.5,673.5 Q288,678 263,678 Q233,678 193.5,672 Q154,666 103,651 L97,672 Q141,687 184.5,694 Q228,701 261,701 M141,53 Q152,53 159,46 Q166,39 166,28 Q166,13 156,3 Q146,-7 135,-7 Q124,-7 116,0.5 Q108,8 108,21 Q108,34 118.5,43.5 Q129,53 141,53"/> 
            <glyph glyph-name="@" unicode="&#x40;" horiz-adv-x="794" d=" M500,695 Q644,695 719,621.5 Q794,548 794,419 Q794,349 774.5,299.5 Q755,250 726.5,219 Q698,188 665,173.5 Q632,159 605,159 Q563,159 540,184.5 Q517,210 517,252 Q517,259 517.5,268 Q518,277 520,287 Q489,219 448,188 Q407,157 362,157 Q315,157 289,193.5 Q263,230 263,288 Q263,342 275,390.5 Q287,439 311,476 Q335,513 371.5,534.5 Q408,556 456,556 Q483,556 510,549 Q537,542 563,531 L573,552 L587,552 Q578,507 569,462.5 Q560,418 552.5,379 Q545,340 540,308.5 Q535,277 535,257 Q535,221 553.5,200 Q572,179 604,179 Q629,179 658.5,192.5 Q688,206 713.5,234.5 Q739,263 756.5,308.5 Q774,354 774,417 Q774,544 701,609.5 Q628,675 498,675 Q411,675 339,644 Q267,613 215.5,560.5 Q164,508 135.5,439 Q107,370 107,294 Q107,231 127,178 Q147,125 183,87 Q219,49 270.5,27.5 Q322,6 385,6 Q414,6 440,8.5 Q466,11 500,21 L506,0 Q495,-4 480,-7 Q465,-10 448.5,-12 Q432,-14 416,-15 Q400,-16 388,-16 Q320,-16 264,6.5 Q208,29 168,69.5 Q128,110 106,166.5 Q84,223 84,291 Q84,375 115,449 Q146,523 201.5,577.5 Q257,632 333.5,663.5 Q410,695 500,695 M367,178 Q384,178 403.5,185 Q423,192 443.5,210.5 Q464,229 484.5,260.5 Q505,292 524,342 L558,509 Q529,525 501.5,531 Q474,537 451,537 Q414,537 383.5,519.5 Q353,502 331,470.5 Q309,439 296.5,395.5 Q284,352 283,299 Q283,238 306,208 Q329,178 367,178"/> 
            <glyph glyph-name="A" unicode="&#x41;" horiz-adv-x="455" d=" M392,197 L106,197 L22,0 L-5,0 L291,682 L326,682 L455,0 L430,0 M243,513 L116,221 L387,221 L333,513 L307,656 L304,656"/> 
            <glyph glyph-name="B" unicode="&#x42;" horiz-adv-x="497" d=" M371,354 Q401,344 421.5,327.5 Q442,311 454.5,290.5 Q467,270 472,247 Q477,224 477,202 Q477,157 461,120 Q445,83 418.5,56.5 Q392,30 357.5,15 Q323,0 285,0 L50,0 L133,682 L331,682 Q418,682 457.5,641.5 Q497,601 497,537 Q497,514 491,489 Q485,464 470.5,439.5 Q456,415 431.5,393 Q407,371 370,356 M117,342 L78,24 L279,24 Q319,24 351,38.5 Q383,53 405.5,77.5 Q428,102 440,134 Q452,166 452,201 Q452,229 443,254.5 Q434,280 416.5,299.5 Q399,319 374,330.5 Q349,342 316,342 M156,658 L121,367 L304,367 Q340,367 370.5,379.5 Q401,392 423.5,414.5 Q446,437 458.5,468.5 Q471,500 471,537 Q471,591 437,624.5 Q403,658 327,658"/> 
            <glyph glyph-name="C" unicode="&#x43;" horiz-adv-x="535" d=" M469,18 Q431,4 381.5,-1.5 Q332,-7 291,-7 Q231,-7 189,10.5 Q147,28 120.5,61.5 Q94,95 82,143 Q70,191 70,251 Q70,288 74.5,335 Q79,382 91.5,431 Q104,480 125.5,527 Q147,574 181,610.5 Q215,647 263,669.5 Q311,692 376,692 Q427,692 469,684 Q511,676 535,666 L526,645 Q491,656 451.5,662.5 Q412,669 377,669 Q304,669 251,637 Q198,605 164,548 Q130,491 113.5,413.5 Q97,336 97,246 Q97,200 104.5,158.5 Q112,117 134,85.5 Q156,54 194.5,35.5 Q233,17 295,17 Q308,17 327.5,18 Q347,19 369.5,22 Q392,25 415.5,29 Q439,33 462,39"/> 
            <glyph glyph-name="D" unicode="&#x44;" horiz-adv-x="536" d=" M315,682 Q380,682 423,661.5 Q466,641 491,605 Q516,569 526,520 Q536,471 536,415 Q536,333 520,258 Q504,183 467.5,125.5 Q431,68 371,34 Q311,0 224,0 L50,0 L133,682 M78,25 L221,25 Q236,25 263,27 Q290,29 322,40 Q354,51 387.5,74.5 Q421,98 448.5,141 Q476,184 493.5,250 Q511,316 511,412 Q511,473 500.5,515 Q490,557 472,584.5 Q454,612 432,626.5 Q410,641 387,648 Q364,655 342,656.5 Q320,658 304,658 L155,658"/> 
            <glyph glyph-name="E" unicode="&#x45;" horiz-adv-x="480" d=" M133,682 L480,682 L477,658 L155,658 L120,374 L406,374 L404,351 L117,350 L77,24 L429,24 L427,0 L50,0"/> 
            <glyph glyph-name="F" unicode="&#x46;" horiz-adv-x="480" d=" M75,0 L50,0 L133,682 L480,682 L477,658 L155,658 L121,375 L407,375 L404,351 L117,350"/> 
            <glyph glyph-name="G" unicode="&#x47;" horiz-adv-x="553" d=" M390,691 Q441,691 481.5,685 Q522,679 553,669 L546,646 Q508,657 466.5,662.5 Q425,668 390,668 Q318,668 263,637 Q208,606 171,550 Q134,494 115,416.5 Q96,339 96,245 Q96,199 104.5,158 Q113,117 136,86 Q159,55 199,36.5 Q239,18 303,18 Q318,18 337.5,19.5 Q357,21 377.5,23.5 Q398,26 418,30 Q438,34 453,40 L490,338 L515,338 L476,19 Q429,5 383,-1 Q337,-7 292,-7 Q232,-7 190,10.5 Q148,28 121,61 Q94,94 82,142 Q70,190 70,250 Q70,285 75,331.5 Q80,378 93,427 Q106,476 128.5,523 Q151,570 186.5,607.5 Q222,645 272,668 Q322,691 390,691"/> 
            <glyph glyph-name="H" unicode="&#x48;" horiz-adv-x="551" d=" M442,0 L484,349 L118,349 L76,0 L50,0 L133,682 L159,682 L121,373 L487,373 L524,682 L551,682 L468,0"/> 
            <glyph glyph-name="I" unicode="&#x49;" horiz-adv-x="169" d=" M60,0 L143,682 L169,682 L86,0"/> 
            <glyph glyph-name="J" unicode="&#x4A;" horiz-adv-x="204" d=" M179,682 L204,682 L134,100 Q127,43 112.5,-1.5 Q98,-46 73.5,-79 Q49,-112 13.5,-136 Q-22,-160 -72,-177 L-80,-155 Q-34,-140 -1,-117 Q32,-94 54,-63 Q76,-32 89,8 Q102,48 108,98"/> 
            <glyph glyph-name="K" unicode="&#x4B;" horiz-adv-x="530" d=" M231,407 L449,0 L421,0 L214,389 L111,295 L75,0 L50,0 L133,682 L158,682 L115,329 L495,682 L530,682"/> 
            <glyph glyph-name="L" unicode="&#x4C;" horiz-adv-x="467" d=" M108,24 L467,24 L465,0 L80,0 L163,682 L188,682"/> 
            <glyph glyph-name="M" unicode="&#x4D;" horiz-adv-x="648" d=" M619,627 Q611,608 597,576.5 Q583,545 554,481 L360,57 L332,57 L228,481 Q220,512 215,534.5 Q210,557 206.5,573.5 Q203,590 200.5,602 Q198,614 195,624 L191,624 L161,473 Q155,444 147,403 Q139,362 127.5,305.5 Q116,249 101,173.5 Q86,98 66,0 L40,0 L179,682 L205,682 L315,226 L347,89 L350,89 L411,227 L618,682 L648,682 L635,0 L610,0 L618,473 L622,627"/> 
            <glyph glyph-name="N" unicode="&#x4E;" horiz-adv-x="586" d=" M482,49 L559,682 L586,682 L502,0 L476,0 L209,528 L156,635 L153,635 L76,0 L50,0 L133,682 L160,682 L438,132 L479,49"/> 
            <glyph glyph-name="O" unicode="&#x4F;" horiz-adv-x="589" d=" M373,692 Q436,692 477.5,670 Q519,648 544,610.5 Q569,573 579,522.5 Q589,472 589,416 Q589,331 569.5,254.5 Q550,178 512.5,120 Q475,62 419.5,27.5 Q364,-7 292,-7 Q231,-7 188.5,11 Q146,29 120,63 Q94,97 82,146.5 Q70,196 70,259 Q70,338 85,416 Q100,494 135.5,555 Q171,616 229,654 Q287,692 373,692 M374,669 Q291,669 237.5,630.5 Q184,592 152,532 Q120,472 107.5,399.5 Q95,327 95,259 Q95,139 140,77.5 Q185,16 289,16 Q362,16 414,52 Q466,88 499,145.5 Q532,203 547.5,274 Q563,345 563,415 Q563,462 555.5,507.5 Q548,553 527,589 Q506,625 469,647 Q432,669 374,669"/> 
            <glyph glyph-name="P" unicode="&#x50;" horiz-adv-x="488" d=" M50,0 L133,682 L320,682 Q354,682 385,672.5 Q416,663 438.5,643.5 Q461,624 474.5,594.5 Q488,565 488,524 Q488,488 478,448 Q468,408 443,375 Q418,342 376.5,320 Q335,298 272,298 L112,298 L76,0 M283,322 Q309,322 340.5,331.5 Q372,341 399,363.5 Q426,386 444.5,424.5 Q463,463 463,521 Q463,555 452,581 Q441,607 422,624 Q403,641 377,649.5 Q351,658 322,658 L156,658 L115,322"/> 
            <glyph glyph-name="Q" unicode="&#x51;" horiz-adv-x="589" d=" M373,692 Q436,692 477.5,670 Q519,648 544,610.5 Q569,573 579,522.5 Q589,472 589,416 Q589,342 574.5,274.5 Q560,207 531.5,152.5 Q503,98 461.5,58.5 Q420,19 365,3 L530,-42 L514,-75 L318,-5 Q311,-6 305,-6.5 Q299,-7 292,-7 Q231,-7 188.5,11 Q146,29 120,63 Q94,97 82,146.5 Q70,196 70,259 Q70,338 85,416 Q100,494 135.5,555 Q171,616 229,654 Q287,692 373,692 M374,669 Q291,669 237.5,630.5 Q184,592 152,532 Q120,472 107.5,399.5 Q95,327 95,259 Q95,139 140,77.5 Q185,16 289,16 Q362,16 414,52 Q466,88 499,145.5 Q532,203 547.5,274 Q563,345 563,415 Q563,462 555.5,507.5 Q548,553 527,589 Q506,625 469,647 Q432,669 374,669"/> 
            <glyph glyph-name="R" unicode="&#x52;" horiz-adv-x="490" d=" M76,0 L50,0 L133,682 L318,682 Q367,682 400.5,669.5 Q434,657 453.5,635.5 Q473,614 481.5,585.5 Q490,557 490,525 Q490,495 481.5,463.5 Q473,432 455.5,404 Q438,376 410.5,354.5 Q383,333 345,325 Q387,311 405,282.5 Q423,254 431,212 L464,0 L438,0 L405,205 Q399,239 386,261 Q373,283 355,295.5 Q337,308 315,313 Q293,318 268,318 L115,318 M156,658 L117,342 L284,342 Q365,342 414,387.5 Q463,433 463,523 Q463,590 424.5,624 Q386,658 320,658"/> 
            <glyph glyph-name="S" unicode="&#x53;" horiz-adv-x="473" d=" M313,693 Q328,693 347,692 Q366,691 387,688 Q408,685 430,680 Q452,675 473,667 L463,642 Q415,657 379.5,662 Q344,667 309,667 Q277,667 243,659.5 Q209,652 181.5,634 Q154,616 136,586.5 Q118,557 118,513 Q118,480 130.5,457.5 Q143,435 165,419.5 Q187,404 217,392 Q247,380 282,368 Q315,356 349,343 Q383,330 410,310 Q437,290 454,260.5 Q471,231 471,186 Q471,132 448.5,95 Q426,58 390,35.5 Q354,13 308,3 Q262,-7 215,-7 Q167,-7 115,4 Q63,15 20,41 L33,63 Q82,37 127,27 Q172,17 214,17 Q255,17 296,25 Q337,33 370,52.5 Q403,72 423.5,104.5 Q444,137 444,187 Q444,220 432.5,243.5 Q421,267 399,285 Q377,303 346.5,316.5 Q316,330 278,343 Q236,357 201,371 Q166,385 141.5,403.5 Q117,422 103.5,448 Q90,474 90,512 Q90,560 109,594.5 Q128,629 159,651 Q190,673 230,683 Q270,693 313,693"/> 
            <glyph glyph-name="T" unicode="&#x54;" horiz-adv-x="522" d=" M520,658 L308,658 L227,0 L203,0 L283,658 L70,658 L73,682 L522,682"/> 
            <glyph glyph-name="U" unicode="&#x55;" horiz-adv-x="602" d=" M577,682 L602,682 L548,239 Q541,185 523,139.5 Q505,94 474.5,61.5 Q444,29 399.5,11 Q355,-7 296,-7 Q175,-7 122.5,58.5 Q70,124 84,239 L138,682 L162,682 L109,242 Q95,130 143.5,73.5 Q192,17 299,17 Q350,17 389.5,33.5 Q429,50 456.5,80 Q484,110 500.5,151 Q517,192 523,242"/> 
            <glyph glyph-name="V" unicode="&#x56;" horiz-adv-x="516" d=" M491,682 L516,682 L230,0 L195,0 L75,682 L100,682 L191,154 L213,27 L216,27 L269,158"/> 
            <glyph glyph-name="W" unicode="&#x57;" horiz-adv-x="785" d=" M414,641 L348,452 L188,0 L151,0 L75,682 L98,682 L150,213 L171,26 L174,26 L232,191 L407,682 L434,682 L502,204 L527,26 L530,26 L588,193 L761,682 L785,682 L543,0 L507,0 L443,456 L418,641"/> 
            <glyph glyph-name="X" unicode="&#x58;" horiz-adv-x="494" d=" M250,329 L19,0 L-10,0 L238,352 L87,682 L112,682 L253,376 L467,682 L494,682 L264,352 L427,0 L401,0"/> 
            <glyph glyph-name="Y" unicode="&#x59;" horiz-adv-x="486" d=" M193,450 L232,341 L235,341 L299,440 L456,682 L486,682 L245,314 L207,0 L182,0 L220,311 L75,682 L102,682"/> 
            <glyph glyph-name="Z" unicode="&#x5A;" horiz-adv-x="473" d=" M-3,0 L-7,27 L447,658 L93,658 L96,682 L470,682 L473,655 L21,25 L413,25 L410,0"/> 
            <glyph glyph-name="[" unicode="&#x5B;" horiz-adv-x="240" d=" M16,-160 L121,696 L240,696 L236,667 L144,667 L46,-132 L138,-132 L135,-160"/> 
            <glyph glyph-name="\" unicode="&#x5C;" horiz-adv-x="253" d=" M67,697 L90,697 L253,-25 L228,-25"/> 
            <glyph glyph-name="]" unicode="&#x5D;" horiz-adv-x="220" d=" M-4,-160 L-1,-132 L91,-132 L189,667 L97,667 L101,696 L220,696 L115,-160"/> 
            <glyph glyph-name="^" unicode="&#x5E;" horiz-adv-x="396" d=" M368,404 L257,659 L83,404 L53,404 L247,683 L276,683 L396,404"/> 
            <glyph glyph-name="_" unicode="&#x5F;" horiz-adv-x="448" d=" M-38,-113 L-36,-92 L448,-92 L446,-113"/> 
            <glyph glyph-name="a" unicode="&#x61;" horiz-adv-x="434" d=" M433,26 L434,10 Q399,-3 373,-3 Q355,-3 348.5,4.5 Q342,12 345,32 L350,69 L349,71 Q303,33 261,13.5 Q219,-6 174,-6 Q116,-6 79,36.5 Q42,79 41,157 Q41,221 54.5,281 Q68,341 97,387.5 Q126,434 169.5,462.5 Q213,491 273,491 Q306,491 337.5,482 Q369,473 401,458 L408,486 L425,486 L368,25 M269,469 Q225,469 188,448 Q151,427 123.5,387.5 Q96,348 80.5,291.5 Q65,235 65,165 Q65,88 98,51.5 Q131,15 176,15 Q222,15 266,40 Q310,65 354,100 L397,433 Q360,453 329.5,461 Q299,469 269,469"/> 
            <glyph glyph-name="b" unicode="&#x62;" horiz-adv-x="426" d=" M40,33 L126,708 L149,708 Q144,667 140,630.5 Q136,594 132,558.5 Q128,523 123,487 Q118,451 112,412 L113,410 Q161,448 203,471 Q245,494 290,494 Q318,494 342.5,484 Q367,474 385.5,453.5 Q404,433 415,402 Q426,371 426,330 Q426,264 411,203 Q396,142 365,95.5 Q334,49 288.5,21.5 Q243,-6 182,-6 Q148,-6 111.5,1.5 Q75,9 43,26 M184,16 Q228,16 267.5,36.5 Q307,57 336.5,96 Q366,135 383.5,193 Q401,251 401,326 Q401,365 392,392.5 Q383,420 367.5,437.5 Q352,455 331.5,463 Q311,471 289,471 Q266,471 243,463 Q220,455 197,442.5 Q174,430 152,414.5 Q130,399 110,383 L65,42 Q97,26 127,21 Q157,16 184,16"/> 
            <glyph glyph-name="c" unicode="&#x63;" horiz-adv-x="395" d=" M269,492 Q304,492 337.5,485 Q371,478 395,467 L386,447 Q351,461 320,465.5 Q289,470 267,470 Q218,470 180.5,448 Q143,426 117,387 Q91,348 77.5,293.5 Q64,239 64,174 Q64,141 70.5,111.5 Q77,82 93,60.5 Q109,39 134.5,26.5 Q160,14 199,14 Q240,14 274,23 Q308,32 350,49 L359,32 Q330,16 287.5,4.5 Q245,-7 201,-7 Q157,-7 126.5,6.5 Q96,20 77,44 Q58,68 49.5,102 Q41,136 41,177 Q41,200 44,232.5 Q47,265 56,300 Q65,335 81,369.5 Q97,404 122,431 Q147,458 183,475 Q219,492 269,492"/> 
            <glyph glyph-name="d" unicode="&#x64;" horiz-adv-x="453" d=" M341,0 L350,69 L349,71 Q303,33 261,13.5 Q219,-6 174,-6 Q116,-6 79,36.5 Q42,79 41,157 Q41,221 54.5,281 Q68,341 97,387.5 Q126,434 169.5,462.5 Q213,491 273,491 Q306,491 337.5,482 Q369,473 401,458 L432,708 L453,708 L365,0 M269,469 Q225,469 188,448 Q151,427 123.5,387.5 Q96,348 80.5,291.5 Q65,235 65,165 Q65,88 98,51.5 Q131,15 176,15 Q222,15 266,40 Q310,65 354,100 L397,434 Q360,454 329.5,461.5 Q299,469 269,469"/> 
            <glyph glyph-name="e" unicode="&#x65;" horiz-adv-x="392" d=" M194,-6 Q148,-6 118,8.5 Q88,23 71,48 Q54,73 47,106 Q40,139 40,176 Q40,221 51,276 Q62,331 88.5,378.5 Q115,426 159.5,458.5 Q204,491 271,491 Q304,491 327,481.5 Q350,472 364.5,457 Q379,442 385.5,423 Q392,404 392,385 Q392,335 364.5,302 Q337,269 291.5,248.5 Q246,228 187,218 Q128,208 66,204 Q64,191 64,183 Q64,175 64,168 Q64,142 69.5,115 Q75,88 89.5,65.5 Q104,43 130,28.5 Q156,14 197,14 Q269,14 341,47 L349,29 Q285,-6 194,-6 M267,469 Q223,469 188,448.5 Q153,428 127.5,394 Q102,360 86.5,316.5 Q71,273 67,227 Q208,234 287.5,270.5 Q367,307 367,380 Q367,420 342.5,444.5 Q318,469 267,469"/> 
            <glyph glyph-name="f" unicode="&#x66;" horiz-adv-x="364" d=" M297,721 Q310,721 328,720 Q346,719 364,715 L360,694 Q340,697 325.5,698 Q311,699 298,699 Q272,699 249.5,694 Q227,689 209.5,669.5 Q192,650 179,612.5 Q166,575 159,511 L157,486 L297,486 L294,463 L154,463 Q143,363 132,260 Q121,157 110,64 Q104,6 95,-45 Q86,-96 68,-134.5 Q50,-173 19.5,-195 Q-11,-217 -60,-217 Q-73,-217 -91.5,-215 Q-110,-213 -129,-208 L-124,-189 Q-106,-192 -90.5,-194.5 Q-75,-197 -62,-197 Q-33,-197 -10,-187.5 Q13,-178 30,-155.5 Q47,-133 58.5,-95.5 Q70,-58 77,-1 Q90,99 99,177 Q108,255 114.5,312 Q121,369 124.5,406 Q128,443 130,463 L51,463 L53,478 L133,489 L136,520 Q142,569 152.5,607 Q163,645 181.5,670 Q200,695 228,708 Q256,721 297,721"/> 
            <glyph glyph-name="g" unicode="&#x67;" horiz-adv-x="431" d=" M375,12 Q370,-27 361,-68 Q352,-109 330,-142.5 Q308,-176 268,-198 Q228,-220 160,-220 Q125,-220 93,-211.5 Q61,-203 40,-194 L50,-172 Q76,-184 106.5,-190 Q137,-196 166,-196 Q223,-196 256.5,-178.5 Q290,-161 309.5,-130.5 Q329,-100 338,-58 Q347,-16 354,33 L360,74 L359,76 Q314,37 270,14.5 Q226,-8 181,-8 Q153,-8 128.5,2 Q104,12 85.5,32.5 Q67,53 56,84 Q45,115 45,156 Q45,222 60,283 Q75,344 106,390.5 Q137,437 182.5,464.5 Q228,492 289,492 Q323,492 359.5,484.5 Q396,477 428,460 L431,453 M287,470 Q243,470 203.5,449.5 Q164,429 134.5,390 Q105,351 87.5,293 Q70,235 70,160 Q70,121 79,93.5 Q88,66 103.5,48.5 Q119,31 139,22.5 Q159,14 182,14 Q228,14 273,40.5 Q318,67 361,103 L406,444 Q374,460 344,465 Q314,470 287,470"/> 
            <glyph glyph-name="h" unicode="&#x68;" horiz-adv-x="407" d=" M109,406 Q163,446 210.5,469.5 Q258,493 303,493 Q334,493 354,485 Q374,477 386,463 Q398,449 402.5,430.5 Q407,412 407,392 Q407,386 406.5,379.5 Q406,373 405,366 L364,0 L341,0 L380,338 Q382,348 383,365 Q384,382 384,389 Q384,406 380.5,421 Q377,436 367.5,447.5 Q358,459 341.5,465.5 Q325,472 299,472 Q275,472 251,464 Q227,456 203,443 Q179,430 154,413 Q129,396 104,377 L57,0 L35,0 L121,708 L144,708 L106,408"/> 
            <glyph glyph-name="i" unicode="&#x69;" horiz-adv-x="163" d=" M55,0 L115,486 L137,486 L78,0 M142,633 Q152,633 157.5,627 Q163,621 163,612 Q163,601 155.5,592.5 Q148,584 136,584 Q128,584 122.5,590.5 Q117,597 117,606 Q117,617 125.5,625 Q134,633 142,633"/> 
            <glyph glyph-name="j" unicode="&#x6A;" horiz-adv-x="169" d=" M122,486 L145,486 L84,-9 Q79,-48 71.5,-78.5 Q64,-109 48,-133 Q32,-157 4.5,-175 Q-23,-193 -68,-207 L-73,-188 Q-33,-176 -9,-159.5 Q15,-143 29,-123 Q43,-103 49,-78 Q55,-53 59,-23 M148,633 Q158,633 163.5,627 Q169,621 169,612 Q169,601 161.5,592.5 Q154,584 142,584 Q134,584 128.5,590.5 Q123,597 123,606 Q123,617 131,625 Q139,633 148,633"/> 
            <glyph glyph-name="k" unicode="&#x6B;" horiz-adv-x="398" d=" M90,239 Q102,249 117,262.5 Q132,276 161.5,302.5 Q191,329 240,372.5 Q289,416 368,486 L398,486 L186,297 L210,259 L349,0 L323,0 L171,283 L83,206 L58,0 L35,0 L121,708 L144,708 L106,391 Q101,353 96.5,315.5 Q92,278 87,240"/> 
            <glyph glyph-name="l" unicode="&#x6C;" horiz-adv-x="158" d=" M158,708 L74,24 L139,26 L141,10 Q124,3 107.5,0 Q91,-3 79,-3 Q50,-3 50,18 Q50,21 50,25 Q50,29 51,34 L135,708"/> 
            <glyph glyph-name="m" unicode="&#x6D;" horiz-adv-x="697" d=" M109,406 Q161,446 204.5,470 Q248,494 293,494 Q322,494 341.5,486.5 Q361,479 373.5,466.5 Q386,454 392,437.5 Q398,421 399,402 Q452,446 500,470 Q548,494 593,494 Q624,494 644,485.5 Q664,477 676,463 Q688,449 692.5,430.5 Q697,412 697,392 Q697,386 696.5,379.5 Q696,373 695,366 L654,0 L631,0 L671,349 Q674,368 674,389 Q674,406 670.5,421 Q667,436 657.5,447.5 Q648,459 631.5,466 Q615,473 589,473 Q541,473 494.5,445 Q448,417 398,377 Q398,375 397.5,372 Q397,369 397,366 L356,0 L333,0 L373,349 Q376,368 376,389 Q376,406 372.5,421 Q369,436 359.5,447.5 Q350,459 333.5,466 Q317,473 291,473 Q267,473 243.5,465 Q220,457 197,443.5 Q174,430 150.5,413 Q127,396 103,377 L57,0 L35,0 L93,486 L116,486 L106,408"/> 
            <glyph glyph-name="n" unicode="&#x6E;" horiz-adv-x="407" d=" M112,406 Q166,446 212,470 Q258,494 303,494 Q334,494 354,485.5 Q374,477 386,463 Q398,449 402.5,430.5 Q407,412 407,392 Q407,386 406.5,379.5 Q406,373 405,366 L364,0 L341,0 L381,349 Q384,368 384,389 Q384,406 380.5,421 Q377,436 367.5,447.5 Q358,459 341.5,466 Q325,473 299,473 Q275,473 251.5,465 Q228,457 204,443.5 Q180,430 155.5,413 Q131,396 106,377 L57,0 L35,0 L96,486 L119,486 L109,408"/> 
            <glyph glyph-name="o" unicode="&#x6F;" horiz-adv-x="413" d=" M256,491 Q301,491 331.5,475 Q362,459 380,433 Q398,407 405.5,372 Q413,337 413,300 Q413,254 403.5,200 Q394,146 370,100 Q346,54 304,23.5 Q262,-7 198,-7 Q151,-7 120.5,8 Q90,23 72,48.5 Q54,74 47,108 Q40,142 40,180 Q40,230 51,285 Q62,340 87,385.5 Q112,431 153.5,461 Q195,491 256,491 M256,470 Q201,470 164,442 Q127,414 104.5,371 Q82,328 72.5,276.5 Q63,225 63,179 Q63,147 68.5,117.5 Q74,88 89,65 Q104,42 131,28 Q158,14 201,14 Q240,14 269,28 Q298,42 319,65.5 Q340,89 353.5,118.5 Q367,148 375,179.5 Q383,211 386,241 Q389,271 389,296 Q389,328 383.5,359.5 Q378,391 363,415.5 Q348,440 322,455 Q296,470 256,470"/> 
            <glyph glyph-name="p" unicode="&#x70;" horiz-adv-x="416" d=" M116,486 L107,417 L108,415 Q156,453 197,472.5 Q238,492 283,492 Q341,492 378,449.5 Q415,407 416,329 Q416,265 402.5,205 Q389,145 360,98.5 Q331,52 287.5,23.5 Q244,-5 184,-5 Q151,-5 120.5,4 Q90,13 58,28 L27,-213 L6,-213 L92,486 M188,17 Q231,17 268.5,38 Q306,59 333.5,98.5 Q361,138 376.5,194.5 Q392,251 392,321 Q392,398 359,434.5 Q326,471 281,471 Q235,471 191,446 Q147,421 103,386 L60,52 Q97,32 127.5,24.5 Q158,17 188,17"/> 
            <glyph glyph-name="q" unicode="&#x71;" horiz-adv-x="427" d=" M427,453 L344,-213 L320,-213 Q325,-173 329.5,-136.5 Q334,-100 338,-65.5 Q342,-31 346.5,3 Q351,37 356,74 L355,76 Q310,37 266,14.5 Q222,-8 177,-8 Q149,-8 124.5,2 Q100,12 81.5,32.5 Q63,53 52,84 Q41,115 41,156 Q41,222 56,283 Q71,344 102,390.5 Q133,437 178.5,464.5 Q224,492 285,492 Q319,492 355.5,484.5 Q392,477 424,460 M283,470 Q239,470 199.5,449.5 Q160,429 130.5,390 Q101,351 83.5,293 Q66,235 66,160 Q66,121 75,93.5 Q84,66 99.5,48.5 Q115,31 135,22.5 Q155,14 178,14 Q224,14 269,40.5 Q314,67 357,103 L402,444 Q370,460 340,465 Q310,470 283,470"/> 
            <glyph glyph-name="r" unicode="&#x72;" horiz-adv-x="288" d=" M118,393 Q144,449 172,469.5 Q200,490 229,490 Q246,490 261.5,484.5 Q277,479 288,462 L275,446 Q260,454 248.5,456 Q237,458 227,458 Q204,458 186.5,447 Q169,436 155,418.5 Q141,401 129.5,379.5 Q118,358 109,337 Q98,252 87.5,168.5 Q77,85 66,0 L44,0 Q59,120 73.5,238 Q88,356 103,486 L126,486 Q123,463 120.5,440.5 Q118,418 114,393"/> 
            <glyph glyph-name="s" unicode="&#x73;" horiz-adv-x="342" d=" M226,490 Q236,490 249.5,488.5 Q263,487 279,484 Q295,481 311,476 Q327,471 342,463 L332,444 Q302,458 272,464 Q242,470 224,470 Q198,470 174,464.5 Q150,459 130.5,446.5 Q111,434 99.5,414 Q88,394 88,365 Q88,344 97,328.5 Q106,313 121,301 Q136,289 155.5,280 Q175,271 196,262 Q223,251 248,239.5 Q273,228 292,214 Q311,200 322,180.5 Q333,161 333,134 Q333,98 318.5,71.5 Q304,45 279.5,27.5 Q255,10 223,2 Q191,-6 157,-6 Q115,-6 74.5,2.5 Q34,11 5,31 L16,48 Q49,28 84,21 Q119,14 145,14 Q177,14 207,20 Q237,26 260,40 Q283,54 296.5,76.5 Q310,99 310,132 Q310,152 301.5,167.5 Q293,183 278.5,195 Q264,207 244,217.5 Q224,228 200,237 Q174,247 149.5,258.5 Q125,270 106,284 Q87,298 75.5,317 Q64,336 64,361 Q64,398 78.5,422.5 Q93,447 116,462 Q139,477 168,483.5 Q197,490 226,490"/> 
            <glyph glyph-name="t" unicode="&#x74;" horiz-adv-x="292" d=" M109,101 Q108,93 107.5,85 Q107,77 107,70 Q107,47 118.5,33 Q130,19 165,19 Q185,19 212,23.5 Q239,28 266,36 L272,19 Q248,9 217,3 Q186,-3 160,-3 Q127,-3 105.5,11.5 Q84,26 84,68 Q84,74 84.5,80 Q85,86 86,93 L131,463 L64,463 L66,478 L134,489 L152,574 L167,576 L156,486 L292,486 L289,463 L153,463"/> 
            <glyph glyph-name="u" unicode="&#x75;" horiz-adv-x="412" d=" M337,80 Q278,35 234,13.5 Q190,-8 146,-8 Q115,-8 95.5,0 Q76,8 64.5,22 Q53,36 49,54.5 Q45,73 45,93 Q45,99 45.5,105.5 Q46,112 47,119 L89,486 L112,486 L71,136 Q68,116 68,96 Q68,79 71,64 Q74,49 83,37.5 Q92,26 108,19.5 Q124,13 150,13 Q192,13 240,39 Q288,65 343,109 L390,486 L412,486 L353,0 L330,0 L340,78"/> 
            <glyph glyph-name="v" unicode="&#x76;" horiz-adv-x="383" d=" M59,486 Q73,417 88.5,345.5 Q104,274 120,201 Q130,157 138.5,112 Q147,67 155,24 L157,24 Q175,68 193,111 Q211,154 230,196 L361,496 L383,487 L168,0 L137,0 Q115,115 88,234 Q61,353 35,486 L59,486"/> 
            <glyph glyph-name="w" unicode="&#x77;" horiz-adv-x="630" d=" M322,452 L281,352 L138,0 L105,0 L35,486 L58,486 L102,169 L122,23 L125,23 L188,179 L313,486 L338,486 L403,143 L425,23 L428,23 L477,150 L608,494 L630,489 L441,0 L408,0 L345,336 L323,452"/> 
            <glyph glyph-name="x" unicode="&#x78;" horiz-adv-x="364" d=" M184,240 L4,-14 L-15,0 L174,259 L64,486 L89,486 L188,278 L345,500 L364,487 L198,260 L327,0 L301,0"/> 
            <glyph glyph-name="y" unicode="&#x79;" horiz-adv-x="396" d=" M133,-119 Q112,-165 88.5,-192 Q65,-219 22,-219 Q8,-219 -14.5,-215.5 Q-37,-212 -65,-201 L-58,-182 Q-32,-191 -14,-194.5 Q4,-198 20,-198 Q28,-198 38.5,-196 Q49,-194 60.5,-186 Q72,-178 84,-162 Q96,-146 108,-118 L160,0 L147,0 L44,486 L67,486 L128,195 L165,18 L169,18 Q172,24 179,40 Q186,56 196,80 Q206,104 218.5,134 Q231,164 245,196 L373,494 L396,488"/> 
            <glyph glyph-name="z" unicode="&#x7A;" horiz-adv-x="379" d=" M22,22 L332,23 L330,0 L-5,0 L-10,22 L349,461 L347,463 L69,463 L72,486 L372,486 L379,463 L21,24"/> 
            <glyph glyph-name="{" unicode="&#x7B;" horiz-adv-x="250" d=" M110,-160 Q79,-160 68.5,-139 Q58,-118 62,-86 L94,172 Q96,188 96.5,207 Q97,226 92.5,242.5 Q88,259 76,271.5 Q64,284 41,289 L44,310 Q67,314 82,326.5 Q97,339 105.5,355.5 Q114,372 118.5,391 Q123,410 125,429 L148,617 Q152,649 170,673 Q188,697 221,697 L250,697 L247,669 L226,669 Q202,669 190,654.5 Q178,640 174,608 L152,427 Q150,408 145.5,388.5 Q141,369 132.5,351.5 Q124,334 112,320.5 Q100,307 83,301 Q116,282 121,250.5 Q126,219 121,174 L91,-73 Q87,-98 91,-116 Q95,-134 122,-134 L148,-134 L145,-160"/> 
            <glyph glyph-name="|" unicode="&#x7C;" horiz-adv-x="130" d=" M105,-134 L105,695 L130,695 L130,-134"/> 
            <glyph glyph-name="}" unicode="&#x7D;" horiz-adv-x="203" d=" M-14,-160 L-11,-134 L15,-134 Q42,-134 50,-116 Q58,-98 62,-73 L92,174 Q95,196 98.5,215 Q102,234 109.5,250 Q117,266 129,279 Q141,292 160,301 Q145,307 136.5,320.5 Q128,334 124,351.5 Q120,369 120.5,388.5 Q121,408 123,427 L145,608 Q149,640 141,654.5 Q133,669 109,669 L88,669 L91,697 L120,697 Q153,697 165,673 Q177,649 173,617 L150,429 Q148,410 147.5,391 Q147,372 152,355.5 Q157,339 168.5,326.5 Q180,314 203,310 L200,289 Q176,284 161,271.5 Q146,259 137.5,242.5 Q129,226 125,207 Q121,188 119,172 L87,-86 Q83,-118 67.5,-139 Q52,-160 21,-160"/> 
            <glyph glyph-name="~" unicode="&#x7E;" horiz-adv-x="431" d=" M421,308 L431,301 Q415,271 402,260 Q389,249 372,249 Q347,249 314,254.5 Q281,260 247,266.5 Q213,273 181.5,278.5 Q150,284 128,284 L82,244 L70,252 Q88,282 102,294.5 Q116,307 135,307 Q157,307 190.5,301.5 Q224,296 259.5,289.5 Q295,283 327,277.5 Q359,272 377,272"/> 
            <glyph glyph-name="Ç" unicode="&#xC7;" horiz-adv-x="535" d=" M469,18 Q431,4 382,-1.5 Q333,-7 292,-7 L230,-76 Q280,-76 309.5,-89 Q339,-102 339,-140 Q339,-159 328.5,-177 Q318,-195 297,-209 Q276,-223 244,-231.5 Q212,-240 169,-240 L170,-223 Q209,-220 235.5,-212 Q262,-204 278,-193 Q294,-182 301,-168 Q308,-154 308,-140 Q308,-117 286,-106 Q264,-95 229,-95 Q224,-95 218.5,-95.5 Q213,-96 208,-96 L201,-82 L269,-6 Q215,-3 177,16 Q139,35 115.5,68 Q92,101 81,147 Q70,193 70,251 Q70,288 74.5,335 Q79,382 91.5,431 Q104,480 125.5,527 Q147,574 181,610.5 Q215,647 263,669.5 Q311,692 376,692 Q427,692 469,684 Q511,676 535,666 L526,645 Q491,656 451.5,662.5 Q412,669 377,669 Q304,669 251,637 Q198,605 164,548 Q130,491 113.5,413.5 Q97,336 97,246 Q97,200 104.5,158.5 Q112,117 134,85.5 Q156,54 194.5,35.5 Q233,17 295,17 Q308,17 327.5,18 Q347,19 369.5,22 Q392,25 415.5,29 Q439,33 462,39"/> 
            <glyph glyph-name="È" unicode="&#xC8;" horiz-adv-x="480" d=" M133,682 L480,682 L477,658 L155,658 L120,374 L406,374 L404,351 L117,350 L77,24 L429,24 L427,0 L50,0 M332,713 L240,844 L268,866 L347,723"/> 
            <glyph glyph-name="É" unicode="&#xC9;" horiz-adv-x="480" d=" M133,682 L480,682 L477,658 L155,658 L120,374 L406,374 L404,351 L117,350 L77,24 L429,24 L427,0 L50,0 M271,723 L386,866 L408,844 L285,713"/> 
            <glyph glyph-name="Ê" unicode="&#xCA;" horiz-adv-x="480" d=" M133,682 L480,682 L477,658 L155,658 L120,374 L406,374 L404,351 L117,350 L77,24 L429,24 L427,0 L50,0 M316,819 L175,716 L166,728 L306,851 L333,851 L442,729 L432,717"/> 
            <glyph glyph-name="Ë" unicode="&#xCB;" horiz-adv-x="480" d=" M133,682 L480,682 L477,658 L155,658 L120,374 L406,374 L404,351 L117,350 L77,24 L429,24 L427,0 L50,0 M253,788 Q262,788 268,782 Q274,776 274,767 Q274,755 266,746.5 Q258,738 247,738 Q238,738 232,744 Q226,750 226,760 Q226,771 234,779.5 Q242,788 253,788 M382,788 Q391,788 397,782 Q403,776 403,767 Q403,755 395,746.5 Q387,738 376,738 Q367,738 361,744 Q355,750 355,760 Q355,771 363,779.5 Q371,788 382,788"/> 
            <glyph glyph-name="Ì" unicode="&#xCC;" horiz-adv-x="169" d=" M60,0 L143,682 L169,682 L86,0 M152,713 L60,844 L88,866 L167,723"/> 
            <glyph glyph-name="Í" unicode="&#xCD;" horiz-adv-x="274" d=" M60,0 L143,682 L169,682 L86,0 M137,723 L252,866 L274,844 L151,713"/> 
            <glyph glyph-name="Î" unicode="&#xCE;" horiz-adv-x="294" d=" M60,0 L143,682 L169,682 L86,0 M168,805 L27,702 L18,714 L158,837 L185,837 L294,715 L284,703"/> 
            <glyph glyph-name="Ï" unicode="&#xCF;" horiz-adv-x="257" d=" M60,0 L143,682 L169,682 L86,0 M107,791 Q116,791 122,785 Q128,779 128,770 Q128,758 120,749.5 Q112,741 101,741 Q92,741 86,747 Q80,753 80,763 Q80,774 88,782.5 Q96,791 107,791 M236,791 Q245,791 251,785 Q257,779 257,770 Q257,758 249,749.5 Q241,741 230,741 Q221,741 215,747 Q209,753 209,763 Q209,774 217,782.5 Q225,791 236,791"/> 
            <glyph glyph-name="Ð" unicode="&#xD0;" horiz-adv-x="536" d=" M315,682 Q380,682 423,661.5 Q466,641 491,605 Q516,569 526,520 Q536,471 536,415 Q536,333 520,258 Q504,183 467.5,125.5 Q431,68 371,34 Q311,0 224,0 L50,0 L92,347 L31,347 L34,369 L94,369 L133,682 M120,369 L327,369 L324,347 L117,347 L78,25 L221,25 Q236,25 263,27 Q290,29 322,40 Q354,51 387.5,74.5 Q421,98 448.5,141 Q476,184 493.5,250 Q511,316 511,412 Q511,473 500.5,515 Q490,557 472,584.5 Q454,612 432,626.5 Q410,641 387,648 Q364,655 342,656.5 Q320,658 304,658 L155,658"/> 
            <glyph glyph-name="Ñ" unicode="&#xD1;" horiz-adv-x="586" d=" M482,49 L559,682 L586,682 L502,0 L476,0 L209,528 L156,635 L153,635 L76,0 L50,0 L133,682 L160,682 L438,132 L479,49 M252,735 L240,742 Q251,768 271,783.5 Q291,799 312,799 Q327,799 345,793.5 Q363,788 381,781 Q399,774 416.5,768.5 Q434,763 449,763 L497,802 L508,795 Q497,773 480,755.5 Q463,738 441,738 Q428,738 410,744 Q392,750 372.5,757 Q353,764 335,770 Q317,776 304,776"/> 
            <glyph glyph-name="Ò" unicode="&#xD2;" horiz-adv-x="589" d=" M373,692 Q436,692 477.5,670 Q519,648 544,610.5 Q569,573 579,522.5 Q589,472 589,416 Q589,331 569.5,254.5 Q550,178 512.5,120 Q475,62 419.5,27.5 Q364,-7 292,-7 Q231,-7 188.5,11 Q146,29 120,63 Q94,97 82,146.5 Q70,196 70,259 Q70,338 85,416 Q100,494 135.5,555 Q171,616 229,654 Q287,692 373,692 M374,669 Q291,669 237.5,630.5 Q184,592 152,532 Q120,472 107.5,399.5 Q95,327 95,259 Q95,139 140,77.5 Q185,16 289,16 Q362,16 414,52 Q466,88 499,145.5 Q532,203 547.5,274 Q563,345 563,415 Q563,462 555.5,507.5 Q548,553 527,589 Q506,625 469,647 Q432,669 374,669 M388,713 L296,844 L324,866 L403,723"/> 
            <glyph glyph-name="Ó" unicode="&#xD3;" horiz-adv-x="589" d=" M373,692 Q436,692 477.5,670 Q519,648 544,610.5 Q569,573 579,522.5 Q589,472 589,416 Q589,331 569.5,254.5 Q550,178 512.5,120 Q475,62 419.5,27.5 Q364,-7 292,-7 Q231,-7 188.5,11 Q146,29 120,63 Q94,97 82,146.5 Q70,196 70,259 Q70,338 85,416 Q100,494 135.5,555 Q171,616 229,654 Q287,692 373,692 M374,669 Q291,669 237.5,630.5 Q184,592 152,532 Q120,472 107.5,399.5 Q95,327 95,259 Q95,139 140,77.5 Q185,16 289,16 Q362,16 414,52 Q466,88 499,145.5 Q532,203 547.5,274 Q563,345 563,415 Q563,462 555.5,507.5 Q548,553 527,589 Q506,625 469,647 Q432,669 374,669 M371,723 L486,866 L508,844 L385,713"/> 
            <glyph glyph-name="Ô" unicode="&#xD4;" horiz-adv-x="589" d=" M373,692 Q436,692 477.5,670 Q519,648 544,610.5 Q569,573 579,522.5 Q589,472 589,416 Q589,331 569.5,254.5 Q550,178 512.5,120 Q475,62 419.5,27.5 Q364,-7 292,-7 Q231,-7 188.5,11 Q146,29 120,63 Q94,97 82,146.5 Q70,196 70,259 Q70,338 85,416 Q100,494 135.5,555 Q171,616 229,654 Q287,692 373,692 M374,669 Q291,669 237.5,630.5 Q184,592 152,532 Q120,472 107.5,399.5 Q95,327 95,259 Q95,139 140,77.5 Q185,16 289,16 Q362,16 414,52 Q466,88 499,145.5 Q532,203 547.5,274 Q563,345 563,415 Q563,462 555.5,507.5 Q548,553 527,589 Q506,625 469,647 Q432,669 374,669 M399,819 L258,716 L249,728 L389,851 L416,851 L525,729 L515,717"/> 
            <glyph glyph-name="Õ" unicode="&#xD5;" horiz-adv-x="589" d=" M373,692 Q436,692 477.5,670 Q519,648 544,610.5 Q569,573 579,522.5 Q589,472 589,416 Q589,331 569.5,254.5 Q550,178 512.5,120 Q475,62 419.5,27.5 Q364,-7 292,-7 Q231,-7 188.5,11 Q146,29 120,63 Q94,97 82,146.5 Q70,196 70,259 Q70,338 85,416 Q100,494 135.5,555 Q171,616 229,654 Q287,692 373,692 M374,669 Q291,669 237.5,630.5 Q184,592 152,532 Q120,472 107.5,399.5 Q95,327 95,259 Q95,139 140,77.5 Q185,16 289,16 Q362,16 414,52 Q466,88 499,145.5 Q532,203 547.5,274 Q563,345 563,415 Q563,462 555.5,507.5 Q548,553 527,589 Q506,625 469,647 Q432,669 374,669 M268,763 L256,770 Q267,796 287,811.5 Q307,827 328,827 Q343,827 361,821.5 Q379,816 397,809 Q415,802 432.5,796.5 Q450,791 465,791 L513,830 L524,823 Q513,801 496,783.5 Q479,766 457,766 Q444,766 426,772 Q408,778 388.5,785 Q369,792 351,798 Q333,804 320,804"/> 
            <glyph glyph-name="Ö" unicode="&#xD6;" horiz-adv-x="589" d=" M373,692 Q436,692 477.5,670 Q519,648 544,610.5 Q569,573 579,522.5 Q589,472 589,416 Q589,331 569.5,254.5 Q550,178 512.5,120 Q475,62 419.5,27.5 Q364,-7 292,-7 Q231,-7 188.5,11 Q146,29 120,63 Q94,97 82,146.5 Q70,196 70,259 Q70,338 85,416 Q100,494 135.5,555 Q171,616 229,654 Q287,692 373,692 M374,669 Q291,669 237.5,630.5 Q184,592 152,532 Q120,472 107.5,399.5 Q95,327 95,259 Q95,139 140,77.5 Q185,16 289,16 Q362,16 414,52 Q466,88 499,145.5 Q532,203 547.5,274 Q563,345 563,415 Q563,462 555.5,507.5 Q548,553 527,589 Q506,625 469,647 Q432,669 374,669 M328,801 Q337,801 343,795 Q349,789 349,780 Q349,768 341,759.5 Q333,751 322,751 Q313,751 307,757 Q301,763 301,773 Q301,784 309,792.5 Q317,801 328,801 M457,801 Q466,801 472,795 Q478,789 478,780 Q478,768 470,759.5 Q462,751 451,751 Q442,751 436,757 Q430,763 430,773 Q430,784 438,792.5 Q446,801 457,801"/> 
            <glyph glyph-name="ç" unicode="&#xE7;" horiz-adv-x="395" d=" M269,492 Q304,492 337.5,485 Q371,478 395,467 L386,447 Q351,461 320,465.5 Q289,470 267,470 Q218,470 180.5,448 Q143,426 117,387 Q91,348 77.5,293.5 Q64,239 64,174 Q64,141 70.5,111.5 Q77,82 93,60.5 Q109,39 134.5,26.5 Q160,14 199,14 Q240,14 274,23 Q308,32 350,49 L359,32 Q332,18 294,7 Q256,-4 216,-6 L155,-75 Q205,-75 234.5,-88 Q264,-101 264,-139 Q264,-158 253.5,-176 Q243,-194 222,-208 Q201,-222 169,-230.5 Q137,-239 94,-239 L95,-222 Q134,-219 160.5,-211 Q187,-203 203,-192 Q219,-181 226,-167 Q233,-153 233,-139 Q233,-116 211,-105 Q189,-94 154,-94 Q149,-94 143.5,-94.5 Q138,-95 133,-95 L126,-81 L193,-7 Q151,-6 122,8 Q93,22 75,46 Q57,70 49,103 Q41,136 41,177 Q41,200 44,232.5 Q47,265 56,300 Q65,335 81,369.5 Q97,404 122,431 Q147,458 183,475 Q219,492 269,492"/> 
            <glyph glyph-name="è" unicode="&#xE8;" horiz-adv-x="392" d=" M194,-6 Q148,-6 118,8.5 Q88,23 71,48 Q54,73 47,106 Q40,139 40,176 Q40,221 51,276 Q62,331 88.5,378.5 Q115,426 159.5,458.5 Q204,491 271,491 Q304,491 327,481.5 Q350,472 364.5,457 Q379,442 385.5,423 Q392,404 392,385 Q392,335 364.5,302 Q337,269 291.5,248.5 Q246,228 187,218 Q128,208 66,204 Q64,191 64,183 Q64,175 64,168 Q64,142 69.5,115 Q75,88 89.5,65.5 Q104,43 130,28.5 Q156,14 197,14 Q269,14 341,47 L349,29 Q285,-6 194,-6 M267,469 Q223,469 188,448.5 Q153,428 127.5,394 Q102,360 86.5,316.5 Q71,273 67,227 Q208,234 287.5,270.5 Q367,307 367,380 Q367,420 342.5,444.5 Q318,469 267,469 M298,543 L185,667 L212,689 L312,554"/> 
            <glyph glyph-name="é" unicode="&#xE9;" horiz-adv-x="392" d=" M194,-6 Q148,-6 118,8.5 Q88,23 71,48 Q54,73 47,106 Q40,139 40,176 Q40,221 51,276 Q62,331 88.5,378.5 Q115,426 159.5,458.5 Q204,491 271,491 Q304,491 327,481.5 Q350,472 364.5,457 Q379,442 385.5,423 Q392,404 392,385 Q392,335 364.5,302 Q337,269 291.5,248.5 Q246,228 187,218 Q128,208 66,204 Q64,191 64,183 Q64,175 64,168 Q64,142 69.5,115 Q75,88 89.5,65.5 Q104,43 130,28.5 Q156,14 197,14 Q269,14 341,47 L349,29 Q285,-6 194,-6 M267,469 Q223,469 188,448.5 Q153,428 127.5,394 Q102,360 86.5,316.5 Q71,273 67,227 Q208,234 287.5,270.5 Q367,307 367,380 Q367,420 342.5,444.5 Q318,469 267,469 M249,564 L363,707 L386,685 L263,554"/> 
            <glyph glyph-name="ê" unicode="&#xEA;" horiz-adv-x="407" d=" M194,-6 Q148,-6 118,8.5 Q88,23 71,48 Q54,73 47,106 Q40,139 40,176 Q40,221 51,276 Q62,331 88.5,378.5 Q115,426 159.5,458.5 Q204,491 271,491 Q304,491 327,481.5 Q350,472 364.5,457 Q379,442 385.5,423 Q392,404 392,385 Q392,335 364.5,302 Q337,269 291.5,248.5 Q246,228 187,218 Q128,208 66,204 Q64,191 64,183 Q64,175 64,168 Q64,142 69.5,115 Q75,88 89.5,65.5 Q104,43 130,28.5 Q156,14 197,14 Q269,14 341,47 L349,29 Q285,-6 194,-6 M267,469 Q223,469 188,448.5 Q153,428 127.5,394 Q102,360 86.5,316.5 Q71,273 67,227 Q208,234 287.5,270.5 Q367,307 367,380 Q367,420 342.5,444.5 Q318,469 267,469 M280,635 L139,532 L131,544 L271,667 L298,667 L407,545 L395,533"/> 
            <glyph glyph-name="ë" unicode="&#xEB;" horiz-adv-x="392" d=" M194,-6 Q148,-6 118,8.5 Q88,23 71,48 Q54,73 47,106 Q40,139 40,176 Q40,221 51,276 Q62,331 88.5,378.5 Q115,426 159.5,458.5 Q204,491 271,491 Q304,491 327,481.5 Q350,472 364.5,457 Q379,442 385.5,423 Q392,404 392,385 Q392,335 364.5,302 Q337,269 291.5,248.5 Q246,228 187,218 Q128,208 66,204 Q64,191 64,183 Q64,175 64,168 Q64,142 69.5,115 Q75,88 89.5,65.5 Q104,43 130,28.5 Q156,14 197,14 Q269,14 341,47 L349,29 Q285,-6 194,-6 M267,469 Q223,469 188,448.5 Q153,428 127.5,394 Q102,360 86.5,316.5 Q71,273 67,227 Q208,234 287.5,270.5 Q367,307 367,380 Q367,420 342.5,444.5 Q318,469 267,469 M230,633 Q239,633 245,627 Q251,621 251,612 Q251,600 243,591.5 Q235,583 224,583 Q215,583 209,589 Q203,595 203,605 Q203,616 211,624.5 Q219,633 230,633 M359,633 Q368,633 374,627 Q380,621 380,612 Q380,600 372,591.5 Q364,583 353,583 Q344,583 338,589 Q332,595 332,605 Q332,616 340,624.5 Q348,633 359,633"/> 
            <glyph glyph-name="ì" unicode="&#xEC;" horiz-adv-x="162" d=" M55,0 L115,486 L137,486 L78,0 M148,543 L35,667 L62,689 L162,554"/> 
            <glyph glyph-name="í" unicode="&#xED;" horiz-adv-x="251" d=" M55,0 L115,486 L137,486 L78,0 M114,564 L228,707 L251,685 L128,554"/> 
            <glyph glyph-name="î" unicode="&#xEE;" horiz-adv-x="278" d=" M63,0 L123,486 L145,486 L86,0 M151,651 L10,548 L2,560 L142,683 L169,683 L278,561 L266,549"/> 
            <glyph glyph-name="ï" unicode="&#xEF;" horiz-adv-x="225" d=" M55,0 L115,486 L137,486 L78,0 M75,633 Q84,633 90,627 Q96,621 96,612 Q96,600 88,591.5 Q80,583 69,583 Q60,583 54,589 Q48,595 48,605 Q48,616 56,624.5 Q64,633 75,633 M204,633 Q213,633 219,627 Q225,621 225,612 Q225,600 217,591.5 Q209,583 198,583 Q189,583 183,589 Q177,595 177,605 Q177,616 185,624.5 Q193,633 204,633"/> 
            <glyph glyph-name="ð" unicode="&#xF0;" horiz-adv-x="423" d=" M247,428 Q191,428 155,399.5 Q119,371 98.5,330.5 Q78,290 70,247 Q62,204 62,175 Q62,145 68.5,116 Q75,87 90.5,64.5 Q106,42 133,28.5 Q160,15 201,15 Q245,15 276.5,33.5 Q308,52 330.5,82 Q353,112 366,149.5 Q379,187 386.5,225 Q394,263 395.5,297 Q397,331 396,355 Q373,389 332.5,408.5 Q292,428 247,428 M394,396 Q391,420 386.5,441 Q382,462 374.5,481.5 Q367,501 355.5,520 Q344,539 328,561 L231,498 L221,515 L317,577 Q291,609 258.5,634 Q226,659 188,681 L197,699 Q239,676 274,649 Q309,622 335,589 L414,640 L423,622 L348,573 Q418,476 418,339 Q418,317 415.5,283 Q413,249 405,211 Q397,173 382.5,134 Q368,95 343,64 Q318,33 282,13.5 Q246,-6 196,-6 Q150,-6 120,10 Q90,26 72,52.5 Q54,79 46.5,112.5 Q39,146 39,182 Q39,217 49,263 Q59,309 83.5,350.5 Q108,392 148.5,420.5 Q189,449 250,449 Q294,449 332,432 Q370,415 389,394"/> 
            <glyph glyph-name="ñ" unicode="&#xF1;" horiz-adv-x="407" d=" M112,406 Q166,446 212,470 Q258,494 303,494 Q334,494 354,485.5 Q374,477 386,463 Q398,449 402.5,430.5 Q407,412 407,392 Q407,386 406.5,379.5 Q406,373 405,366 L364,0 L341,0 L381,349 Q384,368 384,389 Q384,406 380.5,421 Q377,436 367.5,447.5 Q358,459 341.5,466 Q325,473 299,473 Q275,473 251.5,465 Q228,457 204,443.5 Q180,430 155.5,413 Q131,396 106,377 L57,0 L35,0 L96,486 L119,486 L109,408 M139,594 L127,601 Q138,627 158,642.5 Q178,658 199,658 Q214,658 232,652.5 Q250,647 268,640 Q286,633 303.5,627.5 Q321,622 336,622 L384,661 L395,654 Q384,632 367,614.5 Q350,597 328,597 Q315,597 297,603 Q279,609 259.5,616 Q240,623 222,629 Q204,635 191,635"/> 
            <glyph glyph-name="ò" unicode="&#xF2;" horiz-adv-x="413" d=" M256,491 Q301,491 331.5,475 Q362,459 380,433 Q398,407 405.5,372 Q413,337 413,300 Q413,254 403.5,200 Q394,146 370,100 Q346,54 304,23.5 Q262,-7 198,-7 Q151,-7 120.5,8 Q90,23 72,48.5 Q54,74 47,108 Q40,142 40,180 Q40,230 51,285 Q62,340 87,385.5 Q112,431 153.5,461 Q195,491 256,491 M256,470 Q201,470 164,442 Q127,414 104.5,371 Q82,328 72.5,276.5 Q63,225 63,179 Q63,147 68.5,117.5 Q74,88 89,65 Q104,42 131,28 Q158,14 201,14 Q240,14 269,28 Q298,42 319,65.5 Q340,89 353.5,118.5 Q367,148 375,179.5 Q383,211 386,241 Q389,271 389,296 Q389,328 383.5,359.5 Q378,391 363,415.5 Q348,440 322,455 Q296,470 256,470 M291,543 L178,667 L205,689 L305,554"/> 
            <glyph glyph-name="ó" unicode="&#xF3;" horiz-adv-x="413" d=" M256,491 Q301,491 331.5,475 Q362,459 380,433 Q398,407 405.5,372 Q413,337 413,300 Q413,254 403.5,200 Q394,146 370,100 Q346,54 304,23.5 Q262,-7 198,-7 Q151,-7 120.5,8 Q90,23 72,48.5 Q54,74 47,108 Q40,142 40,180 Q40,230 51,285 Q62,340 87,385.5 Q112,431 153.5,461 Q195,491 256,491 M256,470 Q201,470 164,442 Q127,414 104.5,371 Q82,328 72.5,276.5 Q63,225 63,179 Q63,147 68.5,117.5 Q74,88 89,65 Q104,42 131,28 Q158,14 201,14 Q240,14 269,28 Q298,42 319,65.5 Q340,89 353.5,118.5 Q367,148 375,179.5 Q383,211 386,241 Q389,271 389,296 Q389,328 383.5,359.5 Q378,391 363,415.5 Q348,440 322,455 Q296,470 256,470 M242,564 L356,707 L379,685 L256,554"/> 
            <glyph glyph-name="ô" unicode="&#xF4;" horiz-adv-x="413" d=" M256,491 Q301,491 331.5,475 Q362,459 380,433 Q398,407 405.5,372 Q413,337 413,300 Q413,254 403.5,200 Q394,146 370,100 Q346,54 304,23.5 Q262,-7 198,-7 Q151,-7 120.5,8 Q90,23 72,48.5 Q54,74 47,108 Q40,142 40,180 Q40,230 51,285 Q62,340 87,385.5 Q112,431 153.5,461 Q195,491 256,491 M256,470 Q201,470 164,442 Q127,414 104.5,371 Q82,328 72.5,276.5 Q63,225 63,179 Q63,147 68.5,117.5 Q74,88 89,65 Q104,42 131,28 Q158,14 201,14 Q240,14 269,28 Q298,42 319,65.5 Q340,89 353.5,118.5 Q367,148 375,179.5 Q383,211 386,241 Q389,271 389,296 Q389,328 383.5,359.5 Q378,391 363,415.5 Q348,440 322,455 Q296,470 256,470 M286,653 L145,550 L137,562 L277,685 L304,685 L413,563 L401,551"/> 
            <glyph glyph-name="õ" unicode="&#xF5;" horiz-adv-x="415" d=" M256,491 Q301,491 331.5,475 Q362,459 380,433 Q398,407 405.5,372 Q413,337 413,300 Q413,254 403.5,200 Q394,146 370,100 Q346,54 304,23.5 Q262,-7 198,-7 Q151,-7 120.5,8 Q90,23 72,48.5 Q54,74 47,108 Q40,142 40,180 Q40,230 51,285 Q62,340 87,385.5 Q112,431 153.5,461 Q195,491 256,491 M256,470 Q201,470 164,442 Q127,414 104.5,371 Q82,328 72.5,276.5 Q63,225 63,179 Q63,147 68.5,117.5 Q74,88 89,65 Q104,42 131,28 Q158,14 201,14 Q240,14 269,28 Q298,42 319,65.5 Q340,89 353.5,118.5 Q367,148 375,179.5 Q383,211 386,241 Q389,271 389,296 Q389,328 383.5,359.5 Q378,391 363,415.5 Q348,440 322,455 Q296,470 256,470 M159,581 L147,588 Q158,614 178,629.5 Q198,645 219,645 Q234,645 252,639.5 Q270,634 288,627 Q306,620 323.5,614.5 Q341,609 356,609 L404,648 L415,641 Q404,619 387,601.5 Q370,584 348,584 Q335,584 317,590 Q299,596 279.5,603 Q260,610 242,616 Q224,622 211,622"/> 
            <glyph glyph-name="ö" unicode="&#xF6;" horiz-adv-x="413" d=" M256,491 Q301,491 331.5,475 Q362,459 380,433 Q398,407 405.5,372 Q413,337 413,300 Q413,254 403.5,200 Q394,146 370,100 Q346,54 304,23.5 Q262,-7 198,-7 Q151,-7 120.5,8 Q90,23 72,48.5 Q54,74 47,108 Q40,142 40,180 Q40,230 51,285 Q62,340 87,385.5 Q112,431 153.5,461 Q195,491 256,491 M256,470 Q201,470 164,442 Q127,414 104.5,371 Q82,328 72.5,276.5 Q63,225 63,179 Q63,147 68.5,117.5 Q74,88 89,65 Q104,42 131,28 Q158,14 201,14 Q240,14 269,28 Q298,42 319,65.5 Q340,89 353.5,118.5 Q367,148 375,179.5 Q383,211 386,241 Q389,271 389,296 Q389,328 383.5,359.5 Q378,391 363,415.5 Q348,440 322,455 Q296,470 256,470 M220,633 Q229,633 235,627 Q241,621 241,612 Q241,600 233,591.5 Q225,583 214,583 Q205,583 199,589 Q193,595 193,605 Q193,616 201,624.5 Q209,633 220,633 M349,633 Q358,633 364,627 Q370,621 370,612 Q370,600 362,591.5 Q354,583 343,583 Q334,583 328,589 Q322,595 322,605 Q322,616 330,624.5 Q338,633 349,633"/> 
            <glyph glyph-name="ø" unicode="&#xF8;" horiz-adv-x="442" d=" M256,491 Q299,491 328,476.5 Q357,462 376,438 L419,491 L442,491 L386,423 Q400,397 406.5,365.5 Q413,334 413,300 Q413,254 403.5,200 Q394,146 370,100 Q346,54 304,23.5 Q262,-7 198,-7 Q153,-7 123.5,6.5 Q94,20 76,43 L36,-5 L15,-5 L66,58 Q52,83 46,114 Q40,145 40,180 Q40,230 51,285 Q62,340 87,385.5 Q112,431 153.5,461 Q195,491 256,491 M256,470 Q201,470 164,442 Q127,414 104.5,371 Q82,328 72.5,276.5 Q63,225 63,179 Q63,151 67,125 Q71,99 82,77 L360,419 Q345,442 319.5,456 Q294,470 256,470 M389,296 Q389,324 384.5,351.5 Q380,379 369,402 L91,62 Q106,40 132.5,27 Q159,14 201,14 Q240,14 269,28 Q298,42 319,65.5 Q340,89 353.5,118.5 Q367,148 375,179.5 Q383,211 386,241 Q389,271 389,296"/> 
            <glyph glyph-name="ù" unicode="&#xF9;" horiz-adv-x="412" d=" M337,80 Q278,35 234,13.5 Q190,-8 146,-8 Q115,-8 95.5,0 Q76,8 64.5,22 Q53,36 49,54.5 Q45,73 45,93 Q45,99 45.5,105.5 Q46,112 47,119 L89,486 L112,486 L71,136 Q68,116 68,96 Q68,79 71,64 Q74,49 83,37.5 Q92,26 108,19.5 Q124,13 150,13 Q192,13 240,39 Q288,65 343,109 L390,486 L412,486 L353,0 L330,0 L340,78 M268,543 L155,667 L182,689 L282,554"/> 
            <glyph glyph-name="ú" unicode="&#xFA;" horiz-adv-x="412" d=" M337,80 Q278,35 234,13.5 Q190,-8 146,-8 Q115,-8 95.5,0 Q76,8 64.5,22 Q53,36 49,54.5 Q45,73 45,93 Q45,99 45.5,105.5 Q46,112 47,119 L89,486 L112,486 L71,136 Q68,116 68,96 Q68,79 71,64 Q74,49 83,37.5 Q92,26 108,19.5 Q124,13 150,13 Q192,13 240,39 Q288,65 343,109 L390,486 L412,486 L353,0 L330,0 L340,78 M233,564 L347,707 L370,685 L247,554"/> 
            <glyph glyph-name="û" unicode="&#xFB;" horiz-adv-x="412" d=" M337,80 Q278,35 234,13.5 Q190,-8 146,-8 Q115,-8 95.5,0 Q76,8 64.5,22 Q53,36 49,54.5 Q45,73 45,93 Q45,99 45.5,105.5 Q46,112 47,119 L89,486 L112,486 L71,136 Q68,116 68,96 Q68,79 71,64 Q74,49 83,37.5 Q92,26 108,19.5 Q124,13 150,13 Q192,13 240,39 Q288,65 343,109 L390,486 L412,486 L353,0 L330,0 L340,78 M270,653 L129,550 L121,562 L261,685 L288,685 L397,563 L385,551"/> 
            <glyph glyph-name="ü" unicode="&#xFC;" horiz-adv-x="412" d=" M337,80 Q278,35 234,13.5 Q190,-8 146,-8 Q115,-8 95.5,0 Q76,8 64.5,22 Q53,36 49,54.5 Q45,73 45,93 Q45,99 45.5,105.5 Q46,112 47,119 L89,486 L112,486 L71,136 Q68,116 68,96 Q68,79 71,64 Q74,49 83,37.5 Q92,26 108,19.5 Q124,13 150,13 Q192,13 240,39 Q288,65 343,109 L390,486 L412,486 L353,0 L330,0 L340,78 M330,633 Q339,633 345,627 Q351,621 351,612 Q351,600 343,591.5 Q335,583 324,583 Q315,583 309,589 Q303,595 303,605 Q303,616 311,624.5 Q319,633 330,633 M201,633 Q210,633 216,627 Q222,621 222,612 Q222,600 214,591.5 Q206,583 195,583 Q186,583 180,589 Q174,595 174,605 Q174,616 182,624.5 Q190,633 201,633"/> 
            <glyph glyph-name="ý" unicode="&#xFD;" horiz-adv-x="396" d=" M133,-119 Q112,-165 88.5,-192 Q65,-219 22,-219 Q8,-219 -14.5,-215.5 Q-37,-212 -65,-201 L-58,-182 Q-32,-191 -14,-194.5 Q4,-198 20,-198 Q28,-198 38.5,-196 Q49,-194 60.5,-186 Q72,-178 84,-162 Q96,-146 108,-118 L160,0 L147,0 L44,486 L67,486 L128,195 L165,18 L169,18 Q172,24 179,40 Q186,56 196,80 Q206,104 218.5,134 Q231,164 245,196 L373,494 L396,488 M189,556 L303,699 L326,677 L203,546"/> 
            <glyph glyph-name="þ" unicode="&#xFE;" horiz-adv-x="416" d=" M141,708 L105,417 L106,415 Q154,453 196,472.5 Q238,492 283,492 Q341,492 378,449.5 Q415,407 416,329 Q416,265 402.5,205 Q389,145 360,98.5 Q331,52 287.5,23.5 Q244,-5 184,-5 Q151,-5 120.5,4 Q90,13 58,28 L27,-213 L6,-213 L119,708 M188,17 Q231,17 268.5,38 Q306,59 333.5,98.5 Q361,138 376.5,194.5 Q392,251 392,321 Q392,398 359,434.5 Q326,471 281,471 Q235,471 191,446 Q147,421 103,386 L60,52 Q97,32 127.5,24.5 Q158,17 188,17"/> 
            <glyph glyph-name="ÿ" unicode="&#xFF;" horiz-adv-x="396" d=" M133,-119 Q112,-165 88.5,-192 Q65,-219 22,-219 Q8,-219 -14.5,-215.5 Q-37,-212 -65,-201 L-58,-182 Q-32,-191 -14,-194.5 Q4,-198 20,-198 Q28,-198 38.5,-196 Q49,-194 60.5,-186 Q72,-178 84,-162 Q96,-146 108,-118 L160,0 L147,0 L44,486 L67,486 L128,195 L165,18 L169,18 Q172,24 179,40 Q186,56 196,80 Q206,104 218.5,134 Q231,164 245,196 L373,494 L396,488 M308,633 Q317,633 323,627 Q329,621 329,612 Q329,600 321,591.5 Q313,583 302,583 Q293,583 287,589 Q281,595 281,605 Q281,616 289,624.5 Q297,633 308,633 M179,633 Q188,633 194,627 Q200,621 200,612 Q200,600 192,591.5 Q184,583 173,583 Q164,583 158,589 Q152,595 152,605 Q152,616 160,624.5 Q168,633 179,633"/> 
            <glyph glyph-name="Ā" unicode="&#x100;" horiz-adv-x="457" d=" M392,197 L106,197 L22,0 L-5,0 L291,682 L326,682 L455,0 L430,0 M243,513 L116,221 L387,221 L333,513 L307,656 L304,656 M457,774 L453,748 L176,748 L180,774"/> 
            <glyph glyph-name="ā" unicode="&#x101;" horiz-adv-x="434" d=" M433,26 L434,10 Q399,-3 373,-3 Q355,-3 348.5,4.5 Q342,12 345,32 L350,69 L349,71 Q303,33 261,13.5 Q219,-6 174,-6 Q116,-6 79,36.5 Q42,79 41,157 Q41,221 54.5,281 Q68,341 97,387.5 Q126,434 169.5,462.5 Q213,491 273,491 Q306,491 337.5,482 Q369,473 401,458 L408,486 L425,486 L368,25 M269,469 Q225,469 188,448 Q151,427 123.5,387.5 Q96,348 80.5,291.5 Q65,235 65,165 Q65,88 98,51.5 Q131,15 176,15 Q222,15 266,40 Q310,65 354,100 L397,433 Q360,453 329.5,461 Q299,469 269,469 M434,626 L431,600 L153,600 L156,626"/> 
            <glyph glyph-name="Ă" unicode="&#x102;" horiz-adv-x="460" d=" M392,197 L106,197 L22,0 L-5,0 L291,682 L326,682 L455,0 L430,0 M243,513 L116,221 L387,221 L333,513 L307,656 L304,656 M306,718 Q263,718 231.5,745 Q200,772 183,808 L207,822 Q225,787 252,765.5 Q279,744 311,744 Q337,744 370.5,760.5 Q404,777 449,818 L460,809 Q415,757 376.5,737.5 Q338,718 306,718"/> 
            <glyph glyph-name="ă" unicode="&#x103;" horiz-adv-x="434" d=" M433,26 L434,10 Q399,-3 373,-3 Q355,-3 348.5,4.5 Q342,12 345,32 L350,69 L349,71 Q303,33 261,13.5 Q219,-6 174,-6 Q116,-6 79,36.5 Q42,79 41,157 Q41,221 54.5,281 Q68,341 97,387.5 Q126,434 169.5,462.5 Q213,491 273,491 Q306,491 337.5,482 Q369,473 401,458 L408,486 L425,486 L368,25 M269,469 Q225,469 188,448 Q151,427 123.5,387.5 Q96,348 80.5,291.5 Q65,235 65,165 Q65,88 98,51.5 Q131,15 176,15 Q222,15 266,40 Q310,65 354,100 L397,433 Q360,453 329.5,461 Q299,469 269,469 M265,566 Q222,566 190.5,593 Q159,620 142,656 L167,670 Q184,635 211,613.5 Q238,592 270,592 Q296,592 330,607 Q364,622 408,666 L419,657 Q375,605 336.5,585.5 Q298,566 265,566"/> 
            <glyph glyph-name="Ą" unicode="&#x104;" horiz-adv-x="483" d=" M437,0 Q393,-38 375.5,-71.5 Q358,-105 356,-124 Q352,-154 369.5,-164.5 Q387,-175 412,-175 Q431,-175 447.5,-172 Q464,-169 478,-165 L483,-179 Q460,-190 437.5,-195 Q415,-200 396,-200 Q354,-200 338,-180.5 Q322,-161 326,-134 Q329,-107 350,-70.5 Q371,-34 428,10 L392,197 L106,197 L22,0 L-5,0 L291,682 L326,682 L455,0 M243,513 L116,221 L387,221 L333,513 L307,656 L304,656"/> 
            <glyph glyph-name="ą" unicode="&#x105;" horiz-adv-x="434" d=" M433,26 L434,10 Q399,-3 373,-3 Q358,-3 351,2 Q308,-35 291.5,-67 Q275,-99 273,-119 Q269,-149 286.5,-159.5 Q304,-170 329,-170 Q348,-170 364.5,-167 Q381,-164 395,-160 L400,-174 Q377,-185 354.5,-190 Q332,-195 313,-195 Q271,-195 255,-175.5 Q239,-156 243,-129 Q246,-102 267,-66 Q288,-30 344,14 Q343,19 345,32 L350,69 L349,71 Q303,33 261,13.5 Q219,-6 174,-6 Q116,-6 79,36.5 Q42,79 41,157 Q41,221 54.5,281 Q68,341 97,387.5 Q126,434 169.5,462.5 Q213,491 273,491 Q306,491 337.5,482 Q369,473 401,458 L408,486 L425,486 L368,25 M269,469 Q225,469 188,448 Q151,427 123.5,387.5 Q96,348 80.5,291.5 Q65,235 65,165 Q65,88 98,51.5 Q131,15 176,15 Q222,15 266,40 Q310,65 354,100 L397,433 Q360,453 329.5,461 Q299,469 269,469"/> 
            <glyph glyph-name="Ć" unicode="&#x106;" horiz-adv-x="535" d=" M469,18 Q431,4 381.5,-1.5 Q332,-7 291,-7 Q231,-7 189,10.5 Q147,28 120.5,61.5 Q94,95 82,143 Q70,191 70,251 Q70,288 74.5,335 Q79,382 91.5,431 Q104,480 125.5,527 Q147,574 181,610.5 Q215,647 263,669.5 Q311,692 376,692 Q427,692 469,684 Q511,676 535,666 L526,645 Q491,656 451.5,662.5 Q412,669 377,669 Q304,669 251,637 Q198,605 164,548 Q130,491 113.5,413.5 Q97,336 97,246 Q97,200 104.5,158.5 Q112,117 134,85.5 Q156,54 194.5,35.5 Q233,17 295,17 Q308,17 327.5,18 Q347,19 369.5,22 Q392,25 415.5,29 Q439,33 462,39 M349,723 L464,866 L486,844 L363,713"/> 
            <glyph glyph-name="ć" unicode="&#x107;" horiz-adv-x="395" d=" M269,492 Q304,492 337.5,485 Q371,478 395,467 L386,447 Q351,461 320,465.5 Q289,470 267,470 Q218,470 180.5,448 Q143,426 117,387 Q91,348 77.5,293.5 Q64,239 64,174 Q64,141 70.5,111.5 Q77,82 93,60.5 Q109,39 134.5,26.5 Q160,14 199,14 Q240,14 274,23 Q308,32 350,49 L359,32 Q330,16 287.5,4.5 Q245,-7 201,-7 Q157,-7 126.5,6.5 Q96,20 77,44 Q58,68 49.5,102 Q41,136 41,177 Q41,200 44,232.5 Q47,265 56,300 Q65,335 81,369.5 Q97,404 122,431 Q147,458 183,475 Q219,492 269,492 M222,564 L336,707 L359,685 L236,554"/> 
            <glyph glyph-name="Ĉ" unicode="&#x108;" horiz-adv-x="535" d=" M469,18 Q431,4 381.5,-1.5 Q332,-7 291,-7 Q231,-7 189,10.5 Q147,28 120.5,61.5 Q94,95 82,143 Q70,191 70,251 Q70,288 74.5,335 Q79,382 91.5,431 Q104,480 125.5,527 Q147,574 181,610.5 Q215,647 263,669.5 Q311,692 376,692 Q427,692 469,684 Q511,676 535,666 L526,645 Q491,656 451.5,662.5 Q412,669 377,669 Q304,669 251,637 Q198,605 164,548 Q130,491 113.5,413.5 Q97,336 97,246 Q97,200 104.5,158.5 Q112,117 134,85.5 Q156,54 194.5,35.5 Q233,17 295,17 Q308,17 327.5,18 Q347,19 369.5,22 Q392,25 415.5,29 Q439,33 462,39 M366,819 L225,716 L216,728 L356,851 L383,851 L492,729 L482,717"/> 
            <glyph glyph-name="ĉ" unicode="&#x109;" horiz-adv-x="399" d=" M269,492 Q304,492 337.5,485 Q371,478 395,467 L386,447 Q351,461 320,465.5 Q289,470 267,470 Q218,470 180.5,448 Q143,426 117,387 Q91,348 77.5,293.5 Q64,239 64,174 Q64,141 70.5,111.5 Q77,82 93,60.5 Q109,39 134.5,26.5 Q160,14 199,14 Q240,14 274,23 Q308,32 350,49 L359,32 Q330,16 287.5,4.5 Q245,-7 201,-7 Q157,-7 126.5,6.5 Q96,20 77,44 Q58,68 49.5,102 Q41,136 41,177 Q41,200 44,232.5 Q47,265 56,300 Q65,335 81,369.5 Q97,404 122,431 Q147,458 183,475 Q219,492 269,492 M272,650 L131,547 L123,559 L263,682 L290,682 L399,560 L387,548"/> 
            <glyph glyph-name="Ċ" unicode="&#x10A;" horiz-adv-x="535" d=" M469,18 Q431,4 381.5,-1.5 Q332,-7 291,-7 Q231,-7 189,10.5 Q147,28 120.5,61.5 Q94,95 82,143 Q70,191 70,251 Q70,288 74.5,335 Q79,382 91.5,431 Q104,480 125.5,527 Q147,574 181,610.5 Q215,647 263,669.5 Q311,692 376,692 Q427,692 469,684 Q511,676 535,666 L526,645 Q491,656 451.5,662.5 Q412,669 377,669 Q304,669 251,637 Q198,605 164,548 Q130,491 113.5,413.5 Q97,336 97,246 Q97,200 104.5,158.5 Q112,117 134,85.5 Q156,54 194.5,35.5 Q233,17 295,17 Q308,17 327.5,18 Q347,19 369.5,22 Q392,25 415.5,29 Q439,33 462,39 M363,816 Q374,816 381,809.5 Q388,803 388,793 Q388,781 378.5,771.5 Q369,762 357,762 Q346,762 339,768.5 Q332,775 332,785 Q332,797 341.5,806.5 Q351,816 363,816"/> 
            <glyph glyph-name="ċ" unicode="&#x10B;" horiz-adv-x="395" d=" M269,492 Q304,492 337.5,485 Q371,478 395,467 L386,447 Q351,461 320,465.5 Q289,470 267,470 Q218,470 180.5,448 Q143,426 117,387 Q91,348 77.5,293.5 Q64,239 64,174 Q64,141 70.5,111.5 Q77,82 93,60.5 Q109,39 134.5,26.5 Q160,14 199,14 Q240,14 274,23 Q308,32 350,49 L359,32 Q330,16 287.5,4.5 Q245,-7 201,-7 Q157,-7 126.5,6.5 Q96,20 77,44 Q58,68 49.5,102 Q41,136 41,177 Q41,200 44,232.5 Q47,265 56,300 Q65,335 81,369.5 Q97,404 122,431 Q147,458 183,475 Q219,492 269,492 M273,622 Q283,622 289.5,615.5 Q296,609 296,599 Q296,587 287.5,578 Q279,569 268,569 Q258,569 251.5,575 Q245,581 245,591 Q245,603 253.5,612.5 Q262,622 273,622"/> 
            <glyph glyph-name="Č" unicode="&#x10C;" horiz-adv-x="535" d=" M469,18 Q431,4 381.5,-1.5 Q332,-7 291,-7 Q231,-7 189,10.5 Q147,28 120.5,61.5 Q94,95 82,143 Q70,191 70,251 Q70,288 74.5,335 Q79,382 91.5,431 Q104,480 125.5,527 Q147,574 181,610.5 Q215,647 263,669.5 Q311,692 376,692 Q427,692 469,684 Q511,676 535,666 L526,645 Q491,656 451.5,662.5 Q412,669 377,669 Q304,669 251,637 Q198,605 164,548 Q130,491 113.5,413.5 Q97,336 97,246 Q97,200 104.5,158.5 Q112,117 134,85.5 Q156,54 194.5,35.5 Q233,17 295,17 Q308,17 327.5,18 Q347,19 369.5,22 Q392,25 415.5,29 Q439,33 462,39 M506,852 L514,840 L375,718 L348,718 L238,841 L250,853 L366,750"/> 
            <glyph glyph-name="č" unicode="&#x10D;" horiz-adv-x="417" d=" M269,492 Q304,492 337.5,485 Q371,478 395,467 L386,447 Q351,461 320,465.5 Q289,470 267,470 Q218,470 180.5,448 Q143,426 117,387 Q91,348 77.5,293.5 Q64,239 64,174 Q64,141 70.5,111.5 Q77,82 93,60.5 Q109,39 134.5,26.5 Q160,14 199,14 Q240,14 274,23 Q308,32 350,49 L359,32 Q330,16 287.5,4.5 Q245,-7 201,-7 Q157,-7 126.5,6.5 Q96,20 77,44 Q58,68 49.5,102 Q41,136 41,177 Q41,200 44,232.5 Q47,265 56,300 Q65,335 81,369.5 Q97,404 122,431 Q147,458 183,475 Q219,492 269,492 M409,694 L417,682 L278,560 L251,560 L140,683 L153,695 L268,592"/> 
            <glyph glyph-name="Ď" unicode="&#x10E;" horiz-adv-x="536" d=" M315,682 Q380,682 423,661.5 Q466,641 491,605 Q516,569 526,520 Q536,471 536,415 Q536,333 520,258 Q504,183 467.5,125.5 Q431,68 371,34 Q311,0 224,0 L50,0 L133,682 M78,25 L221,25 Q236,25 263,27 Q290,29 322,40 Q354,51 387.5,74.5 Q421,98 448.5,141 Q476,184 493.5,250 Q511,316 511,412 Q511,473 500.5,515 Q490,557 472,584.5 Q454,612 432,626.5 Q410,641 387,648 Q364,655 342,656.5 Q320,658 304,658 L155,658 M443,852 L451,840 L312,718 L285,718 L175,841 L187,853 L303,750"/> 
            <glyph glyph-name="ď" unicode="&#x10F;" horiz-adv-x="571" d=" M545,700 Q556,700 563.5,692.5 Q571,685 571,671 Q571,622 517,579 L510,587 Q527,604 531.5,616.5 Q536,629 538,646 Q527,646 521,652 Q515,658 515,667 Q515,681 523.5,690.5 Q532,700 545,700 M341,0 L350,69 L349,71 Q303,33 261,13.5 Q219,-6 174,-6 Q116,-6 79,36.5 Q42,79 41,157 Q41,221 54.5,281 Q68,341 97,387.5 Q126,434 169.5,462.5 Q213,491 273,491 Q306,491 337.5,482 Q369,473 401,458 L432,708 L453,708 L365,0 M269,469 Q225,469 188,448 Q151,427 123.5,387.5 Q96,348 80.5,291.5 Q65,235 65,165 Q65,88 98,51.5 Q131,15 176,15 Q222,15 266,40 Q310,65 354,100 L397,434 Q360,454 329.5,461.5 Q299,469 269,469"/> 
            <glyph glyph-name="đ" unicode="&#x111;" horiz-adv-x="493" d=" M341,0 L350,69 L349,71 Q303,33 261,13.5 Q219,-6 174,-6 Q116,-6 79,36.5 Q42,79 41,157 Q41,221 54.5,281 Q68,341 97,387.5 Q126,434 169.5,462.5 Q213,491 273,491 Q306,491 337.5,482 Q369,473 401,458 L413,555 L255,555 L257,578 L416,578 L432,708 L453,708 L437,578 L493,578 L491,555 L434,555 L365,0 M269,469 Q225,469 188,448 Q151,427 123.5,387.5 Q96,348 80.5,291.5 Q65,235 65,165 Q65,88 98,51.5 Q131,15 176,15 Q222,15 266,40 Q310,65 354,100 L397,434 Q360,454 329.5,461.5 Q299,469 269,469"/> 
            <glyph glyph-name="Ē" unicode="&#x112;" horiz-adv-x="480" d=" M133,682 L480,682 L477,658 L155,658 L120,374 L406,374 L404,351 L117,350 L77,24 L429,24 L427,0 L50,0 M460,774 L456,748 L179,748 L183,774"/> 
            <glyph glyph-name="ē" unicode="&#x113;" horiz-adv-x="430" d=" M194,-6 Q148,-6 118,8.5 Q88,23 71,48 Q54,73 47,106 Q40,139 40,176 Q40,221 51,276 Q62,331 88.5,378.5 Q115,426 159.5,458.5 Q204,491 271,491 Q304,491 327,481.5 Q350,472 364.5,457 Q379,442 385.5,423 Q392,404 392,385 Q392,335 364.5,302 Q337,269 291.5,248.5 Q246,228 187,218 Q128,208 66,204 Q64,191 64,183 Q64,175 64,168 Q64,142 69.5,115 Q75,88 89.5,65.5 Q104,43 130,28.5 Q156,14 197,14 Q269,14 341,47 L349,29 Q285,-6 194,-6 M267,469 Q223,469 188,448.5 Q153,428 127.5,394 Q102,360 86.5,316.5 Q71,273 67,227 Q208,234 287.5,270.5 Q367,307 367,380 Q367,420 342.5,444.5 Q318,469 267,469 M430,626 L427,600 L149,600 L152,626"/> 
            <glyph glyph-name="Ĕ" unicode="&#x114;" horiz-adv-x="480" d=" M133,682 L480,682 L477,658 L155,658 L120,374 L406,374 L404,351 L117,350 L77,24 L429,24 L427,0 L50,0 M314,718 Q271,718 239.5,745 Q208,772 191,808 L215,822 Q233,787 260,765.5 Q287,744 319,744 Q345,744 378.5,760.5 Q412,777 457,818 L468,809 Q423,757 384.5,737.5 Q346,718 314,718"/> 
            <glyph glyph-name="ĕ" unicode="&#x115;" horiz-adv-x="423" d=" M194,-6 Q148,-6 118,8.5 Q88,23 71,48 Q54,73 47,106 Q40,139 40,176 Q40,221 51,276 Q62,331 88.5,378.5 Q115,426 159.5,458.5 Q204,491 271,491 Q304,491 327,481.5 Q350,472 364.5,457 Q379,442 385.5,423 Q392,404 392,385 Q392,335 364.5,302 Q337,269 291.5,248.5 Q246,228 187,218 Q128,208 66,204 Q64,191 64,183 Q64,175 64,168 Q64,142 69.5,115 Q75,88 89.5,65.5 Q104,43 130,28.5 Q156,14 197,14 Q269,14 341,47 L349,29 Q285,-6 194,-6 M267,469 Q223,469 188,448.5 Q153,428 127.5,394 Q102,360 86.5,316.5 Q71,273 67,227 Q208,234 287.5,270.5 Q367,307 367,380 Q367,420 342.5,444.5 Q318,469 267,469 M269,566 Q226,566 194.5,593 Q163,620 146,656 L171,670 Q188,635 215,613.5 Q242,592 274,592 Q300,592 334,607 Q368,622 412,666 L423,657 Q379,605 340.5,585.5 Q302,566 269,566"/> 
            <glyph glyph-name="Ė" unicode="&#x116;" horiz-adv-x="480" d=" M133,682 L480,682 L477,658 L155,658 L120,374 L406,374 L404,351 L117,350 L77,24 L429,24 L427,0 L50,0 M330,808 Q341,808 348,801.5 Q355,795 355,785 Q355,773 345.5,763.5 Q336,754 324,754 Q313,754 306,760.5 Q299,767 299,777 Q299,789 308.5,798.5 Q318,808 330,808"/> 
            <glyph glyph-name="ė" unicode="&#x117;" horiz-adv-x="392" d=" M194,-6 Q148,-6 118,8.5 Q88,23 71,48 Q54,73 47,106 Q40,139 40,176 Q40,221 51,276 Q62,331 88.5,378.5 Q115,426 159.5,458.5 Q204,491 271,491 Q304,491 327,481.5 Q350,472 364.5,457 Q379,442 385.5,423 Q392,404 392,385 Q392,335 364.5,302 Q337,269 291.5,248.5 Q246,228 187,218 Q128,208 66,204 Q64,191 64,183 Q64,175 64,168 Q64,142 69.5,115 Q75,88 89.5,65.5 Q104,43 130,28.5 Q156,14 197,14 Q269,14 341,47 L349,29 Q285,-6 194,-6 M267,469 Q223,469 188,448.5 Q153,428 127.5,394 Q102,360 86.5,316.5 Q71,273 67,227 Q208,234 287.5,270.5 Q367,307 367,380 Q367,420 342.5,444.5 Q318,469 267,469 M288,614 Q299,614 306,607.5 Q313,601 313,591 Q313,579 303.5,569.5 Q294,560 282,560 Q271,560 264,566.5 Q257,573 257,583 Q257,595 266.5,604.5 Q276,614 288,614"/> 
            <glyph glyph-name="Ę" unicode="&#x118;" horiz-adv-x="480" d=" M133,682 L480,682 L477,658 L155,658 L120,374 L406,374 L404,351 L117,350 L77,24 L429,24 L427,0 L400,0 Q356,-38 339,-70.5 Q322,-103 320,-123 Q316,-153 333.5,-163.5 Q351,-174 376,-174 Q395,-174 411.5,-171 Q428,-168 442,-164 L447,-178 Q424,-189 401.5,-194 Q379,-199 360,-199 Q318,-199 302,-179.5 Q286,-160 290,-133 Q292,-107 310.5,-74 Q329,-41 378,0 L50,0"/> 
            <glyph glyph-name="ę" unicode="&#x119;" horiz-adv-x="392" d=" M194,-6 Q148,-6 118,8.5 Q88,23 71,48 Q54,73 47,106 Q40,139 40,176 Q40,221 51,276 Q62,331 88.5,378.5 Q115,426 159.5,458.5 Q204,491 271,491 Q304,491 327,481.5 Q350,472 364.5,457 Q379,442 385.5,423 Q392,404 392,385 Q392,335 364.5,302 Q337,269 291.5,248.5 Q246,228 187,218 Q128,208 66,204 Q64,191 64,183 Q64,175 64,168 Q64,142 69.5,115 Q75,88 89.5,65.5 Q104,43 130,28.5 Q156,14 197,14 Q269,14 341,47 L349,29 L329,19 Q283,-19 265.5,-52.5 Q248,-86 246,-106 Q242,-136 259.5,-146.5 Q277,-157 302,-157 Q321,-157 337.5,-154 Q354,-151 368,-147 L373,-161 Q350,-172 327.5,-177 Q305,-182 286,-182 Q244,-182 228,-162.5 Q212,-143 216,-116 Q218,-93 233.5,-62 Q249,-31 290,5 Q244,-6 194,-6 M267,469 Q223,469 188,448.5 Q153,428 127.5,394 Q102,360 86.5,316.5 Q71,273 67,227 Q208,234 287.5,270.5 Q367,307 367,380 Q367,420 342.5,444.5 Q318,469 267,469"/> 
            <glyph glyph-name="Ě" unicode="&#x11A;" horiz-adv-x="480" d=" M133,682 L480,682 L477,658 L155,658 L120,374 L406,374 L404,351 L117,350 L77,24 L429,24 L427,0 L50,0 M456,852 L464,840 L325,718 L298,718 L188,841 L200,853 L316,750"/> 
            <glyph glyph-name="ě" unicode="&#x11B;" horiz-adv-x="435" d=" M194,-6 Q148,-6 118,8.5 Q88,23 71,48 Q54,73 47,106 Q40,139 40,176 Q40,221 51,276 Q62,331 88.5,378.5 Q115,426 159.5,458.5 Q204,491 271,491 Q304,491 327,481.5 Q350,472 364.5,457 Q379,442 385.5,423 Q392,404 392,385 Q392,335 364.5,302 Q337,269 291.5,248.5 Q246,228 187,218 Q128,208 66,204 Q64,191 64,183 Q64,175 64,168 Q64,142 69.5,115 Q75,88 89.5,65.5 Q104,43 130,28.5 Q156,14 197,14 Q269,14 341,47 L349,29 Q285,-6 194,-6 M267,469 Q223,469 188,448.5 Q153,428 127.5,394 Q102,360 86.5,316.5 Q71,273 67,227 Q208,234 287.5,270.5 Q367,307 367,380 Q367,420 342.5,444.5 Q318,469 267,469 M427,682 L435,670 L296,548 L269,548 L158,671 L171,683 L286,580"/> 
            <glyph glyph-name="Ĝ" unicode="&#x11C;" horiz-adv-x="553" d=" M390,691 Q441,691 481.5,685 Q522,679 553,669 L546,646 Q508,657 466.5,662.5 Q425,668 390,668 Q318,668 263,637 Q208,606 171,550 Q134,494 115,416.5 Q96,339 96,245 Q96,199 104.5,158 Q113,117 136,86 Q159,55 199,36.5 Q239,18 303,18 Q318,18 337.5,19.5 Q357,21 377.5,23.5 Q398,26 418,30 Q438,34 453,40 L490,338 L515,338 L476,19 Q429,5 383,-1 Q337,-7 292,-7 Q232,-7 190,10.5 Q148,28 121,61 Q94,94 82,142 Q70,190 70,250 Q70,285 75,331.5 Q80,378 93,427 Q106,476 128.5,523 Q151,570 186.5,607.5 Q222,645 272,668 Q322,691 390,691 M401,819 L260,716 L251,728 L391,851 L418,851 L527,729 L517,717"/> 
            <glyph glyph-name="ĝ" unicode="&#x11D;" horiz-adv-x="437" d=" M375,12 Q370,-27 361,-68 Q352,-109 330,-142.5 Q308,-176 268,-198 Q228,-220 160,-220 Q125,-220 93,-211.5 Q61,-203 40,-194 L50,-172 Q76,-184 106.5,-190 Q137,-196 166,-196 Q223,-196 256.5,-178.5 Q290,-161 309.5,-130.5 Q329,-100 338,-58 Q347,-16 354,33 L360,74 L359,76 Q314,37 270,14.5 Q226,-8 181,-8 Q153,-8 128.5,2 Q104,12 85.5,32.5 Q67,53 56,84 Q45,115 45,156 Q45,222 60,283 Q75,344 106,390.5 Q137,437 182.5,464.5 Q228,492 289,492 Q323,492 359.5,484.5 Q396,477 428,460 L431,453 M287,470 Q243,470 203.5,449.5 Q164,429 134.5,390 Q105,351 87.5,293 Q70,235 70,160 Q70,121 79,93.5 Q88,66 103.5,48.5 Q119,31 139,22.5 Q159,14 182,14 Q228,14 273,40.5 Q318,67 361,103 L406,444 Q374,460 344,465 Q314,470 287,470 M310,653 L169,550 L161,562 L301,685 L328,685 L437,563 L425,551"/> 
            <glyph glyph-name="Ğ" unicode="&#x11E;" horiz-adv-x="553" d=" M390,691 Q441,691 481.5,685 Q522,679 553,669 L546,646 Q508,657 466.5,662.5 Q425,668 390,668 Q318,668 263,637 Q208,606 171,550 Q134,494 115,416.5 Q96,339 96,245 Q96,199 104.5,158 Q113,117 136,86 Q159,55 199,36.5 Q239,18 303,18 Q318,18 337.5,19.5 Q357,21 377.5,23.5 Q398,26 418,30 Q438,34 453,40 L490,338 L515,338 L476,19 Q429,5 383,-1 Q337,-7 292,-7 Q232,-7 190,10.5 Q148,28 121,61 Q94,94 82,142 Q70,190 70,250 Q70,285 75,331.5 Q80,378 93,427 Q106,476 128.5,523 Q151,570 186.5,607.5 Q222,645 272,668 Q322,691 390,691 M385,739 Q342,739 310.5,766 Q279,793 262,829 L286,843 Q304,808 331,786.5 Q358,765 390,765 Q416,765 449.5,781.5 Q483,798 528,839 L539,830 Q494,778 455.5,758.5 Q417,739 385,739"/> 
            <glyph glyph-name="ğ" unicode="&#x11F;" horiz-adv-x="435" d=" M375,12 Q370,-27 361,-68 Q352,-109 330,-142.5 Q308,-176 268,-198 Q228,-220 160,-220 Q125,-220 93,-211.5 Q61,-203 40,-194 L50,-172 Q76,-184 106.5,-190 Q137,-196 166,-196 Q223,-196 256.5,-178.5 Q290,-161 309.5,-130.5 Q329,-100 338,-58 Q347,-16 354,33 L360,74 L359,76 Q314,37 270,14.5 Q226,-8 181,-8 Q153,-8 128.5,2 Q104,12 85.5,32.5 Q67,53 56,84 Q45,115 45,156 Q45,222 60,283 Q75,344 106,390.5 Q137,437 182.5,464.5 Q228,492 289,492 Q323,492 359.5,484.5 Q396,477 428,460 L431,453 M287,470 Q243,470 203.5,449.5 Q164,429 134.5,390 Q105,351 87.5,293 Q70,235 70,160 Q70,121 79,93.5 Q88,66 103.5,48.5 Q119,31 139,22.5 Q159,14 182,14 Q228,14 273,40.5 Q318,67 361,103 L406,444 Q374,460 344,465 Q314,470 287,470 M281,566 Q238,566 206.5,593 Q175,620 158,656 L183,670 Q200,635 227,613.5 Q254,592 286,592 Q312,592 346,607 Q380,622 424,666 L435,657 Q391,605 352.5,585.5 Q314,566 281,566"/> 
            <glyph glyph-name="Ġ" unicode="&#x120;" horiz-adv-x="553" d=" M390,691 Q441,691 481.5,685 Q522,679 553,669 L546,646 Q508,657 466.5,662.5 Q425,668 390,668 Q318,668 263,637 Q208,606 171,550 Q134,494 115,416.5 Q96,339 96,245 Q96,199 104.5,158 Q113,117 136,86 Q159,55 199,36.5 Q239,18 303,18 Q318,18 337.5,19.5 Q357,21 377.5,23.5 Q398,26 418,30 Q438,34 453,40 L490,338 L515,338 L476,19 Q429,5 383,-1 Q337,-7 292,-7 Q232,-7 190,10.5 Q148,28 121,61 Q94,94 82,142 Q70,190 70,250 Q70,285 75,331.5 Q80,378 93,427 Q106,476 128.5,523 Q151,570 186.5,607.5 Q222,645 272,668 Q322,691 390,691 M383,811 Q394,811 401,804.5 Q408,798 408,788 Q408,776 398.5,766.5 Q389,757 377,757 Q366,757 359,763.5 Q352,770 352,780 Q352,792 361.5,801.5 Q371,811 383,811"/> 
            <glyph glyph-name="ġ" unicode="&#x121;" horiz-adv-x="431" d=" M375,12 Q370,-27 361,-68 Q352,-109 330,-142.5 Q308,-176 268,-198 Q228,-220 160,-220 Q125,-220 93,-211.5 Q61,-203 40,-194 L50,-172 Q76,-184 106.5,-190 Q137,-196 166,-196 Q223,-196 256.5,-178.5 Q290,-161 309.5,-130.5 Q329,-100 338,-58 Q347,-16 354,33 L360,74 L359,76 Q314,37 270,14.5 Q226,-8 181,-8 Q153,-8 128.5,2 Q104,12 85.5,32.5 Q67,53 56,84 Q45,115 45,156 Q45,222 60,283 Q75,344 106,390.5 Q137,437 182.5,464.5 Q228,492 289,492 Q323,492 359.5,484.5 Q396,477 428,460 L431,453 M287,470 Q243,470 203.5,449.5 Q164,429 134.5,390 Q105,351 87.5,293 Q70,235 70,160 Q70,121 79,93.5 Q88,66 103.5,48.5 Q119,31 139,22.5 Q159,14 182,14 Q228,14 273,40.5 Q318,67 361,103 L406,444 Q374,460 344,465 Q314,470 287,470 M287,628 Q298,628 305,621.5 Q312,615 312,605 Q312,593 302.5,583.5 Q293,574 281,574 Q270,574 263,580.5 Q256,587 256,597 Q256,609 265.5,618.5 Q275,628 287,628"/> 
            <glyph glyph-name="Ģ" unicode="&#x122;" horiz-adv-x="553" d=" M390,691 Q441,691 481.5,685 Q522,679 553,669 L546,646 Q508,657 466.5,662.5 Q425,668 390,668 Q318,668 263,637 Q208,606 171,550 Q134,494 115,416.5 Q96,339 96,245 Q96,199 104.5,158 Q113,117 136,86 Q159,55 199,36.5 Q239,18 303,18 Q318,18 337.5,19.5 Q357,21 377.5,23.5 Q398,26 418,30 Q438,34 453,40 L490,338 L515,338 L476,19 Q429,5 383,-1 Q337,-7 292,-7 Q232,-7 190,10.5 Q148,28 121,61 Q94,94 82,142 Q70,190 70,250 Q70,285 75,331.5 Q80,378 93,427 Q106,476 128.5,523 Q151,570 186.5,607.5 Q222,645 272,668 Q322,691 390,691 M280,-80 Q291,-80 298.5,-87.5 Q306,-95 306,-109 Q306,-158 252,-201 L245,-193 Q262,-176 266.5,-163.5 Q271,-151 273,-134 Q262,-134 256,-128 Q250,-122 250,-113 Q250,-99 258.5,-89.5 Q267,-80 280,-80"/> 
            <glyph glyph-name="ģ" unicode="&#x123;" horiz-adv-x="431" d=" M318,614 Q340,614 340,594 Q340,580 331.5,570 Q323,560 311,560 Q300,560 292.5,567 Q285,574 285,588 Q285,612 299.5,636 Q314,660 340,681 L347,673 Q331,656 325.5,643.5 Q320,631 318,614 M375,12 Q370,-27 361,-68 Q352,-109 330,-142.5 Q308,-176 268,-198 Q228,-220 160,-220 Q125,-220 93,-211.5 Q61,-203 40,-194 L50,-172 Q76,-184 106.5,-190 Q137,-196 166,-196 Q223,-196 256.5,-178.5 Q290,-161 309.5,-130.5 Q329,-100 338,-58 Q347,-16 354,33 L360,74 L359,76 Q314,37 270,14.5 Q226,-8 181,-8 Q153,-8 128.5,2 Q104,12 85.5,32.5 Q67,53 56,84 Q45,115 45,156 Q45,222 60,283 Q75,344 106,390.5 Q137,437 182.5,464.5 Q228,492 289,492 Q323,492 359.5,484.5 Q396,477 428,460 L431,453 M287,470 Q243,470 203.5,449.5 Q164,429 134.5,390 Q105,351 87.5,293 Q70,235 70,160 Q70,121 79,93.5 Q88,66 103.5,48.5 Q119,31 139,22.5 Q159,14 182,14 Q228,14 273,40.5 Q318,67 361,103 L406,444 Q374,460 344,465 Q314,470 287,470"/> 
            <glyph glyph-name="Ĥ" unicode="&#x124;" horiz-adv-x="551" d=" M442,0 L484,349 L118,349 L76,0 L50,0 L133,682 L159,682 L121,373 L487,373 L524,682 L551,682 L468,0 M358,819 L217,716 L208,728 L348,851 L375,851 L484,729 L474,717"/> 
            <glyph glyph-name="ĥ" unicode="&#x125;" horiz-adv-x="407" d=" M109,406 Q163,446 210.5,469.5 Q258,493 303,493 Q334,493 354,485 Q374,477 386,463 Q398,449 402.5,430.5 Q407,412 407,392 Q407,386 406.5,379.5 Q406,373 405,366 L364,0 L341,0 L380,338 Q382,348 383,365 Q384,382 384,389 Q384,406 380.5,421 Q377,436 367.5,447.5 Q358,459 341.5,465.5 Q325,472 299,472 Q275,472 251,464 Q227,456 203,443 Q179,430 154,413 Q129,396 104,377 L57,0 L35,0 L121,708 L144,708 L106,408 M146,827 L5,724 L-3,736 L137,859 L164,859 L273,737 L261,725"/> 
            <glyph glyph-name="Ħ" unicode="&#x126;" horiz-adv-x="594" d=" M445,0 L487,348 L121,348 L79,0 L53,0 L116,521 L62,521 L65,544 L119,544 L136,682 L162,682 L145,544 L510,544 L527,682 L554,682 L537,544 L594,544 L591,521 L534,521 L471,0 M507,521 L142,521 L124,373 L490,373"/> 
            <glyph glyph-name="ħ" unicode="&#x127;" horiz-adv-x="407" d=" M109,406 Q163,446 210.5,469.5 Q258,493 303,493 Q334,493 354,485 Q374,477 386,463 Q398,449 402.5,430.5 Q407,412 407,392 Q407,386 406.5,379.5 Q406,373 405,366 L364,0 L341,0 L381,349 Q384,368 384,389 Q384,406 380.5,421 Q377,436 367.5,447.5 Q358,459 341.5,465.5 Q325,472 299,472 Q275,472 251,464 Q227,456 203,443 Q179,430 154,413 Q129,396 104,377 L57,0 L35,0 L106,586 L44,586 L47,608 L108,608 L121,708 L144,708 L131,608 L335,608 L332,586 L128,586 L106,408"/> 
            <glyph glyph-name="Ĩ" unicode="&#x128;" horiz-adv-x="298" d=" M60,0 L143,682 L169,682 L86,0 M42,761 L30,768 Q41,794 61,809.5 Q81,825 102,825 Q117,825 135,819.5 Q153,814 171,807 Q189,800 206.5,794.5 Q224,789 239,789 L287,828 L298,821 Q287,799 270,781.5 Q253,764 231,764 Q218,764 200,770 Q182,776 162.5,783 Q143,790 125,796 Q107,802 94,802"/> 
            <glyph glyph-name="ĩ" unicode="&#x129;" horiz-adv-x="272" d=" M55,0 L115,486 L137,486 L78,0 M16,583 L4,590 Q15,616 35,631.5 Q55,647 76,647 Q91,647 109,641.5 Q127,636 145,629 Q163,622 180.5,616.5 Q198,611 213,611 L261,650 L272,643 Q261,621 244,603.5 Q227,586 205,586 Q192,586 174,592 Q156,598 136.5,605 Q117,612 99,618 Q81,624 68,624"/> 
            <glyph glyph-name="Ī" unicode="&#x12A;" horiz-adv-x="300" d=" M60,0 L143,682 L169,682 L86,0 M300,774 L296,748 L19,748 L23,774"/> 
            <glyph glyph-name="ī" unicode="&#x12B;" horiz-adv-x="287" d=" M63,0 L123,486 L145,486 L86,0 M287,626 L284,600 L6,600 L9,626"/> 
            <glyph glyph-name="Ĭ" unicode="&#x12C;" horiz-adv-x="306" d=" M152,721 Q109,721 77.5,748 Q46,775 29,811 L53,825 Q71,790 98,768.5 Q125,747 157,747 Q183,747 216.5,763.5 Q250,780 295,821 L306,812 Q261,760 222.5,740.5 Q184,721 152,721 M62,0 L145,682 L171,682 L88,0"/> 
            <glyph glyph-name="ĭ" unicode="&#x12D;" horiz-adv-x="280" d=" M55,0 L115,486 L137,486 L78,0 M126,566 Q83,566 51.5,593 Q20,620 3,656 L28,670 Q45,635 72,613.5 Q99,592 131,592 Q157,592 191,607 Q225,622 269,666 L280,657 Q236,605 197.5,585.5 Q159,566 126,566"/> 
            <glyph glyph-name="Į" unicode="&#x12E;" horiz-adv-x="169" d=" M60,0 L60,1 Q18,-36 1.5,-67.5 Q-15,-99 -17,-119 Q-21,-149 -3.5,-159.5 Q14,-170 39,-170 Q58,-170 74.5,-167 Q91,-164 105,-160 L110,-174 Q87,-185 64.5,-190 Q42,-195 23,-195 Q-19,-195 -35,-175.5 Q-51,-156 -47,-129 Q-44,-101 -21.5,-63 Q1,-25 62,21 L143,682 L169,682 L86,0"/> 
            <glyph glyph-name="į" unicode="&#x12F;" horiz-adv-x="163" d=" M55,0 L55,3 Q14,-33 -2.5,-65 Q-19,-97 -21,-116 Q-25,-146 -7.5,-156.5 Q10,-167 35,-167 Q54,-167 70.5,-164 Q87,-161 101,-157 L106,-171 Q83,-182 60.5,-187 Q38,-192 19,-192 Q-23,-192 -39,-172.5 Q-55,-153 -51,-126 Q-48,-98 -25.5,-60 Q-3,-22 58,24 L115,486 L137,486 L78,0 M142,633 Q152,633 157.5,627 Q163,621 163,612 Q163,601 155.5,592.5 Q148,584 136,584 Q128,584 122.5,590.5 Q117,597 117,606 Q117,617 125.5,625 Q134,633 142,633"/> 
            <glyph glyph-name="İ" unicode="&#x130;" horiz-adv-x="197" d=" M60,0 L143,682 L169,682 L86,0 M172,813 Q183,813 190,806.5 Q197,800 197,790 Q197,778 187.5,768.5 Q178,759 166,759 Q155,759 148,765.5 Q141,772 141,782 Q141,794 150.5,803.5 Q160,813 172,813"/> 
            <glyph glyph-name="ı" unicode="&#x131;" horiz-adv-x="137" d=" M55,0 L115,486 L137,486 L78,0"/> 
            <glyph glyph-name="Ĳ" unicode="&#x132;" horiz-adv-x="398" d=" M60,0 L143,682 L169,682 L86,0 M373,682 L398,682 L328,100 Q321,43 306.5,-1.5 Q292,-46 267.5,-79 Q243,-112 207.5,-136 Q172,-160 122,-177 L114,-155 Q160,-140 193,-117 Q226,-94 248,-63 Q270,-32 283,8 Q296,48 302,98"/> 
            <glyph glyph-name="ĳ" unicode="&#x133;" horiz-adv-x="320" d=" M55,0 L115,486 L137,486 L78,0 M142,633 Q152,633 157.5,627 Q163,621 163,612 Q163,601 155.5,592.5 Q148,584 136,584 Q128,584 122.5,590.5 Q117,597 117,606 Q117,617 125.5,625 Q134,633 142,633 M273,486 L296,486 L235,-9 Q230,-48 222.5,-78.5 Q215,-109 199,-133 Q183,-157 155.5,-175 Q128,-193 83,-207 L78,-188 Q118,-176 142,-159.5 Q166,-143 180,-123 Q194,-103 200,-78 Q206,-53 210,-23 M299,633 Q309,633 314.5,627 Q320,621 320,612 Q320,601 312.5,592.5 Q305,584 293,584 Q285,584 279.5,590.5 Q274,597 274,606 Q274,617 282,625 Q290,633 299,633"/> 
            <glyph glyph-name="Ĵ" unicode="&#x134;" horiz-adv-x="330" d=" M179,683 L204,683 L134,101 Q127,44 112.5,-0.5 Q98,-45 73.5,-78 Q49,-111 13.5,-135 Q-22,-159 -72,-176 L-80,-154 Q-34,-139 -1,-116 Q32,-93 54,-62 Q76,-31 89,9 Q102,49 108,99 M204,819 L63,716 L54,728 L194,851 L221,851 L330,729 L320,717"/> 
            <glyph glyph-name="ĵ" unicode="&#x135;" horiz-adv-x="276" d=" M122,486 L145,486 L84,-9 Q79,-48 71.5,-78.5 Q64,-109 48,-133 Q32,-157 4.5,-175 Q-23,-193 -68,-207 L-73,-188 Q-33,-176 -9,-159.5 Q15,-143 29,-123 Q43,-103 49,-78 Q55,-53 59,-23 M149,653 L8,550 L0,562 L140,685 L167,685 L276,563 L264,551"/> 
            <glyph glyph-name="Ķ" unicode="&#x136;" horiz-adv-x="530" d=" M231,407 L449,0 L421,0 L214,389 L111,295 L75,0 L50,0 L133,682 L158,682 L115,329 L495,682 L530,682 M220,-53 Q231,-53 238.5,-60.5 Q246,-68 246,-82 Q246,-131 192,-174 L185,-166 Q202,-149 206.5,-136.5 Q211,-124 213,-107 Q202,-107 196,-101 Q190,-95 190,-86 Q190,-72 198.5,-62.5 Q207,-53 220,-53"/> 
            <glyph glyph-name="ķ" unicode="&#x137;" horiz-adv-x="398" d=" M90,239 Q102,249 117,262.5 Q132,276 161.5,302.5 Q191,329 240,372.5 Q289,416 368,486 L398,486 L186,297 L210,259 L349,0 L323,0 L171,283 L83,206 L58,0 L35,0 L121,708 L144,708 L106,391 Q101,353 96.5,315.5 Q92,278 87,240 M169,-48 Q180,-48 187.5,-55.5 Q195,-63 195,-77 Q195,-126 141,-169 L134,-161 Q151,-144 155.5,-131.5 Q160,-119 162,-102 Q151,-102 145,-96 Q139,-90 139,-81 Q139,-67 147.5,-57.5 Q156,-48 169,-48"/> 
            <glyph glyph-name="ĸ" unicode="&#x138;" horiz-adv-x="398" d=" M117,485 L106,391 Q101,353 96.5,315.5 Q92,278 87,240 L90,239 Q102,249 117,262.5 Q132,276 161.5,302.5 Q191,329 240,372.5 Q289,416 368,486 L398,486 L186,297 L210,259 L349,0 L323,0 L171,283 L83,206 L58,0 L35,0 L94,485"/> 
            <glyph glyph-name="Ĺ" unicode="&#x139;" horiz-adv-x="467" d=" M108,24 L467,24 L465,0 L80,0 L163,682 L188,682 M168,723 L283,866 L305,844 L182,713"/> 
            <glyph glyph-name="ĺ" unicode="&#x13A;" horiz-adv-x="259" d=" M158,708 L74,24 L139,26 L141,10 Q124,3 107.5,0 Q91,-3 79,-3 Q50,-3 50,18 Q50,21 50,25 Q50,29 51,34 L135,708 M122,733 L237,876 L259,854 L136,723"/> 
            <glyph glyph-name="Ļ" unicode="&#x13B;" horiz-adv-x="467" d=" M108,24 L467,24 L465,0 L80,0 L163,682 L188,682 M250,-80 Q261,-80 268.5,-87.5 Q276,-95 276,-109 Q276,-158 222,-201 L215,-193 Q232,-176 236.5,-163.5 Q241,-151 243,-134 Q232,-134 226,-128 Q220,-122 220,-113 Q220,-99 228.5,-89.5 Q237,-80 250,-80"/> 
            <glyph glyph-name="ļ" unicode="&#x13C;" horiz-adv-x="158" d=" M158,708 L74,24 L139,26 L141,10 Q124,3 107.5,0 Q91,-3 79,-3 Q50,-3 50,18 Q50,21 50,25 Q50,29 51,34 L135,708 M59,-80 Q70,-80 77.5,-87.5 Q85,-95 85,-109 Q85,-158 31,-201 L24,-193 Q41,-176 45.5,-163.5 Q50,-151 52,-134 Q41,-134 35,-128 Q29,-122 29,-113 Q29,-99 37.5,-89.5 Q46,-80 59,-80"/> 
            <glyph glyph-name="Ľ" unicode="&#x13D;" horiz-adv-x="467" d=" M108,24 L467,24 L465,0 L80,0 L163,682 L188,682 M404,679 Q415,679 422.5,671.5 Q430,664 430,650 Q430,601 376,558 L369,566 Q386,583 390.5,595.5 Q395,608 397,625 Q386,625 380,631 Q374,637 374,646 Q374,660 382.5,669.5 Q391,679 404,679"/> 
            <glyph glyph-name="ľ" unicode="&#x13E;" horiz-adv-x="267" d=" M241,704 Q252,704 259.5,696.5 Q267,689 267,675 Q267,626 213,583 L206,591 Q223,608 227.5,620.5 Q232,633 234,650 Q223,650 217,656 Q211,662 211,671 Q211,685 219.5,694.5 Q228,704 241,704 M158,708 L74,24 L139,26 L141,10 Q124,3 107.5,0 Q91,-3 79,-3 Q50,-3 50,18 Q50,21 50,25 Q50,29 51,34 L135,708"/> 
            <glyph glyph-name="Ŀ" unicode="&#x13F;" horiz-adv-x="467" d=" M108,24 L467,24 L465,0 L80,0 L163,682 L188,682 M369,418 Q380,418 387,411.5 Q394,405 394,395 Q394,383 384.5,373.5 Q375,364 363,364 Q352,364 345,370.5 Q338,377 338,387 Q338,399 347.5,408.5 Q357,418 369,418"/> 
            <glyph glyph-name="ŀ" unicode="&#x140;" horiz-adv-x="233" d=" M208,398 Q219,398 226,391.5 Q233,385 233,375 Q233,363 223.5,353.5 Q214,344 202,344 Q191,344 184,350.5 Q177,357 177,367 Q177,379 186.5,388.5 Q196,398 208,398 M158,708 L74,24 L139,26 L141,10 Q124,3 107.5,0 Q91,-3 79,-3 Q50,-3 50,18 Q50,21 50,25 Q50,29 51,34 L135,708"/> 
            <glyph glyph-name="Ł" unicode="&#x141;" horiz-adv-x="465" d=" M143,328 L291,410 L298,389 L139,300 L106,24 L465,24 L463,0 L78,0 L112,284 L40,244 L32,266 L116,312 L161,682 L186,682"/> 
            <glyph glyph-name="ł" unicode="&#x142;" horiz-adv-x="237" d=" M158,708 L114,353 L230,417 L237,396 L111,326 L74,24 L139,26 L141,10 Q124,3 107.5,0 Q91,-3 79,-3 Q50,-3 50,18 Q50,21 50,25 Q50,29 51,34 L85,311 L-17,254 L-25,276 L89,339 L135,708"/> 
            <glyph glyph-name="Ń" unicode="&#x143;" horiz-adv-x="586" d=" M482,49 L559,682 L586,682 L502,0 L476,0 L209,528 L156,635 L153,635 L76,0 L50,0 L133,682 L160,682 L438,132 L479,49 M347,723 L462,866 L484,844 L361,713"/> 
            <glyph glyph-name="ń" unicode="&#x144;" horiz-adv-x="407" d=" M112,406 Q166,446 212,470 Q258,494 303,494 Q334,494 354,485.5 Q374,477 386,463 Q398,449 402.5,430.5 Q407,412 407,392 Q407,386 406.5,379.5 Q406,373 405,366 L364,0 L341,0 L381,349 Q384,368 384,389 Q384,406 380.5,421 Q377,436 367.5,447.5 Q358,459 341.5,466 Q325,473 299,473 Q275,473 251.5,465 Q228,457 204,443.5 Q180,430 155.5,413 Q131,396 106,377 L57,0 L35,0 L96,486 L119,486 L109,408 M223,564 L337,707 L360,685 L237,554"/> 
            <glyph glyph-name="Ņ" unicode="&#x145;" horiz-adv-x="586" d=" M482,49 L559,682 L586,682 L502,0 L476,0 L209,528 L156,635 L153,635 L76,0 L50,0 L133,682 L160,682 L438,132 L479,49 M258,-68 Q269,-68 276.5,-75.5 Q284,-83 284,-97 Q284,-146 230,-189 L223,-181 Q240,-164 244.5,-151.5 Q249,-139 251,-122 Q240,-122 234,-116 Q228,-110 228,-101 Q228,-87 236.5,-77.5 Q245,-68 258,-68"/> 
            <glyph glyph-name="ņ" unicode="&#x146;" horiz-adv-x="407" d=" M112,406 Q166,446 212,470 Q258,494 303,494 Q334,494 354,485.5 Q374,477 386,463 Q398,449 402.5,430.5 Q407,412 407,392 Q407,386 406.5,379.5 Q406,373 405,366 L364,0 L341,0 L381,349 Q384,368 384,389 Q384,406 380.5,421 Q377,436 367.5,447.5 Q358,459 341.5,466 Q325,473 299,473 Q275,473 251.5,465 Q228,457 204,443.5 Q180,430 155.5,413 Q131,396 106,377 L57,0 L35,0 L96,486 L119,486 L109,408 M189,-60 Q200,-60 207.5,-67.5 Q215,-75 215,-89 Q215,-138 161,-181 L154,-173 Q171,-156 175.5,-143.5 Q180,-131 182,-114 Q171,-114 165,-108 Q159,-102 159,-93 Q159,-79 167.5,-69.5 Q176,-60 189,-60"/> 
            <glyph glyph-name="Ň" unicode="&#x147;" horiz-adv-x="586" d=" M482,49 L559,682 L586,682 L502,0 L476,0 L209,528 L156,635 L153,635 L76,0 L50,0 L133,682 L160,682 L438,132 L479,49 M524,852 L532,840 L393,718 L366,718 L256,841 L268,853 L384,750"/> 
            <glyph glyph-name="ň" unicode="&#x148;" horiz-adv-x="408" d=" M112,406 Q166,446 212,470 Q258,494 303,494 Q334,494 354,485.5 Q374,477 386,463 Q398,449 402.5,430.5 Q407,412 407,392 Q407,386 406.5,379.5 Q406,373 405,366 L364,0 L341,0 L381,349 Q384,368 384,389 Q384,406 380.5,421 Q377,436 367.5,447.5 Q358,459 341.5,466 Q325,473 299,473 Q275,473 251.5,465 Q228,457 204,443.5 Q180,430 155.5,413 Q131,396 106,377 L57,0 L35,0 L96,486 L119,486 L109,408 M400,694 L408,682 L269,560 L242,560 L131,683 L144,695 L259,592"/> 
            <glyph glyph-name="ŉ" unicode="&#x149;" horiz-adv-x="449" d=" M154,406 Q208,446 254,470 Q300,494 345,494 Q376,494 396,485.5 Q416,477 428,463 Q440,449 444.5,430.5 Q449,412 449,392 Q449,386 448.5,379.5 Q448,373 447,366 L406,0 L383,0 L423,349 Q426,368 426,389 Q426,406 422.5,421 Q419,436 409.5,447.5 Q400,459 383.5,466 Q367,473 341,473 Q317,473 293.5,465 Q270,457 246,443.5 Q222,430 197.5,413 Q173,396 148,377 L99,0 L77,0 L138,486 L161,486 L151,408 M79,620 Q90,620 97.5,612.5 Q105,605 105,591 Q105,542 51,499 L44,507 Q61,524 65.5,536.5 Q70,549 72,566 Q61,566 55,572 Q49,578 49,587 Q49,601 57.5,610.5 Q66,620 79,620"/> 
            <glyph glyph-name="Ŋ" unicode="&#x14A;" horiz-adv-x="589" d=" M485,50 L562,682 L589,682 L495,-76 Q490,-121 467,-143.5 Q444,-166 395,-166 Q381,-166 366.5,-164.5 Q352,-163 336,-158 L342,-137 Q360,-141 371.5,-142.5 Q383,-144 394,-144 Q431,-144 447.5,-128.5 Q464,-113 468,-82 L479,0 L212,528 L159,635 L156,635 L79,0 L53,0 L136,682 L164,682 L441,133 L482,50"/> 
            <glyph glyph-name="ŋ" unicode="&#x14B;" horiz-adv-x="407" d=" M112,406 Q166,446 212,470 Q258,494 303,494 Q334,494 354,485.5 Q374,477 386,463 Q398,449 402.5,430.5 Q407,412 407,392 Q407,386 406.5,379.5 Q406,373 405,366 L356,-56 Q350,-101 327.5,-123.5 Q305,-146 256,-146 Q242,-146 227,-144.5 Q212,-143 197,-138 L203,-117 Q215,-120 222.5,-121 Q230,-122 235,-123 Q240,-124 244.5,-124 Q249,-124 254,-124 Q291,-124 309.5,-108.5 Q328,-93 332,-62 L381,349 Q384,368 384,389 Q384,406 380.5,421 Q377,436 367.5,447.5 Q358,459 341.5,466 Q325,473 299,473 Q275,473 251.5,465 Q228,457 204,443.5 Q180,430 155.5,413 Q131,396 106,377 L57,0 L35,0 L96,486 L119,486 L109,408"/> 
            <glyph glyph-name="Ō" unicode="&#x14C;" horiz-adv-x="589" d=" M373,692 Q436,692 477.5,670 Q519,648 544,610.5 Q569,573 579,522.5 Q589,472 589,416 Q589,331 569.5,254.5 Q550,178 512.5,120 Q475,62 419.5,27.5 Q364,-7 292,-7 Q231,-7 188.5,11 Q146,29 120,63 Q94,97 82,146.5 Q70,196 70,259 Q70,338 85,416 Q100,494 135.5,555 Q171,616 229,654 Q287,692 373,692 M374,669 Q291,669 237.5,630.5 Q184,592 152,532 Q120,472 107.5,399.5 Q95,327 95,259 Q95,139 140,77.5 Q185,16 289,16 Q362,16 414,52 Q466,88 499,145.5 Q532,203 547.5,274 Q563,345 563,415 Q563,462 555.5,507.5 Q548,553 527,589 Q506,625 469,647 Q432,669 374,669 M524,774 L520,748 L243,748 L247,774"/> 
            <glyph glyph-name="ō" unicode="&#x14D;" horiz-adv-x="415" d=" M256,491 Q301,491 331.5,475 Q362,459 380,433 Q398,407 405.5,372 Q413,337 413,300 Q413,254 403.5,200 Q394,146 370,100 Q346,54 304,23.5 Q262,-7 198,-7 Q151,-7 120.5,8 Q90,23 72,48.5 Q54,74 47,108 Q40,142 40,180 Q40,230 51,285 Q62,340 87,385.5 Q112,431 153.5,461 Q195,491 256,491 M256,470 Q201,470 164,442 Q127,414 104.5,371 Q82,328 72.5,276.5 Q63,225 63,179 Q63,147 68.5,117.5 Q74,88 89,65 Q104,42 131,28 Q158,14 201,14 Q240,14 269,28 Q298,42 319,65.5 Q340,89 353.5,118.5 Q367,148 375,179.5 Q383,211 386,241 Q389,271 389,296 Q389,328 383.5,359.5 Q378,391 363,415.5 Q348,440 322,455 Q296,470 256,470 M415,626 L412,600 L134,600 L137,626"/> 
            <glyph glyph-name="Ŏ" unicode="&#x14E;" horiz-adv-x="589" d=" M373,692 Q436,692 477.5,670 Q519,648 544,610.5 Q569,573 579,522.5 Q589,472 589,416 Q589,331 569.5,254.5 Q550,178 512.5,120 Q475,62 419.5,27.5 Q364,-7 292,-7 Q231,-7 188.5,11 Q146,29 120,63 Q94,97 82,146.5 Q70,196 70,259 Q70,338 85,416 Q100,494 135.5,555 Q171,616 229,654 Q287,692 373,692 M374,669 Q291,669 237.5,630.5 Q184,592 152,532 Q120,472 107.5,399.5 Q95,327 95,259 Q95,139 140,77.5 Q185,16 289,16 Q362,16 414,52 Q466,88 499,145.5 Q532,203 547.5,274 Q563,345 563,415 Q563,462 555.5,507.5 Q548,553 527,589 Q506,625 469,647 Q432,669 374,669 M379,735 Q336,735 304.5,762 Q273,789 256,825 L280,839 Q298,804 325,782.5 Q352,761 384,761 Q410,761 443.5,777.5 Q477,794 522,835 L533,826 Q488,774 449.5,754.5 Q411,735 379,735"/> 
            <glyph glyph-name="ŏ" unicode="&#x14F;" horiz-adv-x="417" d=" M256,491 Q301,491 331.5,475 Q362,459 380,433 Q398,407 405.5,372 Q413,337 413,300 Q413,254 403.5,200 Q394,146 370,100 Q346,54 304,23.5 Q262,-7 198,-7 Q151,-7 120.5,8 Q90,23 72,48.5 Q54,74 47,108 Q40,142 40,180 Q40,230 51,285 Q62,340 87,385.5 Q112,431 153.5,461 Q195,491 256,491 M256,470 Q201,470 164,442 Q127,414 104.5,371 Q82,328 72.5,276.5 Q63,225 63,179 Q63,147 68.5,117.5 Q74,88 89,65 Q104,42 131,28 Q158,14 201,14 Q240,14 269,28 Q298,42 319,65.5 Q340,89 353.5,118.5 Q367,148 375,179.5 Q383,211 386,241 Q389,271 389,296 Q389,328 383.5,359.5 Q378,391 363,415.5 Q348,440 322,455 Q296,470 256,470 M266,563 Q224,563 193.5,590.5 Q163,618 146,655 L171,670 Q188,634 213.5,612 Q239,590 271,590 Q297,590 329.5,605.5 Q362,621 406,666 L417,656 Q374,603 336,583 Q298,563 266,563"/> 
            <glyph glyph-name="Ő" unicode="&#x150;" horiz-adv-x="589" d=" M373,692 Q436,692 477.5,670 Q519,648 544,610.5 Q569,573 579,522.5 Q589,472 589,416 Q589,331 569.5,254.5 Q550,178 512.5,120 Q475,62 419.5,27.5 Q364,-7 292,-7 Q231,-7 188.5,11 Q146,29 120,63 Q94,97 82,146.5 Q70,196 70,259 Q70,338 85,416 Q100,494 135.5,555 Q171,616 229,654 Q287,692 373,692 M374,669 Q291,669 237.5,630.5 Q184,592 152,532 Q120,472 107.5,399.5 Q95,327 95,259 Q95,139 140,77.5 Q185,16 289,16 Q362,16 414,52 Q466,88 499,145.5 Q532,203 547.5,274 Q563,345 563,415 Q563,462 555.5,507.5 Q548,553 527,589 Q506,625 469,647 Q432,669 374,669 M307,724 L422,867 L444,845 L320,714 M395,724 L510,867 L532,845 L409,714"/> 
            <glyph glyph-name="ő" unicode="&#x151;" horiz-adv-x="417" d=" M256,491 Q301,491 331.5,475 Q362,459 380,433 Q398,407 405.5,372 Q413,337 413,300 Q413,254 403.5,200 Q394,146 370,100 Q346,54 304,23.5 Q262,-7 198,-7 Q151,-7 120.5,8 Q90,23 72,48.5 Q54,74 47,108 Q40,142 40,180 Q40,230 51,285 Q62,340 87,385.5 Q112,431 153.5,461 Q195,491 256,491 M256,470 Q201,470 164,442 Q127,414 104.5,371 Q82,328 72.5,276.5 Q63,225 63,179 Q63,147 68.5,117.5 Q74,88 89,65 Q104,42 131,28 Q158,14 201,14 Q240,14 269,28 Q298,42 319,65.5 Q340,89 353.5,118.5 Q367,148 375,179.5 Q383,211 386,241 Q389,271 389,296 Q389,328 383.5,359.5 Q378,391 363,415.5 Q348,440 322,455 Q296,470 256,470 M192,564 L306,707 L329,685 L206,554 M280,564 L394,707 L417,685 L294,554"/> 
            <glyph glyph-name="Ŕ" unicode="&#x154;" horiz-adv-x="490" d=" M76,0 L50,0 L133,682 L318,682 Q367,682 400.5,669.5 Q434,657 453.5,635.5 Q473,614 481.5,585.5 Q490,557 490,525 Q490,495 481.5,463.5 Q473,432 455.5,404 Q438,376 410.5,354.5 Q383,333 345,325 Q387,311 405,282.5 Q423,254 431,212 L464,0 L438,0 L405,205 Q399,239 386,261 Q373,283 355,295.5 Q337,308 315,313 Q293,318 268,318 L115,318 M156,658 L117,342 L284,342 Q365,342 414,387.5 Q463,433 463,523 Q463,590 424.5,624 Q386,658 320,658 M280,723 L395,866 L417,844 L294,713"/> 
            <glyph glyph-name="ŕ" unicode="&#x155;" horiz-adv-x="288" d=" M118,393 Q144,449 172,469.5 Q200,490 229,490 Q246,490 261.5,484.5 Q277,479 288,462 L275,446 Q260,454 248.5,456 Q237,458 227,458 Q204,458 186.5,447 Q169,436 155,418.5 Q141,401 129.5,379.5 Q118,358 109,337 Q98,252 87.5,168.5 Q77,85 66,0 L44,0 Q59,120 73.5,238 Q88,356 103,486 L126,486 Q123,463 120.5,440.5 Q118,418 114,393 M106,564 L220,707 L243,685 L120,554"/> 
            <glyph glyph-name="Ŗ" unicode="&#x156;" horiz-adv-x="490" d=" M76,0 L50,0 L133,682 L318,682 Q367,682 400.5,669.5 Q434,657 453.5,635.5 Q473,614 481.5,585.5 Q490,557 490,525 Q490,495 481.5,463.5 Q473,432 455.5,404 Q438,376 410.5,354.5 Q383,333 345,325 Q387,311 405,282.5 Q423,254 431,212 L464,0 L438,0 L405,205 Q399,239 386,261 Q373,283 355,295.5 Q337,308 315,313 Q293,318 268,318 L115,318 M156,658 L117,342 L284,342 Q365,342 414,387.5 Q463,433 463,523 Q463,590 424.5,624 Q386,658 320,658 M224,-61 Q235,-61 242.5,-68.5 Q250,-76 250,-90 Q250,-139 196,-182 L189,-174 Q206,-157 210.5,-144.5 Q215,-132 217,-115 Q206,-115 200,-109 Q194,-103 194,-94 Q194,-80 202.5,-70.5 Q211,-61 224,-61"/> 
            </font>
</defs>
</svg>
