<?xml version="1.0" standalone="no"?>
<!DOCTYPE svg PUBLIC "-//W3C//DTD SVG 1.1//EN" "http://www.w3.org/Graphics/SVG/1.1/DTD/svg11.dtd" >
<svg xmlns="http://www.w3.org/2000/svg">
    <defs>
        <font id="PFAgoraSansPro-Bold">
            <font-face font-family="PF Agora Sans Pro"
                       units-per-em="1000"
                       ascent="750"
                       descent="-250"
                       bbox="-397 -272 1760 976"
                    />
            <missing-glyph horiz-adv-x="0" />
            
            <glyph glyph-name="&amp;" unicode="&#x26;" horiz-adv-x="738" d=" M288,-13 Q237,-13 192.5,-0.5 Q148,12 115,37.5 Q82,63 63.5,101 Q45,139 45,190 Q45,252 83,306.5 Q121,361 202,405 Q178,440 166.5,473 Q155,506 155,535 Q155,562 163.5,590.5 Q172,619 191.5,642 Q211,665 243,679.5 Q275,694 321,694 Q372,694 405.5,679.5 Q439,665 459,643.5 Q479,622 487,596.5 Q495,571 495,549 Q495,519 483.5,494 Q472,469 453.5,448 Q435,427 410.5,409.5 Q386,392 360,376 Q393,329 433.5,280 Q474,231 516,187 Q535,205 550.5,226 Q566,247 578,274.5 Q590,302 598.5,337 Q607,372 613,418 L720,418 Q715,316 684,245.5 Q653,175 595,116 Q629,86 667,60 Q705,34 738,20 Q726,-1 713,-22 Q700,-43 688,-64 Q668,-56 645,-43.5 Q622,-31 598,-16 Q574,-1 550.5,16 Q527,33 508,50 Q460,18 404,2.5 Q348,-13 288,-13 M173,198 Q173,170 183,149 Q193,128 210.5,114 Q228,100 251,93 Q274,86 301,86 Q330,86 361,95.5 Q392,105 421,122 Q373,170 334.5,223.5 Q296,277 263,321 Q225,298 199,268 Q173,238 173,198 M269,544 Q269,525 279,502 Q289,479 306,454 Q338,471 363.5,493.5 Q389,516 389,548 Q389,575 371.5,590.5 Q354,606 325,606 Q310,606 299.5,600 Q289,594 282.5,585 Q276,576 272.5,565 Q269,554 269,544"/> 
            <glyph glyph-name="'" unicode="&#x27;" horiz-adv-x="177" d=" M79,447 L62,689 L177,689 L158,447"/> 
            <glyph glyph-name="(" unicode="&#x28;" horiz-adv-x="291" d=" M62,280 Q62,352 77.5,417 Q93,482 117,537 Q141,592 171,636.5 Q201,681 230,713 L290,675 Q278,657 259,622.5 Q240,588 223,539 Q206,490 193.5,425.5 Q181,361 181,283 Q181,196 193.5,128 Q206,60 223.5,9 Q241,-42 259.5,-76 Q278,-110 291,-128 L230,-169 Q201,-138 171,-93 Q141,-48 117,8.5 Q93,65 77.5,133 Q62,201 62,280"/> 
            <glyph glyph-name=")" unicode="&#x29;" horiz-adv-x="267" d=" M267,280 Q267,202 251.5,134 Q236,66 211.5,9.5 Q187,-47 157,-92 Q127,-137 98,-168 L39,-128 Q51,-109 70,-75 Q89,-41 106,10 Q123,61 135.5,129 Q148,197 148,284 Q148,362 135.5,426.5 Q123,491 106,540 Q89,589 70,623 Q51,657 39,675 L100,713 Q129,681 158.5,636.5 Q188,592 212,537 Q236,482 251.5,417.5 Q267,353 267,280"/> 
            <glyph glyph-name="*" unicode="&#x2A;" horiz-adv-x="382" d=" M348,637 Q363,612 370,587 Q377,562 382,535 Q351,531 321,527 Q291,523 259,520 Q282,500 303.5,479 Q325,458 347,438 Q327,420 306.5,404.5 Q286,389 263,376 Q249,403 236.5,431 Q224,459 212,485 Q199,459 186,431.5 Q173,404 161,376 Q137,389 116.5,403.5 Q96,418 75,438 L163,521 L44,536 Q50,565 57.5,589.5 Q65,614 77,639 L182,579 Q176,608 169.5,637 Q163,666 158,695 Q172,697 185.5,698 Q199,699 213,699 Q227,699 240,698 Q253,697 267,695 Q261,666 255,637 Q249,608 242,579"/> 
            <glyph glyph-name="+" unicode="&#x2B;" horiz-adv-x="510" d=" M347,261 L347,91 L262,91 L262,261 L97,261 L97,344 L262,344 L262,510 L347,510 L347,344 L510,344 L510,261"/> 
            <glyph glyph-name="," unicode="&#x2C;" horiz-adv-x="211" d=" M51,64 Q51,93 72,114 Q93,135 128,135 Q171,135 191,109.5 Q211,84 211,49 Q211,21 201,-8 Q191,-37 173.5,-64 Q156,-91 132,-113.5 Q108,-136 80,-150 L46,-105 Q96,-60 102,-1 Q51,9 51,64"/> 
            <glyph glyph-name="-" unicode="&#x2D;" horiz-adv-x="334" d=" M59,219 L59,318 L334,318 L334,219"/> 
            <glyph glyph-name="." unicode="&#x2E;" horiz-adv-x="202" d=" M202,64 Q202,33 182,12.5 Q162,-8 124,-8 Q86,-8 66,12.5 Q46,33 46,64 Q46,94 66,114.5 Q86,135 124,135 Q162,135 182,114.5 Q202,94 202,64"/> 
            <glyph glyph-name="/" unicode="&#x2F;" horiz-adv-x="365" d=" M105,-33 L8,-33 L267,706 L365,706"/> 
            <glyph glyph-name="0" unicode="&#x30;" horiz-adv-x="561" d=" M561,332 Q561,266 547.5,204.5 Q534,143 502.5,96 Q471,49 420,20.5 Q369,-8 294,-8 Q214,-8 162,19.5 Q110,47 79,93.5 Q48,140 36,201.5 Q24,263 24,330 Q24,393 36.5,455 Q49,517 79.5,566 Q110,615 162.5,645.5 Q215,676 295,676 Q376,676 427.5,645 Q479,614 509,564.5 Q539,515 550,454 Q561,393 561,332 M419,330 Q419,368 415.5,410 Q412,452 399.5,487 Q387,522 362,545 Q337,568 295,568 Q253,568 227.5,545.5 Q202,523 188.5,488 Q175,453 170.5,410.5 Q166,368 166,329 Q166,280 171,238 Q176,196 190.5,165 Q205,134 230,116 Q255,98 295,98 Q332,98 356.5,117.5 Q381,137 394.5,169.5 Q408,202 413.5,244 Q419,286 419,330"/> 
            <glyph glyph-name="1" unicode="&#x31;" horiz-adv-x="376" d=" M236,540 L96,527 L96,622 L249,667 L376,667 L376,0 L236,0"/> 
            <glyph glyph-name="2" unicode="&#x32;" horiz-adv-x="531" d=" M245,100 L531,100 L531,0 L47,0 L47,88 Q76,113 110,143 Q144,173 178.5,205 Q213,237 245.5,270.5 Q278,304 302.5,338 Q327,372 342,405 Q357,438 357,469 Q357,515 329.5,538.5 Q302,562 250,562 Q224,562 179,553 Q134,544 80,514 L36,599 Q100,643 163,659.5 Q226,676 275,676 Q380,676 440.5,625.5 Q501,575 501,478 Q501,424 475,371.5 Q449,319 410,271.5 Q371,224 326,182 Q281,140 243,106"/> 
            <glyph glyph-name="3" unicode="&#x33;" horiz-adv-x="532" d=" M345,413 Q379,409 413,396.5 Q447,384 473,361 Q499,338 515.5,302.5 Q532,267 532,217 Q532,160 511,117.5 Q490,75 453.5,46.5 Q417,18 367.5,4 Q318,-10 261,-10 Q213,-8 153.5,1.5 Q94,11 43,37 L78,135 Q137,116 174.5,109.5 Q212,103 242,103 Q311,103 350,132 Q389,161 389,218 Q389,265 353.5,294 Q318,323 236,323 Q224,323 212,322 Q200,321 186,319 Q185,325 182.5,335 Q180,345 177.5,356.5 Q175,368 172.5,378 Q170,388 169,394 Q186,411 207,431.5 Q228,452 249.5,473 Q271,494 292,514.5 Q313,535 331,552 Q330,554 329,556 Q328,558 328,560 L74,560 L74,667 L499,667 Q500,661 502.5,648.5 Q505,636 508,623 Q511,610 513,598 Q515,586 517,580 L343,419"/> 
            <glyph glyph-name="4" unicode="&#x34;" horiz-adv-x="564" d=" M467,667 L467,269 L564,269 L564,170 L467,170 L467,0 L331,0 L331,170 L28,170 L28,256 Q44,278 67.5,310.5 Q91,343 118,381.5 Q145,420 174,461 Q203,502 230,540.5 Q257,579 280.5,612 Q304,645 320,667 M327,511 Q309,486 287.5,454.5 Q266,423 244.5,390 Q223,357 201.5,325.5 Q180,294 161,269 L334,269 L334,511"/> 
            <glyph glyph-name="5" unicode="&#x35;" horiz-adv-x="536" d=" M260,331 Q236,331 210.5,324.5 Q185,318 159,307 L84,344 L109,667 L502,667 L502,561 L220,561 L210,421 Q222,423 243.5,428 Q265,433 297,433 Q346,433 389.5,420 Q433,407 465.5,380 Q498,353 517,312.5 Q536,272 536,218 Q536,161 515,118.5 Q494,76 458,47.5 Q422,19 374,5 Q326,-9 272,-9 Q249,-9 221,-7 Q193,-5 163,0.5 Q133,6 102.5,15 Q72,24 46,38 L79,135 Q139,117 177,110 Q215,103 247,103 Q316,103 355,132 Q394,161 394,221 Q394,249 383,270 Q372,291 354,304.5 Q336,318 311.5,324.5 Q287,331 260,331"/> 
            <glyph glyph-name="6" unicode="&#x36;" horiz-adv-x="544" d=" M191,384 Q227,404 263.5,414.5 Q300,425 340,425 Q382,425 419,412.5 Q456,400 484,374 Q512,348 528,309 Q544,270 544,216 Q544,162 526,120 Q508,78 475.5,49.5 Q443,21 398.5,6.5 Q354,-8 301,-8 Q229,-8 180,16 Q131,40 100.5,81.5 Q70,123 57,179.5 Q44,236 44,301 Q44,380 60,448 Q76,516 111,566.5 Q146,617 201.5,646 Q257,675 337,675 Q390,675 428,666 Q466,657 488,649 Q486,642 483,628 Q480,614 477,599 Q474,584 471,570 Q468,556 466,549 Q430,561 399,565 Q368,569 346,569 Q301,569 271,550 Q241,531 223,503 Q205,475 196,444 Q187,413 184,388 M409,213 Q409,237 404,257 Q399,277 387.5,292 Q376,307 356,315.5 Q336,324 306,324 Q280,324 259.5,318.5 Q239,313 223.5,306 Q208,299 198.5,292.5 Q189,286 185,284 L185,266 Q185,240 189,211 Q193,182 205.5,157.5 Q218,133 241,117 Q264,101 301,101 Q353,101 381,131.5 Q409,162 409,213"/> 
            <glyph glyph-name="7" unicode="&#x37;" horiz-adv-x="519" d=" M80,561 L80,667 L519,667 L519,576 L257,0 L119,0 L380,561"/> 
            <glyph glyph-name="8" unicode="&#x38;" horiz-adv-x="547" d=" M204,499 Q204,479 214,465 Q224,451 241.5,439 Q259,427 282,416.5 Q305,406 332,394 Q371,423 386,447.5 Q401,472 401,496 Q401,510 395.5,525 Q390,540 377.5,552 Q365,564 345.5,572 Q326,580 299,580 Q273,580 255,571.5 Q237,563 226,550.5 Q215,538 209.5,524 Q204,510 204,499 M293,94 Q321,94 342.5,102 Q364,110 379,123.5 Q394,137 401.5,155 Q409,173 409,192 Q409,213 399.5,229.5 Q390,246 371,260.5 Q352,275 323,289 Q294,303 255,319 Q210,288 194.5,254 Q179,220 179,188 Q179,150 207.5,122 Q236,94 293,94 M528,506 Q528,471 510,431 Q492,391 438,350 Q486,325 516.5,284 Q547,243 547,183 Q547,142 529,107 Q511,72 477.5,46.5 Q444,21 396.5,6.5 Q349,-8 291,-8 Q171,-8 105,42 Q39,92 39,176 Q39,198 44.5,223.5 Q50,249 63.5,274.5 Q77,300 99.5,324 Q122,348 155,368 Q113,394 92.5,424 Q72,454 72,501 Q72,539 89,571.5 Q106,604 136.5,628 Q167,652 209,665.5 Q251,679 301,679 Q340,679 380,669.5 Q420,660 453,639.5 Q486,619 507,586 Q528,553 528,506"/> 
            <glyph glyph-name="9" unicode="&#x39;" horiz-adv-x="539" d=" M392,282 Q319,241 243,241 Q200,241 163,253.5 Q126,266 98.5,291.5 Q71,317 55,356.5 Q39,396 39,450 Q39,504 57,546 Q75,588 107,616.5 Q139,645 184,660 Q229,675 282,675 Q354,675 403,651 Q452,627 482,585.5 Q512,544 525.5,487.5 Q539,431 539,365 Q539,286 523,218 Q507,150 471.5,100 Q436,50 380.5,21.5 Q325,-7 246,-7 Q192,-7 151.5,1 Q111,9 89,18 L114,117 Q149,105 181.5,101.5 Q214,98 237,98 Q281,98 310.5,117 Q340,136 358.5,163.5 Q377,191 386,222.5 Q395,254 398,278 M173,453 Q173,429 178,409 Q183,389 195,374 Q207,359 226.5,350.5 Q246,342 276,342 Q302,342 322.5,347.5 Q343,353 358.5,360 Q374,367 383.5,373.5 Q393,380 397,382 L397,401 Q397,426 393,454.5 Q389,483 377,507.5 Q365,532 342,548 Q319,564 282,564 Q229,564 201,534 Q173,504 173,453"/> 
            <glyph glyph-name=":" unicode="&#x3A;" horiz-adv-x="209" d=" M209,64 Q209,34 189,13 Q169,-8 130,-8 Q92,-8 72.5,13 Q53,34 53,64 Q53,96 72.5,116 Q92,136 130,136 Q168,136 188.5,116 Q209,96 209,64 M209,367 Q209,336 188.5,315.5 Q168,295 130,295 Q92,295 72.5,315.5 Q53,336 53,367 Q53,398 72.5,418 Q92,438 130,438 Q168,438 188.5,418 Q209,398 209,367"/> 
            <glyph glyph-name=";" unicode="&#x3B;" horiz-adv-x="210" d=" M209,367 Q209,336 188.5,315.5 Q168,295 130,295 Q92,295 72.5,315.5 Q53,336 53,367 Q53,398 72.5,418 Q92,438 130,438 Q168,438 188.5,418 Q209,398 209,367 M50,64 Q50,93 71,114 Q92,135 127,135 Q170,135 190,109.5 Q210,84 210,49 Q210,21 200,-8 Q190,-37 172.5,-64 Q155,-91 131,-113.5 Q107,-136 80,-150 L45,-105 Q93,-60 101,-1 Q50,9 50,64"/> 
            <glyph glyph-name="&lt;" unicode="&#x3C;" horiz-adv-x="524" d=" M524,47 L80,264 L80,333 L524,549 L524,452 L192,300 L524,143"/> 
            <glyph glyph-name="=" unicode="&#x3D;" horiz-adv-x="511" d=" M86,340 L86,421 L511,421 L511,340 M86,180 L86,260 L511,260 L511,180"/> 
            <glyph glyph-name="&gt;" unicode="&#x3E;" horiz-adv-x="524" d=" M80,143 L412,300 L80,452 L80,549 L524,333 L524,264 L80,47"/> 
            <glyph glyph-name="?" unicode="&#x3F;" horiz-adv-x="466" d=" M253,435 Q283,461 297.5,483.5 Q312,506 312,536 Q312,568 288.5,584.5 Q265,601 225,601 Q193,601 157.5,596 Q122,591 75,575 L45,672 Q105,694 157,702 Q209,710 251,710 Q353,710 406.5,669.5 Q460,629 466,560 Q466,520 451,488 Q436,456 414,429 Q392,402 365.5,379 Q339,356 317,334 Q295,312 280,289 Q265,266 265,239 Q265,227 266.5,215 Q268,203 270,187 L153,181 Q149,205 147,224 Q145,243 145,258 Q145,287 153,310 Q161,333 175.5,354 Q190,375 209.5,394.5 Q229,414 253,435 M297,55 Q297,26 277.5,7.5 Q258,-11 222,-11 Q186,-11 166.5,7.5 Q147,26 147,55 Q147,85 166,104.5 Q185,124 222,124 Q259,124 278,104.5 Q297,85 297,55"/> 
            <glyph glyph-name="@" unicode="&#x40;" horiz-adv-x="889" d=" M505,713 Q595,713 666,687.5 Q737,662 786.5,615 Q836,568 862.5,502.5 Q889,437 889,356 Q889,301 872.5,259 Q856,217 827.5,188.5 Q799,160 761,145 Q723,130 681,130 Q663,130 644,133.5 Q625,137 607.5,144.5 Q590,152 576,164.5 Q562,177 554,194 Q528,166 492,152.5 Q456,139 422,139 Q384,139 360.5,151 Q337,163 324,181 Q311,199 306,219.5 Q301,240 301,257 Q301,292 314,313.5 Q327,335 355.5,348 Q384,361 428.5,368 Q473,375 536,382 L536,397 Q536,429 524.5,443 Q513,457 475,457 Q450,457 419.5,452 Q389,447 358,438 L337,513 Q374,527 415,535 Q456,543 498,543 Q531,543 558.5,536.5 Q586,530 605.5,514.5 Q625,499 636,473.5 Q647,448 647,410 L647,260 Q647,239 659.5,226 Q672,213 701,213 Q717,213 734,220.5 Q751,228 765.5,244.5 Q780,261 789.5,287 Q799,313 799,350 Q799,414 779,465.5 Q759,517 721,553 Q683,589 628.5,608.5 Q574,628 505,628 Q435,628 374,604.5 Q313,581 267.5,540 Q222,499 196,443.5 Q170,388 170,323 Q170,257 193,201 Q216,145 257,104 Q298,63 354.5,40 Q411,17 478,17 Q506,17 540.5,21.5 Q575,26 622,42 L650,-31 Q611,-50 565,-58.5 Q519,-67 479,-67 Q386,-67 312,-38 Q238,-9 186.5,43 Q135,95 107.5,166 Q80,237 80,321 Q80,405 112.5,477 Q145,549 202.5,601.5 Q260,654 337.5,683.5 Q415,713 505,713 M536,320 Q519,318 499,316 Q479,314 461.5,309.5 Q444,305 432.5,295 Q421,285 421,267 Q421,245 432,232.5 Q443,220 468,220 Q501,220 536,249"/> 
            <glyph glyph-name="A" unicode="&#x41;" horiz-adv-x="655" d=" M503,0 L455,157 L204,157 L155,0 L8,0 L242,687 L428,687 L655,0 M374,438 L334,587 L329,587 L287,433 L236,257 L425,257"/> 
            <glyph glyph-name="B" unicode="&#x42;" horiz-adv-x="602" d=" M496,358 Q531,346 552,326 Q573,306 584,283.5 Q595,261 598.5,238.5 Q602,216 602,200 Q602,155 586,118 Q570,81 541.5,54.5 Q513,28 473,14 Q433,0 385,0 L72,0 L72,687 L372,687 Q479,687 531.5,636 Q584,585 584,503 Q584,487 580,467.5 Q576,448 566,429 Q556,410 539,392.5 Q522,375 496,363 M219,305 L219,104 L344,104 Q402,104 427,133.5 Q452,163 452,206 Q452,247 425.5,276 Q399,305 344,305 M219,583 L219,405 L330,405 Q381,405 407,427 Q433,449 433,491 Q433,533 409,558 Q385,583 330,583"/> 
            <glyph glyph-name="C" unicode="&#x43;" horiz-adv-x="593" d=" M385,701 Q438,701 484,693 Q530,685 568,673 L547,565 Q507,576 470.5,580.5 Q434,585 404,585 Q308,585 258,525.5 Q208,466 208,345 Q208,286 218,241.5 Q228,197 251.5,167 Q275,137 313.5,122 Q352,107 408,107 Q420,107 439.5,108.5 Q459,110 481.5,113 Q504,116 526.5,120 Q549,124 569,129 L593,27 Q571,18 544.5,11.5 Q518,5 489.5,0 Q461,-5 432,-7.5 Q403,-10 377,-10 Q282,-10 219.5,17 Q157,44 119.5,91.5 Q82,139 67,202.5 Q52,266 52,340 Q52,400 67,464 Q82,528 119.5,580.5 Q157,633 221.5,667 Q286,701 385,701"/> 
            <glyph glyph-name="D" unicode="&#x44;" horiz-adv-x="637" d=" M73,0 L73,688 L331,688 Q422,688 481.5,660.5 Q541,633 575.5,586.5 Q610,540 623.5,477.5 Q637,415 637,346 Q637,277 621.5,214 Q606,151 570,103.5 Q534,56 474,28 Q414,0 325,0 M222,584 L222,106 L313,106 Q339,106 369,114.5 Q399,123 424.5,148.5 Q450,174 467,220 Q484,266 484,341 Q484,417 468,464.5 Q452,512 427.5,538.5 Q403,565 372.5,574.5 Q342,584 313,584"/> 
            <glyph glyph-name="E" unicode="&#x45;" horiz-adv-x="560" d=" M72,0 L72,688 L546,688 L546,584 L221,584 L221,409 L494,409 L494,311 L221,311 L221,105 L560,105 L560,0"/> 
            <glyph glyph-name="F" unicode="&#x46;" horiz-adv-x="541" d=" M72,0 L72,688 L541,688 L541,583 L220,583 L220,397 L471,397 L471,297 L220,297 L220,0"/> 
            <glyph glyph-name="G" unicode="&#x47;" horiz-adv-x="609" d=" M399,701 Q451,701 500,693 Q549,685 588,673 L567,567 Q525,578 486.5,582.5 Q448,587 416,587 Q310,587 259,524.5 Q208,462 208,334 Q208,282 217,240 Q226,198 246.5,168.5 Q267,139 300.5,123 Q334,107 383,107 Q403,107 428.5,110 Q454,113 474,118 L474,363 L609,363 L609,28 Q551,8 490,-1 Q429,-10 375,-10 Q281,-10 219,18 Q157,46 120,94 Q83,142 67.5,206 Q52,270 52,342 Q52,402 67,466 Q82,530 120.5,582 Q159,634 226.5,667.5 Q294,701 399,701"/> 
            <glyph glyph-name="H" unicode="&#x48;" horiz-adv-x="636" d=" M487,0 L487,306 L220,306 Q220,229 220.5,152.5 Q221,76 221,0 L72,0 L72,687 L221,687 Q221,618 220.5,550 Q220,482 220,413 L487,413 L487,687 L636,687 L636,0"/> 
            <glyph glyph-name="I" unicode="&#x49;" horiz-adv-x="227" d=" M81,0 L81,688 L227,688 L227,0"/> 
            <glyph glyph-name="J" unicode="&#x4A;" horiz-adv-x="274" d=" M127,689 L274,689 L273,151 Q273,8 200,-74.5 Q127,-157 -16,-192 L-51,-90 Q2,-62 36,-37 Q70,-12 90,16 Q110,44 118,77.5 Q126,111 126,156"/> 
            <glyph glyph-name="K" unicode="&#x4B;" horiz-adv-x="656" d=" M225,419 L267,467 L470,687 L641,687 L379,418 L656,0 L482,0 Q431,81 380.5,160 Q330,239 279,320 L218,258 L218,0 L72,0 L72,687 L218,687 L218,419"/> 
            <glyph glyph-name="L" unicode="&#x4C;" horiz-adv-x="569" d=" M72,0 L72,688 L220,688 L220,103 L569,103 L569,0"/> 
            <glyph glyph-name="M" unicode="&#x4D;" horiz-adv-x="817" d=" M670,464 L620,337 Q607,308 591.5,272 Q576,236 560.5,199.5 Q545,163 530,127 Q515,91 502,62 L381,62 Q368,92 353,129 Q338,166 322.5,203.5 Q307,241 291.5,277.5 Q276,314 262,344 L218,459 L215,459 Q215,412 215,352 Q215,292 214.5,229.5 Q214,167 214,107 Q214,47 214,0 L72,0 L72,687 L254,687 L344,464 Q354,438 366.5,406.5 Q379,375 392,341.5 Q405,308 417,276 Q429,244 440,219 L448,219 Q472,277 497,340 Q522,403 546,462 Q556,483 568.5,513 Q581,543 593.5,574.5 Q606,606 618.5,636 Q631,666 641,687 L817,687 L817,0 L673,0 L673,464"/> 
            <glyph glyph-name="N" unicode="&#x4E;" horiz-adv-x="669" d=" M526,214 L526,687 L669,687 L669,0 L521,0 L288,370 Q271,399 253.5,427 Q236,455 219,484 Q217,484 216.5,483.5 Q216,483 214,483 L214,0 L72,0 L72,687 L221,687 Q275,603 327.5,521 Q380,439 433,354 L520,214"/> 
            <glyph glyph-name="O" unicode="&#x4F;" horiz-adv-x="694" d=" M694,344 Q694,268 674,203.5 Q654,139 614,91.5 Q574,44 514.5,17 Q455,-10 376,-10 Q292,-10 231,15.5 Q170,41 130.5,87.5 Q91,134 72,198.5 Q53,263 53,342 Q53,416 71.5,481 Q90,546 129,595 Q168,644 229,672 Q290,700 376,700 Q462,700 522.5,671.5 Q583,643 621,594.5 Q659,546 676.5,481.5 Q694,417 694,344 M537,342 Q537,389 530.5,434.5 Q524,480 506.5,515.5 Q489,551 457.5,573 Q426,595 376,595 Q325,595 292.5,573.5 Q260,552 241,517 Q222,482 215,436 Q208,390 208,341 Q208,224 245.5,160.5 Q283,97 376,97 Q419,97 450,115.5 Q481,134 500,167 Q519,200 528,244.5 Q537,289 537,342"/> 
            <glyph glyph-name="P" unicode="&#x50;" horiz-adv-x="569" d=" M569,477 Q569,440 557,402 Q545,364 518,333.5 Q491,303 448.5,283.5 Q406,264 345,264 L220,264 L221,0 L72,0 L72,688 L333,688 Q451,688 510,631 Q569,574 569,477 M220,584 L220,365 L317,365 Q337,365 355.5,370.5 Q374,376 388,389 Q402,402 410.5,423 Q419,444 419,474 Q419,533 388.5,558.5 Q358,584 312,584"/> 
            <glyph glyph-name="Q" unicode="&#x51;" horiz-adv-x="698" d=" M692,342 Q692,239 656,159 Q620,79 548,37 Q585,26 623,16.5 Q661,7 698,-2 Q687,-30 676.5,-58 Q666,-86 655,-114 Q577,-87 499,-60.5 Q421,-34 342,-8 Q266,-1 211.5,26 Q157,53 121.5,97.5 Q86,142 69,203 Q52,264 52,341 Q52,415 70.5,480.5 Q89,546 128,594.5 Q167,643 228,671.5 Q289,700 375,700 Q461,700 521.5,671.5 Q582,643 620,594 Q658,545 675,480 Q692,415 692,342 M536,341 Q536,388 529.5,433 Q523,478 505.5,513.5 Q488,549 456.5,571 Q425,593 375,593 Q325,593 292.5,572 Q260,551 241,515.5 Q222,480 214.5,434.5 Q207,389 207,340 Q207,281 216,235.5 Q225,190 245,159 Q265,128 297,111.5 Q329,95 375,95 Q418,95 448.5,113.5 Q479,132 498.5,165 Q518,198 527,243 Q536,288 536,341"/> 
            <glyph glyph-name="R" unicode="&#x52;" horiz-adv-x="606" d=" M576,490 Q576,462 569,434.5 Q562,407 547.5,383.5 Q533,360 511,341.5 Q489,323 459,313 L459,312 Q502,298 521,265 Q540,232 551,192 L606,0 L459,0 Q446,45 433,89.5 Q420,134 407,180 Q391,237 362.5,257 Q334,277 292,277 L218,277 L218,0 L72,0 L72,687 L351,687 Q410,687 452.5,671.5 Q495,656 522.5,629 Q550,602 563,566 Q576,530 576,490 M323,378 Q341,378 359,383 Q377,388 392,400 Q407,412 416.5,432 Q426,452 426,482 Q426,534 397,558.5 Q368,583 322,583 L218,583 L218,378"/> 
            <glyph glyph-name="S" unicode="&#x53;" horiz-adv-x="581" d=" M320,701 Q371,701 429,690.5 Q487,680 538,652 L500,552 Q449,573 400.5,579.5 Q352,586 315,586 Q268,586 241,564 Q214,542 214,498 Q214,478 225.5,464.5 Q237,451 256,441 Q275,431 299.5,424 Q324,417 351,411 Q386,402 426.5,390 Q467,378 501.5,355 Q536,332 558.5,294 Q581,256 581,195 Q581,97 509,43.5 Q437,-10 292,-10 Q266,-10 234.5,-7 Q203,-4 170,2.5 Q137,9 104,19.5 Q71,30 41,45 L79,149 Q152,120 210,112 Q268,104 303,104 Q364,104 395,124.5 Q426,145 426,195 Q426,217 418,231.5 Q410,246 395,256.5 Q380,267 359,274 Q338,281 313,288 Q262,301 216,314.5 Q170,328 135,350 Q100,372 79.5,405.5 Q59,439 59,492 Q59,586 124.5,643.5 Q190,701 320,701"/> 
            <glyph glyph-name="T" unicode="&#x54;" horiz-adv-x="596" d=" M232,0 L232,581 L14,581 L14,688 L596,688 L596,581 L379,581 L378,0"/> 
            <glyph glyph-name="U" unicode="&#x55;" horiz-adv-x="642" d=" M641,253 Q641,192 624,143 Q607,94 572,60 Q537,26 483,8 Q429,-10 355,-10 Q278,-10 223,8 Q168,26 133.5,60 Q99,94 83,143 Q67,192 67,253 L67,688 L213,688 L213,248 Q213,170 250,133.5 Q287,97 357,97 Q421,97 459.5,132.5 Q498,168 498,248 L497,688 L642,688"/> 
            <glyph glyph-name="V" unicode="&#x56;" horiz-adv-x="638" d=" M326,134 Q334,163 342.5,194 Q351,225 359,257 Q388,369 418.5,473 Q449,577 481,688 L638,688 Q581,515 525,343.5 Q469,172 412,0 L232,0 Q175,172 119.5,343.5 Q64,515 8,688 L165,688 Q197,576 227.5,472 Q258,368 288,257 Q296,227 303.5,196 Q311,165 319,134"/> 
            <glyph glyph-name="W" unicode="&#x57;" horiz-adv-x="935" d=" M462,499 Q454,459 446,412 Q438,365 430,326 L359,0 L174,0 L8,688 L165,688 Q172,656 182,609 Q192,562 202.5,511.5 Q213,461 223,414 Q233,367 240,336 Q244,317 248,295.5 Q252,274 255.5,251.5 Q259,229 263,207 Q267,185 271,166 L278,166 Q286,203 293,247.5 Q300,292 308,329 Q315,364 325.5,411.5 Q336,459 347,509.5 Q358,560 368.5,607 Q379,654 386,688 L545,688 Q548,678 555,650 Q562,622 571,585.5 Q580,549 590,508 Q600,467 608.5,431.5 Q617,396 624,369.5 Q631,343 633,335 Q634,331 639,307.5 Q644,284 650,255.5 Q656,227 661.5,201 Q667,175 669,167 L677,167 Q685,207 692.5,255 Q700,303 708,342 Q715,373 724.5,419.5 Q734,466 744,515 Q754,564 764,610.5 Q774,657 781,688 L935,688 Q926,650 912.5,593 Q899,536 883.5,470.5 Q868,405 851.5,335 Q835,265 819.5,201.5 Q804,138 791,85 Q778,32 770,0 L588,0 Q579,33 568.5,75.5 Q558,118 547,162.5 Q536,207 525.5,250 Q515,293 506,326 Q503,338 498,362 Q493,386 487.5,412 Q482,438 477,462 Q472,486 469,498"/> 
            <glyph glyph-name="X" unicode="&#x58;" horiz-adv-x="638" d=" M234,357 Q183,438 129.5,521.5 Q76,605 24,687 L192,687 Q226,626 259.5,566.5 Q293,507 328,446 Q363,506 397,566.5 Q431,627 466,687 L633,687 Q577,603 522.5,520.5 Q468,438 413,354 L638,0 L472,0 Q434,64 396,129 Q358,194 320,259 L172,0 L6,0 Q63,90 120,178 Q177,266 234,357"/> 
            <glyph glyph-name="Y" unicode="&#x59;" horiz-adv-x="616" d=" M232,247 L8,687 L162,687 Q183,642 205,598.5 Q227,555 247,510 L308,373 L314,373 Q331,406 346.5,444.5 Q362,483 379,516 L465,687 L616,687 Q559,583 503,475.5 Q447,368 390,264 L390,0 L232,0"/> 
            <glyph glyph-name="Z" unicode="&#x5A;" horiz-adv-x="577" d=" M218,107 L577,106 L577,0 L18,0 L18,98 L358,575 L355,582 L44,582 L44,688 L559,688 L559,592 L215,113"/> 
            <glyph glyph-name="[" unicode="&#x5B;" horiz-adv-x="278" d=" M63,-160 L63,699 L278,699 L278,619 L182,619 L182,-83 L278,-83 L278,-160"/> 
            <glyph glyph-name="\" unicode="&#x5C;" horiz-adv-x="365" d=" M8,706 L106,706 L365,-33 L267,-33"/> 
            <glyph glyph-name="]" unicode="&#x5D;" horiz-adv-x="253" d=" M39,-160 L39,-83 L134,-83 L134,619 L39,619 L39,699 L253,699 L253,-160"/> 
            <glyph glyph-name="^" unicode="&#x5E;" horiz-adv-x="458" d=" M364,355 L239,581 L113,355 L19,355 L205,679 L273,679 L458,355"/> 
            <glyph glyph-name="_" unicode="&#x5F;" horiz-adv-x="500" d=" M0,-145 L0,-75 L500,-75 L500,-145"/> 
            <glyph glyph-name="`" unicode="&#x60;" horiz-adv-x="378" d=" M149,668 Q155,675 166,687 Q177,699 188.5,712 Q200,725 211,737 Q222,749 229,756 Q241,741 261,718.5 Q281,696 303,672.5 Q325,649 345,626.5 Q365,604 378,589 L325,531"/> 
            <glyph glyph-name="a" unicode="&#x61;" horiz-adv-x="555" d=" M484,95 L548,95 L555,15 Q531,4 499,-3 Q467,-10 435,-10 Q403,-10 381.5,1 Q360,12 356,49 Q356,49 354,51 Q328,28 302,16 Q276,4 253.5,-2 Q231,-8 212.5,-9 Q194,-10 184,-10 Q138,-10 108.5,4.5 Q79,19 62,40.5 Q45,62 38.5,87 Q32,112 32,133 Q32,171 46,199.5 Q60,228 84.5,247.5 Q109,267 142,278 Q175,289 214,291 Q243,293 281,295 Q319,297 348,299 L348,311 Q348,353 330,374.5 Q312,396 257,396 Q221,396 178.5,389 Q136,382 101,371 Q96,394 90,416 Q84,438 78,460 Q122,479 180,490 Q238,501 291,501 Q335,501 371,492 Q407,483 432,463 Q457,443 470.5,410.5 Q484,378 484,330 M249,212 Q180,206 180,145 Q180,114 196,98 Q212,82 247,82 Q270,82 297,93.5 Q324,105 348,126 L348,220"/> 
            <glyph glyph-name="b" unicode="&#x62;" horiz-adv-x="534" d=" M192,716 L192,571 Q192,561 191.5,546.5 Q191,532 190.5,517 Q190,502 189.5,488 Q189,474 189,464 L196,460 Q238,486 275.5,495.5 Q313,505 339,505 Q394,505 431.5,485.5 Q469,466 492,431.5 Q515,397 524.5,349 Q534,301 534,245 Q534,194 523,148 Q512,102 485,67.5 Q458,33 411.5,12.5 Q365,-8 294,-8 Q270,-8 239.5,-5.5 Q209,-3 177,2.5 Q145,8 112.5,17.5 Q80,27 50,41 L50,716 M296,398 Q270,398 243,388.5 Q216,379 194,367 L194,111 Q219,100 243,96.5 Q267,93 287,93 Q309,93 328,99.5 Q347,106 361,123 Q375,140 382.5,169 Q390,198 390,243 Q390,292 382.5,322.5 Q375,353 362,369.5 Q349,386 332,392 Q315,398 296,398"/> 
            <glyph glyph-name="c" unicode="&#x63;" horiz-adv-x="461" d=" M184,246 Q184,178 209.5,139.5 Q235,101 302,101 Q337,101 369,108 Q401,115 434,126 L461,31 Q424,12 375.5,2 Q327,-8 276,-8 Q205,-8 159.5,11.5 Q114,31 87,65 Q60,99 49.5,144 Q39,189 39,240 Q39,283 49,329.5 Q59,376 86,414.5 Q113,453 160,477.5 Q207,502 282,502 Q314,502 353.5,497.5 Q393,493 435,478 Q430,453 424.5,428.5 Q419,404 413,378 Q381,387 354.5,389.5 Q328,392 306,392 Q246,392 215,353.5 Q184,315 184,246"/> 
            <glyph glyph-name="d" unicode="&#x64;" horiz-adv-x="524" d=" M251,503 Q275,503 312.5,496.5 Q350,490 381,472 L381,715 L524,715 L524,0 L391,0 L388,44 Q386,46 385,46 Q349,17 307.5,5 Q266,-7 234,-7 Q177,-7 139,12.5 Q101,32 79,65 Q57,98 48,142 Q39,186 39,235 Q39,292 50,341 Q61,390 86.5,426 Q112,462 152,482.5 Q192,503 251,503 M381,372 Q364,383 335,391 Q306,399 282,399 Q264,399 246,392.5 Q228,386 214,368 Q200,350 191.5,318 Q183,286 183,236 Q183,192 190.5,164.5 Q198,137 211,121 Q224,105 242,99 Q260,93 280,93 Q291,93 305,96.5 Q319,100 333,105 Q347,110 359.5,117 Q372,124 381,130"/> 
            <glyph glyph-name="e" unicode="&#x65;" horiz-adv-x="505" d=" M280,504 Q359,504 404,479 Q449,454 471.5,417 Q494,380 499.5,338.5 Q505,297 505,264 L505,213 L184,213 Q184,156 212.5,127 Q241,98 307,98 Q347,98 387,106.5 Q427,115 465,129 L494,41 Q445,14 391,3 Q337,-8 286,-8 Q212,-8 164,12.5 Q116,33 88.5,68 Q61,103 50.5,148.5 Q40,194 40,245 Q40,285 50,331 Q60,377 87,415 Q114,453 160.5,478.5 Q207,504 280,504 M286,413 Q259,413 241,404 Q223,395 211.5,379.5 Q200,364 194,343.5 Q188,323 186,301 L375,301 Q374,350 355.5,381.5 Q337,413 286,413"/> 
            <glyph glyph-name="f" unicode="&#x66;" horiz-adv-x="419" d=" M97,398 L28,398 L28,476 L98,496 L98,557 Q98,592 106.5,623 Q115,654 136.5,676.5 Q158,699 194,712 Q230,725 284,725 Q310,725 347,721.5 Q384,718 419,708 L402,611 Q381,616 357,618 Q333,620 317,620 Q279,620 258,605.5 Q237,591 237,555 L237,492 L378,492 L378,398 L237,398 Q237,387 237,356.5 Q237,326 237,285.5 Q237,245 236.5,199 Q236,153 236,112.5 Q236,72 236,41.5 Q236,11 236,0 L97,0"/> 
            <glyph glyph-name="g" unicode="&#x67;" horiz-adv-x="563" d=" M120,195 Q94,210 76,241 Q58,272 58,320 Q58,369 77,403.5 Q96,438 127.5,460.5 Q159,483 199.5,493.5 Q240,504 283,504 Q312,504 339.5,501 Q367,498 387,492 L563,492 L563,420 L493,420 L490,415 Q504,397 510,372.5 Q516,348 516,325 Q516,283 498.5,251 Q481,219 450,197.5 Q419,176 378,165 Q337,154 290,154 L233,153 Q205,153 188.5,146 Q172,139 172,122 Q172,111 182.5,104.5 Q193,98 211,98 L355,98 Q448,98 500,63 Q552,28 552,-48 Q552,-82 536,-112.5 Q520,-143 486,-166.5 Q452,-190 397.5,-204 Q343,-218 267,-218 Q194,-218 149,-205.5 Q104,-193 79,-173 Q54,-153 45.5,-128 Q37,-103 37,-78 Q37,-41 55.5,-13 Q74,15 99,29 Q45,46 45,101 Q45,138 67,159 Q89,180 118,191 M218,12 Q201,5 188,-14 Q175,-33 175,-52 Q175,-66 179.5,-79 Q184,-92 196,-101.5 Q208,-111 230,-117 Q252,-123 287,-123 Q347,-123 377,-103.5 Q407,-84 407,-52 Q407,-40 404,-28.5 Q401,-17 392,-8 Q383,1 367,6.5 Q351,12 326,12 M376,326 Q376,342 371.5,357.5 Q367,373 356.5,385 Q346,397 328.5,404.5 Q311,412 286,412 Q240,412 219,387.5 Q198,363 198,325 Q198,286 219.5,264 Q241,242 280,242 Q321,242 348.5,261.5 Q376,281 376,326"/> 
            <glyph glyph-name="h" unicode="&#x68;" horiz-adv-x="518" d=" M195,447 Q237,472 283,487.5 Q329,503 364,503 Q414,503 444,489.5 Q474,476 490.5,453 Q507,430 512.5,399 Q518,368 518,334 L518,0 L375,0 L375,304 Q375,323 373,339 Q371,355 364,367 Q357,379 343,385.5 Q329,392 305,392 Q280,392 249,381 Q218,370 193,355 L193,0 L49,0 L49,715 L190,715 L190,556 L187,451"/> 
            <glyph glyph-name="i" unicode="&#x69;" horiz-adv-x="233" d=" M77,0 L77,491 L220,491 L220,0 M233,627 Q233,595 211.5,573 Q190,551 148,551 Q108,551 87,573 Q66,595 66,627 Q66,660 87.5,682 Q109,704 148,704 Q190,704 211.5,682 Q233,660 233,627"/> 
            <glyph glyph-name="k" unicode="&#x6B;" horiz-adv-x="526" d=" M189,323 Q191,322 195,322 L353,491 L513,491 L328,299 L364,257 Q371,245 384,225 Q397,205 412.5,180 Q428,155 445,128.5 Q462,102 477.5,77 Q493,52 506,31.5 Q519,11 526,0 L368,0 Q335,54 302,107.5 Q269,161 237,216 L194,172 L194,0 L49,0 L49,714 L194,714 L193,465 Q193,433 192,394 Q191,355 189,323"/> 
            <glyph glyph-name="l" unicode="&#x6C;" horiz-adv-x="207" d=" M206,0 L64,0 L64,716 L207,716"/> 
            <glyph glyph-name="m" unicode="&#x6D;" horiz-adv-x="812" d=" M668,0 L668,311 Q668,352 654.5,371.5 Q641,391 603,391 Q580,391 549.5,381 Q519,371 498,357 Q500,341 501,324 Q502,307 502,293 L502,0 L361,0 Q361,81 360.5,160.5 Q360,240 360,321 Q360,390 301,390 Q276,390 247.5,380 Q219,370 193,354 L193,0 L50,0 L50,491 L184,491 L187,442 L191,440 Q233,472 279.5,487 Q326,502 361,502 Q444,502 480,438 Q498,452 520.5,463.5 Q543,475 567,483.5 Q591,492 614,497 Q637,502 657,502 Q706,502 736.5,488 Q767,474 783.5,450 Q800,426 806,394.5 Q812,363 812,329 L812,0"/> 
            <glyph glyph-name="n" unicode="&#x6E;" horiz-adv-x="518" d=" M375,0 L375,304 Q375,323 373,339 Q371,355 363.5,367 Q356,379 342,385.5 Q328,392 305,392 Q280,392 249,381 Q218,370 193,355 L193,0 L49,0 L49,491 L185,491 L187,446 L191,444 Q234,473 281.5,488 Q329,503 364,503 Q413,503 443,489.5 Q473,476 489.5,453 Q506,430 512,399 Q518,368 518,334 L518,0"/> 
            <glyph glyph-name="o" unicode="&#x6F;" horiz-adv-x="537" d=" M537,246 Q537,195 524,148.5 Q511,102 481,66.5 Q451,31 403,10.5 Q355,-10 285,-10 Q217,-10 170,10 Q123,30 94,64.5 Q65,99 52.5,145.5 Q40,192 40,245 Q40,297 54,343.5 Q68,390 98,425 Q128,460 175.5,481 Q223,502 291,502 Q360,502 407,481.5 Q454,461 483,425.5 Q512,390 524.5,343.5 Q537,297 537,246 M389,245 Q389,274 385,302 Q381,330 370.5,352 Q360,374 341,387.5 Q322,401 291,401 Q260,401 240,387.5 Q220,374 208,352 Q196,330 191.5,302 Q187,274 187,245 Q187,212 191,184 Q195,156 206.5,135.5 Q218,115 238,103 Q258,91 291,91 Q321,91 340.5,103.5 Q360,116 370.5,137.5 Q381,159 385,187 Q389,215 389,245"/> 
            <glyph glyph-name="p" unicode="&#x70;" horiz-adv-x="534" d=" M192,444 Q228,473 267,486 Q306,499 340,499 Q397,499 434.5,479 Q472,459 494,425 Q516,391 525,345.5 Q534,300 534,248 Q534,194 523,147 Q512,100 487,65.5 Q462,31 422,11 Q382,-9 324,-9 Q312,-9 295.5,-7.5 Q279,-6 261,-3 Q243,0 225,5.5 Q207,11 192,20 L192,-209 L50,-209 L50,492 L184,492 L187,448 M291,92 Q310,92 328,99.5 Q346,107 360,125 Q374,143 382.5,174.5 Q391,206 391,254 Q391,297 383.5,324.5 Q376,352 363,367.5 Q350,383 332,389 Q314,395 294,395 Q282,395 268,391.5 Q254,388 240,382.5 Q226,377 213.5,370.5 Q201,364 193,357 L193,119 Q210,108 238,100 Q266,92 291,92"/> 
            <glyph glyph-name="q" unicode="&#x71;" horiz-adv-x="523" d=" M384,17 Q382,19 380.5,20.5 Q379,22 377,23 Q339,4 304,-3.5 Q269,-11 244,-11 Q188,-11 149.5,6 Q111,23 86.5,53.5 Q62,84 51,127.5 Q40,171 40,224 Q40,279 51.5,329 Q63,379 92,417 Q121,455 170.5,477.5 Q220,500 295,500 Q317,500 345.5,497.5 Q374,495 405,489.5 Q436,484 466.5,476 Q497,468 523,457 L523,-208 L383,-208 L383,-82 Q383,-59 383,-34 Q383,-9 384,17 M277,93 Q303,93 330,102 Q357,111 380,123 L380,381 Q358,390 336.5,393.5 Q315,397 294,397 Q270,397 250,389 Q230,381 215,363 Q200,345 191.5,315.5 Q183,286 183,244 Q183,197 190.5,167.5 Q198,138 210.5,121.5 Q223,105 240,99 Q257,93 277,93"/> 
            <glyph glyph-name="r" unicode="&#x72;" horiz-adv-x="416" d=" M201,404 Q221,424 245,442 Q269,460 294,474 Q319,488 343,496 Q367,504 388,504 Q416,504 416,471 Q416,457 412,437.5 Q408,418 401.5,397.5 Q395,377 387,359 Q379,341 371,330 L204,332 L204,0 L61,0 L61,491 L202,491 Q202,474 200,449 Q198,424 196,407"/> 
            <glyph glyph-name="s" unicode="&#x73;" horiz-adv-x="460" d=" M258,503 Q297,503 344.5,494.5 Q392,486 431,465 Q429,461 424.5,448.5 Q420,436 415.5,421.5 Q411,407 406.5,394 Q402,381 400,377 Q360,392 326,397.5 Q292,403 263,403 Q236,403 213.5,394.5 Q191,386 191,358 Q191,348 199.5,340.5 Q208,333 220.5,327 Q233,321 248.5,317 Q264,313 278,309 Q309,300 341,288.5 Q373,277 399.5,258 Q426,239 443,210.5 Q460,182 460,139 Q460,68 403,30 Q346,-8 231,-8 Q210,-8 184.5,-6 Q159,-4 132,1 Q105,6 79,13.5 Q53,21 31,32 L62,121 Q123,99 167,93.5 Q211,88 236,88 Q271,88 295,99.5 Q319,111 319,142 Q319,157 311,166.5 Q303,176 289.5,183 Q276,190 259.5,195 Q243,200 227,205 Q193,215 161,226.5 Q129,238 104.5,254 Q80,270 65,294 Q50,318 50,354 Q50,425 103,464 Q156,503 258,503"/> 
            <glyph glyph-name="t" unicode="&#x74;" horiz-adv-x="394" d=" M225,627 L225,492 L368,492 L368,398 L225,398 L225,176 Q225,137 239,118.5 Q253,100 291,100 Q305,100 327,103.5 Q349,107 376,113 L394,20 Q362,6 324,-1 Q286,-8 254,-8 Q203,-8 170,4 Q137,16 118,36 Q99,56 91.5,82.5 Q84,109 84,138 L84,398 L15,398 L15,476 L93,499 Q96,505 101,522 Q106,539 111,558 Q116,577 121,594 Q126,611 128,617"/> 
            <glyph glyph-name="u" unicode="&#x75;" horiz-adv-x="507" d=" M199,-11 Q150,-11 120.5,2 Q91,15 75,38 Q59,61 54,91 Q49,121 49,156 L49,491 L192,491 L192,187 Q192,169 194,153 Q196,137 203,125 Q210,113 223,106 Q236,99 259,99 Q280,99 308.5,110 Q337,121 364,145 L364,491 Q400,491 435.5,491.5 Q471,492 507,492 L507,0 L374,0 Q372,13 372,26 Q372,39 370,53 L366,55 Q343,35 319.5,22.5 Q296,10 274,2.5 Q252,-5 232.5,-8 Q213,-11 199,-11"/> 
            <glyph glyph-name="v" unicode="&#x76;" horiz-adv-x="541" d=" M281,95 Q283,100 288.5,121 Q294,142 301,169.5 Q308,197 315.5,225.5 Q323,254 329,273 Q337,297 348,332 Q359,367 369.5,400.5 Q380,434 387.5,460 Q395,486 397,491 L541,491 Q532,466 518.5,426.5 Q505,387 489,341 Q473,295 456.5,245 Q440,195 424,149 Q408,103 394.5,64 Q381,25 372,0 L177,0 Q168,25 154.5,64 Q141,103 125.5,149 Q110,195 93,245 Q76,295 60.5,341 Q45,387 31.5,426.5 Q18,466 9,491 L159,491 L230,263 Q234,250 240,227 Q246,204 252.5,179 Q259,154 265,131 Q271,108 276,95"/> 
            <glyph glyph-name="w" unicode="&#x77;" horiz-adv-x="803" d=" M580,115 L609,262 L664,492 L803,492 L670,0 L503,0 L445,210 L409,369 L402,369 L369,210 L316,0 L149,0 L16,492 L157,492 L212,265 L242,114 L247,114 L280,269 L339,492 L475,492 L539,262 L573,115"/> 
            <glyph glyph-name="x" unicode="&#x78;" horiz-adv-x="514" d=" M261,182 L157,0 L4,0 L173,256 L17,491 L174,491 L263,325 L353,491 L506,491 L347,257 L514,0 L358,0"/> 
            <glyph glyph-name="y" unicode="&#x79;" horiz-adv-x="526" d=" M268,89 Q271,102 278.5,132.5 Q286,163 296,197 Q305,227 316,265 Q327,303 338.5,343.5 Q350,384 361.5,422.5 Q373,461 382,491 L526,491 Q514,456 498.5,408.5 Q483,361 465,308 Q447,255 428,198.5 Q409,142 391,89 Q373,36 357,-11 Q341,-58 329,-93 Q308,-156 265,-186.5 Q222,-217 160,-217 Q140,-217 112,-213.5 Q84,-210 38,-198 L58,-103 Q84,-107 99.5,-109.5 Q115,-112 129,-112 Q163,-112 181,-99 Q199,-86 210,-51 L230,11 L166,11 L14,491 L156,491 Q164,464 174.5,425 Q185,386 196.5,344.5 Q208,303 219,263 Q230,223 238,194 Q246,165 251.5,135.5 Q257,106 261,89"/> 
            <glyph glyph-name="z" unicode="&#x7A;" horiz-adv-x="458" d=" M197,96 L458,96 L458,0 L10,0 L10,78 L260,389 L258,395 L35,395 L35,492 L445,492 L445,414 L194,103"/> 
            <glyph glyph-name="{" unicode="&#x7B;" horiz-adv-x="305" d=" M221,-166 Q180,-166 156,-151 Q132,-136 120,-115 Q108,-94 104.5,-71.5 Q101,-49 101,-34 L101,156 Q101,198 85,219.5 Q69,241 31,249 L31,322 Q71,330 86,355 Q101,380 101,428 L101,554 Q101,579 105.5,605.5 Q110,632 123,654 Q136,676 158,689.5 Q180,703 216,703 L305,703 L305,624 L279,624 Q245,624 233.5,604.5 Q222,585 222,558 L222,415 Q222,391 219.5,370 Q217,349 209.5,332.5 Q202,316 188.5,304.5 Q175,293 152,288 L152,287 Q196,270 209,237 Q222,204 222,152 L222,-24 Q222,-37 224,-49 Q226,-61 232,-70 Q238,-79 248.5,-84 Q259,-89 276,-89 L305,-89 L305,-166"/> 
            <glyph glyph-name="|" unicode="&#x7C;" horiz-adv-x="202" d=" M107,-146 L107,707 L202,707 L202,-146"/> 
            <glyph glyph-name="}" unicode="&#x7D;" horiz-adv-x="297" d=" M22,-166 L22,-89 L52,-89 Q69,-89 79.5,-84 Q90,-79 96,-70 Q102,-61 104,-49 Q106,-37 106,-24 L106,152 Q106,204 118.5,237 Q131,270 175,287 L175,288 Q137,298 121.5,329 Q106,360 106,401 L106,558 Q106,585 94.5,604.5 Q83,624 49,624 L22,624 L22,703 L112,703 Q148,703 170,692 Q192,681 205,663 Q218,645 222.5,621.5 Q227,598 227,573 L227,419 Q227,373 244,351.5 Q261,330 297,322 L297,249 Q259,241 243,216.5 Q227,192 227,156 L227,-25 Q227,-40 223.5,-63.5 Q220,-87 208,-110 Q196,-133 172,-149.5 Q148,-166 107,-166"/> 
            <glyph glyph-name="~" unicode="&#x7E;" horiz-adv-x="538" d=" M410,231 Q378,231 347,238 Q316,245 287,253.5 Q258,262 231.5,269 Q205,276 184,276 L114,230 L65,268 Q87,324 120.5,349.5 Q154,375 195,375 Q221,375 251,368 Q281,361 311,352 Q341,343 369.5,336 Q398,329 422,329 L489,377 L538,340 Q518,287 486.5,259 Q455,231 410,231"/> 
            <glyph glyph-name="Ç" unicode="&#xC7;" horiz-adv-x="593" d=" M385,701 Q438,701 484,693 Q530,685 568,673 L547,565 Q507,576 470.5,580.5 Q434,585 404,585 Q308,585 258,525.5 Q208,466 208,345 Q208,286 218,241.5 Q228,197 251.5,167 Q275,137 313.5,122 Q352,107 408,107 Q420,107 439.5,108.5 Q459,110 481.5,113 Q504,116 526.5,120 Q549,124 569,129 L593,27 Q554,11 501.5,2 Q449,-7 400,-9 Q388,-25 375.5,-41.5 Q363,-58 351,-75 Q400,-79 428.5,-100 Q457,-121 457,-159 Q457,-207 410,-238.5 Q363,-270 263,-271 L263,-223 Q314,-218 343,-204 Q372,-190 372,-168 Q372,-153 362.5,-146 Q353,-139 339,-136.5 Q325,-134 310,-134 Q295,-134 283,-134 L266,-108 L342,-9 Q258,-4 202,25 Q146,54 112.5,100.5 Q79,147 65.5,208.5 Q52,270 52,340 Q52,400 67,464 Q82,528 119.5,580.5 Q157,633 221.5,667 Q286,701 385,701"/> 
            <glyph glyph-name="È" unicode="&#xC8;" horiz-adv-x="560" d=" M72,0 L72,688 L546,688 L546,584 L221,584 L221,409 L494,409 L494,311 L221,311 L221,105 L560,105 L560,0 M185,869 L258,948 L407,780 L358,730"/> 
            <glyph glyph-name="É" unicode="&#xC9;" horiz-adv-x="560" d=" M72,0 L72,688 L546,688 L546,584 L221,584 L221,409 L494,409 L494,311 L221,311 L221,105 L560,105 L560,0 M311,729 L264,778 L411,947 L487,868"/> 
            <glyph glyph-name="Ê" unicode="&#xCA;" horiz-adv-x="560" d=" M72,0 L72,688 L546,688 L546,584 L221,584 L221,409 L494,409 L494,311 L221,311 L221,105 L560,105 L560,0 M481,732 L316,823 L153,731 L119,772 L273,919 L361,919 L516,773"/> 
            <glyph glyph-name="Ë" unicode="&#xCB;" horiz-adv-x="560" d=" M72,0 L72,688 L546,688 L546,584 L221,584 L221,409 L494,409 L494,311 L221,311 L221,105 L560,105 L560,0 M274,786 Q274,760 256,742 Q238,724 203,724 Q169,724 152,742 Q135,760 135,786 Q135,813 152.5,830.5 Q170,848 203,848 Q238,848 256,831 Q274,814 274,786 M485,786 Q485,760 467,742 Q449,724 414,724 Q381,724 364,742 Q347,760 347,786 Q347,813 364.5,830.5 Q382,848 414,848 Q449,848 467,831 Q485,814 485,786"/> 
            <glyph glyph-name="Ì" unicode="&#xCC;" horiz-adv-x="227" d=" M81,0 L81,688 L227,688 L227,0 M2,870 L75,949 L224,781 L175,731"/> 
            <glyph glyph-name="Í" unicode="&#xCD;" horiz-adv-x="325" d=" M81,0 L81,688 L227,688 L227,0 M149,733 L102,782 L249,951 L325,872"/> 
            <glyph glyph-name="Î" unicode="&#xCE;" horiz-adv-x="352" d=" M81,0 L81,688 L227,688 L227,0 M317,734 L152,825 L-11,733 L-45,774 L109,921 L197,921 L352,775"/> 
            <glyph glyph-name="Ï" unicode="&#xCF;" horiz-adv-x="332" d=" M81,0 L81,688 L227,688 L227,0 M121,793 Q121,767 103,749 Q85,731 50,731 Q16,731 -1,749 Q-18,767 -18,793 Q-18,820 -0.5,837.5 Q17,855 50,855 Q85,855 103,838 Q121,821 121,793 M332,793 Q332,767 314,749 Q296,731 261,731 Q228,731 211,749 Q194,767 194,793 Q194,820 211.5,837.5 Q229,855 261,855 Q296,855 314,838 Q332,821 332,793"/> 
            <glyph glyph-name="ç" unicode="&#xE7;" horiz-adv-x="461" d=" M184,246 Q184,178 209.5,139.5 Q235,101 302,101 Q337,101 369,108 Q401,115 434,126 L461,31 Q426,13 379.5,3.5 Q333,-6 285,-8 L248,-58 Q297,-62 325.5,-83 Q354,-104 354,-142 Q354,-190 307,-221.5 Q260,-253 160,-254 L160,-206 Q211,-201 240,-187 Q269,-173 269,-151 Q269,-136 259.5,-129 Q250,-122 236,-119.5 Q222,-117 207,-117 Q192,-117 180,-117 L163,-91 L229,-5 Q173,1 136,23 Q99,45 77.5,77.5 Q56,110 47.5,151.5 Q39,193 39,240 Q39,283 49,329.5 Q59,376 86,414.5 Q113,453 160,477.5 Q207,502 282,502 Q314,502 353.5,497.5 Q393,493 435,478 Q430,453 424.5,428.5 Q419,404 413,378 Q381,387 354.5,389.5 Q328,392 306,392 Q246,392 215,353.5 Q184,315 184,246"/> 
            <glyph glyph-name="è" unicode="&#xE8;" horiz-adv-x="505" d=" M280,504 Q359,504 404,479 Q449,454 471.5,417 Q494,380 499.5,338.5 Q505,297 505,264 L505,213 L184,213 Q184,156 212.5,127 Q241,98 307,98 Q347,98 387,106.5 Q427,115 465,129 L494,41 Q445,14 391,3 Q337,-8 286,-8 Q212,-8 164,12.5 Q116,33 88.5,68 Q61,103 50.5,148.5 Q40,194 40,245 Q40,285 50,331 Q60,377 87,415 Q114,453 160.5,478.5 Q207,504 280,504 M286,413 Q259,413 241,404 Q223,395 211.5,379.5 Q200,364 194,343.5 Q188,323 186,301 L375,301 Q374,350 355.5,381.5 Q337,413 286,413 M140,668 Q146,675 157,687 Q168,699 179.5,712 Q191,725 202,737 Q213,749 220,756 Q232,741 252,718.5 Q272,696 294,672.5 Q316,649 336,626.5 Q356,604 369,589 L316,531"/> 
            <glyph glyph-name="é" unicode="&#xE9;" horiz-adv-x="505" d=" M280,504 Q359,504 404,479 Q449,454 471.5,417 Q494,380 499.5,338.5 Q505,297 505,264 L505,213 L184,213 Q184,156 212.5,127 Q241,98 307,98 Q347,98 387,106.5 Q427,115 465,129 L494,41 Q445,14 391,3 Q337,-8 286,-8 Q212,-8 164,12.5 Q116,33 88.5,68 Q61,103 50.5,148.5 Q40,194 40,245 Q40,285 50,331 Q60,377 87,415 Q114,453 160.5,478.5 Q207,504 280,504 M286,413 Q259,413 241,404 Q223,395 211.5,379.5 Q200,364 194,343.5 Q188,323 186,301 L375,301 Q374,350 355.5,381.5 Q337,413 286,413 M263,532 L213,584 L361,754 L437,672"/> 
            <glyph glyph-name="ê" unicode="&#xEA;" horiz-adv-x="505" d=" M280,504 Q359,504 404,479 Q449,454 471.5,417 Q494,380 499.5,338.5 Q505,297 505,264 L505,213 L184,213 Q184,156 212.5,127 Q241,98 307,98 Q347,98 387,106.5 Q427,115 465,129 L494,41 Q445,14 391,3 Q337,-8 286,-8 Q212,-8 164,12.5 Q116,33 88.5,68 Q61,103 50.5,148.5 Q40,194 40,245 Q40,285 50,331 Q60,377 87,415 Q114,453 160.5,478.5 Q207,504 280,504 M286,413 Q259,413 241,404 Q223,395 211.5,379.5 Q200,364 194,343.5 Q188,323 186,301 L375,301 Q374,350 355.5,381.5 Q337,413 286,413 M453,530 L288,625 L124,529 L91,570 L245,724 L333,724 L489,572"/> 
            <glyph glyph-name="ë" unicode="&#xEB;" horiz-adv-x="505" d=" M280,504 Q359,504 404,479 Q449,454 471.5,417 Q494,380 499.5,338.5 Q505,297 505,264 L505,213 L184,213 Q184,156 212.5,127 Q241,98 307,98 Q347,98 387,106.5 Q427,115 465,129 L494,41 Q445,14 391,3 Q337,-8 286,-8 Q212,-8 164,12.5 Q116,33 88.5,68 Q61,103 50.5,148.5 Q40,194 40,245 Q40,285 50,331 Q60,377 87,415 Q114,453 160.5,478.5 Q207,504 280,504 M286,413 Q259,413 241,404 Q223,395 211.5,379.5 Q200,364 194,343.5 Q188,323 186,301 L375,301 Q374,350 355.5,381.5 Q337,413 286,413 M250,623 Q250,597 232,579 Q214,561 179,561 Q145,561 128,579 Q111,597 111,623 Q111,650 128.5,667.5 Q146,685 179,685 Q214,685 232,668 Q250,651 250,623 M461,623 Q461,597 443,579 Q425,561 390,561 Q357,561 340,579 Q323,597 323,623 Q323,650 340.5,667.5 Q358,685 390,685 Q425,685 443,668 Q461,651 461,623"/> 
            <glyph glyph-name="ì" unicode="&#xEC;" horiz-adv-x="226" d=" M77,0 L77,491 L220,491 L220,0 M-3,668 Q3,675 14,687 Q25,699 36.5,712 Q48,725 59,737 Q70,749 77,756 Q89,741 109,718.5 Q129,696 151,672.5 Q173,649 193,626.5 Q213,604 226,589 L173,531"/> 
            <glyph glyph-name="í" unicode="&#xED;" horiz-adv-x="319" d=" M77,0 L77,491 L220,491 L220,0 M145,532 L95,584 L243,754 L319,672"/> 
            <glyph glyph-name="î" unicode="&#xEE;" horiz-adv-x="348" d=" M77,0 L77,491 L220,491 L220,0 M312,530 L147,625 L-17,529 L-50,570 L104,724 L192,724 L348,572"/> 
            <glyph glyph-name="ï" unicode="&#xEF;" horiz-adv-x="326" d=" M77,0 L77,491 L220,491 L220,0 M115,625 Q115,599 97,581 Q79,563 44,563 Q10,563 -7,581 Q-24,599 -24,625 Q-24,652 -6.5,669.5 Q11,687 44,687 Q79,687 97,670 Q115,653 115,625 M326,625 Q326,599 308,581 Q290,563 255,563 Q222,563 205,581 Q188,599 188,625 Q188,652 205.5,669.5 Q223,687 255,687 Q290,687 308,670 Q326,653 326,625"/> 
            <glyph glyph-name="ø" unicode="&#xF8;" horiz-adv-x="531" d=" M531,246 Q531,195 518,148.5 Q505,102 475.5,67 Q446,32 397.5,11.5 Q349,-9 279,-9 Q228,-9 189.5,2 Q151,13 123,33 L90,-7 L35,-7 L93,58 Q61,93 48,141 Q35,189 35,245 Q35,297 48.5,343.5 Q62,390 92,425 Q122,460 169.5,481 Q217,502 285,502 Q336,502 374.5,490 Q413,478 442,457 Q448,464 461,478.5 Q474,493 479,501 L531,501 Q527,496 518.5,486.5 Q510,477 501,466.5 Q492,456 484,446.5 Q476,437 472,432 Q504,396 517.5,348 Q531,300 531,246 M285,91 Q316,91 335,103.5 Q354,116 365,137.5 Q376,159 380,187 Q384,215 384,245 Q384,263 381,285.5 Q378,308 370,325 Q354,304 333,277.5 Q312,251 289.5,223.5 Q267,196 246,169.5 Q225,143 209,122 Q221,108 239,99.5 Q257,91 285,91 M285,400 Q254,400 234,387 Q214,374 202.5,352.5 Q191,331 186.5,303 Q182,275 182,246 Q182,227 184.5,203.5 Q187,180 194,165 Q210,186 231,212 Q252,238 274.5,265.5 Q297,293 318,319 Q339,345 355,366 Q344,382 327.5,391 Q311,400 285,400"/> 
            <glyph glyph-name="ù" unicode="&#xF9;" horiz-adv-x="507" d=" M199,-11 Q150,-11 120.5,2 Q91,15 75,38 Q59,61 54,91 Q49,121 49,156 L49,491 L192,491 L192,187 Q192,169 194,153 Q196,137 203,125 Q210,113 223,106 Q236,99 259,99 Q280,99 308.5,110 Q337,121 364,145 L364,491 Q400,491 435.5,491.5 Q471,492 507,492 L507,0 L374,0 Q372,13 372,26 Q372,39 370,53 L366,55 Q343,35 319.5,22.5 Q296,10 274,2.5 Q252,-5 232.5,-8 Q213,-11 199,-11 M140,668 Q146,675 157,687 Q168,699 179.5,712 Q191,725 202,737 Q213,749 220,756 Q232,741 252,718.5 Q272,696 294,672.5 Q316,649 336,626.5 Q356,604 369,589 L316,531"/> 
            <glyph glyph-name="ú" unicode="&#xFA;" horiz-adv-x="507" d=" M199,-11 Q150,-11 120.5,2 Q91,15 75,38 Q59,61 54,91 Q49,121 49,156 L49,491 L192,491 L192,187 Q192,169 194,153 Q196,137 203,125 Q210,113 223,106 Q236,99 259,99 Q280,99 308.5,110 Q337,121 364,145 L364,491 Q400,491 435.5,491.5 Q471,492 507,492 L507,0 L374,0 Q372,13 372,26 Q372,39 370,53 L366,55 Q343,35 319.5,22.5 Q296,10 274,2.5 Q252,-5 232.5,-8 Q213,-11 199,-11 M273,532 L223,584 L371,754 L447,672"/> 
            <glyph glyph-name="û" unicode="&#xFB;" horiz-adv-x="507" d=" M199,-11 Q150,-11 120.5,2 Q91,15 75,38 Q59,61 54,91 Q49,121 49,156 L49,491 L192,491 L192,187 Q192,169 194,153 Q196,137 203,125 Q210,113 223,106 Q236,99 259,99 Q280,99 308.5,110 Q337,121 364,145 L364,491 Q400,491 435.5,491.5 Q471,492 507,492 L507,0 L374,0 Q372,13 372,26 Q372,39 370,53 L366,55 Q343,35 319.5,22.5 Q296,10 274,2.5 Q252,-5 232.5,-8 Q213,-11 199,-11 M441,530 L276,625 L112,529 L79,570 L233,724 L321,724 L477,572"/> 
            <glyph glyph-name="ü" unicode="&#xFC;" horiz-adv-x="507" d=" M199,-11 Q150,-11 120.5,2 Q91,15 75,38 Q59,61 54,91 Q49,121 49,156 L49,491 L192,491 L192,187 Q192,169 194,153 Q196,137 203,125 Q210,113 223,106 Q236,99 259,99 Q280,99 308.5,110 Q337,121 364,145 L364,491 Q400,491 435.5,491.5 Q471,492 507,492 L507,0 L374,0 Q372,13 372,26 Q372,39 370,53 L366,55 Q343,35 319.5,22.5 Q296,10 274,2.5 Q252,-5 232.5,-8 Q213,-11 199,-11 M245,625 Q245,599 227,581 Q209,563 174,563 Q140,563 123,581 Q106,599 106,625 Q106,652 123.5,669.5 Q141,687 174,687 Q209,687 227,670 Q245,653 245,625 M456,625 Q456,599 438,581 Q420,563 385,563 Q352,563 335,581 Q318,599 318,625 Q318,652 335.5,669.5 Q353,687 385,687 Q420,687 438,670 Q456,653 456,625"/> 
            <glyph glyph-name="ý" unicode="&#xFD;" horiz-adv-x="526" d=" M268,89 Q271,102 278.5,132.5 Q286,163 296,197 Q305,227 316,265 Q327,303 338.5,343.5 Q350,384 361.5,422.5 Q373,461 382,491 L526,491 Q514,456 498.5,408.5 Q483,361 465,308 Q447,255 428,198.5 Q409,142 391,89 Q373,36 357,-11 Q341,-58 329,-93 Q308,-156 265,-186.5 Q222,-217 160,-217 Q140,-217 112,-213.5 Q84,-210 38,-198 L58,-103 Q84,-107 99.5,-109.5 Q115,-112 129,-112 Q163,-112 181,-99 Q199,-86 210,-51 L230,11 L166,11 L14,491 L156,491 Q164,464 174.5,425 Q185,386 196.5,344.5 Q208,303 219,263 Q230,223 238,194 Q246,165 251.5,135.5 Q257,106 261,89 M253,532 L203,584 L351,754 L427,672"/> 
            <glyph glyph-name="þ" unicode="&#xFE;" horiz-adv-x="534" d=" M49,687 L186,687 L186,444 Q188,444 188,443.5 Q188,443 190,442 Q225,471 264.5,485 Q304,499 339,499 Q396,499 433.5,479 Q471,459 493.5,425 Q516,391 525,345.5 Q534,300 534,249 Q534,193 522.5,145.5 Q511,98 485.5,63.5 Q460,29 420,9.5 Q380,-10 322,-10 Q310,-10 293.5,-8.5 Q277,-7 259.5,-3 Q242,1 224.5,6 Q207,11 192,19 Q192,-37 191.5,-94 Q191,-151 191,-208 L49,-208 M192,120 Q209,109 237,101 Q265,93 291,93 Q309,93 327,100 Q345,107 359,125.5 Q373,144 381.5,175 Q390,206 390,254 Q390,297 382.5,325 Q375,353 362,368.5 Q349,384 331,390 Q313,396 293,396 Q282,396 268,392.5 Q254,389 240,384 Q226,379 213.5,372.5 Q201,366 192,359"/> 
            <glyph glyph-name="ÿ" unicode="&#xFF;" horiz-adv-x="526" d=" M268,89 Q271,102 278.5,132.5 Q286,163 296,197 Q305,227 316,265 Q327,303 338.5,343.5 Q350,384 361.5,422.5 Q373,461 382,491 L526,491 Q514,456 498.5,408.5 Q483,361 465,308 Q447,255 428,198.5 Q409,142 391,89 Q373,36 357,-11 Q341,-58 329,-93 Q308,-156 265,-186.5 Q222,-217 160,-217 Q140,-217 112,-213.5 Q84,-210 38,-198 L58,-103 Q84,-107 99.5,-109.5 Q115,-112 129,-112 Q163,-112 181,-99 Q199,-86 210,-51 L230,11 L166,11 L14,491 L156,491 Q164,464 174.5,425 Q185,386 196.5,344.5 Q208,303 219,263 Q230,223 238,194 Q246,165 251.5,135.5 Q257,106 261,89 M236,623 Q236,597 218,579 Q200,561 165,561 Q131,561 114,579 Q97,597 97,623 Q97,650 114.5,667.5 Q132,685 165,685 Q200,685 218,668 Q236,651 236,623 M447,623 Q447,597 429,579 Q411,561 376,561 Q343,561 326,579 Q309,597 309,623 Q309,650 326.5,667.5 Q344,685 376,685 Q411,685 429,668 Q447,651 447,623"/> 
            <glyph glyph-name="Ā" unicode="&#x100;" horiz-adv-x="655" d=" M503,0 L455,157 L204,157 L155,0 L8,0 L242,687 L428,687 L655,0 M374,438 L334,587 L329,587 L287,433 L236,257 L425,257 M158,839 L512,839 L512,748 L158,748"/> 
            <glyph glyph-name="ā" unicode="&#x101;" horiz-adv-x="555" d=" M484,95 L548,95 L555,15 Q531,4 499,-3 Q467,-10 435,-10 Q403,-10 381.5,1 Q360,12 356,49 Q356,49 354,51 Q328,28 302,16 Q276,4 253.5,-2 Q231,-8 212.5,-9 Q194,-10 184,-10 Q138,-10 108.5,4.5 Q79,19 62,40.5 Q45,62 38.5,87 Q32,112 32,133 Q32,171 46,199.5 Q60,228 84.5,247.5 Q109,267 142,278 Q175,289 214,291 Q243,293 281,295 Q319,297 348,299 L348,311 Q348,353 330,374.5 Q312,396 257,396 Q221,396 178.5,389 Q136,382 101,371 Q96,394 90,416 Q84,438 78,460 Q122,479 180,490 Q238,501 291,501 Q335,501 371,492 Q407,483 432,463 Q457,443 470.5,410.5 Q484,378 484,330 M99,674 L462,674 L462,583 L99,583 M249,212 Q180,206 180,145 Q180,114 196,98 Q212,82 247,82 Q270,82 297,93.5 Q324,105 348,126 L348,220"/> 
            <glyph glyph-name="Ă" unicode="&#x102;" horiz-adv-x="655" d=" M503,0 L455,157 L204,157 L155,0 L8,0 L242,687 L428,687 L655,0 M374,438 L334,587 L329,587 L287,433 L236,257 L425,257 M329,732 Q299,732 273,742.5 Q247,753 224.5,770.5 Q202,788 182,811.5 Q162,835 145,861 L203,905 Q234,863 269.5,841.5 Q305,820 333,820 Q342,820 355.5,821.5 Q369,823 388,831 Q407,839 430.5,854.5 Q454,870 484,899 L522,861 Q475,788 424.5,760 Q374,732 329,732"/> 
            <glyph glyph-name="ă" unicode="&#x103;" horiz-adv-x="555" d=" M484,95 L548,95 L555,15 Q531,4 499,-3 Q467,-10 435,-10 Q403,-10 381.5,1 Q360,12 356,49 Q356,49 354,51 Q328,28 302,16 Q276,4 253.5,-2 Q231,-8 212.5,-9 Q194,-10 184,-10 Q138,-10 108.5,4.5 Q79,19 62,40.5 Q45,62 38.5,87 Q32,112 32,133 Q32,171 46,199.5 Q60,228 84.5,247.5 Q109,267 142,278 Q175,289 214,291 Q243,293 281,295 Q319,297 348,299 L348,311 Q348,353 330,374.5 Q312,396 257,396 Q221,396 178.5,389 Q136,382 101,371 Q96,394 90,416 Q84,438 78,460 Q122,479 180,490 Q238,501 291,501 Q335,501 371,492 Q407,483 432,463 Q457,443 470.5,410.5 Q484,378 484,330 M277,547 Q247,547 220.5,558 Q194,569 171,587.5 Q148,606 128,629.5 Q108,653 91,679 L151,724 Q183,681 218,660 Q253,639 280,639 Q289,639 302.5,640 Q316,641 334,648.5 Q352,656 376,671.5 Q400,687 432,717 L475,678 Q451,641 425.5,616 Q400,591 374.5,575.5 Q349,560 324,553.5 Q299,547 277,547 M249,212 Q180,206 180,145 Q180,114 196,98 Q212,82 247,82 Q270,82 297,93.5 Q324,105 348,126 L348,220"/> 
            <glyph glyph-name="Ą" unicode="&#x104;" horiz-adv-x="655" d=" M553,0 Q533,-29 523,-60 Q513,-91 513,-114 Q513,-139 526.5,-149.5 Q540,-160 566,-160 Q586,-160 603,-156.5 Q620,-153 637,-149 L649,-195 Q620,-210 589,-217.5 Q558,-225 528,-225 Q475,-225 448,-203.5 Q421,-182 421,-144 Q421,-116 436.5,-75 Q452,-34 500,9 L455,157 L204,157 L155,0 L8,0 L242,687 L428,687 L655,0 M374,438 L334,587 L329,587 L287,433 L236,257 L425,257"/> 
            <glyph glyph-name="ą" unicode="&#x105;" horiz-adv-x="565" d=" M484,95 L548,95 L555,15 Q535,6 510,-0.5 Q485,-7 459,-9 Q444,-35 436.5,-61.5 Q429,-88 429,-108 Q429,-133 442.5,-143.5 Q456,-154 482,-154 Q502,-154 519,-150.5 Q536,-147 553,-143 L565,-189 Q536,-204 505,-211.5 Q474,-219 444,-219 Q391,-219 364,-197.5 Q337,-176 337,-138 Q337,-113 348.5,-78 Q360,-43 395,-5 Q379,0 368.5,12.5 Q358,25 356,49 Q356,49 354,51 Q328,28 302,16 Q276,4 253.5,-2 Q231,-8 212.5,-9 Q194,-10 184,-10 Q138,-10 108.5,4.5 Q79,19 62,40.5 Q45,62 38.5,87 Q32,112 32,133 Q32,171 46,199.5 Q60,228 84.5,247.5 Q109,267 142,278 Q175,289 214,291 Q243,293 281,295 Q319,297 348,299 L348,311 Q348,353 330,374.5 Q312,396 257,396 Q221,396 178.5,389 Q136,382 101,371 Q96,394 90,416 Q84,438 78,460 Q122,479 180,490 Q238,501 291,501 Q335,501 371,492 Q407,483 432,463 Q457,443 470.5,410.5 Q484,378 484,330 M249,212 Q180,206 180,145 Q180,114 196,98 Q212,82 247,82 Q270,82 297,93.5 Q324,105 348,126 L348,220"/> 
            <glyph glyph-name="Ć" unicode="&#x106;" horiz-adv-x="593" d=" M385,701 Q438,701 484,693 Q530,685 568,673 L547,565 Q507,576 470.5,580.5 Q434,585 404,585 Q308,585 258,525.5 Q208,466 208,345 Q208,286 218,241.5 Q228,197 251.5,167 Q275,137 313.5,122 Q352,107 408,107 Q420,107 439.5,108.5 Q459,110 481.5,113 Q504,116 526.5,120 Q549,124 569,129 L593,27 Q571,18 544.5,11.5 Q518,5 489.5,0 Q461,-5 432,-7.5 Q403,-10 377,-10 Q282,-10 219.5,17 Q157,44 119.5,91.5 Q82,139 67,202.5 Q52,266 52,340 Q52,400 67,464 Q82,528 119.5,580.5 Q157,633 221.5,667 Q286,701 385,701 M357,736 L310,785 L457,954 L533,875"/> 
            <glyph glyph-name="ć" unicode="&#x107;" horiz-adv-x="461" d=" M184,246 Q184,178 209.5,139.5 Q235,101 302,101 Q337,101 369,108 Q401,115 434,126 L461,31 Q424,12 375.5,2 Q327,-8 276,-8 Q205,-8 159.5,11.5 Q114,31 87,65 Q60,99 49.5,144 Q39,189 39,240 Q39,283 49,329.5 Q59,376 86,414.5 Q113,453 160,477.5 Q207,502 282,502 Q314,502 353.5,497.5 Q393,493 435,478 Q430,453 424.5,428.5 Q419,404 413,378 Q381,387 354.5,389.5 Q328,392 306,392 Q246,392 215,353.5 Q184,315 184,246 M231,532 L181,584 L329,754 L405,672"/> 
            <glyph glyph-name="Ĉ" unicode="&#x108;" horiz-adv-x="593" d=" M385,701 Q438,701 484,693 Q530,685 568,673 L547,565 Q507,576 470.5,580.5 Q434,585 404,585 Q308,585 258,525.5 Q208,466 208,345 Q208,286 218,241.5 Q228,197 251.5,167 Q275,137 313.5,122 Q352,107 408,107 Q420,107 439.5,108.5 Q459,110 481.5,113 Q504,116 526.5,120 Q549,124 569,129 L593,27 Q571,18 544.5,11.5 Q518,5 489.5,0 Q461,-5 432,-7.5 Q403,-10 377,-10 Q282,-10 219.5,17 Q157,44 119.5,91.5 Q82,139 67,202.5 Q52,266 52,340 Q52,400 67,464 Q82,528 119.5,580.5 Q157,633 221.5,667 Q286,701 385,701 M526,737 L361,828 L198,736 L164,777 L318,924 L406,924 L561,778"/> 
            <glyph glyph-name="ĉ" unicode="&#x109;" horiz-adv-x="471" d=" M184,246 Q184,178 209.5,139.5 Q235,101 302,101 Q337,101 369,108 Q401,115 434,126 L461,31 Q424,12 375.5,2 Q327,-8 276,-8 Q205,-8 159.5,11.5 Q114,31 87,65 Q60,99 49.5,144 Q39,189 39,240 Q39,283 49,329.5 Q59,376 86,414.5 Q113,453 160,477.5 Q207,502 282,502 Q314,502 353.5,497.5 Q393,493 435,478 Q430,453 424.5,428.5 Q419,404 413,378 Q381,387 354.5,389.5 Q328,392 306,392 Q246,392 215,353.5 Q184,315 184,246 M435,530 L270,625 L106,529 L73,570 L227,724 L315,724 L471,572"/> 
            <glyph glyph-name="Ċ" unicode="&#x10A;" horiz-adv-x="593" d=" M385,701 Q438,701 484,693 Q530,685 568,673 L547,565 Q507,576 470.5,580.5 Q434,585 404,585 Q308,585 258,525.5 Q208,466 208,345 Q208,286 218,241.5 Q228,197 251.5,167 Q275,137 313.5,122 Q352,107 408,107 Q420,107 439.5,108.5 Q459,110 481.5,113 Q504,116 526.5,120 Q549,124 569,129 L593,27 Q571,18 544.5,11.5 Q518,5 489.5,0 Q461,-5 432,-7.5 Q403,-10 377,-10 Q282,-10 219.5,17 Q157,44 119.5,91.5 Q82,139 67,202.5 Q52,266 52,340 Q52,400 67,464 Q82,528 119.5,580.5 Q157,633 221.5,667 Q286,701 385,701 M431,832 Q431,800 409.5,778 Q388,756 347,756 Q307,756 287,778 Q267,800 267,832 Q267,866 287,887.5 Q307,909 347,909 Q388,909 409.5,887.5 Q431,866 431,832"/> 
            <glyph glyph-name="ċ" unicode="&#x10B;" horiz-adv-x="461" d=" M184,246 Q184,178 209.5,139.5 Q235,101 302,101 Q337,101 369,108 Q401,115 434,126 L461,31 Q424,12 375.5,2 Q327,-8 276,-8 Q205,-8 159.5,11.5 Q114,31 87,65 Q60,99 49.5,144 Q39,189 39,240 Q39,283 49,329.5 Q59,376 86,414.5 Q113,453 160,477.5 Q207,502 282,502 Q314,502 353.5,497.5 Q393,493 435,478 Q430,453 424.5,428.5 Q419,404 413,378 Q381,387 354.5,389.5 Q328,392 306,392 Q246,392 215,353.5 Q184,315 184,246 M335,641 Q335,609 315.5,588 Q296,567 260,567 Q225,567 206.5,588 Q188,609 188,641 Q188,673 206.5,694 Q225,715 260,715 Q296,715 315.5,694 Q335,673 335,641"/> 
            <glyph glyph-name="Č" unicode="&#x10C;" horiz-adv-x="593" d=" M385,701 Q438,701 484,693 Q530,685 568,673 L547,565 Q507,576 470.5,580.5 Q434,585 404,585 Q308,585 258,525.5 Q208,466 208,345 Q208,286 218,241.5 Q228,197 251.5,167 Q275,137 313.5,122 Q352,107 408,107 Q420,107 439.5,108.5 Q459,110 481.5,113 Q504,116 526.5,120 Q549,124 569,129 L593,27 Q571,18 544.5,11.5 Q518,5 489.5,0 Q461,-5 432,-7.5 Q403,-10 377,-10 Q282,-10 219.5,17 Q157,44 119.5,91.5 Q82,139 67,202.5 Q52,266 52,340 Q52,400 67,464 Q82,528 119.5,580.5 Q157,633 221.5,667 Q286,701 385,701 M547,881 L391,736 L304,736 L150,883 L184,922 L347,830 L512,923"/> 
            <glyph glyph-name="č" unicode="&#x10D;" horiz-adv-x="469" d=" M184,246 Q184,178 209.5,139.5 Q235,101 302,101 Q337,101 369,108 Q401,115 434,126 L461,31 Q424,12 375.5,2 Q327,-8 276,-8 Q205,-8 159.5,11.5 Q114,31 87,65 Q60,99 49.5,144 Q39,189 39,240 Q39,283 49,329.5 Q59,376 86,414.5 Q113,453 160,477.5 Q207,502 282,502 Q314,502 353.5,497.5 Q393,493 435,478 Q430,453 424.5,428.5 Q419,404 413,378 Q381,387 354.5,389.5 Q328,392 306,392 Q246,392 215,353.5 Q184,315 184,246 M469,697 L313,543 L226,543 L71,698 L104,738 L269,641 L433,738"/> 
            <glyph glyph-name="Ď" unicode="&#x10E;" horiz-adv-x="637" d=" M73,0 L73,688 L331,688 Q422,688 481.5,660.5 Q541,633 575.5,586.5 Q610,540 623.5,477.5 Q637,415 637,346 Q637,277 621.5,214 Q606,151 570,103.5 Q534,56 474,28 Q414,0 325,0 M222,584 L222,106 L313,106 Q339,106 369,114.5 Q399,123 424.5,148.5 Q450,174 467,220 Q484,266 484,341 Q484,417 468,464.5 Q452,512 427.5,538.5 Q403,565 372.5,574.5 Q342,584 313,584 M510,881 L354,736 L267,736 L113,883 L147,922 L310,830 L475,923"/> 
            <glyph glyph-name="ď" unicode="&#x10F;" horiz-adv-x="731" d=" M251,503 Q275,503 312.5,496.5 Q350,490 381,472 L381,715 L524,715 L524,0 L391,0 L388,44 Q386,46 385,46 Q349,17 307.5,5 Q266,-7 234,-7 Q177,-7 139,12.5 Q101,32 79,65 Q57,98 48,142 Q39,186 39,235 Q39,292 50,341 Q61,390 86.5,426 Q112,462 152,482.5 Q192,503 251,503 M381,372 Q364,383 335,391 Q306,399 282,399 Q264,399 246,392.5 Q228,386 214,368 Q200,350 191.5,318 Q183,286 183,236 Q183,192 190.5,164.5 Q198,137 211,121 Q224,105 242,99 Q260,93 280,93 Q291,93 305,96.5 Q319,100 333,105 Q347,110 359.5,117 Q372,124 381,130 M587,682 Q587,708 606.5,726.5 Q626,745 658,745 Q695,745 713,721.5 Q731,698 731,668 Q729,621 697.5,579.5 Q666,538 621,516 L590,555 Q609,571 620,587.5 Q631,604 633,624 Q610,629 598.5,644 Q587,659 587,682"/> 
            <glyph glyph-name="đ" unicode="&#x111;" horiz-adv-x="585" d=" M388,44 Q386,46 385,46 Q349,17 307.5,5 Q266,-7 234,-7 Q177,-7 139,11 Q101,29 79,60.5 Q57,92 48,134.5 Q39,177 39,225 Q39,279 50,326 Q61,373 85.5,407.5 Q110,442 149,462 Q188,482 245,482 Q274,482 307,477 Q340,472 381,455 L381,544 L247,544 L247,598 L381,598 L381,715 L524,715 L524,598 L585,598 L585,544 L524,544 L524,0 L391,0 Q390,11 390,22 Q390,33 388,44 M381,351 Q363,362 334.5,370 Q306,378 282,378 Q264,378 246,371.5 Q228,365 214,348 Q200,331 191.5,301.5 Q183,272 183,226 Q183,185 190.5,159 Q198,133 211,118.5 Q224,104 242,98.5 Q260,93 280,93 Q291,93 305,96 Q319,99 333,104.5 Q347,110 359.5,116.5 Q372,123 381,130"/> 
            <glyph glyph-name="Ē" unicode="&#x112;" horiz-adv-x="560" d=" M72,0 L72,688 L546,688 L546,584 L221,584 L221,409 L494,409 L494,311 L221,311 L221,105 L560,105 L560,0 M139,839 L493,839 L493,748 L139,748"/> 
            <glyph glyph-name="ē" unicode="&#x113;" horiz-adv-x="505" d=" M280,504 Q359,504 404,479 Q449,454 471.5,417 Q494,380 499.5,338.5 Q505,297 505,264 L505,213 L184,213 Q184,156 212.5,127 Q241,98 307,98 Q347,98 387,106.5 Q427,115 465,129 L494,41 Q445,14 391,3 Q337,-8 286,-8 Q212,-8 164,12.5 Q116,33 88.5,68 Q61,103 50.5,148.5 Q40,194 40,245 Q40,285 50,331 Q60,377 87,415 Q114,453 160.5,478.5 Q207,504 280,504 M286,413 Q259,413 241,404 Q223,395 211.5,379.5 Q200,364 194,343.5 Q188,323 186,301 L375,301 Q374,350 355.5,381.5 Q337,413 286,413 M102,674 L465,674 L465,583 L102,583"/> 
            <glyph glyph-name="Ĕ" unicode="&#x114;" horiz-adv-x="560" d=" M72,0 L72,688 L546,688 L546,584 L221,584 L221,409 L494,409 L494,311 L221,311 L221,105 L560,105 L560,0 M308,730 Q278,730 252,740.5 Q226,751 203.5,768.5 Q181,786 161,809.5 Q141,833 124,859 L182,903 Q213,861 248.5,839.5 Q284,818 312,818 Q321,818 334.5,819.5 Q348,821 367,829 Q386,837 409.5,852.5 Q433,868 463,897 L501,859 Q454,786 403.5,758 Q353,730 308,730"/> 
            <glyph glyph-name="ĕ" unicode="&#x115;" horiz-adv-x="505" d=" M280,504 Q359,504 404,479 Q449,454 471.5,417 Q494,380 499.5,338.5 Q505,297 505,264 L505,213 L184,213 Q184,156 212.5,127 Q241,98 307,98 Q347,98 387,106.5 Q427,115 465,129 L494,41 Q445,14 391,3 Q337,-8 286,-8 Q212,-8 164,12.5 Q116,33 88.5,68 Q61,103 50.5,148.5 Q40,194 40,245 Q40,285 50,331 Q60,377 87,415 Q114,453 160.5,478.5 Q207,504 280,504 M286,413 Q259,413 241,404 Q223,395 211.5,379.5 Q200,364 194,343.5 Q188,323 186,301 L375,301 Q374,350 355.5,381.5 Q337,413 286,413 M279,547 Q249,547 222.5,558 Q196,569 173,587.5 Q150,606 130,629.5 Q110,653 93,679 L153,724 Q185,681 220,660 Q255,639 282,639 Q291,639 304.5,640 Q318,641 336,648.5 Q354,656 378,671.5 Q402,687 434,717 L477,678 Q453,641 427.5,616 Q402,591 376.5,575.5 Q351,560 326,553.5 Q301,547 279,547"/> 
            <glyph glyph-name="Ė" unicode="&#x116;" horiz-adv-x="560" d=" M72,0 L72,688 L546,688 L546,584 L221,584 L221,409 L494,409 L494,311 L221,311 L221,105 L560,105 L560,0 M412,827 Q412,795 390.5,773 Q369,751 328,751 Q288,751 268,773 Q248,795 248,827 Q248,861 268,882.5 Q288,904 328,904 Q369,904 390.5,882.5 Q412,861 412,827"/> 
            <glyph glyph-name="ė" unicode="&#x117;" horiz-adv-x="505" d=" M280,504 Q359,504 404,479 Q449,454 471.5,417 Q494,380 499.5,338.5 Q505,297 505,264 L505,213 L184,213 Q184,156 212.5,127 Q241,98 307,98 Q347,98 387,106.5 Q427,115 465,129 L494,41 Q445,14 391,3 Q337,-8 286,-8 Q212,-8 164,12.5 Q116,33 88.5,68 Q61,103 50.5,148.5 Q40,194 40,245 Q40,285 50,331 Q60,377 87,415 Q114,453 160.5,478.5 Q207,504 280,504 M286,413 Q259,413 241,404 Q223,395 211.5,379.5 Q200,364 194,343.5 Q188,323 186,301 L375,301 Q374,350 355.5,381.5 Q337,413 286,413 M364,641 Q364,609 342.5,587 Q321,565 280,565 Q240,565 220,587 Q200,609 200,641 Q200,675 220,696.5 Q240,718 280,718 Q321,718 342.5,696.5 Q364,675 364,641"/> 
            <glyph glyph-name="Ę" unicode="&#x118;" horiz-adv-x="627" d=" M529,0 Q510,-28 500.5,-58.5 Q491,-89 491,-111 Q491,-136 504.5,-146.5 Q518,-157 544,-157 Q564,-157 581,-153.5 Q598,-150 615,-146 L627,-192 Q598,-207 567,-214.5 Q536,-222 506,-222 Q453,-222 426,-200.5 Q399,-179 399,-141 Q399,-115 412,-77.5 Q425,-40 465,0 L72,0 L72,688 L546,688 L546,584 L221,584 L221,409 L494,409 L494,311 L221,311 L221,105 L560,105 L560,0"/> 
            <glyph glyph-name="ę" unicode="&#x119;" horiz-adv-x="533" d=" M280,504 Q359,504 404,479 Q449,454 471.5,417 Q494,380 499.5,338.5 Q505,297 505,264 L505,213 L184,213 Q184,156 212.5,127 Q241,98 307,98 Q347,98 387,106.5 Q427,115 465,129 L494,41 Q477,31 459.5,24 Q442,17 424,11 Q410,-13 403.5,-37.5 Q397,-62 397,-81 Q397,-106 410.5,-116.5 Q424,-127 450,-127 Q470,-127 487,-123.5 Q504,-120 521,-116 L533,-162 Q504,-177 473,-184.5 Q442,-192 412,-192 Q359,-192 332,-170.5 Q305,-149 305,-111 Q305,-91 312.5,-63.5 Q320,-36 342,-5 Q313,-8 286,-8 Q212,-8 164,12.5 Q116,33 88.5,68 Q61,103 50.5,148.5 Q40,194 40,245 Q40,285 50,331 Q60,377 87,415 Q114,453 160.5,478.5 Q207,504 280,504 M286,413 Q259,413 241,404 Q223,395 211.5,379.5 Q200,364 194,343.5 Q188,323 186,301 L375,301 Q374,350 355.5,381.5 Q337,413 286,413"/> 
            <glyph glyph-name="Ě" unicode="&#x11A;" horiz-adv-x="560" d=" M72,0 L72,688 L546,688 L546,584 L221,584 L221,409 L494,409 L494,311 L221,311 L221,105 L560,105 L560,0 M505,876 L349,731 L262,731 L108,878 L142,917 L305,825 L470,918"/> 
            <glyph glyph-name="ě" unicode="&#x11B;" horiz-adv-x="505" d=" M280,504 Q359,504 404,479 Q449,454 471.5,417 Q494,380 499.5,338.5 Q505,297 505,264 L505,213 L184,213 Q184,156 212.5,127 Q241,98 307,98 Q347,98 387,106.5 Q427,115 465,129 L494,41 Q445,14 391,3 Q337,-8 286,-8 Q212,-8 164,12.5 Q116,33 88.5,68 Q61,103 50.5,148.5 Q40,194 40,245 Q40,285 50,331 Q60,377 87,415 Q114,453 160.5,478.5 Q207,504 280,504 M286,413 Q259,413 241,404 Q223,395 211.5,379.5 Q200,364 194,343.5 Q188,323 186,301 L375,301 Q374,350 355.5,381.5 Q337,413 286,413 M476,697 L320,543 L233,543 L78,698 L111,738 L276,641 L440,738"/> 
            <glyph glyph-name="Ĝ" unicode="&#x11C;" horiz-adv-x="609" d=" M399,701 Q451,701 500,693 Q549,685 588,673 L567,567 Q525,578 486.5,582.5 Q448,587 416,587 Q310,587 259,524.5 Q208,462 208,334 Q208,282 217,240 Q226,198 246.5,168.5 Q267,139 300.5,123 Q334,107 383,107 Q403,107 428.5,110 Q454,113 474,118 L474,363 L609,363 L609,28 Q551,8 490,-1 Q429,-10 375,-10 Q281,-10 219,18 Q157,46 120,94 Q83,142 67.5,206 Q52,270 52,342 Q52,402 67,466 Q82,530 120.5,582 Q159,634 226.5,667.5 Q294,701 399,701 M534,735 L369,826 L206,734 L172,775 L326,922 L414,922 L569,776"/> 
            <glyph glyph-name="ĝ" unicode="&#x11D;" horiz-adv-x="563" d=" M120,195 Q94,210 76,241 Q58,272 58,320 Q58,369 77,403.5 Q96,438 127.5,460.5 Q159,483 199.5,493.5 Q240,504 283,504 Q312,504 339.5,501 Q367,498 387,492 L563,492 L563,420 L493,420 L490,415 Q504,397 510,372.5 Q516,348 516,325 Q516,283 498.5,251 Q481,219 450,197.5 Q419,176 378,165 Q337,154 290,154 L233,153 Q205,153 188.5,146 Q172,139 172,122 Q172,111 182.5,104.5 Q193,98 211,98 L355,98 Q448,98 500,63 Q552,28 552,-48 Q552,-82 536,-112.5 Q520,-143 486,-166.5 Q452,-190 397.5,-204 Q343,-218 267,-218 Q194,-218 149,-205.5 Q104,-193 79,-173 Q54,-153 45.5,-128 Q37,-103 37,-78 Q37,-41 55.5,-13 Q74,15 99,29 Q45,46 45,101 Q45,138 67,159 Q89,180 118,191 M218,12 Q201,5 188,-14 Q175,-33 175,-52 Q175,-66 179.5,-79 Q184,-92 196,-101.5 Q208,-111 230,-117 Q252,-123 287,-123 Q347,-123 377,-103.5 Q407,-84 407,-52 Q407,-40 404,-28.5 Q401,-17 392,-8 Q383,1 367,6.5 Q351,12 326,12 M376,326 Q376,342 371.5,357.5 Q367,373 356.5,385 Q346,397 328.5,404.5 Q311,412 286,412 Q240,412 219,387.5 Q198,363 198,325 Q198,286 219.5,264 Q241,242 280,242 Q321,242 348.5,261.5 Q376,281 376,326 M447,530 L282,625 L118,529 L85,570 L239,724 L327,724 L483,572"/> 
            <glyph glyph-name="Ğ" unicode="&#x11E;" horiz-adv-x="609" d=" M399,701 Q451,701 500,693 Q549,685 588,673 L567,567 Q525,578 486.5,582.5 Q448,587 416,587 Q310,587 259,524.5 Q208,462 208,334 Q208,282 217,240 Q226,198 246.5,168.5 Q267,139 300.5,123 Q334,107 383,107 Q403,107 428.5,110 Q454,113 474,118 L474,363 L609,363 L609,28 Q551,8 490,-1 Q429,-10 375,-10 Q281,-10 219,18 Q157,46 120,94 Q83,142 67.5,206 Q52,270 52,342 Q52,402 67,466 Q82,530 120.5,582 Q159,634 226.5,667.5 Q294,701 399,701 M360,735 Q330,735 304,745.5 Q278,756 255.5,773.5 Q233,791 213,814.5 Q193,838 176,864 L234,908 Q265,866 300.5,844.5 Q336,823 364,823 Q373,823 386.5,824.5 Q400,826 419,834 Q438,842 461.5,857.5 Q485,873 515,902 L553,864 Q506,791 455.5,763 Q405,735 360,735"/> 
            <glyph glyph-name="ğ" unicode="&#x11F;" horiz-adv-x="563" d=" M120,195 Q94,210 76,241 Q58,272 58,320 Q58,369 77,403.5 Q96,438 127.5,460.5 Q159,483 199.5,493.5 Q240,504 283,504 Q312,504 339.5,501 Q367,498 387,492 L563,492 L563,420 L493,420 L490,415 Q504,397 510,372.5 Q516,348 516,325 Q516,283 498.5,251 Q481,219 450,197.5 Q419,176 378,165 Q337,154 290,154 L233,153 Q205,153 188.5,146 Q172,139 172,122 Q172,111 182.5,104.5 Q193,98 211,98 L355,98 Q448,98 500,63 Q552,28 552,-48 Q552,-82 536,-112.5 Q520,-143 486,-166.5 Q452,-190 397.5,-204 Q343,-218 267,-218 Q194,-218 149,-205.5 Q104,-193 79,-173 Q54,-153 45.5,-128 Q37,-103 37,-78 Q37,-41 55.5,-13 Q74,15 99,29 Q45,46 45,101 Q45,138 67,159 Q89,180 118,191 M218,12 Q201,5 188,-14 Q175,-33 175,-52 Q175,-66 179.5,-79 Q184,-92 196,-101.5 Q208,-111 230,-117 Q252,-123 287,-123 Q347,-123 377,-103.5 Q407,-84 407,-52 Q407,-40 404,-28.5 Q401,-17 392,-8 Q383,1 367,6.5 Q351,12 326,12 M376,326 Q376,342 371.5,357.5 Q367,373 356.5,385 Q346,397 328.5,404.5 Q311,412 286,412 Q240,412 219,387.5 Q198,363 198,325 Q198,286 219.5,264 Q241,242 280,242 Q321,242 348.5,261.5 Q376,281 376,326 M283,547 Q253,547 226.5,558 Q200,569 177,587.5 Q154,606 134,629.5 Q114,653 97,679 L157,724 Q189,681 224,660 Q259,639 286,639 Q295,639 308.5,640 Q322,641 340,648.5 Q358,656 382,671.5 Q406,687 438,717 L481,678 Q457,641 431.5,616 Q406,591 380.5,575.5 Q355,560 330,553.5 Q305,547 283,547"/> 
            <glyph glyph-name="Ġ" unicode="&#x120;" horiz-adv-x="609" d=" M399,701 Q451,701 500,693 Q549,685 588,673 L567,567 Q525,578 486.5,582.5 Q448,587 416,587 Q310,587 259,524.5 Q208,462 208,334 Q208,282 217,240 Q226,198 246.5,168.5 Q267,139 300.5,123 Q334,107 383,107 Q403,107 428.5,110 Q454,113 474,118 L474,363 L609,363 L609,28 Q551,8 490,-1 Q429,-10 375,-10 Q281,-10 219,18 Q157,46 120,94 Q83,142 67.5,206 Q52,270 52,342 Q52,402 67,466 Q82,530 120.5,582 Q159,634 226.5,667.5 Q294,701 399,701 M457,830 Q457,798 435.5,776 Q414,754 373,754 Q333,754 313,776 Q293,798 293,830 Q293,864 313,885.5 Q333,907 373,907 Q414,907 435.5,885.5 Q457,864 457,830"/> 
            <glyph glyph-name="ġ" unicode="&#x121;" horiz-adv-x="563" d=" M120,195 Q94,210 76,241 Q58,272 58,320 Q58,369 77,403.5 Q96,438 127.5,460.5 Q159,483 199.5,493.5 Q240,504 283,504 Q312,504 339.5,501 Q367,498 387,492 L563,492 L563,420 L493,420 L490,415 Q504,397 510,372.5 Q516,348 516,325 Q516,283 498.5,251 Q481,219 450,197.5 Q419,176 378,165 Q337,154 290,154 L233,153 Q205,153 188.5,146 Q172,139 172,122 Q172,111 182.5,104.5 Q193,98 211,98 L355,98 Q448,98 500,63 Q552,28 552,-48 Q552,-82 536,-112.5 Q520,-143 486,-166.5 Q452,-190 397.5,-204 Q343,-218 267,-218 Q194,-218 149,-205.5 Q104,-193 79,-173 Q54,-153 45.5,-128 Q37,-103 37,-78 Q37,-41 55.5,-13 Q74,15 99,29 Q45,46 45,101 Q45,138 67,159 Q89,180 118,191 M218,12 Q201,5 188,-14 Q175,-33 175,-52 Q175,-66 179.5,-79 Q184,-92 196,-101.5 Q208,-111 230,-117 Q252,-123 287,-123 Q347,-123 377,-103.5 Q407,-84 407,-52 Q407,-40 404,-28.5 Q401,-17 392,-8 Q383,1 367,6.5 Q351,12 326,12 M376,326 Q376,342 371.5,357.5 Q367,373 356.5,385 Q346,397 328.5,404.5 Q311,412 286,412 Q240,412 219,387.5 Q198,363 198,325 Q198,286 219.5,264 Q241,242 280,242 Q321,242 348.5,261.5 Q376,281 376,326 M365,641 Q365,609 343.5,587 Q322,565 281,565 Q241,565 221,587 Q201,609 201,641 Q201,675 221,696.5 Q241,718 281,718 Q322,718 343.5,696.5 Q365,675 365,641"/> 
            <glyph glyph-name="Ģ" unicode="&#x122;" horiz-adv-x="609" d=" M399,701 Q451,701 500,693 Q549,685 588,673 L567,567 Q525,578 486.5,582.5 Q448,587 416,587 Q310,587 259,524.5 Q208,462 208,334 Q208,282 217,240 Q226,198 246.5,168.5 Q267,139 300.5,123 Q334,107 383,107 Q403,107 428.5,110 Q454,113 474,118 L474,363 L609,363 L609,28 Q551,8 490,-1 Q429,-10 375,-10 Q281,-10 219,18 Q157,46 120,94 Q83,142 67.5,206 Q52,270 52,342 Q52,402 67,466 Q82,530 120.5,582 Q159,634 226.5,667.5 Q294,701 399,701 M308,-104 Q308,-78 327.5,-59.5 Q347,-41 379,-41 Q416,-41 434,-64.5 Q452,-88 452,-118 Q450,-165 418.5,-206.5 Q387,-248 342,-270 L311,-231 Q330,-215 341,-198.5 Q352,-182 354,-162 Q331,-157 319.5,-142 Q308,-127 308,-104"/> 
            <glyph glyph-name="ģ" unicode="&#x123;" horiz-adv-x="563" d=" M120,195 Q94,210 76,241 Q58,272 58,320 Q58,369 77,403.5 Q96,438 127.5,460.5 Q159,483 199.5,493.5 Q240,504 283,504 Q312,504 339.5,501 Q367,498 387,492 L563,492 L563,420 L493,420 L490,415 Q504,397 510,372.5 Q516,348 516,325 Q516,283 498.5,251 Q481,219 450,197.5 Q419,176 378,165 Q337,154 290,154 L233,153 Q205,153 188.5,146 Q172,139 172,122 Q172,111 182.5,104.5 Q193,98 211,98 L355,98 Q448,98 500,63 Q552,28 552,-48 Q552,-82 536,-112.5 Q520,-143 486,-166.5 Q452,-190 397.5,-204 Q343,-218 267,-218 Q194,-218 149,-205.5 Q104,-193 79,-173 Q54,-153 45.5,-128 Q37,-103 37,-78 Q37,-41 55.5,-13 Q74,15 99,29 Q45,46 45,101 Q45,138 67,159 Q89,180 118,191 M218,12 Q201,5 188,-14 Q175,-33 175,-52 Q175,-66 179.5,-79 Q184,-92 196,-101.5 Q208,-111 230,-117 Q252,-123 287,-123 Q347,-123 377,-103.5 Q407,-84 407,-52 Q407,-40 404,-28.5 Q401,-17 392,-8 Q383,1 367,6.5 Q351,12 326,12 M376,326 Q376,342 371.5,357.5 Q367,373 356.5,385 Q346,397 328.5,404.5 Q311,412 286,412 Q240,412 219,387.5 Q198,363 198,325 Q198,286 219.5,264 Q241,242 280,242 Q321,242 348.5,261.5 Q376,281 376,326 M365,612 Q365,585 343.5,565.5 Q322,546 288,546 Q250,546 231,570 Q212,594 212,627 Q213,677 246.5,718.5 Q280,760 328,783 L361,742 Q340,725 329,709 Q318,693 316,672 Q339,667 352,651 Q365,635 365,612"/> 
            <glyph glyph-name="Ĥ" unicode="&#x124;" horiz-adv-x="636" d=" M487,0 L487,306 L220,306 Q220,229 220.5,152.5 Q221,76 221,0 L72,0 L72,687 L221,687 Q221,618 220.5,550 Q220,482 220,413 L487,413 L487,687 L636,687 L636,0 M513,730 L348,821 L185,729 L151,770 L305,917 L393,917 L548,771"/> 
            <glyph glyph-name="ĥ" unicode="&#x125;" horiz-adv-x="518" d=" M195,447 Q237,472 283,487.5 Q329,503 364,503 Q414,503 444,489.5 Q474,476 490.5,453 Q507,430 512.5,399 Q518,368 518,334 L518,0 L375,0 L375,304 Q375,323 373,339 Q371,355 364,367 Q357,379 343,385.5 Q329,392 305,392 Q280,392 249,381 Q218,370 193,355 L193,0 L49,0 L49,715 L190,715 L190,556 L187,451 M287,742 L122,833 L-41,741 L-75,782 L79,929 L167,929 L322,783"/> 
            <glyph glyph-name="Ħ" unicode="&#x126;" horiz-adv-x="698" d=" M488,0 L488,307 L221,307 L221,0 L73,0 L73,511 L9,511 L9,568 L73,568 L73,688 L221,688 L221,568 L488,568 L488,688 L637,688 L637,568 L698,568 L698,511 L637,511 L637,0 M488,414 L488,511 L221,511 L221,414"/> 
            <glyph glyph-name="ħ" unicode="&#x127;" horiz-adv-x="536" d=" M393,0 L393,274 Q393,293 391,309 Q389,325 382,337 Q375,349 361,355.5 Q347,362 324,362 Q299,362 267.5,351 Q236,340 211,325 L211,0 L68,0 L68,547 L5,547 L5,608 L68,608 L68,715 L209,715 L209,608 L389,608 L389,547 L208,547 Q208,515 207.5,484 Q207,453 207,421 Q234,435 256.5,445 Q279,455 299,461 Q319,467 339,470 Q359,473 382,473 Q431,473 461.5,459.5 Q492,446 508.5,423 Q525,400 530.5,369 Q536,338 536,304 L536,0"/> 
            <glyph glyph-name="Ĩ" unicode="&#x128;" horiz-adv-x="342" d=" M81,0 L81,688 L227,688 L227,0 M240,750 Q215,750 190.5,756 Q166,762 143.5,769.5 Q121,777 101.5,783 Q82,789 67,789 L11,750 L-30,782 Q-13,830 13.5,852 Q40,874 73,874 Q94,874 116.5,868 Q139,862 161.5,855 Q184,848 205.5,842 Q227,836 245,836 L301,877 L342,844 Q327,799 301,774.5 Q275,750 240,750"/> 
            <glyph glyph-name="ĩ" unicode="&#x129;" horiz-adv-x="362" d=" M100,0 L100,491 L243,491 L243,0 M260,572 Q235,572 210.5,578 Q186,584 163.5,591.5 Q141,599 121.5,605 Q102,611 87,611 L31,572 L-10,604 Q7,652 33.5,674 Q60,696 93,696 Q114,696 136.5,690 Q159,684 181.5,677 Q204,670 225.5,664 Q247,658 265,658 L321,699 L362,666 Q347,621 321,596.5 Q295,572 260,572"/> 
            <glyph glyph-name="Ī" unicode="&#x12A;" horiz-adv-x="333" d=" M81,0 L81,688 L227,688 L227,0 M-21,839 L333,839 L333,748 L-21,748"/> 
            <glyph glyph-name="ī" unicode="&#x12B;" horiz-adv-x="343" d=" M89,0 L89,491 L232,491 L232,0 M-20,674 L343,674 L343,583 L-20,583"/> 
            <glyph glyph-name="Ĭ" unicode="&#x12C;" horiz-adv-x="346" d=" M153,733 Q123,733 97,743.5 Q71,754 48.5,771.5 Q26,789 6,812.5 Q-14,836 -31,862 L27,906 Q58,864 93.5,842.5 Q129,821 157,821 Q166,821 179.5,822.5 Q193,824 212,832 Q231,840 254.5,855.5 Q278,871 308,900 L346,862 Q299,789 248.5,761 Q198,733 153,733 M81,0 L81,688 L227,688 L227,0"/> 
            <glyph glyph-name="ĭ" unicode="&#x12D;" horiz-adv-x="364" d=" M89,0 L89,491 L232,491 L232,0 M166,547 Q136,547 109.5,558 Q83,569 60,587.5 Q37,606 17,629.5 Q-3,653 -20,679 L40,724 Q72,681 107,660 Q142,639 169,639 Q178,639 191.5,640 Q205,641 223,648.5 Q241,656 265,671.5 Q289,687 321,717 L364,678 Q340,641 314.5,616 Q289,591 263.5,575.5 Q238,560 213,553.5 Q188,547 166,547"/> 
            <glyph glyph-name="Į" unicode="&#x12E;" horiz-adv-x="284" d=" M185,0 Q167,-28 157.5,-58 Q148,-88 148,-110 Q148,-135 161.5,-145.5 Q175,-156 201,-156 Q221,-156 238,-152.5 Q255,-149 272,-145 L284,-191 Q255,-206 224,-213.5 Q193,-221 163,-221 Q110,-221 83,-199.5 Q56,-178 56,-140 Q56,-114 69,-77 Q82,-40 121,0 L81,0 L81,688 L227,688 L227,0"/> 
            <glyph glyph-name="į" unicode="&#x12F;" horiz-adv-x="276" d=" M173,0 Q156,-27 148,-55 Q140,-83 140,-103 Q140,-128 153.5,-138.5 Q167,-149 193,-149 Q213,-149 230,-145.5 Q247,-142 264,-138 L276,-184 Q247,-199 216,-206.5 Q185,-214 155,-214 Q102,-214 75,-192.5 Q48,-171 48,-133 Q48,-108 60,-73 Q72,-38 107,0 L77,0 L77,491 L220,491 L220,0 M233,627 Q233,595 211.5,573 Q190,551 148,551 Q108,551 87,573 Q66,595 66,627 Q66,660 87.5,682 Q109,704 148,704 Q190,704 211.5,682 Q233,660 233,627"/> 
            <glyph glyph-name="İ" unicode="&#x130;" horiz-adv-x="236" d=" M81,0 L81,688 L227,688 L227,0 M236,833 Q236,801 214.5,779 Q193,757 152,757 Q112,757 92,779 Q72,801 72,833 Q72,867 92,888.5 Q112,910 152,910 Q193,910 214.5,888.5 Q236,867 236,833"/> 
            <glyph glyph-name="ı" unicode="&#x131;" horiz-adv-x="220" d=" M77,0 L77,491 L220,491 L220,0"/> 
            <glyph glyph-name="Ĳ" unicode="&#x132;" horiz-adv-x="566" d=" M81,0 L81,688 L227,688 L227,0 M419,689 L566,689 L565,151 Q565,8 492,-74.5 Q419,-157 276,-192 L241,-90 Q294,-62 328,-37 Q362,-12 382,16 Q402,44 410,77.5 Q418,111 418,156"/> 
            <glyph glyph-name="ĳ" unicode="&#x133;" horiz-adv-x="518" d=" M77,0 L77,491 L220,491 L220,0 M233,627 Q233,595 211.5,573 Q190,551 148,551 Q108,551 87,573 Q66,595 66,627 Q66,660 87.5,682 Q109,704 148,704 Q190,704 211.5,682 Q233,660 233,627 M361,491 L505,491 Q505,290 505,174.5 Q505,59 504,46 Q503,-13 490,-57 Q477,-101 450,-133.5 Q423,-166 380.5,-189 Q338,-212 277,-228 Q275,-224 269.5,-209.5 Q264,-195 258,-179 Q252,-163 246,-149 Q240,-135 238,-131 Q277,-109 301,-90.5 Q325,-72 338.5,-52 Q352,-32 356.5,-6.5 Q361,19 361,56 M518,627 Q518,595 496.5,573 Q475,551 434,551 Q393,551 372.5,573 Q352,595 352,627 Q352,660 373,682 Q394,704 434,704 Q475,704 496.5,682 Q518,660 518,627"/> 
            <glyph glyph-name="Ĵ" unicode="&#x134;" horiz-adv-x="400" d=" M127,690 L274,690 L273,152 Q273,9 200,-73.5 Q127,-156 -16,-191 L-51,-89 Q2,-61 36,-36 Q70,-11 90,17 Q110,45 118,78.5 Q126,112 126,157 M365,734 L200,825 L37,733 L3,774 L157,921 L245,921 L400,775"/> 
            <glyph glyph-name="ĵ" unicode="&#x135;" horiz-adv-x="382" d=" M107,490 L250,490 L250,39 Q250,-15 237.5,-57.5 Q225,-100 197.5,-132.5 Q170,-165 127,-188 Q84,-211 24,-226 Q13,-203 4,-178.5 Q-5,-154 -14,-130 Q24,-108 47.5,-90 Q71,-72 84.5,-52 Q98,-32 102.5,-6.5 Q107,19 107,55 M382,570 Q373,559 363.5,549.5 Q354,540 346,529 L181,624 L18,529 Q10,539 2,549 Q-6,559 -15,569 Q23,608 61,646.5 Q99,685 138,723 L226,723 Q264,685 303,646.5 Q342,608 382,570"/> 
            <glyph glyph-name="Ķ" unicode="&#x136;" horiz-adv-x="656" d=" M225,419 L267,467 L470,687 L641,687 L379,418 L656,0 L482,0 Q431,81 380.5,160 Q330,239 279,320 L218,258 L218,0 L72,0 L72,687 L218,687 L218,419 M258,-104 Q258,-78 277.5,-59.5 Q297,-41 329,-41 Q366,-41 384,-64.5 Q402,-88 402,-118 Q400,-165 368.5,-206.5 Q337,-248 292,-270 L261,-231 Q280,-215 291,-198.5 Q302,-182 304,-162 Q281,-157 269.5,-142 Q258,-127 258,-104"/> 
            <glyph glyph-name="ķ" unicode="&#x137;" horiz-adv-x="526" d=" M189,323 Q191,322 195,322 L353,491 L513,491 L328,299 L364,257 Q371,245 384,225 Q397,205 412.5,180 Q428,155 445,128.5 Q462,102 477.5,77 Q493,52 506,31.5 Q519,11 526,0 L368,0 Q335,54 302,107.5 Q269,161 237,216 L194,172 L194,0 L49,0 L49,714 L194,714 L193,465 Q193,433 192,394 Q191,355 189,323 M197,-104 Q197,-78 216.5,-59.5 Q236,-41 268,-41 Q305,-41 323,-64.5 Q341,-88 341,-118 Q339,-165 307.5,-206.5 Q276,-248 231,-270 L200,-231 Q219,-215 230,-198.5 Q241,-182 243,-162 Q220,-157 208.5,-142 Q197,-127 197,-104"/> 
            <glyph glyph-name="ĸ" unicode="&#x138;" horiz-adv-x="526" d=" M189,323 Q191,322 195,322 Q235,364 274.5,406 Q314,448 353,491 L513,491 L328,299 L364,257 L526,0 L368,0 Q335,54 302,107.5 Q269,161 237,216 L194,172 L194,0 L49,0 L49,490 L194,490 Q194,472 194,454 Q194,436 193,418 L189,323"/> 
            <glyph glyph-name="Ĺ" unicode="&#x139;" horiz-adv-x="569" d=" M72,0 L72,688 L220,688 L220,103 L569,103 L569,0 M154,733 L107,782 L254,951 L330,872"/> 
            <glyph glyph-name="ĺ" unicode="&#x13A;" horiz-adv-x="300" d=" M206,0 L64,0 L64,716 L207,716 M124,746 L77,795 L224,964 L300,885"/> 
            <glyph glyph-name="Ļ" unicode="&#x13B;" horiz-adv-x="569" d=" M72,0 L72,688 L220,688 L220,103 L569,103 L569,0 M247,-104 Q247,-78 266.5,-59.5 Q286,-41 318,-41 Q355,-41 373,-64.5 Q391,-88 391,-118 Q389,-165 357.5,-206.5 Q326,-248 281,-270 L250,-231 Q269,-215 280,-198.5 Q291,-182 293,-162 Q270,-157 258.5,-142 Q247,-127 247,-104"/> 
            <glyph glyph-name="ļ" unicode="&#x13C;" horiz-adv-x="212" d=" M206,0 L64,0 L64,716 L207,716 M68,-104 Q68,-78 87.5,-59.5 Q107,-41 139,-41 Q176,-41 194,-64.5 Q212,-88 212,-118 Q210,-165 178.5,-206.5 Q147,-248 102,-270 L71,-231 Q90,-215 101,-198.5 Q112,-182 114,-162 Q91,-157 79.5,-142 Q68,-127 68,-104"/> 
            <glyph glyph-name="Ľ" unicode="&#x13D;" horiz-adv-x="569" d=" M72,0 L72,688 L220,688 L220,103 L569,103 L569,0 M389,626 Q389,652 408.5,670.5 Q428,689 460,689 Q497,689 515,665.5 Q533,642 533,612 Q531,565 499.5,523.5 Q468,482 423,460 L392,499 Q411,515 422,531.5 Q433,548 435,568 Q412,573 400.5,588 Q389,603 389,626"/> 
            <glyph glyph-name="ľ" unicode="&#x13E;" horiz-adv-x="417" d=" M273,661 Q273,687 292.5,705.5 Q312,724 344,724 Q381,724 399,700.5 Q417,677 417,647 Q415,600 383.5,558.5 Q352,517 307,495 L276,534 Q295,550 306,566.5 Q317,583 319,603 Q296,608 284.5,623 Q273,638 273,661 M206,0 L64,0 L64,716 L207,716"/> 
            <glyph glyph-name="Ŀ" unicode="&#x13F;" horiz-adv-x="569" d=" M72,0 L72,688 L220,688 L220,103 L569,103 L569,0 M539,398 Q539,366 517.5,344 Q496,322 455,322 Q415,322 395,344 Q375,366 375,398 Q375,432 395,453.5 Q415,475 455,475 Q496,475 517.5,453.5 Q539,432 539,398"/> 
            <glyph glyph-name="ŀ" unicode="&#x140;" horiz-adv-x="430" d=" M430,374 Q430,342 408.5,320 Q387,298 346,298 Q306,298 286,320 Q266,342 266,374 Q266,408 286,429.5 Q306,451 346,451 Q387,451 408.5,429.5 Q430,408 430,374 M206,0 L64,0 L64,716 L207,716"/> 
            <glyph glyph-name="Ł" unicode="&#x141;" horiz-adv-x="569" d=" M72,0 L72,223 L9,186 L-26,249 L72,304 L72,688 L220,688 L220,390 L332,454 L365,394 L220,310 L220,103 L569,103 L569,0"/> 
            <glyph glyph-name="ł" unicode="&#x142;" horiz-adv-x="339" d=" M227,715 Q227,644 226.5,573 Q226,502 226,430 L306,476 L339,420 Q312,403 283.5,387 Q255,371 226,354 L226,0 L84,0 L84,272 Q66,261 47.5,250.5 Q29,240 12,229 L-20,288 L84,349 L84,715 L227,715"/> 
            <glyph glyph-name="Ń" unicode="&#x143;" horiz-adv-x="669" d=" M526,214 L526,687 L669,687 L669,0 L521,0 L288,370 Q271,399 253.5,427 Q236,455 219,484 Q217,484 216.5,483.5 Q216,483 214,483 L214,0 L72,0 L72,687 L221,687 Q275,603 327.5,521 Q380,439 433,354 L520,214 M368,718 L321,767 L468,936 L544,857"/> 
            <glyph glyph-name="ń" unicode="&#x144;" horiz-adv-x="518" d=" M375,0 L375,304 Q375,323 373,339 Q371,355 363.5,367 Q356,379 342,385.5 Q328,392 305,392 Q280,392 249,381 Q218,370 193,355 L193,0 L49,0 L49,491 L185,491 L187,446 L191,444 Q234,473 281.5,488 Q329,503 364,503 Q413,503 443,489.5 Q473,476 489.5,453 Q506,430 512,399 Q518,368 518,334 L518,0 M249,532 L199,584 L347,754 L423,672"/> 
            <glyph glyph-name="Ņ" unicode="&#x145;" horiz-adv-x="669" d=" M526,214 L526,687 L669,687 L669,0 L521,0 L288,370 Q271,399 253.5,427 Q236,455 219,484 Q217,484 216.5,483.5 Q216,483 214,483 L214,0 L72,0 L72,687 L221,687 Q275,603 327.5,521 Q380,439 433,354 L520,214 M295,-104 Q295,-78 314.5,-59.5 Q334,-41 366,-41 Q403,-41 421,-64.5 Q439,-88 439,-118 Q437,-165 405.5,-206.5 Q374,-248 329,-270 L298,-231 Q317,-215 328,-198.5 Q339,-182 341,-162 Q318,-157 306.5,-142 Q295,-127 295,-104"/> 
            <glyph glyph-name="ņ" unicode="&#x146;" horiz-adv-x="518" d=" M375,0 L375,304 Q375,323 373,339 Q371,355 363.5,367 Q356,379 342,385.5 Q328,392 305,392 Q280,392 249,381 Q218,370 193,355 L193,0 L49,0 L49,491 L185,491 L187,446 L191,444 Q234,473 281.5,488 Q329,503 364,503 Q413,503 443,489.5 Q473,476 489.5,453 Q506,430 512,399 Q518,368 518,334 L518,0 M221,-104 Q221,-78 240.5,-59.5 Q260,-41 292,-41 Q329,-41 347,-64.5 Q365,-88 365,-118 Q363,-165 331.5,-206.5 Q300,-248 255,-270 L224,-231 Q243,-215 254,-198.5 Q265,-182 267,-162 Q244,-157 232.5,-142 Q221,-127 221,-104"/> 
            <glyph glyph-name="Ň" unicode="&#x147;" horiz-adv-x="669" d=" M526,214 L526,687 L669,687 L669,0 L521,0 L288,370 Q271,399 253.5,427 Q236,455 219,484 Q217,484 216.5,483.5 Q216,483 214,483 L214,0 L72,0 L72,687 L221,687 Q275,603 327.5,521 Q380,439 433,354 L520,214 M583,875 L427,730 L340,730 L186,877 L220,916 L383,824 L548,917"/> 
            <glyph glyph-name="ň" unicode="&#x148;" horiz-adv-x="518" d=" M375,0 L375,304 Q375,323 373,339 Q371,355 363.5,367 Q356,379 342,385.5 Q328,392 305,392 Q280,392 249,381 Q218,370 193,355 L193,0 L49,0 L49,491 L185,491 L187,446 L191,444 Q234,473 281.5,488 Q329,503 364,503 Q413,503 443,489.5 Q473,476 489.5,453 Q506,430 512,399 Q518,368 518,334 L518,0 M479,697 L323,543 L236,543 L81,698 L114,738 L279,641 L443,738"/> 
            <glyph glyph-name="ŉ" unicode="&#x149;" horiz-adv-x="624" d=" M481,0 L481,304 Q481,323 479,339 Q477,355 469.5,367 Q462,379 448,385.5 Q434,392 411,392 Q386,392 355,381 Q324,370 299,355 L299,0 L155,0 L155,491 L291,491 L293,446 L297,444 Q340,473 387.5,488 Q435,503 470,503 Q519,503 549,489.5 Q579,476 595.5,453 Q612,430 618,399 Q624,368 624,334 L624,0 M19,648 Q19,674 38.5,692.5 Q58,711 90,711 Q127,711 145,687.5 Q163,664 163,634 Q161,587 129.5,545.5 Q98,504 53,482 L22,521 Q41,537 52,553.5 Q63,570 65,590 Q42,595 30.5,610 Q19,625 19,648"/> 
            <glyph glyph-name="Ŋ" unicode="&#x14A;" horiz-adv-x="669" d=" M526,214 L526,687 L669,687 L669,-20 Q668,-61 660,-96 Q652,-131 630.5,-157 Q609,-183 572,-198 Q535,-213 477,-213 Q455,-213 424.5,-209.5 Q394,-206 369,-200 L381,-100 Q399,-102 415.5,-103.5 Q432,-105 443,-105 Q460,-105 476,-102.5 Q492,-100 504,-92.5 Q516,-85 523,-72.5 Q530,-60 530,-40 L530,-8 Q473,77 413.5,171 Q354,265 297,354 Q292,361 281,379.5 Q270,398 258,419 Q246,440 234.5,458.5 Q223,477 219,484 Q217,484 216.5,483.5 Q216,483 214,483 L214,0 L72,0 L72,687 L221,687 Q275,603 327.5,521 Q380,439 433,354 L520,214"/> 
            <glyph glyph-name="ŋ" unicode="&#x14B;" horiz-adv-x="517" d=" M363,503 Q411,503 441.5,489.5 Q472,476 488.5,453 Q505,430 511,399 Q517,368 517,334 L517,37 Q517,23 517,9.5 Q517,-4 516,-17 Q515,-47 506.5,-76.5 Q498,-106 476.5,-129.5 Q455,-153 418,-168 Q381,-183 324,-183 Q303,-183 272,-179.5 Q241,-176 219,-171 Q221,-147 224.5,-123.5 Q228,-100 230,-76 Q245,-78 263.5,-79 Q282,-80 294,-80 Q334,-80 354,-63.5 Q374,-47 374,-5 L374,304 Q374,322 371.5,338 Q369,354 361.5,366 Q354,378 340,385 Q326,392 304,392 Q279,392 248.5,381 Q218,370 193,355 L193,0 L49,0 L49,491 L185,491 Q185,480 185.5,469 Q186,458 187,447 L191,445 Q234,474 281,488.5 Q328,503 363,503"/> 
            <glyph glyph-name="Ō" unicode="&#x14C;" horiz-adv-x="694" d=" M694,344 Q694,268 674,203.5 Q654,139 614,91.5 Q574,44 514.5,17 Q455,-10 376,-10 Q292,-10 231,15.5 Q170,41 130.5,87.5 Q91,134 72,198.5 Q53,263 53,342 Q53,416 71.5,481 Q90,546 129,595 Q168,644 229,672 Q290,700 376,700 Q462,700 522.5,671.5 Q583,643 621,594.5 Q659,546 676.5,481.5 Q694,417 694,344 M537,342 Q537,389 530.5,434.5 Q524,480 506.5,515.5 Q489,551 457.5,573 Q426,595 376,595 Q325,595 292.5,573.5 Q260,552 241,517 Q222,482 215,436 Q208,390 208,341 Q208,224 245.5,160.5 Q283,97 376,97 Q419,97 450,115.5 Q481,134 500,167 Q519,200 528,244.5 Q537,289 537,342 M196,839 L550,839 L550,748 L196,748"/> 
            <glyph glyph-name="ō" unicode="&#x14D;" horiz-adv-x="537" d=" M537,246 Q537,195 524,148.5 Q511,102 481,66.5 Q451,31 403,10.5 Q355,-10 285,-10 Q217,-10 170,10 Q123,30 94,64.5 Q65,99 52.5,145.5 Q40,192 40,245 Q40,297 54,343.5 Q68,390 98,425 Q128,460 175.5,481 Q223,502 291,502 Q360,502 407,481.5 Q454,461 483,425.5 Q512,390 524.5,343.5 Q537,297 537,246 M389,245 Q389,274 385,302 Q381,330 370.5,352 Q360,374 341,387.5 Q322,401 291,401 Q260,401 240,387.5 Q220,374 208,352 Q196,330 191.5,302 Q187,274 187,245 Q187,212 191,184 Q195,156 206.5,135.5 Q218,115 238,103 Q258,91 291,91 Q321,91 340.5,103.5 Q360,116 370.5,137.5 Q381,159 385,187 Q389,215 389,245 M107,674 L470,674 L470,583 L107,583"/> 
            <glyph glyph-name="Ŏ" unicode="&#x14E;" horiz-adv-x="694" d=" M694,344 Q694,268 674,203.5 Q654,139 614,91.5 Q574,44 514.5,17 Q455,-10 376,-10 Q292,-10 231,15.5 Q170,41 130.5,87.5 Q91,134 72,198.5 Q53,263 53,342 Q53,416 71.5,481 Q90,546 129,595 Q168,644 229,672 Q290,700 376,700 Q462,700 522.5,671.5 Q583,643 621,594.5 Q659,546 676.5,481.5 Q694,417 694,344 M537,342 Q537,389 530.5,434.5 Q524,480 506.5,515.5 Q489,551 457.5,573 Q426,595 376,595 Q325,595 292.5,573.5 Q260,552 241,517 Q222,482 215,436 Q208,390 208,341 Q208,224 245.5,160.5 Q283,97 376,97 Q419,97 450,115.5 Q481,134 500,167 Q519,200 528,244.5 Q537,289 537,342 M369,737 Q339,737 313,747.5 Q287,758 264.5,775.5 Q242,793 222,816.5 Q202,840 185,866 L243,910 Q274,868 309.5,846.5 Q345,825 373,825 Q382,825 395.5,826.5 Q409,828 428,836 Q447,844 470.5,859.5 Q494,875 524,904 L562,866 Q515,793 464.5,765 Q414,737 369,737"/> 
            <glyph glyph-name="ŏ" unicode="&#x14F;" horiz-adv-x="537" d=" M537,246 Q537,195 524,148.5 Q511,102 481,66.5 Q451,31 403,10.5 Q355,-10 285,-10 Q217,-10 170,10 Q123,30 94,64.5 Q65,99 52.5,145.5 Q40,192 40,245 Q40,297 54,343.5 Q68,390 98,425 Q128,460 175.5,481 Q223,502 291,502 Q360,502 407,481.5 Q454,461 483,425.5 Q512,390 524.5,343.5 Q537,297 537,246 M389,245 Q389,274 385,302 Q381,330 370.5,352 Q360,374 341,387.5 Q322,401 291,401 Q260,401 240,387.5 Q220,374 208,352 Q196,330 191.5,302 Q187,274 187,245 Q187,212 191,184 Q195,156 206.5,135.5 Q218,115 238,103 Q258,91 291,91 Q321,91 340.5,103.5 Q360,116 370.5,137.5 Q381,159 385,187 Q389,215 389,245 M286,547 Q256,547 229.5,558 Q203,569 180,587.5 Q157,606 137,629.5 Q117,653 100,679 L160,724 Q192,681 227,660 Q262,639 289,639 Q298,639 311.5,640 Q325,641 343,648.5 Q361,656 385,671.5 Q409,687 441,717 L484,678 Q460,641 434.5,616 Q409,591 383.5,575.5 Q358,560 333,553.5 Q308,547 286,547"/> 
            <glyph glyph-name="Ő" unicode="&#x150;" horiz-adv-x="694" d=" M694,344 Q694,268 674,203.5 Q654,139 614,91.5 Q574,44 514.5,17 Q455,-10 376,-10 Q292,-10 231,15.5 Q170,41 130.5,87.5 Q91,134 72,198.5 Q53,263 53,342 Q53,416 71.5,481 Q90,546 129,595 Q168,644 229,672 Q290,700 376,700 Q462,700 522.5,671.5 Q583,643 621,594.5 Q659,546 676.5,481.5 Q694,417 694,344 M537,342 Q537,389 530.5,434.5 Q524,480 506.5,515.5 Q489,551 457.5,573 Q426,595 376,595 Q325,595 292.5,573.5 Q260,552 241,517 Q222,482 215,436 Q208,390 208,341 Q208,224 245.5,160.5 Q283,97 376,97 Q419,97 450,115.5 Q481,134 500,167 Q519,200 528,244.5 Q537,289 537,342 M303,735 L248,777 L378,962 L464,894 M459,735 L405,777 L534,962 L620,894"/> 
            <glyph glyph-name="ő" unicode="&#x151;" horiz-adv-x="537" d=" M537,246 Q537,195 524,148.5 Q511,102 481,66.5 Q451,31 403,10.5 Q355,-10 285,-10 Q217,-10 170,10 Q123,30 94,64.5 Q65,99 52.5,145.5 Q40,192 40,245 Q40,297 54,343.5 Q68,390 98,425 Q128,460 175.5,481 Q223,502 291,502 Q360,502 407,481.5 Q454,461 483,425.5 Q512,390 524.5,343.5 Q537,297 537,246 M389,245 Q389,274 385,302 Q381,330 370.5,352 Q360,374 341,387.5 Q322,401 291,401 Q260,401 240,387.5 Q220,374 208,352 Q196,330 191.5,302 Q187,274 187,245 Q187,212 191,184 Q195,156 206.5,135.5 Q218,115 238,103 Q258,91 291,91 Q321,91 340.5,103.5 Q360,116 370.5,137.5 Q381,159 385,187 Q389,215 389,245 M190,530 L138,573 L268,758 L351,691 M348,530 L297,573 L426,758 L510,691"/> 
            <glyph glyph-name="Ŕ" unicode="&#x154;" horiz-adv-x="606" d=" M576,490 Q576,462 569,434.5 Q562,407 547.5,383.5 Q533,360 511,341.5 Q489,323 459,313 L459,312 Q502,298 521,265 Q540,232 551,192 L606,0 L459,0 Q446,45 433,89.5 Q420,134 407,180 Q391,237 362.5,257 Q334,277 292,277 L218,277 L218,0 L72,0 L72,687 L351,687 Q410,687 452.5,671.5 Q495,656 522.5,629 Q550,602 563,566 Q576,530 576,490 M323,378 Q341,378 359,383 Q377,388 392,400 Q407,412 416.5,432 Q426,452 426,482 Q426,534 397,558.5 Q368,583 322,583 L218,583 L218,378 M287,729 L240,778 L387,947 L463,868"/> 
            <glyph glyph-name="ŕ" unicode="&#x155;" horiz-adv-x="416" d=" M201,404 Q221,424 245,442 Q269,460 294,474 Q319,488 343,496 Q367,504 388,504 Q416,504 416,471 Q416,457 412,437.5 Q408,418 401.5,397.5 Q395,377 387,359 Q379,341 371,330 L204,332 L204,0 L61,0 L61,491 L202,491 Q202,474 200,449 Q198,424 196,407 M160,532 L110,584 L258,754 L334,672"/> 
            <glyph glyph-name="Ŗ" unicode="&#x156;" horiz-adv-x="606" d=" M576,490 Q576,462 569,434.5 Q562,407 547.5,383.5 Q533,360 511,341.5 Q489,323 459,313 L459,312 Q502,298 521,265 Q540,232 551,192 L606,0 L459,0 Q446,45 433,89.5 Q420,134 407,180 Q391,237 362.5,257 Q334,277 292,277 L218,277 L218,0 L72,0 L72,687 L351,687 Q410,687 452.5,671.5 Q495,656 522.5,629 Q550,602 563,566 Q576,530 576,490 M323,378 Q341,378 359,383 Q377,388 392,400 Q407,412 416.5,432 Q426,452 426,482 Q426,534 397,558.5 Q368,583 322,583 L218,583 L218,378 M255,-104 Q255,-78 274.5,-59.5 Q294,-41 326,-41 Q363,-41 381,-64.5 Q399,-88 399,-118 Q397,-165 365.5,-206.5 Q334,-248 289,-270 L258,-231 Q277,-215 288,-198.5 Q299,-182 301,-162 Q278,-157 266.5,-142 Q255,-127 255,-104"/> 
            <glyph glyph-name="ŗ" unicode="&#x157;" horiz-adv-x="416" d=" M201,404 Q221,424 245,442 Q269,460 294,474 Q319,488 343,496 Q367,504 388,504 Q416,504 416,471 Q416,457 412,437.5 Q408,418 401.5,397.5 Q395,377 387,359 Q379,341 371,330 L204,332 L204,0 L61,0 L61,491 L202,491 Q202,474 200,449 Q198,424 196,407 M67,-104 Q67,-78 86.5,-59.5 Q106,-41 138,-41 Q175,-41 193,-64.5 Q211,-88 211,-118 Q209,-165 177.5,-206.5 Q146,-248 101,-270 L70,-231 Q89,-215 100,-198.5 Q111,-182 113,-162 Q90,-157 78.5,-142 Q67,-127 67,-104"/> 
            <glyph glyph-name="Ř" unicode="&#x158;" horiz-adv-x="606" d=" M576,490 Q576,462 569,434.5 Q562,407 547.5,383.5 Q533,360 511,341.5 Q489,323 459,313 L459,312 Q502,298 521,265 Q540,232 551,192 L606,0 L459,0 Q446,45 433,89.5 Q420,134 407,180 Q391,237 362.5,257 Q334,277 292,277 L218,277 L218,0 L72,0 L72,687 L351,687 Q410,687 452.5,671.5 Q495,656 522.5,629 Q550,602 563,566 Q576,530 576,490 M323,378 Q341,378 359,383 Q377,388 392,400 Q407,412 416.5,432 Q426,452 426,482 Q426,534 397,558.5 Q368,583 322,583 L218,583 L218,378 M500,876 L344,731 L257,731 L103,878 L137,917 L300,825 L465,918"/> 
            <glyph glyph-name="ř" unicode="&#x159;" horiz-adv-x="416" d=" M201,404 Q221,424 245,442 Q269,460 294,474 Q319,488 343,496 Q367,504 388,504 Q416,504 416,471 Q416,457 412,437.5 Q408,418 401.5,397.5 Q395,377 387,359 Q379,341 371,330 L204,332 L204,0 L61,0 L61,491 L202,491 Q202,474 200,449 Q198,424 196,407 M392,697 L236,543 L149,543 L-6,698 L27,738 L192,641 L356,738"/> 
            <glyph glyph-name="Ś" unicode="&#x15A;" horiz-adv-x="581" d=" M320,701 Q371,701 429,690.5 Q487,680 538,652 L500,552 Q449,573 400.5,579.5 Q352,586 315,586 Q268,586 241,564 Q214,542 214,498 Q214,478 225.5,464.5 Q237,451 256,441 Q275,431 299.5,424 Q324,417 351,411 Q386,402 426.5,390 Q467,378 501.5,355 Q536,332 558.5,294 Q581,256 581,195 Q581,97 509,43.5 Q437,-10 292,-10 Q266,-10 234.5,-7 Q203,-4 170,2.5 Q137,9 104,19.5 Q71,30 41,45 L79,149 Q152,120 210,112 Q268,104 303,104 Q364,104 395,124.5 Q426,145 426,195 Q426,217 418,231.5 Q410,246 395,256.5 Q380,267 359,274 Q338,281 313,288 Q262,301 216,314.5 Q170,328 135,350 Q100,372 79.5,405.5 Q59,439 59,492 Q59,586 124.5,643.5 Q190,701 320,701 M295,731 L248,780 L395,949 L471,870"/> 
            <glyph glyph-name="ś" unicode="&#x15B;" horiz-adv-x="460" d=" M258,503 Q297,503 344.5,494.5 Q392,486 431,465 Q429,461 424.5,448.5 Q420,436 415.5,421.5 Q411,407 406.5,394 Q402,381 400,377 Q360,392 326,397.5 Q292,403 263,403 Q236,403 213.5,394.5 Q191,386 191,358 Q191,348 199.5,340.5 Q208,333 220.5,327 Q233,321 248.5,317 Q264,313 278,309 Q309,300 341,288.5 Q373,277 399.5,258 Q426,239 443,210.5 Q460,182 460,139 Q460,68 403,30 Q346,-8 231,-8 Q210,-8 184.5,-6 Q159,-4 132,1 Q105,6 79,13.5 Q53,21 31,32 L62,121 Q123,99 167,93.5 Q211,88 236,88 Q271,88 295,99.5 Q319,111 319,142 Q319,157 311,166.5 Q303,176 289.5,183 Q276,190 259.5,195 Q243,200 227,205 Q193,215 161,226.5 Q129,238 104.5,254 Q80,270 65,294 Q50,318 50,354 Q50,425 103,464 Q156,503 258,503 M224,532 L174,584 L322,754 L398,672"/> 
            <glyph glyph-name="Ŝ" unicode="&#x15C;" horiz-adv-x="581" d=" M320,701 Q371,701 429,690.5 Q487,680 538,652 L500,552 Q449,573 400.5,579.5 Q352,586 315,586 Q268,586 241,564 Q214,542 214,498 Q214,478 225.5,464.5 Q237,451 256,441 Q275,431 299.5,424 Q324,417 351,411 Q386,402 426.5,390 Q467,378 501.5,355 Q536,332 558.5,294 Q581,256 581,195 Q581,97 509,43.5 Q437,-10 292,-10 Q266,-10 234.5,-7 Q203,-4 170,2.5 Q137,9 104,19.5 Q71,30 41,45 L79,149 Q152,120 210,112 Q268,104 303,104 Q364,104 395,124.5 Q426,145 426,195 Q426,217 418,231.5 Q410,246 395,256.5 Q380,267 359,274 Q338,281 313,288 Q262,301 216,314.5 Q170,328 135,350 Q100,372 79.5,405.5 Q59,439 59,492 Q59,586 124.5,643.5 Q190,701 320,701 M489,732 L324,823 L161,731 L127,772 L281,919 L369,919 L524,773"/> 
            <glyph glyph-name="ŝ" unicode="&#x15D;" horiz-adv-x="460" d=" M258,503 Q297,503 344.5,494.5 Q392,486 431,465 Q429,461 424.5,448.5 Q420,436 415.5,421.5 Q411,407 406.5,394 Q402,381 400,377 Q360,392 326,397.5 Q292,403 263,403 Q236,403 213.5,394.5 Q191,386 191,358 Q191,348 199.5,340.5 Q208,333 220.5,327 Q233,321 248.5,317 Q264,313 278,309 Q309,300 341,288.5 Q373,277 399.5,258 Q426,239 443,210.5 Q460,182 460,139 Q460,68 403,30 Q346,-8 231,-8 Q210,-8 184.5,-6 Q159,-4 132,1 Q105,6 79,13.5 Q53,21 31,32 L62,121 Q123,99 167,93.5 Q211,88 236,88 Q271,88 295,99.5 Q319,111 319,142 Q319,157 311,166.5 Q303,176 289.5,183 Q276,190 259.5,195 Q243,200 227,205 Q193,215 161,226.5 Q129,238 104.5,254 Q80,270 65,294 Q50,318 50,354 Q50,425 103,464 Q156,503 258,503 M414,530 L249,625 L85,529 L52,570 L206,724 L294,724 L450,572"/> 
            </font>
</defs>
</svg>
